solid STL generated by MeshLab
  facet normal -4.294978e-01  3.811883e-01  8.186740e-01
    outer loop
      vertex   1.030505e+02  5.761244e+01  6.823068e+01
      vertex   9.125285e+01  7.015697e+01  5.620036e+01
      vertex   9.088675e+01  6.977623e+01  5.618558e+01
    endloop
  endfacet
  facet normal  8.091656e-01  4.937637e-01 -3.185096e-01
    outer loop
      vertex   9.489249e+01  7.263125e+01  5.502352e+01
      vertex   9.482492e+01  7.307520e+01  5.554008e+01
      vertex   1.069887e+02  6.091142e+01  6.758519e+01
    endloop
  endfacet
  facet normal  7.997692e-01  5.399144e-01 -2.624152e-01
    outer loop
      vertex   9.482492e+01  7.307520e+01  5.554008e+01
      vertex   9.470165e+01  7.355264e+01  5.614670e+01
      vertex   1.069887e+02  6.091142e+01  6.758519e+01
    endloop
  endfacet
  facet normal -4.294946e-01  3.811917e-01  8.186741e-01
    outer loop
      vertex   1.034166e+02  5.799319e+01  6.824547e+01
      vertex   9.125285e+01  7.015697e+01  5.620036e+01
      vertex   1.030505e+02  5.761244e+01  6.823068e+01
    endloop
  endfacet
  facet normal -5.792298e-01  5.792245e-01 -5.735781e-01
    outer loop
      vertex   8.619349e+01  7.152768e+01  6.269379e+01
      vertex   8.817286e+01  7.084557e+01  6.000608e+01
      vertex   8.591266e+01  7.095439e+01  6.239845e+01
    endloop
  endfacet
  facet normal -5.792259e-01  5.792317e-01 -5.735747e-01
    outer loop
      vertex   8.591266e+01  7.095439e+01  6.239845e+01
      vertex   8.817286e+01  7.084557e+01  6.000608e+01
      vertex   8.567086e+01  7.036977e+01  6.205225e+01
    endloop
  endfacet
  facet normal -5.792268e-01  5.792292e-01 -5.735764e-01
    outer loop
      vertex   8.567086e+01  7.036977e+01  6.205225e+01
      vertex   8.817286e+01  7.084557e+01  6.000608e+01
      vertex   8.547108e+01  6.977837e+01  6.165676e+01
    endloop
  endfacet
  facet normal -5.792282e-01  5.792259e-01 -5.735783e-01
    outer loop
      vertex   8.531601e+01  6.918738e+01  6.121655e+01
      vertex   8.547108e+01  6.977837e+01  6.165676e+01
      vertex   8.793249e+01  7.021375e+01  5.961078e+01
    endloop
  endfacet
  facet normal -5.792295e-01  5.792260e-01 -5.735770e-01
    outer loop
      vertex   8.651222e+01  7.208404e+01  6.293375e+01
      vertex   8.858476e+01  7.147484e+01  6.022559e+01
      vertex   8.619349e+01  7.152768e+01  6.269379e+01
    endloop
  endfacet
  facet normal  8.122620e-01  4.694508e-01 -3.461884e-01
    outer loop
      vertex   1.070593e+02  6.046920e+01  6.706735e+01
      vertex   1.103895e+02  2.818533e+01  3.110234e+01
      vertex   9.489550e+01  7.263299e+01  5.502224e+01
    endloop
  endfacet
  facet normal -6.958999e-02  6.659272e-01  7.427639e-01
    outer loop
      vertex   9.489249e+01  7.263125e+01  5.502352e+01
      vertex   1.070563e+02  6.046746e+01  6.706863e+01
      vertex   9.489550e+01  7.263299e+01  5.502224e+01
    endloop
  endfacet
  facet normal -7.021211e-02  6.655670e-01  7.430282e-01
    outer loop
      vertex   1.070593e+02  6.046920e+01  6.706735e+01
      vertex   9.489550e+01  7.263299e+01  5.502224e+01
      vertex   1.070563e+02  6.046746e+01  6.706863e+01
    endloop
  endfacet
  facet normal  8.091667e-01  4.937577e-01 -3.185163e-01
    outer loop
      vertex   1.069887e+02  6.091142e+01  6.758519e+01
      vertex   1.070563e+02  6.046746e+01  6.706863e+01
      vertex   9.489249e+01  7.263125e+01  5.502352e+01
    endloop
  endfacet
  facet normal  6.761107e-01  7.344417e-01  5.890530e-02
    outer loop
      vertex   9.344720e+01  7.530902e+01  5.918721e+01
      vertex   1.056110e+02  6.314523e+01  7.123232e+01
      vertex   1.059394e+02  6.289017e+01  7.064309e+01
    endloop
  endfacet
  facet normal  6.334819e-01  7.626784e-01  1.304696e-01
    outer loop
      vertex   1.052501e+02  6.334765e+01  7.180114e+01
      vertex   1.056110e+02  6.314523e+01  7.123232e+01
      vertex   9.344720e+01  7.530902e+01  5.918721e+01
    endloop
  endfacet
  facet normal  1.912294e-01  7.805488e-01  5.951260e-01
    outer loop
      vertex   9.044060e+01  7.552808e+01  6.244464e+01
      vertex   1.026044e+02  6.336429e+01  7.448975e+01
      vertex   1.030812e+02  6.350572e+01  7.415102e+01
    endloop
  endfacet
  facet normal -8.109859e-01 -3.383022e-01  4.773399e-01
    outer loop
      vertex   8.514133e+01  6.802720e+01  6.022134e+01
      vertex   9.730511e+01  5.586341e+01  7.226645e+01
      vertex   9.736896e+01  5.643769e+01  7.278192e+01
    endloop
  endfacet
  facet normal -8.109857e-01 -3.383032e-01  4.773398e-01
    outer loop
      vertex   8.520517e+01  6.860147e+01  6.073681e+01
      vertex   8.514133e+01  6.802720e+01  6.022134e+01
      vertex   9.736896e+01  5.643769e+01  7.278192e+01
    endloop
  endfacet
  facet normal  5.792274e-01 -5.792298e-01  5.735753e-01
    outer loop
      vertex   9.730511e+01  5.586341e+01  7.226645e+01
      vertex   9.728867e+01  5.530524e+01  7.171938e+01
      vertex   1.000503e+02  5.747755e+01  7.112425e+01
    endloop
  endfacet
  facet normal  5.792276e-01 -5.792313e-01  5.735735e-01
    outer loop
      vertex   9.736896e+01  5.643769e+01  7.278192e+01
      vertex   9.730511e+01  5.586341e+01  7.226645e+01
      vertex   1.000503e+02  5.747755e+01  7.112425e+01
    endloop
  endfacet
  facet normal  5.792266e-01 -5.792280e-01  5.735778e-01
    outer loop
      vertex   1.001313e+02  5.723400e+01  7.079652e+01
      vertex   1.000503e+02  5.747755e+01  7.112425e+01
      vertex   9.728867e+01  5.530524e+01  7.171938e+01
    endloop
  endfacet
  facet normal  5.792270e-01 -5.792294e-01  5.735760e-01
    outer loop
      vertex   1.001285e+02  5.639292e+01  6.994995e+01
      vertex   1.001313e+02  5.723400e+01  7.079652e+01
      vertex   9.728867e+01  5.530524e+01  7.171938e+01
    endloop
  endfacet
  facet normal  5.792283e-01 -5.792263e-01  5.735778e-01
    outer loop
      vertex   1.000503e+02  5.747755e+01  7.112425e+01
      vertex   1.000963e+02  5.804997e+01  7.165589e+01
      vertex   9.736896e+01  5.643769e+01  7.278192e+01
    endloop
  endfacet
  facet normal  5.792285e-01 -5.792270e-01  5.735769e-01
    outer loop
      vertex   1.003366e+02  5.868178e+01  7.205119e+01
      vertex   1.007486e+02  5.931105e+01  7.227069e+01
      vertex   9.835728e+01  5.936390e+01  7.473889e+01
    endloop
  endfacet
  facet normal  5.792248e-01 -5.792322e-01  5.735755e-01
    outer loop
      vertex   9.835728e+01  5.936390e+01  7.473889e+01
      vertex   9.807644e+01  5.879061e+01  7.444356e+01
      vertex   1.003366e+02  5.868178e+01  7.205119e+01
    endloop
  endfacet
  facet normal  5.792283e-01 -5.792289e-01  5.735751e-01
    outer loop
      vertex   9.783465e+01  5.820599e+01  7.409736e+01
      vertex   9.763486e+01  5.761458e+01  7.370187e+01
      vertex   1.003366e+02  5.868178e+01  7.205119e+01
    endloop
  endfacet
  facet normal  5.792317e-01 -5.792193e-01  5.735815e-01
    outer loop
      vertex   9.783465e+01  5.820599e+01  7.409736e+01
      vertex   1.003366e+02  5.868178e+01  7.205119e+01
      vertex   9.807644e+01  5.879061e+01  7.444356e+01
    endloop
  endfacet
  facet normal  5.792288e-01 -5.792255e-01  5.735781e-01
    outer loop
      vertex   1.000963e+02  5.804997e+01  7.165589e+01
      vertex   1.003366e+02  5.868178e+01  7.205119e+01
      vertex   9.763486e+01  5.761458e+01  7.370187e+01
    endloop
  endfacet
  facet normal  5.792279e-01 -5.792281e-01  5.735765e-01
    outer loop
      vertex   9.747980e+01  5.702359e+01  7.326166e+01
      vertex   1.000963e+02  5.804997e+01  7.165589e+01
      vertex   9.763486e+01  5.761458e+01  7.370187e+01
    endloop
  endfacet
  facet normal  5.792282e-01 -5.792257e-01  5.735784e-01
    outer loop
      vertex   9.736896e+01  5.643769e+01  7.278192e+01
      vertex   1.000963e+02  5.804997e+01  7.165589e+01
      vertex   9.747980e+01  5.702359e+01  7.326166e+01
    endloop
  endfacet
  facet normal  5.792274e-01 -5.792262e-01  5.735788e-01
    outer loop
      vertex   9.731902e+01  5.476915e+01  7.114737e+01
      vertex   1.001285e+02  5.639292e+01  6.994995e+01
      vertex   9.728867e+01  5.530524e+01  7.171938e+01
    endloop
  endfacet
  facet normal  5.792278e-01 -5.792280e-01  5.735766e-01
    outer loop
      vertex   1.067101e+02  2.213546e+01  2.870848e+01
      vertex   1.103895e+02  2.818533e+01  3.110234e+01
      vertex   1.030505e+02  5.761244e+01  6.823068e+01
    endloop
  endfacet
  facet normal  5.792286e-01 -5.792277e-01  5.735760e-01
    outer loop
      vertex   1.040689e+02  5.925428e+01  6.886028e+01
      vertex   1.038286e+02  5.862247e+01  6.846498e+01
      vertex   1.070563e+02  6.046746e+01  6.706863e+01
    endloop
  endfacet
  facet normal -6.229661e-01  1.392735e-01  7.697507e-01
    outer loop
      vertex   1.034166e+02  5.799319e+01  6.824547e+01
      vertex   9.166476e+01  7.078625e+01  5.641987e+01
      vertex   9.125285e+01  7.015697e+01  5.620036e+01
    endloop
  endfacet
  facet normal  8.974947e-02  7.446691e-01  6.613721e-01
    outer loop
      vertex   9.044060e+01  7.552808e+01  6.244464e+01
      vertex   1.021229e+02  6.316723e+01  7.477695e+01
      vertex   1.026044e+02  6.336429e+01  7.448975e+01
    endloop
  endfacet
  facet normal -7.551644e-01 -1.163272e-01  6.451315e-01
    outer loop
      vertex   1.038286e+02  5.862247e+01  6.846498e+01
      vertex   1.040689e+02  5.925428e+01  6.886028e+01
      vertex   9.166476e+01  7.078625e+01  5.641987e+01
    endloop
  endfacet
  facet normal  7.551684e-01  1.163372e-01 -6.451250e-01
    outer loop
      vertex   8.793249e+01  7.021375e+01  5.961078e+01
      vertex   1.003366e+02  5.868178e+01  7.205119e+01
      vertex   1.000963e+02  5.804997e+01  7.165589e+01
    endloop
  endfacet
  facet normal -2.246413e-01  5.629645e-01  7.953662e-01
    outer loop
      vertex   1.011677e+02  6.261516e+01  7.518407e+01
      vertex   8.853828e+01  7.442862e+01  6.325542e+01
      vertex   1.007021e+02  6.226483e+01  7.530052e+01
    endloop
  endfacet
  facet normal -3.216832e-01  4.841083e-01  8.137316e-01
    outer loop
      vertex   8.853828e+01  7.442862e+01  6.325542e+01
      vertex   1.002513e+02  6.187016e+01  7.535714e+01
      vertex   1.007021e+02  6.226483e+01  7.530052e+01
    endloop
  endfacet
  facet normal  8.130478e-01  3.598233e-01 -4.576901e-01
    outer loop
      vertex   8.793249e+01  7.021375e+01  5.961078e+01
      vertex   1.000963e+02  5.804997e+01  7.165589e+01
      vertex   8.788654e+01  6.964134e+01  5.907914e+01
    endloop
  endfacet
  facet normal  7.916139e-01  5.676030e-01 -2.262175e-01
    outer loop
      vertex   1.000503e+02  5.747755e+01  7.112425e+01
      vertex   1.001313e+02  5.723400e+01  7.079652e+01
      vertex   8.788654e+01  6.964134e+01  5.907914e+01
    endloop
  endfacet
  facet normal -6.229699e-01  1.392686e-01  7.697485e-01
    outer loop
      vertex   1.038286e+02  5.862247e+01  6.846498e+01
      vertex   9.166476e+01  7.078625e+01  5.641987e+01
      vertex   1.034166e+02  5.799319e+01  6.824547e+01
    endloop
  endfacet
  facet normal  7.916164e-01  5.675942e-01 -2.262302e-01
    outer loop
      vertex   1.001313e+02  5.723400e+01  7.079652e+01
      vertex   8.796751e+01  6.939779e+01  5.875142e+01
      vertex   8.788654e+01  6.964134e+01  5.907914e+01
    endloop
  endfacet
  facet normal -5.792273e-01  5.792284e-01 -5.735766e-01
    outer loop
      vertex   9.125285e+01  7.015697e+01  5.620036e+01
      vertex   9.822572e+01  4.034911e+01  1.905723e+01
      vertex   9.088675e+01  6.977623e+01  5.618558e+01
    endloop
  endfacet
  facet normal -5.792322e-01  5.792252e-01 -5.735750e-01
    outer loop
      vertex   9.166476e+01  7.078625e+01  5.641987e+01
      vertex   9.822572e+01  4.034911e+01  1.905723e+01
      vertex   9.125285e+01  7.015697e+01  5.620036e+01
    endloop
  endfacet
  facet normal  8.130475e-01  3.598144e-01 -4.576980e-01
    outer loop
      vertex   1.000963e+02  5.804997e+01  7.165589e+01
      vertex   1.000503e+02  5.747755e+01  7.112425e+01
      vertex   8.788654e+01  6.964134e+01  5.907914e+01
    endloop
  endfacet
  facet normal  8.151623e-01  4.095748e-01 -4.095839e-01
    outer loop
      vertex   1.001285e+02  5.639292e+01  6.994995e+01
      vertex   8.796474e+01  6.855670e+01  5.790484e+01
      vertex   1.001313e+02  5.723400e+01  7.079652e+01
    endloop
  endfacet
  facet normal -5.788626e-01  5.794585e-01 -5.737124e-01
    outer loop
      vertex   9.822572e+01  4.034911e+01  1.905723e+01
      vertex   9.489249e+01  7.263125e+01  5.502352e+01
      vertex   9.489550e+01  7.263299e+01  5.502224e+01
    endloop
  endfacet
  facet normal -8.148941e-01 -3.932893e-01  4.257596e-01
    outer loop
      vertex   8.514133e+01  6.802720e+01  6.022134e+01
      vertex   9.728867e+01  5.530524e+01  7.171938e+01
      vertex   9.730511e+01  5.586341e+01  7.226645e+01
    endloop
  endfacet
  facet normal  5.786170e-01 -5.795807e-01  5.738366e-01
    outer loop
      vertex   1.070593e+02  6.046920e+01  6.706735e+01
      vertex   1.070563e+02  6.046746e+01  6.706863e+01
      vertex   1.103895e+02  2.818533e+01  3.110234e+01
    endloop
  endfacet
  facet normal -5.792286e-01  5.792258e-01 -5.735779e-01
    outer loop
      vertex   9.190514e+01  7.141806e+01  5.681517e+01
      vertex   9.195190e+01  7.199094e+01  5.734647e+01
      vertex   9.482492e+01  7.307520e+01  5.554008e+01
    endloop
  endfacet
  facet normal -5.792282e-01  5.792286e-01 -5.735755e-01
    outer loop
      vertex   9.470165e+01  7.355264e+01  5.614670e+01
      vertex   9.482492e+01  7.307520e+01  5.554008e+01
      vertex   9.195190e+01  7.199094e+01  5.734647e+01
    endloop
  endfacet
  facet normal -4.918641e-01  3.127648e-01  8.125564e-01
    outer loop
      vertex   8.724673e+01  7.312360e+01  6.324181e+01
      vertex   9.941052e+01  6.095982e+01  7.528692e+01
      vertex   9.981955e+01  6.143348e+01  7.535220e+01
    endloop
  endfacet
  facet normal -5.792265e-01  5.792285e-01 -5.735775e-01
    outer loop
      vertex   9.227879e+01  7.574732e+01  6.080975e+01
      vertex   9.269516e+01  7.565749e+01  6.029856e+01
      vertex   9.097444e+01  7.285596e+01  5.920710e+01
    endloop
  endfacet
  facet normal  5.792233e-01 -5.792309e-01  5.735781e-01
    outer loop
      vertex   1.038286e+02  5.862247e+01  6.846498e+01
      vertex   1.034166e+02  5.799319e+01  6.824547e+01
      vertex   1.103895e+02  2.818533e+01  3.110234e+01
    endloop
  endfacet
  facet normal  5.792280e-01 -5.792242e-01  5.735803e-01
    outer loop
      vertex   1.041157e+02  5.982716e+01  6.939157e+01
      vertex   1.040689e+02  5.925428e+01  6.886028e+01
      vertex   1.069887e+02  6.091142e+01  6.758519e+01
    endloop
  endfacet
  facet normal -5.792260e-01  5.792282e-01 -5.735783e-01
    outer loop
      vertex   9.091746e+01  7.566951e+01  6.210591e+01
      vertex   9.138567e+01  7.575298e+01  6.171739e+01
      vertex   9.038308e+01  7.276486e+01  5.971229e+01
    endloop
  endfacet
  facet normal -5.792278e-01  5.792277e-01 -5.735767e-01
    outer loop
      vertex   9.138567e+01  7.575298e+01  6.171739e+01
      vertex   9.184089e+01  7.577882e+01  6.128377e+01
      vertex   9.038308e+01  7.276486e+01  5.971229e+01
    endloop
  endfacet
  facet normal -6.201591e-01  1.435469e-01  7.712308e-01
    outer loop
      vertex   9.867601e+01  5.992025e+01  7.497886e+01
      vertex   9.902804e+01  6.045418e+01  7.516255e+01
      vertex   8.651222e+01  7.208404e+01  6.293375e+01
    endloop
  endfacet
  facet normal -6.691412e-01  6.400884e-02  7.403735e-01
    outer loop
      vertex   8.651222e+01  7.208404e+01  6.293375e+01
      vertex   9.835728e+01  5.936390e+01  7.473889e+01
      vertex   9.867601e+01  5.992025e+01  7.497886e+01
    endloop
  endfacet
  facet normal  5.792210e-01 -5.792304e-01  5.735811e-01
    outer loop
      vertex   1.030812e+02  6.350572e+01  7.415102e+01
      vertex   1.026044e+02  6.336429e+01  7.448975e+01
      vertex   1.025469e+02  6.060108e+01  7.175740e+01
    endloop
  endfacet
  facet normal -5.792282e-01  5.792288e-01 -5.735754e-01
    outer loop
      vertex   9.269516e+01  7.565749e+01  6.029856e+01
      vertex   9.308634e+01  7.551144e+01  5.975603e+01
      vertex   9.097444e+01  7.285596e+01  5.920710e+01
    endloop
  endfacet
  facet normal -5.792299e-01  5.792295e-01 -5.735729e-01
    outer loop
      vertex   9.146252e+01  7.274685e+01  5.860402e+01
      vertex   9.097444e+01  7.285596e+01  5.920710e+01
      vertex   9.308634e+01  7.551144e+01  5.975603e+01
    endloop
  endfacet
  facet normal -5.792293e-01  5.792295e-01 -5.735736e-01
    outer loop
      vertex   9.308634e+01  7.551144e+01  5.975603e+01
      vertex   9.344720e+01  7.530902e+01  5.918721e+01
      vertex   9.146252e+01  7.274685e+01  5.860402e+01
    endloop
  endfacet
  facet normal -5.792289e-01  5.792294e-01 -5.735741e-01
    outer loop
      vertex   9.344720e+01  7.530902e+01  5.918721e+01
      vertex   9.377560e+01  7.505396e+01  5.859798e+01
      vertex   9.146252e+01  7.274685e+01  5.860402e+01
    endloop
  endfacet
  facet normal -5.792264e-01  5.792268e-01 -5.735792e-01
    outer loop
      vertex   9.377560e+01  7.505396e+01  5.859798e+01
      vertex   9.406805e+01  7.474703e+01  5.799271e+01
      vertex   9.146252e+01  7.274685e+01  5.860402e+01
    endloop
  endfacet
  facet normal -5.792267e-01  5.792275e-01 -5.735781e-01
    outer loop
      vertex   9.179886e+01  7.244835e+01  5.796292e+01
      vertex   9.146252e+01  7.274685e+01  5.860402e+01
      vertex   9.406805e+01  7.474703e+01  5.799271e+01
    endloop
  endfacet
  facet normal -5.792282e-01  5.792289e-01 -5.735751e-01
    outer loop
      vertex   9.406805e+01  7.474703e+01  5.799271e+01
      vertex   9.432074e+01  7.439171e+01  5.737870e+01
      vertex   9.179886e+01  7.244835e+01  5.796292e+01
    endloop
  endfacet
  facet normal -5.792261e-01  5.792241e-01 -5.735822e-01
    outer loop
      vertex   9.432074e+01  7.439171e+01  5.737870e+01
      vertex   9.453319e+01  7.399265e+01  5.676118e+01
      vertex   9.179886e+01  7.244835e+01  5.796292e+01
    endloop
  endfacet
  facet normal -5.792263e-01  5.792257e-01 -5.735805e-01
    outer loop
      vertex   9.195190e+01  7.199094e+01  5.734647e+01
      vertex   9.179886e+01  7.244835e+01  5.796292e+01
      vertex   9.453319e+01  7.399265e+01  5.676118e+01
    endloop
  endfacet
  facet normal -5.792283e-01  5.792304e-01 -5.735735e-01
    outer loop
      vertex   9.470165e+01  7.355264e+01  5.614670e+01
      vertex   9.195190e+01  7.199094e+01  5.734647e+01
      vertex   9.453319e+01  7.399265e+01  5.676118e+01
    endloop
  endfacet
  facet normal -5.792286e-01  5.792248e-01 -5.735791e-01
    outer loop
      vertex   9.489249e+01  7.263125e+01  5.502352e+01
      vertex   9.190514e+01  7.141806e+01  5.681517e+01
      vertex   9.482492e+01  7.307520e+01  5.554008e+01
    endloop
  endfacet
  facet normal -5.792270e-01  5.792285e-01 -5.735768e-01
    outer loop
      vertex   9.822572e+01  4.034911e+01  1.905723e+01
      vertex   9.166476e+01  7.078625e+01  5.641987e+01
      vertex   9.489249e+01  7.263125e+01  5.502352e+01
    endloop
  endfacet
  facet normal -5.792279e-01  5.792280e-01 -5.735765e-01
    outer loop
      vertex   9.454636e+01  3.429925e+01  1.666338e+01
      vertex   9.088675e+01  6.977623e+01  5.618558e+01
      vertex   9.822572e+01  4.034911e+01  1.905723e+01
    endloop
  endfacet
  facet normal -5.792274e-01  5.792344e-01 -5.735707e-01
    outer loop
      vertex   9.190514e+01  7.141806e+01  5.681517e+01
      vertex   9.489249e+01  7.263125e+01  5.502352e+01
      vertex   9.166476e+01  7.078625e+01  5.641987e+01
    endloop
  endfacet
  facet normal -7.690288e-01 -1.549238e-01  6.201558e-01
    outer loop
      vertex   9.783465e+01  5.820599e+01  7.409736e+01
      vertex   8.567086e+01  7.036977e+01  6.205225e+01
      vertex   9.763486e+01  5.761458e+01  7.370187e+01
    endloop
  endfacet
  facet normal  5.792285e-01 -5.792265e-01  5.735773e-01
    outer loop
      vertex   1.064845e+02  6.222792e+01  6.942381e+01
      vertex   1.039626e+02  6.028456e+01  7.000803e+01
      vertex   1.066970e+02  6.182887e+01  6.880629e+01
    endloop
  endfacet
  facet normal  5.792293e-01 -5.792281e-01  5.735751e-01
    outer loop
      vertex   1.062318e+02  6.258324e+01  7.003781e+01
      vertex   1.039626e+02  6.028456e+01  7.000803e+01
      vertex   1.064845e+02  6.222792e+01  6.942381e+01
    endloop
  endfacet
  facet normal  5.792271e-01 -5.792285e-01  5.735768e-01
    outer loop
      vertex   1.059394e+02  6.289017e+01  7.064309e+01
      vertex   1.036263e+02  6.058306e+01  7.064912e+01
      vertex   1.062318e+02  6.258324e+01  7.003781e+01
    endloop
  endfacet
  facet normal  5.792285e-01 -5.792298e-01  5.735741e-01
    outer loop
      vertex   1.056110e+02  6.314523e+01  7.123232e+01
      vertex   1.036263e+02  6.058306e+01  7.064912e+01
      vertex   1.059394e+02  6.289017e+01  7.064309e+01
    endloop
  endfacet
  facet normal  5.792271e-01 -5.792292e-01  5.735760e-01
    outer loop
      vertex   1.052501e+02  6.334765e+01  7.180114e+01
      vertex   1.036263e+02  6.058306e+01  7.064912e+01
      vertex   1.056110e+02  6.314523e+01  7.123232e+01
    endloop
  endfacet
  facet normal  5.792289e-01 -5.792277e-01  5.735757e-01
    outer loop
      vertex   1.048589e+02  6.349371e+01  7.234367e+01
      vertex   1.031382e+02  6.069218e+01  7.125221e+01
      vertex   1.052501e+02  6.334765e+01  7.180114e+01
    endloop
  endfacet
  facet normal  5.792290e-01 -5.792318e-01  5.735715e-01
    outer loop
      vertex   1.039626e+02  6.028456e+01  7.000803e+01
      vertex   1.041157e+02  5.982716e+01  6.939157e+01
      vertex   1.066970e+02  6.182887e+01  6.880629e+01
    endloop
  endfacet
  facet normal  5.792270e-01 -5.792273e-01  5.735781e-01
    outer loop
      vertex   1.068654e+02  6.138885e+01  6.819181e+01
      vertex   1.066970e+02  6.182887e+01  6.880629e+01
      vertex   1.041157e+02  5.982716e+01  6.939157e+01
    endloop
  endfacet
  facet normal  5.792271e-01 -5.792294e-01  5.735759e-01
    outer loop
      vertex   1.069887e+02  6.091142e+01  6.758519e+01
      vertex   1.068654e+02  6.138885e+01  6.819181e+01
      vertex   1.041157e+02  5.982716e+01  6.939157e+01
    endloop
  endfacet
  facet normal  5.792342e-01 -5.792281e-01  5.735701e-01
    outer loop
      vertex   1.040047e+02  6.361503e+01  7.332887e+01
      vertex   1.025469e+02  6.060108e+01  7.175740e+01
      vertex   1.044426e+02  6.358354e+01  7.285486e+01
    endloop
  endfacet
  facet normal  5.792285e-01 -5.792294e-01  5.735745e-01
    outer loop
      vertex   1.070563e+02  6.046746e+01  6.706863e+01
      vertex   1.069887e+02  6.091142e+01  6.758519e+01
      vertex   1.040689e+02  5.925428e+01  6.886028e+01
    endloop
  endfacet
  facet normal  5.792284e-01 -5.792277e-01  5.735763e-01
    outer loop
      vertex   1.103895e+02  2.818533e+01  3.110234e+01
      vertex   1.070563e+02  6.046746e+01  6.706863e+01
      vertex   1.038286e+02  5.862247e+01  6.846498e+01
    endloop
  endfacet
  facet normal -7.887292e-01 -2.204896e-01  5.738385e-01
    outer loop
      vertex   9.747980e+01  5.702359e+01  7.326166e+01
      vertex   9.763486e+01  5.761458e+01  7.370187e+01
      vertex   8.531601e+01  6.918738e+01  6.121655e+01
    endloop
  endfacet
  facet normal -5.792271e-01  5.792278e-01 -5.735775e-01
    outer loop
      vertex   9.184089e+01  7.577882e+01  6.128377e+01
      vertex   9.227879e+01  7.574732e+01  6.080975e+01
      vertex   9.038308e+01  7.276486e+01  5.971229e+01
    endloop
  endfacet
  facet normal -5.792295e-01  5.792283e-01 -5.735745e-01
    outer loop
      vertex   9.097444e+01  7.285596e+01  5.920710e+01
      vertex   9.038308e+01  7.276486e+01  5.971229e+01
      vertex   9.227879e+01  7.574732e+01  6.080975e+01
    endloop
  endfacet
  facet normal  5.792236e-01 -5.792307e-01  5.735780e-01
    outer loop
      vertex   1.034166e+02  5.799319e+01  6.824547e+01
      vertex   1.030505e+02  5.761244e+01  6.823068e+01
      vertex   1.103895e+02  2.818533e+01  3.110234e+01
    endloop
  endfacet
  facet normal -5.792302e-01  5.792260e-01 -5.735760e-01
    outer loop
      vertex   8.858476e+01  7.147484e+01  6.022559e+01
      vertex   8.686425e+01  7.261797e+01  6.311745e+01
      vertex   8.912732e+01  7.203910e+01  6.024750e+01
    endloop
  endfacet
  facet normal  7.997691e-01  5.399144e-01 -2.624155e-01
    outer loop
      vertex   9.470165e+01  7.355264e+01  5.614670e+01
      vertex   1.068654e+02  6.138885e+01  6.819181e+01
      vertex   1.069887e+02  6.091142e+01  6.758519e+01
    endloop
  endfacet
  facet normal  5.792253e-01 -5.792243e-01  5.735828e-01
    outer loop
      vertex   1.039626e+02  6.028456e+01  7.000803e+01
      vertex   1.062318e+02  6.258324e+01  7.003781e+01
      vertex   1.036263e+02  6.058306e+01  7.064912e+01
    endloop
  endfacet
  facet normal  5.792207e-01 -5.792264e-01  5.735853e-01
    outer loop
      vertex   1.044426e+02  6.358354e+01  7.285486e+01
      vertex   1.031382e+02  6.069218e+01  7.125221e+01
      vertex   1.048589e+02  6.349371e+01  7.234367e+01
    endloop
  endfacet
  facet normal  5.792336e-01 -5.792301e-01  5.735687e-01
    outer loop
      vertex   1.036263e+02  6.058306e+01  7.064912e+01
      vertex   1.052501e+02  6.334765e+01  7.180114e+01
      vertex   1.031382e+02  6.069218e+01  7.125221e+01
    endloop
  endfacet
  facet normal  6.229613e-01 -1.392818e-01 -7.697530e-01
    outer loop
      vertex   1.007486e+02  5.931105e+01  7.227069e+01
      vertex   1.003366e+02  5.868178e+01  7.205119e+01
      vertex   8.817286e+01  7.084557e+01  6.000608e+01
    endloop
  endfacet
  facet normal  5.792224e-01 -5.792317e-01  5.735782e-01
    outer loop
      vertex   1.011677e+02  6.261516e+01  7.518407e+01
      vertex   1.007021e+02  6.226483e+01  7.530052e+01
      vertex   1.019106e+02  6.031950e+01  7.211559e+01
    endloop
  endfacet
  facet normal -6.874412e-02  6.664162e-01  7.424040e-01
    outer loop
      vertex   1.211934e+02  4.109622e+01  3.323011e+01
      vertex   1.090296e+02  5.326001e+01  2.118501e+01
      vertex   1.049683e+02  5.091275e+01  2.291595e+01
    endloop
  endfacet
  facet normal -6.874385e-02  6.664164e-01  7.424038e-01
    outer loop
      vertex   1.211934e+02  4.109622e+01  3.323011e+01
      vertex   1.049683e+02  5.091275e+01  2.291595e+01
      vertex   1.171321e+02  3.874897e+01  3.496105e+01
    endloop
  endfacet
  facet normal  7.855950e-01  5.844475e-01 -2.031291e-01
    outer loop
      vertex   9.453319e+01  7.399265e+01  5.676118e+01
      vertex   1.066970e+02  6.182887e+01  6.880629e+01
      vertex   9.470165e+01  7.355264e+01  5.614670e+01
    endloop
  endfacet
  facet normal  7.855936e-01  5.844510e-01 -2.031246e-01
    outer loop
      vertex   1.068654e+02  6.138885e+01  6.819181e+01
      vertex   9.470165e+01  7.355264e+01  5.614670e+01
      vertex   1.066970e+02  6.182887e+01  6.880629e+01
    endloop
  endfacet
  facet normal  6.874346e-02 -6.664166e-01 -7.424037e-01
    outer loop
      vertex   1.181632e+02  2.875272e+01  2.382500e+01
      vertex   1.059995e+02  4.091651e+01  1.177989e+01
      vertex   1.100608e+02  4.326376e+01  1.004895e+01
    endloop
  endfacet
  facet normal  6.874382e-02 -6.664164e-01 -7.424037e-01
    outer loop
      vertex   1.181632e+02  2.875272e+01  2.382500e+01
      vertex   1.100608e+02  4.326376e+01  1.004895e+01
      vertex   1.222245e+02  3.109998e+01  2.209405e+01
    endloop
  endfacet
  facet normal  6.874392e-02 -6.664163e-01 -7.424039e-01
    outer loop
      vertex   1.067101e+02  2.213546e+01  2.870848e+01
      vertex   9.454636e+01  3.429925e+01  1.666338e+01
      vertex   1.181630e+02  2.875472e+01  2.382722e+01
    endloop
  endfacet
  facet normal -5.792241e-01  5.792312e-01 -5.735771e-01
    outer loop
      vertex   8.974681e+01  7.248328e+01  6.007047e+01
      vertex   8.912732e+01  7.203910e+01  6.024750e+01
      vertex   8.853828e+01  7.442862e+01  6.325542e+01
    endloop
  endfacet
  facet normal -5.792302e-01  5.792269e-01 -5.735753e-01
    outer loop
      vertex   8.765576e+01  7.359727e+01  6.330709e+01
      vertex   8.808754e+01  7.403394e+01  6.331203e+01
      vertex   8.912732e+01  7.203910e+01  6.024750e+01
    endloop
  endfacet
  facet normal -5.792261e-01  5.792310e-01 -5.735753e-01
    outer loop
      vertex   8.765576e+01  7.359727e+01  6.330709e+01
      vertex   8.912732e+01  7.203910e+01  6.024750e+01
      vertex   8.724673e+01  7.312360e+01  6.324181e+01
    endloop
  endfacet
  facet normal -5.792255e-01  5.792300e-01 -5.735769e-01
    outer loop
      vertex   8.853828e+01  7.442862e+01  6.325542e+01
      vertex   8.900392e+01  7.477895e+01  6.313897e+01
      vertex   8.974681e+01  7.248328e+01  6.007047e+01
    endloop
  endfacet
  facet normal -5.792233e-01  5.792316e-01 -5.735775e-01
    outer loop
      vertex   8.900392e+01  7.477895e+01  6.313897e+01
      vertex   8.947885e+01  7.508097e+01  6.296436e+01
      vertex   8.974681e+01  7.248328e+01  6.007047e+01
    endloop
  endfacet
  facet normal -5.792350e-01  5.792248e-01 -5.735726e-01
    outer loop
      vertex   8.947885e+01  7.508097e+01  6.296436e+01
      vertex   8.995914e+01  7.533102e+01  6.273185e+01
      vertex   8.974681e+01  7.248328e+01  6.007047e+01
    endloop
  endfacet
  facet normal -5.792292e-01  5.792273e-01 -5.735758e-01
    outer loop
      vertex   8.995914e+01  7.533102e+01  6.273185e+01
      vertex   9.044060e+01  7.552808e+01  6.244464e+01
      vertex   8.974681e+01  7.248328e+01  6.007047e+01
    endloop
  endfacet
  facet normal -5.792254e-01  5.792286e-01 -5.735784e-01
    outer loop
      vertex   9.038308e+01  7.276486e+01  5.971229e+01
      vertex   8.974681e+01  7.248328e+01  6.007047e+01
      vertex   9.044060e+01  7.552808e+01  6.244464e+01
    endloop
  endfacet
  facet normal -5.792270e-01  5.792277e-01 -5.735776e-01
    outer loop
      vertex   9.038308e+01  7.276486e+01  5.971229e+01
      vertex   9.044060e+01  7.552808e+01  6.244464e+01
      vertex   9.091746e+01  7.566951e+01  6.210591e+01
    endloop
  endfacet
  facet normal  7.664466e-01  6.265873e-01 -1.412371e-01
    outer loop
      vertex   9.453319e+01  7.399265e+01  5.676118e+01
      vertex   9.432074e+01  7.439171e+01  5.737870e+01
      vertex   1.066970e+02  6.182887e+01  6.880629e+01
    endloop
  endfacet
  facet normal  7.664480e-01  6.265847e-01 -1.412415e-01
    outer loop
      vertex   1.064845e+02  6.222792e+01  6.942381e+01
      vertex   1.066970e+02  6.182887e+01  6.880629e+01
      vertex   9.432074e+01  7.439171e+01  5.737870e+01
    endloop
  endfacet
  facet normal  6.874385e-02 -6.664163e-01 -7.424038e-01
    outer loop
      vertex   1.181630e+02  2.875472e+01  2.382722e+01
      vertex   9.454636e+01  3.429925e+01  1.666338e+01
      vertex   1.059993e+02  4.091851e+01  1.178212e+01
    endloop
  endfacet
  facet normal  5.792244e-01 -5.792262e-01  5.735819e-01
    outer loop
      vertex   1.031382e+02  6.069218e+01  7.125221e+01
      vertex   1.044426e+02  6.358354e+01  7.285486e+01
      vertex   1.025469e+02  6.060108e+01  7.175740e+01
    endloop
  endfacet
  facet normal  5.792276e-01 -5.792283e-01  5.735765e-01
    outer loop
      vertex   1.040047e+02  6.361503e+01  7.332887e+01
      vertex   1.035495e+02  6.358920e+01  7.376250e+01
      vertex   1.025469e+02  6.060108e+01  7.175740e+01
    endloop
  endfacet
  facet normal -6.874389e-02  6.664165e-01  7.424038e-01
    outer loop
      vertex   9.822572e+01  4.034911e+01  1.905723e+01
      vertex   1.177811e+02  3.245733e+01  2.795202e+01
      vertex   1.056173e+02  4.462112e+01  1.590691e+01
    endloop
  endfacet
  facet normal -6.874388e-02  6.664165e-01  7.424038e-01
    outer loop
      vertex   1.177811e+02  3.245733e+01  2.795202e+01
      vertex   9.822572e+01  4.034911e+01  1.905723e+01
      vertex   1.103895e+02  2.818533e+01  3.110234e+01
    endloop
  endfacet
  facet normal  8.122619e-01  4.694509e-01 -3.461887e-01
    outer loop
      vertex   9.489550e+01  7.263299e+01  5.502224e+01
      vertex   1.103895e+02  2.818533e+01  3.110234e+01
      vertex   9.822572e+01  4.034911e+01  1.905723e+01
    endloop
  endfacet
  facet normal  7.429018e-01  6.647291e-01 -7.894316e-02
    outer loop
      vertex   1.064845e+02  6.222792e+01  6.942381e+01
      vertex   9.432074e+01  7.439171e+01  5.737870e+01
      vertex   1.062318e+02  6.258324e+01  7.003781e+01
    endloop
  endfacet
  facet normal  7.429029e-01  6.647277e-01 -7.894551e-02
    outer loop
      vertex   9.406805e+01  7.474703e+01  5.799271e+01
      vertex   1.062318e+02  6.258324e+01  7.003781e+01
      vertex   9.432074e+01  7.439171e+01  5.737870e+01
    endloop
  endfacet
  facet normal -8.122452e-01 -4.695717e-01  3.460639e-01
    outer loop
      vertex   1.181630e+02  2.875472e+01  2.382722e+01
      vertex   1.059993e+02  4.091851e+01  1.178212e+01
      vertex   1.059995e+02  4.091651e+01  1.177989e+01
    endloop
  endfacet
  facet normal -8.122785e-01 -4.692893e-01  3.463686e-01
    outer loop
      vertex   1.181630e+02  2.875472e+01  2.382722e+01
      vertex   1.059995e+02  4.091651e+01  1.177989e+01
      vertex   1.181632e+02  2.875272e+01  2.382500e+01
    endloop
  endfacet
  facet normal -8.122617e-01 -4.694509e-01  3.461888e-01
    outer loop
      vertex   1.049683e+02  5.091275e+01  2.291595e+01
      vertex   1.056173e+02  4.462112e+01  1.590691e+01
      vertex   1.177811e+02  3.245733e+01  2.795202e+01
    endloop
  endfacet
  facet normal -8.122617e-01 -4.694509e-01  3.461888e-01
    outer loop
      vertex   1.049683e+02  5.091275e+01  2.291595e+01
      vertex   1.177811e+02  3.245733e+01  2.795202e+01
      vertex   1.171321e+02  3.874897e+01  3.496105e+01
    endloop
  endfacet
  facet normal  5.792263e-01 -5.792291e-01  5.735771e-01
    outer loop
      vertex   1.016426e+02  6.291719e+01  7.500948e+01
      vertex   1.011677e+02  6.261516e+01  7.518407e+01
      vertex   1.019106e+02  6.031950e+01  7.211559e+01
    endloop
  endfacet
  facet normal  8.122620e-01  4.694508e-01 -3.461885e-01
    outer loop
      vertex   1.211934e+02  4.109622e+01  3.323011e+01
      vertex   1.222245e+02  3.109998e+01  2.209405e+01
      vertex   1.100608e+02  4.326376e+01  1.004895e+01
    endloop
  endfacet
  facet normal  8.122620e-01  4.694508e-01 -3.461885e-01
    outer loop
      vertex   1.211934e+02  4.109622e+01  3.323011e+01
      vertex   1.100608e+02  4.326376e+01  1.004895e+01
      vertex   1.090296e+02  5.326001e+01  2.118501e+01
    endloop
  endfacet
  facet normal  7.126558e-01  7.014221e-01 -1.134485e-02
    outer loop
      vertex   9.377560e+01  7.505396e+01  5.859798e+01
      vertex   1.059394e+02  6.289017e+01  7.064309e+01
      vertex   1.062318e+02  6.258324e+01  7.003781e+01
    endloop
  endfacet
  facet normal  7.126558e-01  7.014222e-01 -1.134428e-02
    outer loop
      vertex   9.377560e+01  7.505396e+01  5.859798e+01
      vertex   1.062318e+02  6.258324e+01  7.003781e+01
      vertex   9.406805e+01  7.474703e+01  5.799271e+01
    endloop
  endfacet
  facet normal -5.792277e-01  5.792282e-01 -5.735765e-01
    outer loop
      vertex   9.822572e+01  4.034911e+01  1.905723e+01
      vertex   1.056173e+02  4.462112e+01  1.590691e+01
      vertex   1.059993e+02  4.091851e+01  1.178212e+01
    endloop
  endfacet
  facet normal  6.761107e-01  7.344417e-01  5.890530e-02
    outer loop
      vertex   1.059394e+02  6.289017e+01  7.064309e+01
      vertex   9.377560e+01  7.505396e+01  5.859798e+01
      vertex   9.344720e+01  7.530902e+01  5.918721e+01
    endloop
  endfacet
  facet normal  5.792349e-01 -5.792241e-01  5.735734e-01
    outer loop
      vertex   1.021229e+02  6.316723e+01  7.477695e+01
      vertex   1.016426e+02  6.291719e+01  7.500948e+01
      vertex   1.019106e+02  6.031950e+01  7.211559e+01
    endloop
  endfacet
  facet normal  5.792353e-01 -5.792238e-01  5.735732e-01
    outer loop
      vertex   1.026044e+02  6.336429e+01  7.448975e+01
      vertex   1.021229e+02  6.316723e+01  7.477695e+01
      vertex   1.019106e+02  6.031950e+01  7.211559e+01
    endloop
  endfacet
  facet normal  5.792258e-01 -5.792286e-01  5.735779e-01
    outer loop
      vertex   1.035495e+02  6.358920e+01  7.376250e+01
      vertex   1.030812e+02  6.350572e+01  7.415102e+01
      vertex   1.025469e+02  6.060108e+01  7.175740e+01
    endloop
  endfacet
  facet normal  5.792323e-01 -5.792248e-01  5.735753e-01
    outer loop
      vertex   1.019106e+02  6.031950e+01  7.211559e+01
      vertex   1.025469e+02  6.060108e+01  7.175740e+01
      vertex   1.026044e+02  6.336429e+01  7.448975e+01
    endloop
  endfacet
  facet normal  5.792316e-01 -5.792257e-01  5.735750e-01
    outer loop
      vertex   1.007021e+02  6.226483e+01  7.530052e+01
      vertex   1.002513e+02  6.187016e+01  7.535714e+01
      vertex   1.012911e+02  5.987531e+01  7.229261e+01
    endloop
  endfacet
  facet normal  5.792217e-01 -5.792323e-01  5.735783e-01
    outer loop
      vertex   1.012911e+02  5.987531e+01  7.229261e+01
      vertex   1.019106e+02  6.031950e+01  7.211559e+01
      vertex   1.007021e+02  6.226483e+01  7.530052e+01
    endloop
  endfacet
  facet normal  5.792302e-01 -5.792270e-01  5.735753e-01
    outer loop
      vertex   1.002513e+02  6.187016e+01  7.535714e+01
      vertex   9.981955e+01  6.143348e+01  7.535220e+01
      vertex   1.012911e+02  5.987531e+01  7.229261e+01
    endloop
  endfacet
  facet normal  5.792305e-01 -5.792252e-01  5.735767e-01
    outer loop
      vertex   9.941052e+01  6.095982e+01  7.528692e+01
      vertex   9.902804e+01  6.045418e+01  7.516255e+01
      vertex   1.012911e+02  5.987531e+01  7.229261e+01
    endloop
  endfacet
  facet normal -5.792278e-01  5.792280e-01 -5.735766e-01
    outer loop
      vertex   1.059993e+02  4.091851e+01  1.178212e+01
      vertex   9.454636e+01  3.429925e+01  1.666338e+01
      vertex   9.822572e+01  4.034911e+01  1.905723e+01
    endloop
  endfacet
  facet normal  5.792263e-01 -5.792312e-01  5.735748e-01
    outer loop
      vertex   9.867601e+01  5.992025e+01  7.497886e+01
      vertex   9.835728e+01  5.936390e+01  7.473889e+01
      vertex   1.007486e+02  5.931105e+01  7.227069e+01
    endloop
  endfacet
  facet normal -5.792429e-01  5.793763e-01 -5.734115e-01
    outer loop
      vertex   1.059995e+02  4.091651e+01  1.177989e+01
      vertex   1.059993e+02  4.091851e+01  1.178212e+01
      vertex   1.100608e+02  4.326376e+01  1.004895e+01
    endloop
  endfacet
  facet normal -5.792278e-01  5.792282e-01 -5.735764e-01
    outer loop
      vertex   1.059993e+02  4.091851e+01  1.178212e+01
      vertex   1.056173e+02  4.462112e+01  1.590691e+01
      vertex   1.100608e+02  4.326376e+01  1.004895e+01
    endloop
  endfacet
  facet normal -5.792280e-01  5.792280e-01 -5.735764e-01
    outer loop
      vertex   1.090296e+02  5.326001e+01  2.118501e+01
      vertex   1.100608e+02  4.326376e+01  1.004895e+01
      vertex   1.056173e+02  4.462112e+01  1.590691e+01
    endloop
  endfacet
  facet normal -5.792279e-01  5.792280e-01 -5.735766e-01
    outer loop
      vertex   1.090296e+02  5.326001e+01  2.118501e+01
      vertex   1.056173e+02  4.462112e+01  1.590691e+01
      vertex   1.049683e+02  5.091275e+01  2.291595e+01
    endloop
  endfacet
  facet normal  6.334795e-01  7.626800e-01  1.304722e-01
    outer loop
      vertex   1.052501e+02  6.334765e+01  7.180114e+01
      vertex   9.344720e+01  7.530902e+01  5.918721e+01
      vertex   9.308634e+01  7.551144e+01  5.975603e+01
    endloop
  endfacet
  facet normal  5.792285e-01 -5.792282e-01  5.735758e-01
    outer loop
      vertex   1.007486e+02  5.931105e+01  7.227069e+01
      vertex   1.012911e+02  5.987531e+01  7.229261e+01
      vertex   9.902804e+01  6.045418e+01  7.516255e+01
    endloop
  endfacet
  facet normal  5.792282e-01 -5.792285e-01  5.735757e-01
    outer loop
      vertex   9.902804e+01  6.045418e+01  7.516255e+01
      vertex   9.867601e+01  5.992025e+01  7.497886e+01
      vertex   1.007486e+02  5.931105e+01  7.227069e+01
    endloop
  endfacet
  facet normal  5.792235e-01 -5.792334e-01  5.735754e-01
    outer loop
      vertex   9.981955e+01  6.143348e+01  7.535220e+01
      vertex   9.941052e+01  6.095982e+01  7.528692e+01
      vertex   1.012911e+02  5.987531e+01  7.229261e+01
    endloop
  endfacet
  facet normal  5.792279e-01 -5.792277e-01  5.735768e-01
    outer loop
      vertex   1.177811e+02  3.245733e+01  2.795202e+01
      vertex   1.103895e+02  2.818533e+01  3.110234e+01
      vertex   1.181630e+02  2.875472e+01  2.382722e+01
    endloop
  endfacet
  facet normal  5.813854e-01  7.867529e-01  2.073908e-01
    outer loop
      vertex   9.308634e+01  7.551144e+01  5.975603e+01
      vertex   9.269516e+01  7.565749e+01  6.029856e+01
      vertex   1.052501e+02  6.334765e+01  7.180114e+01
    endloop
  endfacet
  facet normal  5.813854e-01  7.867529e-01  2.073908e-01
    outer loop
      vertex   1.048589e+02  6.349371e+01  7.234367e+01
      vertex   1.052501e+02  6.334765e+01  7.180114e+01
      vertex   9.269516e+01  7.565749e+01  6.029856e+01
    endloop
  endfacet
  facet normal  5.792277e-01 -5.792279e-01  5.735766e-01
    outer loop
      vertex   1.067101e+02  2.213546e+01  2.870848e+01
      vertex   1.181630e+02  2.875472e+01  2.382722e+01
      vertex   1.103895e+02  2.818533e+01  3.110234e+01
    endloop
  endfacet
  facet normal  5.792285e-01 -5.792273e-01  5.735766e-01
    outer loop
      vertex   1.181630e+02  2.875472e+01  2.382722e+01
      vertex   1.222245e+02  3.109998e+01  2.209405e+01
      vertex   1.177811e+02  3.245733e+01  2.795202e+01
    endloop
  endfacet
  facet normal  5.792186e-01 -5.791304e-01  5.736845e-01
    outer loop
      vertex   1.181632e+02  2.875272e+01  2.382500e+01
      vertex   1.222245e+02  3.109998e+01  2.209405e+01
      vertex   1.181630e+02  2.875472e+01  2.382722e+01
    endloop
  endfacet
  facet normal  5.792282e-01 -5.792278e-01  5.735765e-01
    outer loop
      vertex   1.222245e+02  3.109998e+01  2.209405e+01
      vertex   1.211934e+02  4.109622e+01  3.323011e+01
      vertex   1.177811e+02  3.245733e+01  2.795202e+01
    endloop
  endfacet
  facet normal  5.792282e-01 -5.792277e-01  5.735763e-01
    outer loop
      vertex   1.171321e+02  3.874897e+01  3.496105e+01
      vertex   1.177811e+02  3.245733e+01  2.795202e+01
      vertex   1.211934e+02  4.109622e+01  3.323011e+01
    endloop
  endfacet
  facet normal  6.874470e-02 -6.664159e-01 -7.424043e-01
    outer loop
      vertex   9.731902e+01  5.476915e+01  7.114737e+01
      vertex   8.515523e+01  6.693294e+01  5.910226e+01
      vertex   1.001285e+02  5.639292e+01  6.994995e+01
    endloop
  endfacet
  facet normal  5.224190e-01  8.039104e-01  2.842647e-01
    outer loop
      vertex   1.048589e+02  6.349371e+01  7.234367e+01
      vertex   9.269516e+01  7.565749e+01  6.029856e+01
      vertex   1.044426e+02  6.358354e+01  7.285486e+01
    endloop
  endfacet
  facet normal  5.224240e-01  8.039092e-01  2.842589e-01
    outer loop
      vertex   9.227879e+01  7.574732e+01  6.080975e+01
      vertex   1.044426e+02  6.358354e+01  7.285486e+01
      vertex   9.269516e+01  7.565749e+01  6.029856e+01
    endloop
  endfacet
  facet normal  4.529182e-01  8.137069e-01  3.643436e-01
    outer loop
      vertex   1.040047e+02  6.361503e+01  7.332887e+01
      vertex   1.044426e+02  6.358354e+01  7.285486e+01
      vertex   9.184089e+01  7.577882e+01  6.128377e+01
    endloop
  endfacet
  facet normal  4.529178e-01  8.137069e-01  3.643440e-01
    outer loop
      vertex   9.227879e+01  7.574732e+01  6.080975e+01
      vertex   9.184089e+01  7.577882e+01  6.128377e+01
      vertex   1.044426e+02  6.358354e+01  7.285486e+01
    endloop
  endfacet
  facet normal -5.792267e-01  5.792301e-01 -5.735756e-01
    outer loop
      vertex   8.793249e+01  7.021375e+01  5.961078e+01
      vertex   8.547108e+01  6.977837e+01  6.165676e+01
      vertex   8.817286e+01  7.084557e+01  6.000608e+01
    endloop
  endfacet
  facet normal -5.792313e-01  5.792224e-01 -5.735787e-01
    outer loop
      vertex   8.817286e+01  7.084557e+01  6.000608e+01
      vertex   8.619349e+01  7.152768e+01  6.269379e+01
      vertex   8.858476e+01  7.147484e+01  6.022559e+01
    endloop
  endfacet
  facet normal  3.756180e-01  8.141317e-01  4.428326e-01
    outer loop
      vertex   1.035495e+02  6.358920e+01  7.376250e+01
      vertex   9.184089e+01  7.577882e+01  6.128377e+01
      vertex   9.138567e+01  7.575298e+01  6.171739e+01
    endloop
  endfacet
  facet normal -5.792283e-01  5.792263e-01 -5.735779e-01
    outer loop
      vertex   8.788654e+01  6.964134e+01  5.907914e+01
      vertex   8.520517e+01  6.860147e+01  6.073681e+01
      vertex   8.793249e+01  7.021375e+01  5.961078e+01
    endloop
  endfacet
  facet normal -5.792282e-01  5.792257e-01 -5.735785e-01
    outer loop
      vertex   8.520517e+01  6.860147e+01  6.073681e+01
      vertex   8.531601e+01  6.918738e+01  6.121655e+01
      vertex   8.793249e+01  7.021375e+01  5.961078e+01
    endloop
  endfacet
  facet normal  6.874255e-02 -6.664177e-01 -7.424028e-01
    outer loop
      vertex   1.001285e+02  5.639292e+01  6.994995e+01
      vertex   8.515523e+01  6.693294e+01  5.910226e+01
      vertex   8.796474e+01  6.855670e+01  5.790484e+01
    endloop
  endfacet
  facet normal -5.792308e-01  5.792253e-01 -5.735763e-01
    outer loop
      vertex   8.724673e+01  7.312360e+01  6.324181e+01
      vertex   8.912732e+01  7.203910e+01  6.024750e+01
      vertex   8.686425e+01  7.261797e+01  6.311745e+01
    endloop
  endfacet
  facet normal -5.792260e-01  5.792311e-01 -5.735754e-01
    outer loop
      vertex   8.686425e+01  7.261797e+01  6.311745e+01
      vertex   8.858476e+01  7.147484e+01  6.022559e+01
      vertex   8.651222e+01  7.208404e+01  6.293375e+01
    endloop
  endfacet
  facet normal  3.756238e-01  8.141316e-01  4.428278e-01
    outer loop
      vertex   9.184089e+01  7.577882e+01  6.128377e+01
      vertex   1.035495e+02  6.358920e+01  7.376250e+01
      vertex   1.040047e+02  6.361503e+01  7.332887e+01
    endloop
  endfacet
  facet normal -5.792288e-01  5.792280e-01 -5.735755e-01
    outer loop
      vertex   8.808754e+01  7.403394e+01  6.331203e+01
      vertex   8.853828e+01  7.442862e+01  6.325542e+01
      vertex   8.912732e+01  7.203910e+01  6.024750e+01
    endloop
  endfacet
  facet normal -5.792273e-01  5.792335e-01 -5.735716e-01
    outer loop
      vertex   8.520517e+01  6.860147e+01  6.073681e+01
      vertex   8.788654e+01  6.964134e+01  5.907914e+01
      vertex   8.514133e+01  6.802720e+01  6.022134e+01
    endloop
  endfacet
  facet normal -5.792264e-01  5.792262e-01 -5.735798e-01
    outer loop
      vertex   8.512489e+01  6.746902e+01  5.967427e+01
      vertex   8.514133e+01  6.802720e+01  6.022134e+01
      vertex   8.788654e+01  6.964134e+01  5.907914e+01
    endloop
  endfacet
  facet normal -5.792285e-01  5.792306e-01 -5.735734e-01
    outer loop
      vertex   8.788654e+01  6.964134e+01  5.907914e+01
      vertex   8.796751e+01  6.939779e+01  5.875142e+01
      vertex   8.512489e+01  6.746902e+01  5.967427e+01
    endloop
  endfacet
  facet normal -5.792277e-01  5.792277e-01 -5.735770e-01
    outer loop
      vertex   8.796751e+01  6.939779e+01  5.875142e+01
      vertex   8.796474e+01  6.855670e+01  5.790484e+01
      vertex   8.512489e+01  6.746902e+01  5.967427e+01
    endloop
  endfacet
  facet normal -5.792276e-01  5.792281e-01 -5.735767e-01
    outer loop
      vertex   8.515523e+01  6.693294e+01  5.910226e+01
      vertex   8.512489e+01  6.746902e+01  5.967427e+01
      vertex   8.796474e+01  6.855670e+01  5.790484e+01
    endloop
  endfacet
  facet normal -8.142478e-01 -4.444978e-01  3.733927e-01
    outer loop
      vertex   8.515523e+01  6.693294e+01  5.910226e+01
      vertex   9.731902e+01  5.476915e+01  7.114737e+01
      vertex   9.728867e+01  5.530524e+01  7.171938e+01
    endloop
  endfacet
  facet normal -4.918648e-01  3.127637e-01  8.125564e-01
    outer loop
      vertex   8.765576e+01  7.359727e+01  6.330709e+01
      vertex   8.724673e+01  7.312360e+01  6.324181e+01
      vertex   9.981955e+01  6.143348e+01  7.535220e+01
    endloop
  endfacet
  facet normal -5.603862e-01  2.280596e-01  7.962136e-01
    outer loop
      vertex   8.724673e+01  7.312360e+01  6.324181e+01
      vertex   9.902804e+01  6.045418e+01  7.516255e+01
      vertex   9.941052e+01  6.095982e+01  7.528692e+01
    endloop
  endfacet
  facet normal -5.603828e-01  2.280632e-01  7.962149e-01
    outer loop
      vertex   9.902804e+01  6.045418e+01  7.516255e+01
      vertex   8.724673e+01  7.312360e+01  6.324181e+01
      vertex   8.686425e+01  7.261797e+01  6.311745e+01
    endloop
  endfacet
  facet normal -8.129730e-01 -3.588955e-01  4.585510e-01
    outer loop
      vertex   1.040689e+02  5.925428e+01  6.886028e+01
      vertex   9.195190e+01  7.199094e+01  5.734647e+01
      vertex   9.190514e+01  7.141806e+01  5.681517e+01
    endloop
  endfacet
  facet normal -6.201614e-01  1.435433e-01  7.712297e-01
    outer loop
      vertex   8.686425e+01  7.261797e+01  6.311745e+01
      vertex   8.651222e+01  7.208404e+01  6.293375e+01
      vertex   9.902804e+01  6.045418e+01  7.516255e+01
    endloop
  endfacet
  facet normal -6.691390e-01  6.401231e-02  7.403752e-01
    outer loop
      vertex   8.651222e+01  7.208404e+01  6.293375e+01
      vertex   8.619349e+01  7.152768e+01  6.269379e+01
      vertex   9.835728e+01  5.936390e+01  7.473889e+01
    endloop
  endfacet
  facet normal -7.106917e-01 -1.419351e-02  7.033604e-01
    outer loop
      vertex   9.835728e+01  5.936390e+01  7.473889e+01
      vertex   8.591266e+01  7.095439e+01  6.239845e+01
      vertex   9.807644e+01  5.879061e+01  7.444356e+01
    endloop
  endfacet
  facet normal -7.913690e-01 -5.683368e-01  2.252295e-01
    outer loop
      vertex   1.039626e+02  6.028456e+01  7.000803e+01
      vertex   9.179886e+01  7.244835e+01  5.796292e+01
      vertex   9.195190e+01  7.199094e+01  5.734647e+01
    endloop
  endfacet
  facet normal -7.106946e-01 -1.419988e-02  7.033574e-01
    outer loop
      vertex   8.619349e+01  7.152768e+01  6.269379e+01
      vertex   8.591266e+01  7.095439e+01  6.239845e+01
      vertex   9.835728e+01  5.936390e+01  7.473889e+01
    endloop
  endfacet
  facet normal -7.430229e-01 -8.574899e-02  6.637500e-01
    outer loop
      vertex   8.591266e+01  7.095439e+01  6.239845e+01
      vertex   8.567086e+01  7.036977e+01  6.205225e+01
      vertex   9.783465e+01  5.820599e+01  7.409736e+01
    endloop
  endfacet
  facet normal -7.430243e-01 -8.575156e-02  6.637481e-01
    outer loop
      vertex   8.591266e+01  7.095439e+01  6.239845e+01
      vertex   9.783465e+01  5.820599e+01  7.409736e+01
      vertex   9.807644e+01  5.879061e+01  7.444356e+01
    endloop
  endfacet
  facet normal -7.690288e-01 -1.549238e-01  6.201558e-01
    outer loop
      vertex   8.547108e+01  6.977837e+01  6.165676e+01
      vertex   9.763486e+01  5.761458e+01  7.370187e+01
      vertex   8.567086e+01  7.036977e+01  6.205225e+01
    endloop
  endfacet
  facet normal -8.021968e-01 -2.800185e-01  5.273232e-01
    outer loop
      vertex   8.520517e+01  6.860147e+01  6.073681e+01
      vertex   9.736896e+01  5.643769e+01  7.278192e+01
      vertex   8.531601e+01  6.918738e+01  6.121655e+01
    endloop
  endfacet
  facet normal -7.887286e-01 -2.204872e-01  5.738401e-01
    outer loop
      vertex   8.547108e+01  6.977837e+01  6.165676e+01
      vertex   8.531601e+01  6.918738e+01  6.121655e+01
      vertex   9.763486e+01  5.761458e+01  7.370187e+01
    endloop
  endfacet
  facet normal -8.021962e-01 -2.800169e-01  5.273252e-01
    outer loop
      vertex   8.531601e+01  6.918738e+01  6.121655e+01
      vertex   9.736896e+01  5.643769e+01  7.278192e+01
      vertex   9.747980e+01  5.702359e+01  7.326166e+01
    endloop
  endfacet
  facet normal -8.129734e-01 -3.589022e-01  4.585448e-01
    outer loop
      vertex   1.041157e+02  5.982716e+01  6.939157e+01
      vertex   9.195190e+01  7.199094e+01  5.734647e+01
      vertex   1.040689e+02  5.925428e+01  6.886028e+01
    endloop
  endfacet
  facet normal -7.913698e-01 -5.683346e-01  2.252323e-01
    outer loop
      vertex   1.041157e+02  5.982716e+01  6.939157e+01
      vertex   1.039626e+02  6.028456e+01  7.000803e+01
      vertex   9.195190e+01  7.199094e+01  5.734647e+01
    endloop
  endfacet
  facet normal  8.151623e-01  4.095738e-01 -4.095848e-01
    outer loop
      vertex   8.796751e+01  6.939779e+01  5.875142e+01
      vertex   1.001313e+02  5.723400e+01  7.079652e+01
      vertex   8.796474e+01  6.855670e+01  5.790484e+01
    endloop
  endfacet
  facet normal -6.928368e-01 -7.205512e-01 -2.798774e-02
    outer loop
      vertex   1.036263e+02  6.058306e+01  7.064912e+01
      vertex   9.179886e+01  7.244835e+01  5.796292e+01
      vertex   1.039626e+02  6.028456e+01  7.000803e+01
    endloop
  endfacet
  facet normal  6.229666e-01 -1.392731e-01 -7.697503e-01
    outer loop
      vertex   8.858476e+01  7.147484e+01  6.022559e+01
      vertex   1.007486e+02  5.931105e+01  7.227069e+01
      vertex   8.817286e+01  7.084557e+01  6.000608e+01
    endloop
  endfacet
  facet normal  7.551663e-01  1.163317e-01 -6.451285e-01
    outer loop
      vertex   8.817286e+01  7.084557e+01  6.000608e+01
      vertex   1.003366e+02  5.868178e+01  7.205119e+01
      vertex   8.793249e+01  7.021375e+01  5.961078e+01
    endloop
  endfacet
  facet normal  2.884825e-01  8.037520e-01  5.203466e-01
    outer loop
      vertex   1.030812e+02  6.350572e+01  7.415102e+01
      vertex   1.035495e+02  6.358920e+01  7.376250e+01
      vertex   9.091746e+01  7.566951e+01  6.210591e+01
    endloop
  endfacet
  facet normal  2.884886e-01  8.037533e-01  5.203412e-01
    outer loop
      vertex   9.138567e+01  7.575298e+01  6.171739e+01
      vertex   9.091746e+01  7.566951e+01  6.210591e+01
      vertex   1.035495e+02  6.358920e+01  7.376250e+01
    endloop
  endfacet
  facet normal  1.912312e-01  7.805492e-01  5.951247e-01
    outer loop
      vertex   9.091746e+01  7.566951e+01  6.210591e+01
      vertex   9.044060e+01  7.552808e+01  6.244464e+01
      vertex   1.030812e+02  6.350572e+01  7.415102e+01
    endloop
  endfacet
  facet normal -8.148947e-01 -3.932944e-01  4.257537e-01
    outer loop
      vertex   8.512489e+01  6.746902e+01  5.967427e+01
      vertex   9.728867e+01  5.530524e+01  7.171938e+01
      vertex   8.514133e+01  6.802720e+01  6.022134e+01
    endloop
  endfacet
  facet normal  8.974130e-02  7.446658e-01  6.613770e-01
    outer loop
      vertex   1.021229e+02  6.316723e+01  7.477695e+01
      vertex   9.044060e+01  7.552808e+01  6.244464e+01
      vertex   8.995914e+01  7.533102e+01  6.273185e+01
    endloop
  endfacet
  facet normal -8.142483e-01 -4.444906e-01  3.734003e-01
    outer loop
      vertex   8.512489e+01  6.746902e+01  5.967427e+01
      vertex   8.515523e+01  6.693294e+01  5.910226e+01
      vertex   9.728867e+01  5.530524e+01  7.171938e+01
    endloop
  endfacet
  facet normal -1.482389e-02  6.960310e-01  7.178587e-01
    outer loop
      vertex   1.021229e+02  6.316723e+01  7.477695e+01
      vertex   8.995914e+01  7.533102e+01  6.273185e+01
      vertex   1.016426e+02  6.291719e+01  7.500948e+01
    endloop
  endfacet
  facet normal -1.483152e-02  6.960273e-01  7.178621e-01
    outer loop
      vertex   8.947885e+01  7.508097e+01  6.296436e+01
      vertex   1.016426e+02  6.291719e+01  7.500948e+01
      vertex   8.995914e+01  7.533102e+01  6.273185e+01
    endloop
  endfacet
  facet normal -1.223606e-01  6.338796e-01  7.636914e-01
    outer loop
      vertex   1.011677e+02  6.261516e+01  7.518407e+01
      vertex   1.016426e+02  6.291719e+01  7.500948e+01
      vertex   8.900392e+01  7.477895e+01  6.313897e+01
    endloop
  endfacet
  facet normal -1.223502e-01  6.338866e-01  7.636873e-01
    outer loop
      vertex   8.947885e+01  7.508097e+01  6.296436e+01
      vertex   8.900392e+01  7.477895e+01  6.313897e+01
      vertex   1.016426e+02  6.291719e+01  7.500948e+01
    endloop
  endfacet
  facet normal -2.246366e-01  5.629684e-01  7.953646e-01
    outer loop
      vertex   1.011677e+02  6.261516e+01  7.518407e+01
      vertex   8.900392e+01  7.477895e+01  6.313897e+01
      vertex   8.853828e+01  7.442862e+01  6.325542e+01
    endloop
  endfacet
  facet normal -3.216871e-01  4.841053e-01  8.137318e-01
    outer loop
      vertex   8.808754e+01  7.403394e+01  6.331203e+01
      vertex   1.002513e+02  6.187016e+01  7.535714e+01
      vertex   8.853828e+01  7.442862e+01  6.325542e+01
    endloop
  endfacet
  facet normal -4.125106e-01  3.986099e-01  8.191124e-01
    outer loop
      vertex   8.808754e+01  7.403394e+01  6.331203e+01
      vertex   8.765576e+01  7.359727e+01  6.330709e+01
      vertex   1.002513e+02  6.187016e+01  7.535714e+01
    endloop
  endfacet
  facet normal -8.122618e-01 -4.694510e-01  3.461886e-01
    outer loop
      vertex   9.454636e+01  3.429925e+01  1.666338e+01
      vertex   1.067101e+02  2.213546e+01  2.870848e+01
      vertex   1.030505e+02  5.761244e+01  6.823068e+01
    endloop
  endfacet
  facet normal -8.122620e-01 -4.694507e-01  3.461886e-01
    outer loop
      vertex   9.088675e+01  6.977623e+01  5.618558e+01
      vertex   9.454636e+01  3.429925e+01  1.666338e+01
      vertex   1.030505e+02  5.761244e+01  6.823068e+01
    endloop
  endfacet
  facet normal -5.257455e-01 -8.031796e-01 -2.801682e-01
    outer loop
      vertex   1.036263e+02  6.058306e+01  7.064912e+01
      vertex   9.097444e+01  7.285596e+01  5.920710e+01
      vertex   9.146252e+01  7.274685e+01  5.860402e+01
    endloop
  endfacet
  facet normal -5.873180e-02 -7.314571e-01 -6.793534e-01
    outer loop
      vertex   9.038308e+01  7.276486e+01  5.971229e+01
      vertex   1.019106e+02  6.031950e+01  7.211559e+01
      vertex   8.974681e+01  7.248328e+01  6.007047e+01
    endloop
  endfacet
  facet normal  1.945311e-01 -5.850835e-01 -7.872961e-01
    outer loop
      vertex   1.019106e+02  6.031950e+01  7.211559e+01
      vertex   8.912732e+01  7.203910e+01  6.024750e+01
      vertex   8.974681e+01  7.248328e+01  6.007047e+01
    endloop
  endfacet
  facet normal  4.295018e-01 -3.811841e-01 -8.186738e-01
    outer loop
      vertex   1.007486e+02  5.931105e+01  7.227069e+01
      vertex   8.858476e+01  7.147484e+01  6.022559e+01
      vertex   8.912732e+01  7.203910e+01  6.024750e+01
    endloop
  endfacet
  facet normal -7.551661e-01 -1.163323e-01  6.451286e-01
    outer loop
      vertex   1.040689e+02  5.925428e+01  6.886028e+01
      vertex   9.190514e+01  7.141806e+01  5.681517e+01
      vertex   9.166476e+01  7.078625e+01  5.641987e+01
    endloop
  endfacet
  facet normal -6.928352e-01 -7.205525e-01 -2.799043e-02
    outer loop
      vertex   9.146252e+01  7.274685e+01  5.860402e+01
      vertex   9.179886e+01  7.244835e+01  5.796292e+01
      vertex   1.036263e+02  6.058306e+01  7.064912e+01
    endloop
  endfacet
  facet normal -5.257471e-01 -8.031794e-01 -2.801658e-01
    outer loop
      vertex   1.036263e+02  6.058306e+01  7.064912e+01
      vertex   1.031382e+02  6.069218e+01  7.125221e+01
      vertex   9.097444e+01  7.285596e+01  5.920710e+01
    endloop
  endfacet
  facet normal -3.069510e-01 -8.068221e-01 -5.047963e-01
    outer loop
      vertex   9.097444e+01  7.285596e+01  5.920710e+01
      vertex   1.031382e+02  6.069218e+01  7.125221e+01
      vertex   1.025469e+02  6.060108e+01  7.175740e+01
    endloop
  endfacet
  facet normal -3.069471e-01 -8.068216e-01 -5.047992e-01
    outer loop
      vertex   9.097444e+01  7.285596e+01  5.920710e+01
      vertex   1.025469e+02  6.060108e+01  7.175740e+01
      vertex   9.038308e+01  7.276486e+01  5.971229e+01
    endloop
  endfacet
  facet normal -5.872846e-02 -7.314559e-01 -6.793550e-01
    outer loop
      vertex   9.038308e+01  7.276486e+01  5.971229e+01
      vertex   1.025469e+02  6.060108e+01  7.175740e+01
      vertex   1.019106e+02  6.031950e+01  7.211559e+01
    endloop
  endfacet
  facet normal  1.945342e-01 -5.850813e-01 -7.872968e-01
    outer loop
      vertex   1.019106e+02  6.031950e+01  7.211559e+01
      vertex   1.012911e+02  5.987531e+01  7.229261e+01
      vertex   8.912732e+01  7.203910e+01  6.024750e+01
    endloop
  endfacet
  facet normal  4.295045e-01 -3.811812e-01 -8.186738e-01
    outer loop
      vertex   8.912732e+01  7.203910e+01  6.024750e+01
      vertex   1.012911e+02  5.987531e+01  7.229261e+01
      vertex   1.007486e+02  5.931105e+01  7.227069e+01
    endloop
  endfacet
  facet normal -4.125105e-01  3.986105e-01  8.191121e-01
    outer loop
      vertex   8.765576e+01  7.359727e+01  6.330709e+01
      vertex   9.981955e+01  6.143348e+01  7.535220e+01
      vertex   1.002513e+02  6.187016e+01  7.535714e+01
    endloop
  endfacet
endsolid vcg
