solid STL generated by MeshLab
  facet normal  0.000000e+00 -4.533371e-01  8.913391e-01
    outer loop
      vertex   1.909000e+00  6.900000e+00  5.323845e+01
      vertex  -1.909100e+01  7.371000e+00  5.347800e+01
      vertex  -1.909100e+01  6.900000e+00  5.323845e+01
    endloop
  endfacet
  facet normal  0.000000e+00  9.993166e-01  3.696296e-02
    outer loop
      vertex  -1.909100e+01  1.189630e+01  5.400300e+01
      vertex  -1.909100e+01  1.187100e+01  5.468700e+01
      vertex   1.909000e+00  1.187100e+01  5.468700e+01
    endloop
  endfacet
  facet normal -0.000000e+00  9.939305e-01  1.100108e-01
    outer loop
      vertex  -1.909100e+01  1.187100e+01  5.468700e+01
      vertex  -1.909100e+01  1.178500e+01  5.546400e+01
      vertex   1.909000e+00  1.187100e+01  5.468700e+01
    endloop
  endfacet
  facet normal  0.000000e+00 -4.533371e-01  8.913391e-01
    outer loop
      vertex   1.909000e+00  7.371000e+00  5.347800e+01
      vertex  -1.909100e+01  7.371000e+00  5.347800e+01
      vertex   1.909000e+00  6.900000e+00  5.323845e+01
    endloop
  endfacet
  facet normal -1.000000e+00  0.000000e+00 -0.000000e+00
    outer loop
      vertex  -1.909100e+01  1.657000e+00  5.956000e+01
      vertex  -1.909100e+01  3.875000e+00  5.697400e+01
      vertex  -1.909100e+01  1.262000e+00  5.897800e+01
    endloop
  endfacet
  facet normal -1.000000e+00  0.000000e+00 -0.000000e+00
    outer loop
      vertex  -1.909100e+01  1.262000e+00  5.897800e+01
      vertex  -1.909100e+01  3.875000e+00  5.697400e+01
      vertex  -1.909100e+01  9.110000e-01  5.834800e+01
    endloop
  endfacet
  facet normal -1.000000e+00  0.000000e+00 -0.000000e+00
    outer loop
      vertex  -1.909100e+01  9.110000e-01  5.834800e+01
      vertex  -1.909100e+01  3.875000e+00  5.697400e+01
      vertex  -1.909100e+01  6.080000e-01  5.767400e+01
    endloop
  endfacet
  facet normal -1.000000e+00  0.000000e+00  0.000000e+00
    outer loop
      vertex  -1.909100e+01  3.570000e-01  5.696400e+01
      vertex  -1.909100e+01  6.080000e-01  5.767400e+01
      vertex  -1.909100e+01  3.520000e+00  5.627600e+01
    endloop
  endfacet
  facet normal -1.000000e+00  0.000000e+00 -0.000000e+00
    outer loop
      vertex  -1.909100e+01  2.094000e+00  6.008700e+01
      vertex  -1.909100e+01  4.429000e+00  5.752800e+01
      vertex  -1.909100e+01  1.657000e+00  5.956000e+01
    endloop
  endfacet
  facet normal  0.000000e+00  1.000000e+00  0.000000e+00
    outer loop
      vertex   1.909000e+00  1.190000e+01  5.400300e+01
      vertex   1.909000e+00  1.190000e+01  5.559000e+00
      vertex  -1.909100e+01  1.190000e+01  5.400300e+01
    endloop
  endfacet
  facet normal  0.000000e+00  0.000000e+00  1.000000e+00
    outer loop
      vertex  -1.909100e+01  1.189630e+01  5.400300e+01
      vertex   1.909000e+00  1.189630e+01  5.400300e+01
      vertex  -1.909100e+01  1.190000e+01  5.400300e+01
    endloop
  endfacet
  facet normal  0.000000e+00  0.000000e+00  1.000000e+00
    outer loop
      vertex   1.909000e+00  1.190000e+01  5.400300e+01
      vertex  -1.909100e+01  1.190000e+01  5.400300e+01
      vertex   1.909000e+00  1.189630e+01  5.400300e+01
    endloop
  endfacet
  facet normal  0.000000e+00  9.993166e-01  3.696296e-02
    outer loop
      vertex   1.909000e+00  1.187100e+01  5.468700e+01
      vertex   1.909000e+00  1.189630e+01  5.400300e+01
      vertex  -1.909100e+01  1.189630e+01  5.400300e+01
    endloop
  endfacet
  facet normal -0.000000e+00  8.735684e-01  4.867013e-01
    outer loop
      vertex  -1.909100e+01  1.053800e+01  5.897800e+01
      vertex   1.909000e+00  1.053800e+01  5.897800e+01
      vertex   1.909000e+00  1.088900e+01  5.834800e+01
    endloop
  endfacet
  facet normal  0.000000e+00  8.274286e-01  5.615709e-01
    outer loop
      vertex   1.909000e+00  1.014300e+01  5.956000e+01
      vertex   1.909000e+00  1.053800e+01  5.897800e+01
      vertex  -1.909100e+01  1.053800e+01  5.897800e+01
    endloop
  endfacet
  facet normal -0.000000e+00  3.157328e-01  9.488481e-01
    outer loop
      vertex  -1.909100e+01  7.071000e+00  6.174900e+01
      vertex   1.909000e+00  7.071000e+00  6.174900e+01
      vertex   1.909000e+00  7.642000e+00  6.155900e+01
    endloop
  endfacet
  facet normal  0.000000e+00 -9.827989e-01  1.846789e-01
    outer loop
      vertex  -1.909100e+01  1.500000e-02  5.546400e+01
      vertex   1.909000e+00  1.500000e-02  5.546400e+01
      vertex   1.909000e+00  1.580000e-01  5.622500e+01
    endloop
  endfacet
  facet normal  0.000000e+00 -9.827989e-01  1.846789e-01
    outer loop
      vertex  -1.909100e+01  1.580000e-01  5.622500e+01
      vertex  -1.909100e+01  1.500000e-02  5.546400e+01
      vertex   1.909000e+00  1.580000e-01  5.622500e+01
    endloop
  endfacet
  facet normal  1.000000e+00 -0.000000e+00  0.000000e+00
    outer loop
      vertex   1.909000e+00  1.500000e-02  5.546400e+01
      vertex   1.909000e+00 -7.100000e-02  5.468700e+01
      vertex   1.909000e+00  3.398000e+00  5.550300e+01
    endloop
  endfacet
  facet normal  1.000000e+00  0.000000e+00  0.000000e+00
    outer loop
      vertex   1.909000e+00  1.580000e-01  5.622500e+01
      vertex   1.909000e+00  1.500000e-02  5.546400e+01
      vertex   1.909000e+00  3.398000e+00  5.550300e+01
    endloop
  endfacet
  facet normal  1.000000e+00  0.000000e+00  0.000000e+00
    outer loop
      vertex   1.909000e+00  3.462890e+00  5.509182e+01
      vertex   1.909000e+00  3.398000e+00  5.550300e+01
      vertex   1.909000e+00 -7.100000e-02  5.468700e+01
    endloop
  endfacet
  facet normal  1.000000e+00  0.000000e+00 -0.000000e+00
    outer loop
      vertex   1.909000e+00  3.358870e+00  5.390300e+01
      vertex   1.909000e+00  3.462890e+00  5.509182e+01
      vertex   1.909000e+00 -7.100000e-02  5.468700e+01
    endloop
  endfacet
  facet normal  1.000000e+00  0.000000e+00 -0.000000e+00
    outer loop
      vertex   1.909000e+00  3.398000e+00  5.550300e+01
      vertex   1.909000e+00  3.520000e+00  5.627600e+01
      vertex   1.909000e+00  1.580000e-01  5.622500e+01
    endloop
  endfacet
  facet normal  1.000000e+00  0.000000e+00 -0.000000e+00
    outer loop
      vertex   1.909000e+00  3.875000e+00  5.697400e+01
      vertex   1.909000e+00  4.429000e+00  5.752800e+01
      vertex   1.909000e+00  1.657000e+00  5.956000e+01
    endloop
  endfacet
  facet normal  1.000000e+00  0.000000e+00  0.000000e+00
    outer loop
      vertex   1.909000e+00  1.657000e+00  5.956000e+01
      vertex   1.909000e+00  1.262000e+00  5.897800e+01
      vertex   1.909000e+00  3.875000e+00  5.697400e+01
    endloop
  endfacet
  facet normal  1.000000e+00  0.000000e+00  0.000000e+00
    outer loop
      vertex   1.909000e+00  9.110000e-01  5.834800e+01
      vertex   1.909000e+00  6.080000e-01  5.767400e+01
      vertex   1.909000e+00  3.875000e+00  5.697400e+01
    endloop
  endfacet
  facet normal  1.000000e+00 -0.000000e+00  0.000000e+00
    outer loop
      vertex   1.909000e+00  9.110000e-01  5.834800e+01
      vertex   1.909000e+00  3.875000e+00  5.697400e+01
      vertex   1.909000e+00  1.262000e+00  5.897800e+01
    endloop
  endfacet
  facet normal  1.000000e+00  0.000000e+00 -0.000000e+00
    outer loop
      vertex   1.909000e+00  3.520000e+00  5.627600e+01
      vertex   1.909000e+00  3.875000e+00  5.697400e+01
      vertex   1.909000e+00  6.080000e-01  5.767400e+01
    endloop
  endfacet
  facet normal  1.000000e+00 -0.000000e+00  0.000000e+00
    outer loop
      vertex   1.909000e+00  3.570000e-01  5.696400e+01
      vertex   1.909000e+00  3.520000e+00  5.627600e+01
      vertex   1.909000e+00  6.080000e-01  5.767400e+01
    endloop
  endfacet
  facet normal  1.000000e+00  0.000000e+00  0.000000e+00
    outer loop
      vertex   1.909000e+00  1.580000e-01  5.622500e+01
      vertex   1.909000e+00  3.520000e+00  5.627600e+01
      vertex   1.909000e+00  3.570000e-01  5.696400e+01
    endloop
  endfacet
  facet normal  1.000000e+00  0.000000e+00  0.000000e+00
    outer loop
      vertex   1.909000e+00 -1.000000e-01  5.390300e+01
      vertex   1.909000e+00  3.358870e+00  5.390300e+01
      vertex   1.909000e+00 -7.100000e-02  5.468700e+01
    endloop
  endfacet
  facet normal  1.000000e+00  0.000000e+00  0.000000e+00
    outer loop
      vertex   1.909000e+00  6.900000e+00  3.000000e-03
      vertex   1.909000e+00  1.190000e+01  5.559000e+00
      vertex   1.909000e+00  6.900000e+00  5.323845e+01
    endloop
  endfacet
  facet normal  1.000000e+00  0.000000e+00  0.000000e+00
    outer loop
      vertex   1.909000e+00  8.280000e+00  5.473000e+01
      vertex   1.909000e+00  7.925000e+00  5.403200e+01
      vertex   1.909000e+00  1.189630e+01  5.400300e+01
    endloop
  endfacet
  facet normal  0.000000e+00 -7.071070e-01  7.071065e-01
    outer loop
      vertex   1.909000e+00  7.371000e+00  5.347800e+01
      vertex  -1.909100e+01  7.925000e+00  5.403200e+01
      vertex  -1.909100e+01  7.371000e+00  5.347800e+01
    endloop
  endfacet
  facet normal -0.000000e+00  1.935230e-01  9.810958e-01
    outer loop
      vertex  -1.909100e+01  7.071000e+00  6.174900e+01
      vertex   1.909000e+00  6.488000e+00  6.186400e+01
      vertex   1.909000e+00  7.071000e+00  6.174900e+01
    endloop
  endfacet
  facet normal  0.000000e+00 -8.913411e-01  4.533332e-01
    outer loop
      vertex   1.909000e+00  7.925000e+00  5.403200e+01
      vertex   1.909000e+00  8.280000e+00  5.473000e+01
      vertex  -1.909100e+01  7.925000e+00  5.403200e+01
    endloop
  endfacet
  facet normal  0.000000e+00  8.913409e-01 -4.533337e-01
    outer loop
      vertex  -1.909100e+01  3.520000e+00  5.627600e+01
      vertex   1.909000e+00  3.875000e+00  5.697400e+01
      vertex   1.909000e+00  3.520000e+00  5.627600e+01
    endloop
  endfacet
  facet normal  0.000000e+00 -1.935231e-01  9.810957e-01
    outer loop
      vertex   1.909000e+00  5.312000e+00  6.186400e+01
      vertex  -1.909100e+01  4.729000e+00  6.174900e+01
      vertex   1.909000e+00  4.729000e+00  6.174900e+01
    endloop
  endfacet
  facet normal  0.000000e+00 -3.157328e-01  9.488481e-01
    outer loop
      vertex  -1.909100e+01  4.729000e+00  6.174900e+01
      vertex   1.909000e+00  4.158000e+00  6.155900e+01
      vertex   1.909000e+00  4.729000e+00  6.174900e+01
    endloop
  endfacet
  facet normal  0.000000e+00  9.877734e-01 -1.558964e-01
    outer loop
      vertex  -1.909100e+01  3.520000e+00  5.627600e+01
      vertex   1.909000e+00  3.520000e+00  5.627600e+01
      vertex  -1.909100e+01  3.398000e+00  5.550300e+01
    endloop
  endfacet
  facet normal  0.000000e+00  9.877751e-01  1.558852e-01
    outer loop
      vertex   1.909000e+00  3.398000e+00  5.550300e+01
      vertex   1.909000e+00  3.462890e+00  5.509182e+01
      vertex  -1.909100e+01  3.398000e+00  5.550300e+01
    endloop
  endfacet
  facet normal  0.000000e+00 -7.071070e-01  7.071065e-01
    outer loop
      vertex   1.909000e+00  7.925000e+00  5.403200e+01
      vertex  -1.909100e+01  7.925000e+00  5.403200e+01
      vertex   1.909000e+00  7.371000e+00  5.347800e+01
    endloop
  endfacet
  facet normal  0.000000e+00  9.877751e-01  1.558852e-01
    outer loop
      vertex   1.909000e+00  3.462890e+00  5.509182e+01
      vertex  -1.909100e+01  3.462890e+00  5.509182e+01
      vertex  -1.909100e+01  3.398000e+00  5.550300e+01
    endloop
  endfacet
  facet normal -1.000000e+00  0.000000e+00 -0.000000e+00
    outer loop
      vertex  -1.909100e+01  7.371000e+00  5.347800e+01
      vertex  -1.909100e+01  1.190000e+01  5.559000e+00
      vertex  -1.909100e+01  6.900000e+00  5.323845e+01
    endloop
  endfacet
  facet normal -1.000000e+00  0.000000e+00 -0.000000e+00
    outer loop
      vertex  -1.909100e+01  7.925000e+00  5.403200e+01
      vertex  -1.909100e+01  1.190000e+01  5.559000e+00
      vertex  -1.909100e+01  7.371000e+00  5.347800e+01
    endloop
  endfacet
  facet normal  0.000000e+00  9.877734e-01 -1.558964e-01
    outer loop
      vertex   1.909000e+00  3.520000e+00  5.627600e+01
      vertex   1.909000e+00  3.398000e+00  5.550300e+01
      vertex  -1.909100e+01  3.398000e+00  5.550300e+01
    endloop
  endfacet
  facet normal  0.000000e+00  9.961938e-01 -8.716540e-02
    outer loop
      vertex   1.909000e+00  3.358870e+00  5.390300e+01
      vertex  -1.909100e+01  3.358870e+00  5.390300e+01
      vertex   1.909000e+00  3.462890e+00  5.509182e+01
    endloop
  endfacet
  facet normal -1.000000e+00  0.000000e+00  0.000000e+00
    outer loop
      vertex  -1.909100e+01  1.190000e+01  5.559000e+00
      vertex  -1.909100e+01  1.189630e+01  5.400300e+01
      vertex  -1.909100e+01  1.190000e+01  5.400300e+01
    endloop
  endfacet
  facet normal  0.000000e+00 -9.939305e-01  1.100103e-01
    outer loop
      vertex  -1.909100e+01  1.500000e-02  5.546400e+01
      vertex   1.909000e+00 -7.100000e-02  5.468700e+01
      vertex   1.909000e+00  1.500000e-02  5.546400e+01
    endloop
  endfacet
  facet normal  1.000000e+00  0.000000e+00  0.000000e+00
    outer loop
      vertex   1.909000e+00  1.190000e+01  5.400300e+01
      vertex   1.909000e+00  1.189630e+01  5.400300e+01
      vertex   1.909000e+00  1.190000e+01  5.559000e+00
    endloop
  endfacet
  facet normal -1.000000e+00  0.000000e+00  0.000000e+00
    outer loop
      vertex  -1.909100e+01  8.280000e+00  5.473000e+01
      vertex  -1.909100e+01  8.403000e+00  5.550300e+01
      vertex  -1.909100e+01  1.187100e+01  5.468700e+01
    endloop
  endfacet
  facet normal -1.000000e+00 -0.000000e+00 -0.000000e+00
    outer loop
      vertex  -1.909100e+01  1.178500e+01  5.546400e+01
      vertex  -1.909100e+01  1.187100e+01  5.468700e+01
      vertex  -1.909100e+01  8.403000e+00  5.550300e+01
    endloop
  endfacet
  facet normal  0.000000e+00 -5.339913e-01  8.454900e-01
    outer loop
      vertex  -1.909100e+01  3.072000e+00  6.095800e+01
      vertex   1.909000e+00  3.072000e+00  6.095800e+01
      vertex   1.909000e+00  3.604000e+00  6.129400e+01
    endloop
  endfacet
  facet normal -1.000000e+00  0.000000e+00 -0.000000e+00
    outer loop
      vertex  -1.909100e+01  9.233000e+00  6.055500e+01
      vertex  -1.909100e+01  9.706000e+00  6.008700e+01
      vertex  -1.909100e+01  7.371000e+00  5.752800e+01
    endloop
  endfacet
  facet normal  1.000000e+00  0.000000e+00  0.000000e+00
    outer loop
      vertex   1.909000e+00  7.925000e+00  5.403200e+01
      vertex   1.909000e+00  7.371000e+00  5.347800e+01
      vertex   1.909000e+00  1.190000e+01  5.559000e+00
    endloop
  endfacet
  facet normal  1.000000e+00  0.000000e+00  0.000000e+00
    outer loop
      vertex   1.909000e+00  8.403000e+00  5.550300e+01
      vertex   1.909000e+00  8.280000e+00  5.473000e+01
      vertex   1.909000e+00  1.187100e+01  5.468700e+01
    endloop
  endfacet
  facet normal -1.000000e+00  0.000000e+00 -0.000000e+00
    outer loop
      vertex  -1.909100e+01  7.642000e+00  6.155900e+01
      vertex  -1.909100e+01  8.196000e+00  6.129400e+01
      vertex  -1.909100e+01  6.673000e+00  5.788300e+01
    endloop
  endfacet
  facet normal -1.000000e+00  0.000000e+00 -0.000000e+00
    outer loop
      vertex  -1.909100e+01  8.196000e+00  6.129400e+01
      vertex  -1.909100e+01  8.728000e+00  6.095800e+01
      vertex  -1.909100e+01  6.673000e+00  5.788300e+01
    endloop
  endfacet
  facet normal  0.000000e+00 -7.033386e-01  7.108549e-01
    outer loop
      vertex   1.909000e+00  2.094000e+00  6.008700e+01
      vertex   1.909000e+00  2.567000e+00  6.055500e+01
      vertex  -1.909100e+01  2.094000e+00  6.008700e+01
    endloop
  endfacet
  facet normal  0.000000e+00 -7.697756e-01  6.383146e-01
    outer loop
      vertex  -1.909100e+01  2.094000e+00  6.008700e+01
      vertex   1.909000e+00  1.657000e+00  5.956000e+01
      vertex   1.909000e+00  2.094000e+00  6.008700e+01
    endloop
  endfacet
  facet normal  1.000000e+00  0.000000e+00  0.000000e+00
    outer loop
      vertex   1.909000e+00  7.642000e+00  6.155900e+01
      vertex   1.909000e+00  7.071000e+00  6.174900e+01
      vertex   1.909000e+00  6.673000e+00  5.788300e+01
    endloop
  endfacet
  facet normal -1.000000e+00  0.000000e+00 -0.000000e+00
    outer loop
      vertex  -1.909100e+01  9.706000e+00  6.008700e+01
      vertex  -1.909100e+01  1.014300e+01  5.956000e+01
      vertex  -1.909100e+01  7.371000e+00  5.752800e+01
    endloop
  endfacet
  facet normal -1.000000e+00  0.000000e+00  0.000000e+00
    outer loop
      vertex  -1.909100e+01  7.925000e+00  5.697400e+01
      vertex  -1.909100e+01  7.371000e+00  5.752800e+01
      vertex  -1.909100e+01  1.014300e+01  5.956000e+01
    endloop
  endfacet
  facet normal -1.000000e+00  0.000000e+00 -0.000000e+00
    outer loop
      vertex  -1.909100e+01  1.014300e+01  5.956000e+01
      vertex  -1.909100e+01  1.053800e+01  5.897800e+01
      vertex  -1.909100e+01  7.925000e+00  5.697400e+01
    endloop
  endfacet
  facet normal -1.000000e+00  0.000000e+00 -0.000000e+00
    outer loop
      vertex  -1.909100e+01  1.053800e+01  5.897800e+01
      vertex  -1.909100e+01  1.088900e+01  5.834800e+01
      vertex  -1.909100e+01  7.925000e+00  5.697400e+01
    endloop
  endfacet
  facet normal -1.000000e+00  0.000000e+00 -0.000000e+00
    outer loop
      vertex  -1.909100e+01  1.088900e+01  5.834800e+01
      vertex  -1.909100e+01  1.119200e+01  5.767400e+01
      vertex  -1.909100e+01  7.925000e+00  5.697400e+01
    endloop
  endfacet
  facet normal -1.000000e+00  0.000000e+00  0.000000e+00
    outer loop
      vertex  -1.909100e+01  8.280000e+00  5.627600e+01
      vertex  -1.909100e+01  7.925000e+00  5.697400e+01
      vertex  -1.909100e+01  1.119200e+01  5.767400e+01
    endloop
  endfacet
  facet normal -1.000000e+00  0.000000e+00 -0.000000e+00
    outer loop
      vertex  -1.909100e+01  1.119200e+01  5.767400e+01
      vertex  -1.909100e+01  1.144300e+01  5.696400e+01
      vertex  -1.909100e+01  8.280000e+00  5.627600e+01
    endloop
  endfacet
  facet normal -1.000000e+00  0.000000e+00 -0.000000e+00
    outer loop
      vertex  -1.909100e+01  1.144300e+01  5.696400e+01
      vertex  -1.909100e+01  1.164200e+01  5.622500e+01
      vertex  -1.909100e+01  8.280000e+00  5.627600e+01
    endloop
  endfacet
  facet normal -1.000000e+00  0.000000e+00  0.000000e+00
    outer loop
      vertex  -1.909100e+01  8.403000e+00  5.550300e+01
      vertex  -1.909100e+01  8.280000e+00  5.627600e+01
      vertex  -1.909100e+01  1.164200e+01  5.622500e+01
    endloop
  endfacet
  facet normal -1.000000e+00  0.000000e+00  0.000000e+00
    outer loop
      vertex  -1.909100e+01  1.178500e+01  5.546400e+01
      vertex  -1.909100e+01  8.403000e+00  5.550300e+01
      vertex  -1.909100e+01  1.164200e+01  5.622500e+01
    endloop
  endfacet
  facet normal -1.000000e+00  0.000000e+00  0.000000e+00
    outer loop
      vertex  -1.909100e+01  1.189630e+01  5.400300e+01
      vertex  -1.909100e+01  8.280000e+00  5.473000e+01
      vertex  -1.909100e+01  1.187100e+01  5.468700e+01
    endloop
  endfacet
  facet normal -1.000000e+00  0.000000e+00  0.000000e+00
    outer loop
      vertex  -1.909100e+01  1.190000e+01  5.559000e+00
      vertex  -1.909100e+01  7.925000e+00  5.403200e+01
      vertex  -1.909100e+01  1.189630e+01  5.400300e+01
    endloop
  endfacet
  facet normal -1.000000e+00  0.000000e+00  0.000000e+00
    outer loop
      vertex  -1.909100e+01  6.900000e+00  3.000000e-03
      vertex  -1.909100e+01  6.900000e+00  5.323845e+01
      vertex  -1.909100e+01  1.190000e+01  5.559000e+00
    endloop
  endfacet
  facet normal -1.000000e+00  0.000000e+00 -0.000000e+00
    outer loop
      vertex  -1.909100e+01  8.280000e+00  5.473000e+01
      vertex  -1.909100e+01  1.189630e+01  5.400300e+01
      vertex  -1.909100e+01  7.925000e+00  5.403200e+01
    endloop
  endfacet
  facet normal  0.000000e+00 -9.120733e-01  4.100272e-01
    outer loop
      vertex   1.909000e+00  9.110000e-01  5.834800e+01
      vertex  -1.909100e+01  9.110000e-01  5.834800e+01
      vertex   1.909000e+00  6.080000e-01  5.767400e+01
    endloop
  endfacet
  facet normal  1.000000e+00  0.000000e+00  0.000000e+00
    outer loop
      vertex   1.909000e+00  1.144300e+01  5.696400e+01
      vertex   1.909000e+00  8.280000e+00  5.627600e+01
      vertex   1.909000e+00  1.164200e+01  5.622500e+01
    endloop
  endfacet
  facet normal  1.000000e+00  0.000000e+00  0.000000e+00
    outer loop
      vertex   1.909000e+00  1.119200e+01  5.767400e+01
      vertex   1.909000e+00  8.280000e+00  5.627600e+01
      vertex   1.909000e+00  1.144300e+01  5.696400e+01
    endloop
  endfacet
  facet normal  1.000000e+00  0.000000e+00  0.000000e+00
    outer loop
      vertex   1.909000e+00  1.088900e+01  5.834800e+01
      vertex   1.909000e+00  7.925000e+00  5.697400e+01
      vertex   1.909000e+00  1.119200e+01  5.767400e+01
    endloop
  endfacet
  facet normal  1.000000e+00  0.000000e+00  0.000000e+00
    outer loop
      vertex   1.909000e+00  1.053800e+01  5.897800e+01
      vertex   1.909000e+00  7.925000e+00  5.697400e+01
      vertex   1.909000e+00  1.088900e+01  5.834800e+01
    endloop
  endfacet
  facet normal  1.000000e+00  0.000000e+00  0.000000e+00
    outer loop
      vertex   1.909000e+00  1.014300e+01  5.956000e+01
      vertex   1.909000e+00  7.925000e+00  5.697400e+01
      vertex   1.909000e+00  1.053800e+01  5.897800e+01
    endloop
  endfacet
  facet normal  1.000000e+00  0.000000e+00  0.000000e+00
    outer loop
      vertex   1.909000e+00  9.706000e+00  6.008700e+01
      vertex   1.909000e+00  7.371000e+00  5.752800e+01
      vertex   1.909000e+00  1.014300e+01  5.956000e+01
    endloop
  endfacet
  facet normal  1.000000e+00  0.000000e+00  0.000000e+00
    outer loop
      vertex   1.909000e+00  8.280000e+00  5.627600e+01
      vertex   1.909000e+00  8.403000e+00  5.550300e+01
      vertex   1.909000e+00  1.164200e+01  5.622500e+01
    endloop
  endfacet
  facet normal  1.000000e+00  0.000000e+00  0.000000e+00
    outer loop
      vertex   1.909000e+00  1.178500e+01  5.546400e+01
      vertex   1.909000e+00  1.164200e+01  5.622500e+01
      vertex   1.909000e+00  8.403000e+00  5.550300e+01
    endloop
  endfacet
  facet normal  1.000000e+00  0.000000e+00  0.000000e+00
    outer loop
      vertex   1.909000e+00  1.187100e+01  5.468700e+01
      vertex   1.909000e+00  1.178500e+01  5.546400e+01
      vertex   1.909000e+00  8.403000e+00  5.550300e+01
    endloop
  endfacet
  facet normal  1.000000e+00  0.000000e+00  0.000000e+00
    outer loop
      vertex   1.909000e+00  8.728000e+00  6.095800e+01
      vertex   1.909000e+00  6.673000e+00  5.788300e+01
      vertex   1.909000e+00  9.233000e+00  6.055500e+01
    endloop
  endfacet
  facet normal  1.000000e+00  0.000000e+00  0.000000e+00
    outer loop
      vertex   1.909000e+00  1.189630e+01  5.400300e+01
      vertex   1.909000e+00  1.187100e+01  5.468700e+01
      vertex   1.909000e+00  8.280000e+00  5.473000e+01
    endloop
  endfacet
  facet normal  1.000000e+00  0.000000e+00  0.000000e+00
    outer loop
      vertex   1.909000e+00  1.190000e+01  5.559000e+00
      vertex   1.909000e+00  1.189630e+01  5.400300e+01
      vertex   1.909000e+00  7.925000e+00  5.403200e+01
    endloop
  endfacet
  facet normal  0.000000e+00 -9.428184e-01  3.333067e-01
    outer loop
      vertex   1.909000e+00  3.570000e-01  5.696400e+01
      vertex   1.909000e+00  6.080000e-01  5.767400e+01
      vertex  -1.909100e+01  3.570000e-01  5.696400e+01
    endloop
  endfacet
  facet normal -1.000000e+00  0.000000e+00 -0.000000e+00
    outer loop
      vertex  -1.909100e+01  8.728000e+00  6.095800e+01
      vertex  -1.909100e+01  9.233000e+00  6.055500e+01
      vertex  -1.909100e+01  6.673000e+00  5.788300e+01
    endloop
  endfacet
  facet normal -1.000000e+00  0.000000e+00  0.000000e+00
    outer loop
      vertex  -1.909100e+01  7.371000e+00  5.752800e+01
      vertex  -1.909100e+01  6.673000e+00  5.788300e+01
      vertex  -1.909100e+01  9.233000e+00  6.055500e+01
    endloop
  endfacet
  facet normal  1.000000e+00  0.000000e+00  0.000000e+00
    outer loop
      vertex   1.909000e+00  7.371000e+00  5.347800e+01
      vertex   1.909000e+00  6.900000e+00  5.323845e+01
      vertex   1.909000e+00  1.190000e+01  5.559000e+00
    endloop
  endfacet
  facet normal -1.000000e+00  0.000000e+00  0.000000e+00
    outer loop
      vertex  -1.909100e+01  4.429000e+00  5.752800e+01
      vertex  -1.909100e+01  2.567000e+00  6.055500e+01
      vertex  -1.909100e+01  5.127000e+00  5.788300e+01
    endloop
  endfacet
  facet normal -0.000000e+00  9.939305e-01  1.100108e-01
    outer loop
      vertex  -1.909100e+01  1.178500e+01  5.546400e+01
      vertex   1.909000e+00  1.178500e+01  5.546400e+01
      vertex   1.909000e+00  1.187100e+01  5.468700e+01
    endloop
  endfacet
  facet normal  1.000000e+00  0.000000e+00 -0.000000e+00
    outer loop
      vertex   1.909000e+00  8.280000e+00  5.627600e+01
      vertex   1.909000e+00  1.119200e+01  5.767400e+01
      vertex   1.909000e+00  7.925000e+00  5.697400e+01
    endloop
  endfacet
  facet normal  1.000000e+00  0.000000e+00  0.000000e+00
    outer loop
      vertex   1.909000e+00  9.233000e+00  6.055500e+01
      vertex   1.909000e+00  7.371000e+00  5.752800e+01
      vertex   1.909000e+00  9.706000e+00  6.008700e+01
    endloop
  endfacet
  facet normal  1.000000e+00  0.000000e+00 -0.000000e+00
    outer loop
      vertex   1.909000e+00  7.925000e+00  5.697400e+01
      vertex   1.909000e+00  1.014300e+01  5.956000e+01
      vertex   1.909000e+00  7.371000e+00  5.752800e+01
    endloop
  endfacet
  facet normal  0.000000e+00  7.071074e-01 -7.071062e-01
    outer loop
      vertex   1.909000e+00  4.429000e+00  5.752800e+01
      vertex   1.909000e+00  3.875000e+00  5.697400e+01
      vertex  -1.909100e+01  3.875000e+00  5.697400e+01
    endloop
  endfacet
  facet normal  1.000000e+00  0.000000e+00  0.000000e+00
    outer loop
      vertex   1.909000e+00  5.312000e+00  6.186400e+01
      vertex   1.909000e+00  4.729000e+00  6.174900e+01
      vertex   1.909000e+00  5.900000e+00  5.800500e+01
    endloop
  endfacet
  facet normal  0.000000e+00  0.000000e+00  1.000000e+00
    outer loop
      vertex   1.909000e+00  2.600000e+01  1.500000e+01
      vertex  -1.909100e+01  2.600000e+01  1.500000e+01
      vertex  -1.909100e+01  2.100000e+01  1.500000e+01
    endloop
  endfacet
  facet normal  0.000000e+00  0.000000e+00  1.000000e+00
    outer loop
      vertex   1.909000e+00  2.600000e+01  1.500000e+01
      vertex  -1.909100e+01  2.100000e+01  1.500000e+01
      vertex   1.909000e+00  2.100000e+01  1.500000e+01
    endloop
  endfacet
  facet normal -0.000000e+00  9.827990e-01  1.846785e-01
    outer loop
      vertex  -1.909100e+01  1.164200e+01  5.622500e+01
      vertex   1.909000e+00  1.164200e+01  5.622500e+01
      vertex  -1.909100e+01  1.178500e+01  5.546400e+01
    endloop
  endfacet
  facet normal  0.000000e+00  9.827990e-01  1.846785e-01
    outer loop
      vertex   1.909000e+00  1.178500e+01  5.546400e+01
      vertex  -1.909100e+01  1.178500e+01  5.546400e+01
      vertex   1.909000e+00  1.164200e+01  5.622500e+01
    endloop
  endfacet
  facet normal  0.000000e+00  0.000000e+00 -1.000000e+00
    outer loop
      vertex   1.909000e+00  2.100000e+01  0.000000e+00
      vertex  -1.909100e+01  2.100000e+01  0.000000e+00
      vertex  -1.909100e+01  2.600000e+01  0.000000e+00
    endloop
  endfacet
  facet normal  0.000000e+00  0.000000e+00 -1.000000e+00
    outer loop
      vertex   1.909000e+00  2.100000e+01  0.000000e+00
      vertex  -1.909100e+01  2.600000e+01  0.000000e+00
      vertex   1.909000e+00  2.600000e+01  0.000000e+00
    endloop
  endfacet
  facet normal  0.000000e+00  0.000000e+00 -1.000000e+00
    outer loop
      vertex   1.909000e+00  6.900000e+00  3.000000e-03
      vertex  -1.909100e+01  6.900000e+00  3.000000e-03
      vertex   1.909000e+00  2.100000e+01  3.000000e-03
    endloop
  endfacet
  facet normal -1.000000e+00 -0.000000e+00  0.000000e+00
    outer loop
      vertex  -1.909100e+01  5.900000e+00  5.800500e+01
      vertex  -1.909100e+01  5.127000e+00  5.788300e+01
      vertex  -1.909100e+01  4.729000e+00  6.174900e+01
    endloop
  endfacet
  facet normal -1.000000e+00  0.000000e+00  0.000000e+00
    outer loop
      vertex  -1.909100e+01  3.604000e+00  6.129400e+01
      vertex  -1.909100e+01  4.158000e+00  6.155900e+01
      vertex  -1.909100e+01  5.127000e+00  5.788300e+01
    endloop
  endfacet
  facet normal -1.000000e+00  0.000000e+00 -0.000000e+00
    outer loop
      vertex  -1.909100e+01  3.604000e+00  6.129400e+01
      vertex  -1.909100e+01  5.127000e+00  5.788300e+01
      vertex  -1.909100e+01  3.072000e+00  6.095800e+01
    endloop
  endfacet
  facet normal -1.000000e+00  0.000000e+00  0.000000e+00
    outer loop
      vertex  -1.909100e+01  4.729000e+00  6.174900e+01
      vertex  -1.909100e+01  5.312000e+00  6.186400e+01
      vertex  -1.909100e+01  5.900000e+00  5.800500e+01
    endloop
  endfacet
  facet normal -1.000000e+00  0.000000e+00  0.000000e+00
    outer loop
      vertex  -1.909100e+01  5.312000e+00  6.186400e+01
      vertex  -1.909100e+01  5.900000e+00  6.190300e+01
      vertex  -1.909100e+01  5.900000e+00  5.800500e+01
    endloop
  endfacet
  facet normal -1.000000e+00  0.000000e+00  0.000000e+00
    outer loop
      vertex  -1.909100e+01  5.900000e+00  6.190300e+01
      vertex  -1.909100e+01  6.488000e+00  6.186400e+01
      vertex  -1.909100e+01  5.900000e+00  5.800500e+01
    endloop
  endfacet
  facet normal -1.000000e+00  0.000000e+00 -0.000000e+00
    outer loop
      vertex  -1.909100e+01  6.488000e+00  6.186400e+01
      vertex  -1.909100e+01  7.071000e+00  6.174900e+01
      vertex  -1.909100e+01  5.900000e+00  5.800500e+01
    endloop
  endfacet
  facet normal -1.000000e+00  0.000000e+00  0.000000e+00
    outer loop
      vertex  -1.909100e+01  6.673000e+00  5.788300e+01
      vertex  -1.909100e+01  5.900000e+00  5.800500e+01
      vertex  -1.909100e+01  7.071000e+00  6.174900e+01
    endloop
  endfacet
  facet normal -1.000000e+00  0.000000e+00  0.000000e+00
    outer loop
      vertex  -1.909100e+01  6.673000e+00  5.788300e+01
      vertex  -1.909100e+01  7.071000e+00  6.174900e+01
      vertex  -1.909100e+01  7.642000e+00  6.155900e+01
    endloop
  endfacet
  facet normal -0.000000e+00  9.656032e-01  2.600200e-01
    outer loop
      vertex  -1.909100e+01  1.164200e+01  5.622500e+01
      vertex  -1.909100e+01  1.144300e+01  5.696400e+01
      vertex   1.909000e+00  1.164200e+01  5.622500e+01
    endloop
  endfacet
  facet normal  0.000000e+00  9.656032e-01  2.600200e-01
    outer loop
      vertex   1.909000e+00  1.144300e+01  5.696400e+01
      vertex   1.909000e+00  1.164200e+01  5.622500e+01
      vertex  -1.909100e+01  1.144300e+01  5.696400e+01
    endloop
  endfacet
  facet normal -0.000000e+00  0.000000e+00 -1.000000e+00
    outer loop
      vertex   1.909000e+00  2.100000e+01  3.000000e-03
      vertex  -1.909100e+01  6.900000e+00  3.000000e-03
      vertex  -1.909100e+01  2.100000e+01  3.000000e-03
    endloop
  endfacet
  facet normal  1.000000e+00  0.000000e+00 -0.000000e+00
    outer loop
      vertex   1.909000e+00  7.371000e+00  5.752800e+01
      vertex   1.909000e+00  9.233000e+00  6.055500e+01
      vertex   1.909000e+00  6.673000e+00  5.788300e+01
    endloop
  endfacet
  facet normal  1.000000e+00  0.000000e+00  0.000000e+00
    outer loop
      vertex   1.909000e+00  8.728000e+00  6.095800e+01
      vertex   1.909000e+00  8.196000e+00  6.129400e+01
      vertex   1.909000e+00  6.673000e+00  5.788300e+01
    endloop
  endfacet
  facet normal  0.000000e+00  0.000000e+00  1.000000e+00
    outer loop
      vertex  -1.909100e+01  1.190000e+01  5.559000e+00
      vertex   1.909000e+00  2.100000e+01  5.559000e+00
      vertex  -1.909100e+01  2.100000e+01  5.559000e+00
    endloop
  endfacet
  facet normal  0.000000e+00  0.000000e+00  1.000000e+00
    outer loop
      vertex   1.909000e+00  2.100000e+01  5.559000e+00
      vertex  -1.909100e+01  1.190000e+01  5.559000e+00
      vertex   1.909000e+00  1.190000e+01  5.559000e+00
    endloop
  endfacet
  facet normal  0.000000e+00  1.000000e+00  0.000000e+00
    outer loop
      vertex  -1.909100e+01  1.190000e+01  5.400300e+01
      vertex   1.909000e+00  1.190000e+01  5.559000e+00
      vertex  -1.909100e+01  1.190000e+01  5.559000e+00
    endloop
  endfacet
  facet normal  0.000000e+00  9.428186e-01  3.333060e-01
    outer loop
      vertex   1.909000e+00  1.144300e+01  5.696400e+01
      vertex  -1.909100e+01  1.144300e+01  5.696400e+01
      vertex   1.909000e+00  1.119200e+01  5.767400e+01
    endloop
  endfacet
  facet normal -0.000000e+00  9.428186e-01  3.333060e-01
    outer loop
      vertex  -1.909100e+01  1.119200e+01  5.767400e+01
      vertex   1.909000e+00  1.119200e+01  5.767400e+01
      vertex  -1.909100e+01  1.144300e+01  5.696400e+01
    endloop
  endfacet
  facet normal -0.000000e+00 -1.000000e+00  0.000000e+00
    outer loop
      vertex   1.909000e+00  2.100000e+01  3.000000e-03
      vertex  -1.909100e+01  2.100000e+01  3.000000e-03
      vertex  -1.909100e+01  2.100000e+01  0.000000e+00
    endloop
  endfacet
  facet normal  0.000000e+00 -1.000000e+00 -0.000000e+00
    outer loop
      vertex   1.909000e+00  2.100000e+01  3.000000e-03
      vertex  -1.909100e+01  2.100000e+01  0.000000e+00
      vertex   1.909000e+00  2.100000e+01  0.000000e+00
    endloop
  endfacet
  facet normal  0.000000e+00 -1.000000e+00  0.000000e+00
    outer loop
      vertex  -1.909100e+01  2.100000e+01  1.500000e+01
      vertex  -1.909100e+01  2.100000e+01  5.559000e+00
      vertex   1.909000e+00  2.100000e+01  5.559000e+00
    endloop
  endfacet
  facet normal  0.000000e+00 -1.000000e+00  0.000000e+00
    outer loop
      vertex  -1.909100e+01  2.100000e+01  1.500000e+01
      vertex   1.909000e+00  2.100000e+01  5.559000e+00
      vertex   1.909000e+00  2.100000e+01  1.500000e+01
    endloop
  endfacet
  facet normal  1.000000e+00  0.000000e+00  0.000000e+00
    outer loop
      vertex   1.909000e+00  5.900000e+00  6.190300e+01
      vertex   1.909000e+00  5.312000e+00  6.186400e+01
      vertex   1.909000e+00  5.900000e+00  5.800500e+01
    endloop
  endfacet
  facet normal  0.000000e+00  1.000000e+00  0.000000e+00
    outer loop
      vertex   1.909000e+00  2.600000e+01  1.500000e+01
      vertex   1.909000e+00  2.600000e+01  0.000000e+00
      vertex  -1.909100e+01  2.600000e+01  0.000000e+00
    endloop
  endfacet
  facet normal  0.000000e+00  1.000000e+00  0.000000e+00
    outer loop
      vertex   1.909000e+00  2.600000e+01  1.500000e+01
      vertex  -1.909100e+01  2.600000e+01  0.000000e+00
      vertex  -1.909100e+01  2.600000e+01  1.500000e+01
    endloop
  endfacet
  facet normal -0.000000e+00  9.120731e-01  4.100277e-01
    outer loop
      vertex  -1.909100e+01  1.088900e+01  5.834800e+01
      vertex   1.909000e+00  1.088900e+01  5.834800e+01
      vertex   1.909000e+00  1.119200e+01  5.767400e+01
    endloop
  endfacet
  facet normal  0.000000e+00  9.120731e-01  4.100277e-01
    outer loop
      vertex  -1.909100e+01  1.088900e+01  5.834800e+01
      vertex   1.909000e+00  1.119200e+01  5.767400e+01
      vertex  -1.909100e+01  1.119200e+01  5.767400e+01
    endloop
  endfacet
  facet normal -1.000000e+00  0.000000e+00  0.000000e+00
    outer loop
      vertex  -1.909100e+01  1.190000e+01  5.559000e+00
      vertex  -1.909100e+01  2.100000e+01  5.559000e+00
      vertex  -1.909100e+01  2.100000e+01  3.000000e-03
    endloop
  endfacet
  facet normal  0.000000e+00  8.735684e-01  4.867013e-01
    outer loop
      vertex   1.909000e+00  1.088900e+01  5.834800e+01
      vertex  -1.909100e+01  1.088900e+01  5.834800e+01
      vertex  -1.909100e+01  1.053800e+01  5.897800e+01
    endloop
  endfacet
  facet normal  1.000000e+00  0.000000e+00  0.000000e+00
    outer loop
      vertex   1.909000e+00  6.488000e+00  6.186400e+01
      vertex   1.909000e+00  5.900000e+00  6.190300e+01
      vertex   1.909000e+00  5.900000e+00  5.800500e+01
    endloop
  endfacet
  facet normal  1.000000e+00  0.000000e+00  0.000000e+00
    outer loop
      vertex   1.909000e+00  7.071000e+00  6.174900e+01
      vertex   1.909000e+00  6.488000e+00  6.186400e+01
      vertex   1.909000e+00  5.900000e+00  5.800500e+01
    endloop
  endfacet
  facet normal  1.000000e+00  0.000000e+00  0.000000e+00
    outer loop
      vertex   1.909000e+00  8.196000e+00  6.129400e+01
      vertex   1.909000e+00  7.642000e+00  6.155900e+01
      vertex   1.909000e+00  6.673000e+00  5.788300e+01
    endloop
  endfacet
  facet normal  1.000000e+00 -0.000000e+00  0.000000e+00
    outer loop
      vertex   1.909000e+00  5.900000e+00  5.800500e+01
      vertex   1.909000e+00  6.673000e+00  5.788300e+01
      vertex   1.909000e+00  7.071000e+00  6.174900e+01
    endloop
  endfacet
  facet normal  1.000000e+00  0.000000e+00  0.000000e+00
    outer loop
      vertex   1.909000e+00  4.729000e+00  6.174900e+01
      vertex   1.909000e+00  4.158000e+00  6.155900e+01
      vertex   1.909000e+00  5.127000e+00  5.788300e+01
    endloop
  endfacet
  facet normal  1.000000e+00  0.000000e+00 -0.000000e+00
    outer loop
      vertex   1.909000e+00  5.127000e+00  5.788300e+01
      vertex   1.909000e+00  5.900000e+00  5.800500e+01
      vertex   1.909000e+00  4.729000e+00  6.174900e+01
    endloop
  endfacet
  facet normal  1.000000e+00  0.000000e+00  0.000000e+00
    outer loop
      vertex   1.909000e+00  4.158000e+00  6.155900e+01
      vertex   1.909000e+00  3.604000e+00  6.129400e+01
      vertex   1.909000e+00  5.127000e+00  5.788300e+01
    endloop
  endfacet
  facet normal  1.000000e+00  0.000000e+00  0.000000e+00
    outer loop
      vertex   1.909000e+00  3.072000e+00  6.095800e+01
      vertex   1.909000e+00  2.567000e+00  6.055500e+01
      vertex   1.909000e+00  5.127000e+00  5.788300e+01
    endloop
  endfacet
  facet normal -1.000000e+00  0.000000e+00  0.000000e+00
    outer loop
      vertex  -1.909100e+01  2.100000e+01  3.000000e-03
      vertex  -1.909100e+01  6.900000e+00  3.000000e-03
      vertex  -1.909100e+01  1.190000e+01  5.559000e+00
    endloop
  endfacet
  facet normal  1.000000e+00  0.000000e+00  0.000000e+00
    outer loop
      vertex   1.909000e+00  2.094000e+00  6.008700e+01
      vertex   1.909000e+00  1.657000e+00  5.956000e+01
      vertex   1.909000e+00  4.429000e+00  5.752800e+01
    endloop
  endfacet
  facet normal -1.000000e+00  0.000000e+00  0.000000e+00
    outer loop
      vertex  -1.909100e+01  2.100000e+01  0.000000e+00
      vertex  -1.909100e+01  2.100000e+01  3.000000e-03
      vertex  -1.909100e+01  2.600000e+01  0.000000e+00
    endloop
  endfacet
  facet normal -1.000000e+00  0.000000e+00  0.000000e+00
    outer loop
      vertex  -1.909100e+01  2.100000e+01  3.000000e-03
      vertex  -1.909100e+01  2.100000e+01  5.559000e+00
      vertex  -1.909100e+01  2.600000e+01  0.000000e+00
    endloop
  endfacet
  facet normal -1.000000e+00  0.000000e+00 -0.000000e+00
    outer loop
      vertex  -1.909100e+01  2.600000e+01  1.500000e+01
      vertex  -1.909100e+01  2.600000e+01  0.000000e+00
      vertex  -1.909100e+01  2.100000e+01  5.559000e+00
    endloop
  endfacet
  facet normal -1.000000e+00 -0.000000e+00  0.000000e+00
    outer loop
      vertex  -1.909100e+01  2.600000e+01  1.500000e+01
      vertex  -1.909100e+01  2.100000e+01  5.559000e+00
      vertex  -1.909100e+01  2.100000e+01  1.500000e+01
    endloop
  endfacet
  facet normal  0.000000e+00  8.274286e-01  5.615709e-01
    outer loop
      vertex   1.909000e+00  1.014300e+01  5.956000e+01
      vertex  -1.909100e+01  1.053800e+01  5.897800e+01
      vertex  -1.909100e+01  1.014300e+01  5.956000e+01
    endloop
  endfacet
  facet normal  1.000000e+00  0.000000e+00 -0.000000e+00
    outer loop
      vertex   1.909000e+00  4.429000e+00  5.752800e+01
      vertex   1.909000e+00  5.127000e+00  5.788300e+01
      vertex   1.909000e+00  2.567000e+00  6.055500e+01
    endloop
  endfacet
  facet normal  1.000000e+00  0.000000e+00  0.000000e+00
    outer loop
      vertex   1.909000e+00  2.567000e+00  6.055500e+01
      vertex   1.909000e+00  2.094000e+00  6.008700e+01
      vertex   1.909000e+00  4.429000e+00  5.752800e+01
    endloop
  endfacet
  facet normal  1.000000e+00  0.000000e+00  0.000000e+00
    outer loop
      vertex   1.909000e+00  3.604000e+00  6.129400e+01
      vertex   1.909000e+00  3.072000e+00  6.095800e+01
      vertex   1.909000e+00  5.127000e+00  5.788300e+01
    endloop
  endfacet
  facet normal  1.000000e+00  0.000000e+00  0.000000e+00
    outer loop
      vertex   1.909000e+00  2.100000e+01  5.559000e+00
      vertex   1.909000e+00  1.190000e+01  5.559000e+00
      vertex   1.909000e+00  2.100000e+01  3.000000e-03
    endloop
  endfacet
  facet normal -0.000000e+00  7.697762e-01  6.383138e-01
    outer loop
      vertex  -1.909100e+01  1.014300e+01  5.956000e+01
      vertex  -1.909100e+01  9.706000e+00  6.008700e+01
      vertex   1.909000e+00  1.014300e+01  5.956000e+01
    endloop
  endfacet
  facet normal  0.000000e+00  7.697762e-01  6.383138e-01
    outer loop
      vertex   1.909000e+00  9.706000e+00  6.008700e+01
      vertex   1.909000e+00  1.014300e+01  5.956000e+01
      vertex  -1.909100e+01  9.706000e+00  6.008700e+01
    endloop
  endfacet
  facet normal  1.000000e+00  0.000000e+00  0.000000e+00
    outer loop
      vertex   1.909000e+00  6.900000e+00  3.000000e-03
      vertex   1.909000e+00  2.100000e+01  3.000000e-03
      vertex   1.909000e+00  1.190000e+01  5.559000e+00
    endloop
  endfacet
  facet normal  1.000000e+00 -0.000000e+00  0.000000e+00
    outer loop
      vertex   1.909000e+00  2.100000e+01  3.000000e-03
      vertex   1.909000e+00  2.600000e+01  0.000000e+00
      vertex   1.909000e+00  2.100000e+01  5.559000e+00
    endloop
  endfacet
  facet normal  1.000000e+00  0.000000e+00  0.000000e+00
    outer loop
      vertex   1.909000e+00  2.100000e+01  0.000000e+00
      vertex   1.909000e+00  2.600000e+01  0.000000e+00
      vertex   1.909000e+00  2.100000e+01  3.000000e-03
    endloop
  endfacet
  facet normal  1.000000e+00  0.000000e+00 -0.000000e+00
    outer loop
      vertex   1.909000e+00  2.600000e+01  0.000000e+00
      vertex   1.909000e+00  2.600000e+01  1.500000e+01
      vertex   1.909000e+00  2.100000e+01  5.559000e+00
    endloop
  endfacet
  facet normal  1.000000e+00 -0.000000e+00  0.000000e+00
    outer loop
      vertex   1.909000e+00  2.100000e+01  1.500000e+01
      vertex   1.909000e+00  2.100000e+01  5.559000e+00
      vertex   1.909000e+00  2.600000e+01  1.500000e+01
    endloop
  endfacet
  facet normal  0.000000e+00  0.000000e+00 -1.000000e+00
    outer loop
      vertex   1.909000e+00 -1.000000e-01  5.390300e+01
      vertex  -1.909100e+01 -1.000000e-01  5.390300e+01
      vertex   1.909000e+00  3.358870e+00  5.390300e+01
    endloop
  endfacet
  facet normal  0.000000e+00  7.033381e-01  7.108555e-01
    outer loop
      vertex   1.909000e+00  9.706000e+00  6.008700e+01
      vertex  -1.909100e+01  9.706000e+00  6.008700e+01
      vertex   1.909000e+00  9.233000e+00  6.055500e+01
    endloop
  endfacet
  facet normal -0.000000e+00  7.033381e-01  7.108555e-01
    outer loop
      vertex  -1.909100e+01  9.233000e+00  6.055500e+01
      vertex   1.909000e+00  9.233000e+00  6.055500e+01
      vertex  -1.909100e+01  9.706000e+00  6.008700e+01
    endloop
  endfacet
  facet normal  0.000000e+00  6.237506e-01  7.816234e-01
    outer loop
      vertex   1.909000e+00  8.728000e+00  6.095800e+01
      vertex   1.909000e+00  9.233000e+00  6.055500e+01
      vertex  -1.909100e+01  8.728000e+00  6.095800e+01
    endloop
  endfacet
  facet normal -0.000000e+00  6.237506e-01  7.816234e-01
    outer loop
      vertex  -1.909100e+01  9.233000e+00  6.055500e+01
      vertex  -1.909100e+01  8.728000e+00  6.095800e+01
      vertex   1.909000e+00  9.233000e+00  6.055500e+01
    endloop
  endfacet
  facet normal -1.000000e+00  0.000000e+00  0.000000e+00
    outer loop
      vertex  -1.909100e+01  3.520000e+00  5.627600e+01
      vertex  -1.909100e+01  6.080000e-01  5.767400e+01
      vertex  -1.909100e+01  3.875000e+00  5.697400e+01
    endloop
  endfacet
  facet normal -1.000000e+00  0.000000e+00  0.000000e+00
    outer loop
      vertex  -1.909100e+01  3.875000e+00  5.697400e+01
      vertex  -1.909100e+01  1.657000e+00  5.956000e+01
      vertex  -1.909100e+01  4.429000e+00  5.752800e+01
    endloop
  endfacet
  facet normal  0.000000e+00  5.339916e-01  8.454898e-01
    outer loop
      vertex   1.909000e+00  8.196000e+00  6.129400e+01
      vertex  -1.909100e+01  8.728000e+00  6.095800e+01
      vertex  -1.909100e+01  8.196000e+00  6.129400e+01
    endloop
  endfacet
  facet normal -1.000000e+00  0.000000e+00  0.000000e+00
    outer loop
      vertex  -1.909100e+01  3.398000e+00  5.550300e+01
      vertex  -1.909100e+01  1.580000e-01  5.622500e+01
      vertex  -1.909100e+01  3.520000e+00  5.627600e+01
    endloop
  endfacet
  facet normal -1.000000e+00  0.000000e+00  0.000000e+00
    outer loop
      vertex  -1.909100e+01  1.580000e-01  5.622500e+01
      vertex  -1.909100e+01  3.570000e-01  5.696400e+01
      vertex  -1.909100e+01  3.520000e+00  5.627600e+01
    endloop
  endfacet
  facet normal -0.000000e+00  0.000000e+00 -1.000000e+00
    outer loop
      vertex   1.909000e+00  3.358870e+00  5.390300e+01
      vertex  -1.909100e+01 -1.000000e-01  5.390300e+01
      vertex  -1.909100e+01  3.358870e+00  5.390300e+01
    endloop
  endfacet
  facet normal -1.000000e+00  0.000000e+00 -0.000000e+00
    outer loop
      vertex  -1.909100e+01  3.072000e+00  6.095800e+01
      vertex  -1.909100e+01  5.127000e+00  5.788300e+01
      vertex  -1.909100e+01  2.567000e+00  6.055500e+01
    endloop
  endfacet
  facet normal -1.000000e+00  0.000000e+00 -0.000000e+00
    outer loop
      vertex  -1.909100e+01  2.567000e+00  6.055500e+01
      vertex  -1.909100e+01  4.429000e+00  5.752800e+01
      vertex  -1.909100e+01  2.094000e+00  6.008700e+01
    endloop
  endfacet
  facet normal -0.000000e+00  5.339916e-01  8.454898e-01
    outer loop
      vertex  -1.909100e+01  8.728000e+00  6.095800e+01
      vertex   1.909000e+00  8.196000e+00  6.129400e+01
      vertex   1.909000e+00  8.728000e+00  6.095800e+01
    endloop
  endfacet
  facet normal -1.000000e+00  0.000000e+00  0.000000e+00
    outer loop
      vertex  -1.909100e+01  4.158000e+00  6.155900e+01
      vertex  -1.909100e+01  4.729000e+00  6.174900e+01
      vertex  -1.909100e+01  5.127000e+00  5.788300e+01
    endloop
  endfacet
  facet normal -1.000000e+00  0.000000e+00 -0.000000e+00
    outer loop
      vertex  -1.909100e+01  1.580000e-01  5.622500e+01
      vertex  -1.909100e+01  3.398000e+00  5.550300e+01
      vertex  -1.909100e+01  1.500000e-02  5.546400e+01
    endloop
  endfacet
  facet normal -1.000000e+00  0.000000e+00  0.000000e+00
    outer loop
      vertex  -1.909100e+01 -7.100000e-02  5.468700e+01
      vertex  -1.909100e+01  1.500000e-02  5.546400e+01
      vertex  -1.909100e+01  3.398000e+00  5.550300e+01
    endloop
  endfacet
  facet normal -1.000000e+00  0.000000e+00 -0.000000e+00
    outer loop
      vertex  -1.909100e+01  3.398000e+00  5.550300e+01
      vertex  -1.909100e+01  3.462890e+00  5.509182e+01
      vertex  -1.909100e+01 -7.100000e-02  5.468700e+01
    endloop
  endfacet
  facet normal -1.000000e+00  0.000000e+00  0.000000e+00
    outer loop
      vertex  -1.909100e+01  3.462890e+00  5.509182e+01
      vertex  -1.909100e+01  3.358870e+00  5.390300e+01
      vertex  -1.909100e+01 -7.100000e-02  5.468700e+01
    endloop
  endfacet
  facet normal -1.000000e+00  0.000000e+00  0.000000e+00
    outer loop
      vertex  -1.909100e+01 -1.000000e-01  5.390300e+01
      vertex  -1.909100e+01 -7.100000e-02  5.468700e+01
      vertex  -1.909100e+01  3.358870e+00  5.390300e+01
    endloop
  endfacet
  facet normal  0.000000e+00 -9.993166e-01  3.696450e-02
    outer loop
      vertex  -1.909100e+01 -1.000000e-01  5.390300e+01
      vertex   1.909000e+00 -1.000000e-01  5.390300e+01
      vertex   1.909000e+00 -7.100000e-02  5.468700e+01
    endloop
  endfacet
  facet normal  0.000000e+00 -5.339913e-01  8.454900e-01
    outer loop
      vertex  -1.909100e+01  3.604000e+00  6.129400e+01
      vertex  -1.909100e+01  3.072000e+00  6.095800e+01
      vertex   1.909000e+00  3.604000e+00  6.129400e+01
    endloop
  endfacet
  facet normal  0.000000e+00 -6.237506e-01  7.816234e-01
    outer loop
      vertex  -1.909100e+01  3.072000e+00  6.095800e+01
      vertex   1.909000e+00  2.567000e+00  6.055500e+01
      vertex   1.909000e+00  3.072000e+00  6.095800e+01
    endloop
  endfacet
  facet normal  0.000000e+00 -6.237506e-01  7.816234e-01
    outer loop
      vertex   1.909000e+00  2.567000e+00  6.055500e+01
      vertex  -1.909100e+01  3.072000e+00  6.095800e+01
      vertex  -1.909100e+01  2.567000e+00  6.055500e+01
    endloop
  endfacet
  facet normal  0.000000e+00 -9.875758e-01  1.571438e-01
    outer loop
      vertex   1.909000e+00  8.280000e+00  5.473000e+01
      vertex  -1.909100e+01  8.403000e+00  5.550300e+01
      vertex  -1.909100e+01  8.280000e+00  5.473000e+01
    endloop
  endfacet
  facet normal  0.000000e+00 -7.033386e-01  7.108549e-01
    outer loop
      vertex  -1.909100e+01  2.567000e+00  6.055500e+01
      vertex  -1.909100e+01  2.094000e+00  6.008700e+01
      vertex   1.909000e+00  2.567000e+00  6.055500e+01
    endloop
  endfacet
  facet normal  0.000000e+00 -7.697756e-01  6.383146e-01
    outer loop
      vertex  -1.909100e+01  2.094000e+00  6.008700e+01
      vertex  -1.909100e+01  1.657000e+00  5.956000e+01
      vertex   1.909000e+00  1.657000e+00  5.956000e+01
    endloop
  endfacet
  facet normal  0.000000e+00 -8.274289e-01  5.615705e-01
    outer loop
      vertex   1.909000e+00  1.657000e+00  5.956000e+01
      vertex  -1.909100e+01  1.262000e+00  5.897800e+01
      vertex   1.909000e+00  1.262000e+00  5.897800e+01
    endloop
  endfacet
  facet normal -0.000000e+00 -9.875758e-01 -1.571430e-01
    outer loop
      vertex   1.909000e+00  8.280000e+00  5.627600e+01
      vertex  -1.909100e+01  8.280000e+00  5.627600e+01
      vertex  -1.909100e+01  8.403000e+00  5.550300e+01
    endloop
  endfacet
  facet normal  0.000000e+00 -8.274289e-01  5.615705e-01
    outer loop
      vertex  -1.909100e+01  1.657000e+00  5.956000e+01
      vertex  -1.909100e+01  1.262000e+00  5.897800e+01
      vertex   1.909000e+00  1.657000e+00  5.956000e+01
    endloop
  endfacet
  facet normal  0.000000e+00 -8.735684e-01  4.867015e-01
    outer loop
      vertex  -1.909100e+01  1.262000e+00  5.897800e+01
      vertex  -1.909100e+01  9.110000e-01  5.834800e+01
      vertex   1.909000e+00  9.110000e-01  5.834800e+01
    endloop
  endfacet
  facet normal  0.000000e+00 -8.735684e-01  4.867015e-01
    outer loop
      vertex  -1.909100e+01  1.262000e+00  5.897800e+01
      vertex   1.909000e+00  9.110000e-01  5.834800e+01
      vertex   1.909000e+00  1.262000e+00  5.897800e+01
    endloop
  endfacet
  facet normal  0.000000e+00 -9.120733e-01  4.100272e-01
    outer loop
      vertex  -1.909100e+01  6.080000e-01  5.767400e+01
      vertex   1.909000e+00  6.080000e-01  5.767400e+01
      vertex  -1.909100e+01  9.110000e-01  5.834800e+01
    endloop
  endfacet
  facet normal  0.000000e+00 -9.656034e-01  2.600196e-01
    outer loop
      vertex  -1.909100e+01  1.580000e-01  5.622500e+01
      vertex   1.909000e+00  1.580000e-01  5.622500e+01
      vertex  -1.909100e+01  3.570000e-01  5.696400e+01
    endloop
  endfacet
  facet normal  0.000000e+00 -9.428184e-01  3.333067e-01
    outer loop
      vertex  -1.909100e+01  6.080000e-01  5.767400e+01
      vertex  -1.909100e+01  3.570000e-01  5.696400e+01
      vertex   1.909000e+00  6.080000e-01  5.767400e+01
    endloop
  endfacet
  facet normal  0.000000e+00 -9.656034e-01  2.600196e-01
    outer loop
      vertex  -1.909100e+01  3.570000e-01  5.696400e+01
      vertex   1.909000e+00  1.580000e-01  5.622500e+01
      vertex   1.909000e+00  3.570000e-01  5.696400e+01
    endloop
  endfacet
  facet normal  0.000000e+00 -9.875758e-01  1.571438e-01
    outer loop
      vertex   1.909000e+00  8.403000e+00  5.550300e+01
      vertex  -1.909100e+01  8.403000e+00  5.550300e+01
      vertex   1.909000e+00  8.280000e+00  5.473000e+01
    endloop
  endfacet
  facet normal -0.000000e+00 -9.875758e-01 -1.571430e-01
    outer loop
      vertex   1.909000e+00  8.403000e+00  5.550300e+01
      vertex   1.909000e+00  8.280000e+00  5.627600e+01
      vertex  -1.909100e+01  8.403000e+00  5.550300e+01
    endloop
  endfacet
  facet normal  0.000000e+00  9.961938e-01 -8.716540e-02
    outer loop
      vertex  -1.909100e+01  3.462890e+00  5.509182e+01
      vertex   1.909000e+00  3.462890e+00  5.509182e+01
      vertex  -1.909100e+01  3.358870e+00  5.390300e+01
    endloop
  endfacet
  facet normal  0.000000e+00 -8.913411e-01 -4.533332e-01
    outer loop
      vertex   1.909000e+00  7.925000e+00  5.697400e+01
      vertex  -1.909100e+01  8.280000e+00  5.627600e+01
      vertex   1.909000e+00  8.280000e+00  5.627600e+01
    endloop
  endfacet
  facet normal  0.000000e+00  7.071074e-01 -7.071062e-01
    outer loop
      vertex  -1.909100e+01  4.429000e+00  5.752800e+01
      vertex   1.909000e+00  4.429000e+00  5.752800e+01
      vertex  -1.909100e+01  3.875000e+00  5.697400e+01
    endloop
  endfacet
  facet normal  0.000000e+00  8.913409e-01 -4.533337e-01
    outer loop
      vertex  -1.909100e+01  3.875000e+00  5.697400e+01
      vertex   1.909000e+00  3.875000e+00  5.697400e+01
      vertex  -1.909100e+01  3.520000e+00  5.627600e+01
    endloop
  endfacet
  facet normal  0.000000e+00  4.315124e-01  9.021070e-01
    outer loop
      vertex   1.909000e+00  7.642000e+00  6.155900e+01
      vertex   1.909000e+00  8.196000e+00  6.129400e+01
      vertex  -1.909100e+01  7.642000e+00  6.155900e+01
    endloop
  endfacet
  facet normal -0.000000e+00  4.315124e-01  9.021070e-01
    outer loop
      vertex  -1.909100e+01  8.196000e+00  6.129400e+01
      vertex  -1.909100e+01  7.642000e+00  6.155900e+01
      vertex   1.909000e+00  8.196000e+00  6.129400e+01
    endloop
  endfacet
  facet normal -0.000000e+00  3.157328e-01  9.488481e-01
    outer loop
      vertex  -1.909100e+01  7.642000e+00  6.155900e+01
      vertex  -1.909100e+01  7.071000e+00  6.174900e+01
      vertex   1.909000e+00  7.642000e+00  6.155900e+01
    endloop
  endfacet
  facet normal  0.000000e+00 -9.939305e-01  1.100103e-01
    outer loop
      vertex  -1.909100e+01 -7.100000e-02  5.468700e+01
      vertex   1.909000e+00 -7.100000e-02  5.468700e+01
      vertex  -1.909100e+01  1.500000e-02  5.546400e+01
    endloop
  endfacet
  facet normal  0.000000e+00  1.935230e-01  9.810958e-01
    outer loop
      vertex   1.909000e+00  6.488000e+00  6.186400e+01
      vertex  -1.909100e+01  7.071000e+00  6.174900e+01
      vertex  -1.909100e+01  6.488000e+00  6.186400e+01
    endloop
  endfacet
  facet normal  0.000000e+00 -9.993166e-01  3.696450e-02
    outer loop
      vertex  -1.909100e+01 -7.100000e-02  5.468700e+01
      vertex  -1.909100e+01 -1.000000e-01  5.390300e+01
      vertex   1.909000e+00 -7.100000e-02  5.468700e+01
    endloop
  endfacet
  facet normal  0.000000e+00  6.618362e-02  9.978076e-01
    outer loop
      vertex   1.909000e+00  6.488000e+00  6.186400e+01
      vertex  -1.909100e+01  6.488000e+00  6.186400e+01
      vertex   1.909000e+00  5.900000e+00  6.190300e+01
    endloop
  endfacet
  facet normal -0.000000e+00  6.618362e-02  9.978076e-01
    outer loop
      vertex  -1.909100e+01  5.900000e+00  6.190300e+01
      vertex   1.909000e+00  5.900000e+00  6.190300e+01
      vertex  -1.909100e+01  6.488000e+00  6.186400e+01
    endloop
  endfacet
  facet normal  0.000000e+00 -6.618357e-02  9.978076e-01
    outer loop
      vertex   1.909000e+00  5.312000e+00  6.186400e+01
      vertex   1.909000e+00  5.900000e+00  6.190300e+01
      vertex  -1.909100e+01  5.312000e+00  6.186400e+01
    endloop
  endfacet
  facet normal  0.000000e+00 -6.618357e-02  9.978076e-01
    outer loop
      vertex  -1.909100e+01  5.900000e+00  6.190300e+01
      vertex  -1.909100e+01  5.312000e+00  6.186400e+01
      vertex   1.909000e+00  5.900000e+00  6.190300e+01
    endloop
  endfacet
  facet normal  0.000000e+00 -1.935231e-01  9.810957e-01
    outer loop
      vertex   1.909000e+00  5.312000e+00  6.186400e+01
      vertex  -1.909100e+01  5.312000e+00  6.186400e+01
      vertex  -1.909100e+01  4.729000e+00  6.174900e+01
    endloop
  endfacet
  facet normal  0.000000e+00 -3.157328e-01  9.488481e-01
    outer loop
      vertex  -1.909100e+01  4.158000e+00  6.155900e+01
      vertex   1.909000e+00  4.158000e+00  6.155900e+01
      vertex  -1.909100e+01  4.729000e+00  6.174900e+01
    endloop
  endfacet
  facet normal  0.000000e+00 -4.315124e-01  9.021070e-01
    outer loop
      vertex  -1.909100e+01  4.158000e+00  6.155900e+01
      vertex  -1.909100e+01  3.604000e+00  6.129400e+01
      vertex   1.909000e+00  4.158000e+00  6.155900e+01
    endloop
  endfacet
  facet normal  0.000000e+00 -1.000000e+00  0.000000e+00
    outer loop
      vertex  -1.909100e+01  6.900000e+00  3.000000e-03
      vertex   1.909000e+00  6.900000e+00  3.000000e-03
      vertex   1.909000e+00  6.900000e+00  5.323845e+01
    endloop
  endfacet
  facet normal  0.000000e+00 -1.000000e+00  0.000000e+00
    outer loop
      vertex  -1.909100e+01  6.900000e+00  5.323845e+01
      vertex  -1.909100e+01  6.900000e+00  3.000000e-03
      vertex   1.909000e+00  6.900000e+00  5.323845e+01
    endloop
  endfacet
  facet normal -0.000000e+00 -7.071070e-01 -7.071065e-01
    outer loop
      vertex   1.909000e+00  7.925000e+00  5.697400e+01
      vertex  -1.909100e+01  7.371000e+00  5.752800e+01
      vertex  -1.909100e+01  7.925000e+00  5.697400e+01
    endloop
  endfacet
  facet normal  0.000000e+00 -1.558991e-01 -9.877730e-01
    outer loop
      vertex  -1.909100e+01  6.673000e+00  5.788300e+01
      vertex   1.909000e+00  5.900000e+00  5.800500e+01
      vertex  -1.909100e+01  5.900000e+00  5.800500e+01
    endloop
  endfacet
  facet normal  0.000000e+00  1.558990e-01 -9.877731e-01
    outer loop
      vertex   1.909000e+00  5.900000e+00  5.800500e+01
      vertex  -1.909100e+01  5.127000e+00  5.788300e+01
      vertex  -1.909100e+01  5.900000e+00  5.800500e+01
    endloop
  endfacet
  facet normal  0.000000e+00  4.533322e-01 -8.913416e-01
    outer loop
      vertex   1.909000e+00  4.429000e+00  5.752800e+01
      vertex  -1.909100e+01  4.429000e+00  5.752800e+01
      vertex  -1.909100e+01  5.127000e+00  5.788300e+01
    endloop
  endfacet
  facet normal  0.000000e+00 -8.913411e-01  4.533332e-01
    outer loop
      vertex   1.909000e+00  8.280000e+00  5.473000e+01
      vertex  -1.909100e+01  8.280000e+00  5.473000e+01
      vertex  -1.909100e+01  7.925000e+00  5.403200e+01
    endloop
  endfacet
  facet normal  0.000000e+00 -8.913411e-01 -4.533332e-01
    outer loop
      vertex  -1.909100e+01  7.925000e+00  5.697400e+01
      vertex  -1.909100e+01  8.280000e+00  5.627600e+01
      vertex   1.909000e+00  7.925000e+00  5.697400e+01
    endloop
  endfacet
  facet normal  0.000000e+00 -7.071070e-01 -7.071065e-01
    outer loop
      vertex   1.909000e+00  7.925000e+00  5.697400e+01
      vertex   1.909000e+00  7.371000e+00  5.752800e+01
      vertex  -1.909100e+01  7.371000e+00  5.752800e+01
    endloop
  endfacet
  facet normal  0.000000e+00 -4.533322e-01 -8.913416e-01
    outer loop
      vertex  -1.909100e+01  7.371000e+00  5.752800e+01
      vertex   1.909000e+00  7.371000e+00  5.752800e+01
      vertex   1.909000e+00  6.673000e+00  5.788300e+01
    endloop
  endfacet
  facet normal  0.000000e+00 -4.533322e-01 -8.913416e-01
    outer loop
      vertex  -1.909100e+01  7.371000e+00  5.752800e+01
      vertex   1.909000e+00  6.673000e+00  5.788300e+01
      vertex  -1.909100e+01  6.673000e+00  5.788300e+01
    endloop
  endfacet
  facet normal  0.000000e+00 -1.558991e-01 -9.877730e-01
    outer loop
      vertex  -1.909100e+01  6.673000e+00  5.788300e+01
      vertex   1.909000e+00  6.673000e+00  5.788300e+01
      vertex   1.909000e+00  5.900000e+00  5.800500e+01
    endloop
  endfacet
  facet normal  0.000000e+00  1.558990e-01 -9.877731e-01
    outer loop
      vertex   1.909000e+00  5.900000e+00  5.800500e+01
      vertex   1.909000e+00  5.127000e+00  5.788300e+01
      vertex  -1.909100e+01  5.127000e+00  5.788300e+01
    endloop
  endfacet
  facet normal  0.000000e+00  4.533322e-01 -8.913416e-01
    outer loop
      vertex  -1.909100e+01  5.127000e+00  5.788300e+01
      vertex   1.909000e+00  5.127000e+00  5.788300e+01
      vertex   1.909000e+00  4.429000e+00  5.752800e+01
    endloop
  endfacet
  facet normal  0.000000e+00 -4.315124e-01  9.021070e-01
    outer loop
      vertex  -1.909100e+01  3.604000e+00  6.129400e+01
      vertex   1.909000e+00  3.604000e+00  6.129400e+01
      vertex   1.909000e+00  4.158000e+00  6.155900e+01
    endloop
  endfacet
endsolid vcg
