solid STL generated by MeshLab
  facet normal  4.018933e-01 -7.373198e-02 -9.127132e-01
    outer loop
      vertex  -2.108568e+00 -3.610082e+00  3.077054e-01
      vertex   5.777800e-02 -1.053440e+00  1.055075e+00
      vertex   7.880186e-02 -3.476866e+00  1.260105e+00
    endloop
  endfacet
  facet normal  2.650549e-01  1.694740e-01 -9.492231e-01
    outer loop
      vertex  -2.221342e+00  1.735865e+00  9.166698e-01
      vertex  -1.033094e-01  1.494259e+00  1.464959e+00
      vertex   5.777800e-02 -1.053440e+00  1.055075e+00
    endloop
  endfacet
  facet normal  1.999027e-01  1.150570e-01 -9.730369e-01
    outer loop
      vertex  -2.221342e+00  1.735865e+00  9.166698e-01
      vertex   5.777800e-02 -1.053440e+00  1.055075e+00
      vertex  -2.108568e+00 -3.610082e+00  3.077054e-01
    endloop
  endfacet
  facet normal  3.549246e-02  9.753172e-01 -2.179369e-01
    outer loop
      vertex   7.880186e-02 -3.476866e+00  1.260105e+00
      vertex   2.102511e+00 -3.624205e+00  9.303049e-01
      vertex  -2.108568e+00 -3.610082e+00  3.077054e-01
    endloop
  endfacet
  facet normal -4.018933e-01  7.373198e-02  9.127132e-01
    outer loop
      vertex  -2.108568e+00 -3.610082e+00  3.077054e-01
      vertex   7.880186e-02 -3.476866e+00  1.260105e+00
      vertex   5.777800e-02 -1.053440e+00  1.055075e+00
    endloop
  endfacet
  facet normal -2.650549e-01 -1.694740e-01  9.492231e-01
    outer loop
      vertex  -2.221342e+00  1.735865e+00  9.166698e-01
      vertex   5.777800e-02 -1.053440e+00  1.055075e+00
      vertex  -1.033094e-01  1.494259e+00  1.464959e+00
    endloop
  endfacet
  facet normal -9.899106e-01  1.193084e-01 -7.643626e-02
    outer loop
      vertex   1.448611e+00 -3.154910e+00  1.089129e+01
      vertex   1.904033e+00  6.244878e-01  1.089243e+01
      vertex   2.475143e+00 -1.502888e+00  1.754908e-01
    endloop
  endfacet
  facet normal -7.384840e-04  2.269469e-04  9.999997e-01
    outer loop
      vertex   1.448611e+00 -3.154910e+00  1.089129e+01
      vertex   2.568766e+00 -3.001951e+00  1.089208e+01
      vertex   3.050444e+00 -1.262284e+00  1.089204e+01
    endloop
  endfacet
  facet normal  9.822099e-01  1.877511e-01  3.629569e-03
    outer loop
      vertex   3.039963e+00 -1.021252e+00  1.260053e+00
      vertex   2.605006e+00  1.072701e+00  1.064879e+01
      vertex   3.050444e+00 -1.262284e+00  1.089204e+01
    endloop
  endfacet
  facet normal  7.527644e-01  2.086458e-01  6.243498e-01
    outer loop
      vertex   3.050444e+00 -1.262284e+00  1.089204e+01
      vertex   2.605006e+00  1.072701e+00  1.064879e+01
      vertex   2.228479e+00  1.702580e+00  1.089226e+01
    endloop
  endfacet
  facet normal  8.337919e-01  5.457889e-01 -8.309886e-02
    outer loop
      vertex   3.039963e+00 -1.021252e+00  1.260053e+00
      vertex   1.692024e+00  6.792616e-01 -1.095923e+00
      vertex   2.605006e+00  1.072701e+00  1.064879e+01
    endloop
  endfacet
  facet normal  5.121842e-01 -8.588046e-01 -1.104559e-02
    outer loop
      vertex   2.810922e+00  1.309521e+00  1.784163e+00
      vertex   2.605006e+00  1.072701e+00  1.064879e+01
      vertex   1.692024e+00  6.792616e-01 -1.095923e+00
    endloop
  endfacet
  facet normal  2.985795e-02  9.077275e-01 -4.184965e-01
    outer loop
      vertex  -7.147341e-02  2.122807e+00  1.909338e+00
      vertex   1.692024e+00  6.792616e-01 -1.095923e+00
      vertex  -2.221342e+00  1.735865e+00  9.166698e-01
    endloop
  endfacet
  facet normal -1.608738e-01 -9.674953e-01  1.951220e-01
    outer loop
      vertex  -1.033094e-01  1.494259e+00  1.464959e+00
      vertex  -2.221342e+00  1.735865e+00  9.166698e-01
      vertex   1.692024e+00  6.792616e-01 -1.095923e+00
    endloop
  endfacet
  facet normal -2.416917e-01 -9.696090e-01 -3.799329e-02
    outer loop
      vertex  -8.102224e-01  1.301089e+00  1.089175e+01
      vertex  -1.033094e-01  1.494259e+00  1.464959e+00
      vertex   1.904033e+00  6.244878e-01  1.089243e+01
    endloop
  endfacet
  facet normal -4.097108e-01 -9.122103e-01  3.077742e-03
    outer loop
      vertex   1.692024e+00  6.792616e-01 -1.095923e+00
      vertex   1.904033e+00  6.244878e-01  1.089243e+01
      vertex  -1.033094e-01  1.494259e+00  1.464959e+00
    endloop
  endfacet
  facet normal -1.981654e-04  2.100178e-04  1.000000e+00
    outer loop
      vertex  -8.102224e-01  1.301089e+00  1.089175e+01
      vertex   1.904033e+00  6.244878e-01  1.089243e+01
      vertex   2.228479e+00  1.702580e+00  1.089226e+01
    endloop
  endfacet
  facet normal  2.010235e-01  9.795702e-01 -5.644371e-03
    outer loop
      vertex   2.134111e+00  1.667504e+00  1.443950e+00
      vertex  -7.147341e-02  2.122807e+00  1.909338e+00
      vertex   2.228479e+00  1.702580e+00  1.089226e+01
    endloop
  endfacet
  facet normal  8.635019e-01  5.032316e-01  3.350215e-02
    outer loop
      vertex   2.228479e+00  1.702580e+00  1.089226e+01
      vertex   2.605006e+00  1.072701e+00  1.064879e+01
      vertex   2.810922e+00  1.309521e+00  1.784163e+00
    endloop
  endfacet
  facet normal  4.706676e-01  8.822746e-01 -7.976315e-03
    outer loop
      vertex   2.228479e+00  1.702580e+00  1.089226e+01
      vertex   2.810922e+00  1.309521e+00  1.784163e+00
      vertex   2.134111e+00  1.667504e+00  1.443950e+00
    endloop
  endfacet
  facet normal  1.102873e-01  9.196187e-01 -3.770122e-01
    outer loop
      vertex  -7.147341e-02  2.122807e+00  1.909338e+00
      vertex   2.134111e+00  1.667504e+00  1.443950e+00
      vertex   1.692024e+00  6.792616e-01 -1.095923e+00
    endloop
  endfacet
  facet normal -8.212642e-03 -9.987718e-01  4.886051e-02
    outer loop
      vertex   2.227638e+00 -3.699444e+00  1.089220e+01
      vertex  -2.157050e+00 -3.663391e+00  1.089218e+01
      vertex  -8.945109e-02 -4.118844e+00  1.929655e+00
    endloop
  endfacet
  facet normal  9.308923e-06  1.687614e-03  9.999986e-01
    outer loop
      vertex  -2.157050e+00 -3.663391e+00  1.089218e+01
      vertex   2.227638e+00 -3.699444e+00  1.089220e+01
      vertex   1.448611e+00 -3.154910e+00  1.089129e+01
    endloop
  endfacet
  facet normal -7.831330e-04  5.539234e-04  9.999996e-01
    outer loop
      vertex   1.448611e+00 -3.154910e+00  1.089129e+01
      vertex   2.227638e+00 -3.699444e+00  1.089220e+01
      vertex   2.568766e+00 -3.001951e+00  1.089208e+01
    endloop
  endfacet
  facet normal  8.981419e-01 -4.392571e-01  1.985479e-02
    outer loop
      vertex   2.697081e+00 -3.182703e+00  1.088797e+00
      vertex   2.568766e+00 -3.001951e+00  1.089208e+01
      vertex   2.227638e+00 -3.699444e+00  1.089220e+01
    endloop
  endfacet
  facet normal -1.747283e-01 -3.026907e-01 -9.369357e-01
    outer loop
      vertex   2.475143e+00 -1.502888e+00  1.754908e-01
      vertex   2.102511e+00 -3.624205e+00  9.303049e-01
      vertex   7.880186e-02 -3.476866e+00  1.260105e+00
    endloop
  endfacet
  facet normal -6.178215e-01  7.838967e-01  6.166603e-02
    outer loop
      vertex   2.475143e+00 -1.502888e+00  1.754908e-01
      vertex   7.880186e-02 -3.476866e+00  1.260105e+00
      vertex   1.448611e+00 -3.154910e+00  1.089129e+01
    endloop
  endfacet
  facet normal  4.845380e-01 -3.675669e-01 -7.937995e-01
    outer loop
      vertex   2.475143e+00 -1.502888e+00  1.754908e-01
      vertex   2.697081e+00 -3.182703e+00  1.088797e+00
      vertex   2.102511e+00 -3.624205e+00  9.303049e-01
    endloop
  endfacet
  facet normal  9.006956e-01 -1.095722e-01 -4.204063e-01
    outer loop
      vertex   2.475143e+00 -1.502888e+00  1.754908e-01
      vertex   3.039963e+00 -1.021252e+00  1.260053e+00
      vertex   2.697081e+00 -3.182703e+00  1.088797e+00
    endloop
  endfacet
  facet normal  2.157373e-01 -9.763994e-01 -1.008424e-02
    outer loop
      vertex   2.227638e+00 -3.699444e+00  1.089220e+01
      vertex  -8.945109e-02 -4.118844e+00  1.929655e+00
      vertex   2.102511e+00 -3.624205e+00  9.303049e-01
    endloop
  endfacet
  facet normal  5.984414e-01 -8.010517e-01 -1.356689e-02
    outer loop
      vertex   2.697081e+00 -3.182703e+00  1.088797e+00
      vertex   2.227638e+00 -3.699444e+00  1.089220e+01
      vertex   2.102511e+00 -3.624205e+00  9.303049e-01
    endloop
  endfacet
  facet normal  9.873313e-01 -1.578799e-01  1.583419e-02
    outer loop
      vertex   2.568766e+00 -3.001951e+00  1.089208e+01
      vertex   2.697081e+00 -3.182703e+00  1.088797e+00
      vertex   3.039963e+00 -1.021252e+00  1.260053e+00
    endloop
  endfacet
  facet normal  9.637120e-01 -2.668321e-01 -7.725823e-03
    outer loop
      vertex   3.050444e+00 -1.262284e+00  1.089204e+01
      vertex   2.568766e+00 -3.001951e+00  1.089208e+01
      vertex   3.039963e+00 -1.021252e+00  1.260053e+00
    endloop
  endfacet
  facet normal -1.384057e-01  9.816710e-01  1.310188e-01
    outer loop
      vertex   1.448611e+00 -3.154910e+00  1.089129e+01
      vertex  -1.409668e+00 -2.916463e+00  6.085271e+00
      vertex  -2.157050e+00 -3.663391e+00  1.089218e+01
    endloop
  endfacet
  facet normal  9.562733e-01  2.273382e-01  1.840074e-01
    outer loop
      vertex  -1.409668e+00 -2.916463e+00  6.085271e+00
      vertex  -2.798356e+00 -9.658914e-01  1.089228e+01
      vertex  -2.157050e+00 -3.663391e+00  1.089218e+01
    endloop
  endfacet
  facet normal  3.507365e-04  4.555557e-05  9.999999e-01
    outer loop
      vertex  -2.798356e+00 -9.658914e-01  1.089228e+01
      vertex  -2.704623e+00 -3.236689e+00  1.089235e+01
      vertex  -2.157050e+00 -3.663391e+00  1.089218e+01
    endloop
  endfacet
  facet normal -2.398055e-01 -9.708025e-01 -5.987870e-03
    outer loop
      vertex  -8.945109e-02 -4.118844e+00  1.929655e+00
      vertex  -2.157050e+00 -3.663391e+00  1.089218e+01
      vertex  -2.108568e+00 -3.610082e+00  3.077054e-01
    endloop
  endfacet
  facet normal -9.710330e-01 -2.385867e-01 -1.308730e-02
    outer loop
      vertex  -2.611352e+00 -3.067568e+00  8.888301e-01
      vertex  -2.704623e+00 -3.236689e+00  1.089235e+01
      vertex  -3.124536e+00 -1.036816e+00  1.943917e+00
    endloop
  endfacet
  facet normal -9.984753e-01 -4.121352e-02  3.672246e-02
    outer loop
      vertex  -2.704623e+00 -3.236689e+00  1.089235e+01
      vertex  -2.798356e+00 -9.658914e-01  1.089228e+01
      vertex  -3.124536e+00 -1.036816e+00  1.943917e+00
    endloop
  endfacet
  facet normal -9.856758e-01  1.681419e-01  1.309983e-02
    outer loop
      vertex  -3.124536e+00 -1.036816e+00  1.943917e+00
      vertex  -2.625440e+00  1.191814e+00  1.089219e+01
      vertex  -2.741026e+00  1.254269e+00  1.393436e+00
    endloop
  endfacet
  facet normal  2.644332e-04 -3.257058e-04  9.999999e-01
    outer loop
      vertex  -8.102224e-01  1.301089e+00  1.089175e+01
      vertex  -1.364020e+00  1.741592e+00  1.089204e+01
      vertex  -2.625440e+00  1.191814e+00  1.089219e+01
    endloop
  endfacet
  facet normal  7.518259e-01 -6.593475e-01  4.312168e-03
    outer loop
      vertex  -2.798356e+00 -9.658914e-01  1.089228e+01
      vertex  -2.527623e+00 -7.263837e-01  3.117044e-01
      vertex  -8.102224e-01  1.301089e+00  1.089175e+01
    endloop
  endfacet
  facet normal -7.679438e-01  2.413029e-01 -5.933255e-01
    outer loop
      vertex  -2.527623e+00 -7.263837e-01  3.117044e-01
      vertex  -2.741026e+00  1.254269e+00  1.393436e+00
      vertex  -2.221342e+00  1.735865e+00  9.166698e-01
    endloop
  endfacet
  facet normal -9.409934e-01  7.841421e-02 -3.292152e-01
    outer loop
      vertex  -3.124536e+00 -1.036816e+00  1.943917e+00
      vertex  -2.741026e+00  1.254269e+00  1.393436e+00
      vertex  -2.527623e+00 -7.263837e-01  3.117044e-01
    endloop
  endfacet
  facet normal -9.345165e-01 -5.332588e-02 -3.519023e-01
    outer loop
      vertex  -3.124536e+00 -1.036816e+00  1.943917e+00
      vertex  -2.527623e+00 -7.263837e-01  3.117044e-01
      vertex  -2.611352e+00 -3.067568e+00  8.888301e-01
    endloop
  endfacet
  facet normal -8.020780e-01 -1.157442e-01 -5.858961e-01
    outer loop
      vertex  -2.527623e+00 -7.263837e-01  3.117044e-01
      vertex  -2.108568e+00 -3.610082e+00  3.077054e-01
      vertex  -2.611352e+00 -3.067568e+00  8.888301e-01
    endloop
  endfacet
  facet normal  9.804213e-01  1.426615e-01 -1.357266e-01
    outer loop
      vertex  -2.527623e+00 -7.263837e-01  3.117044e-01
      vertex  -1.409668e+00 -2.916463e+00  6.085271e+00
      vertex  -2.108568e+00 -3.610082e+00  3.077054e-01
    endloop
  endfacet
  facet normal  8.514766e-01  5.233130e-01  3.363334e-02
    outer loop
      vertex  -1.409668e+00 -2.916463e+00  6.085271e+00
      vertex  -2.527623e+00 -7.263837e-01  3.117044e-01
      vertex  -2.798356e+00 -9.658914e-01  1.089228e+01
    endloop
  endfacet
  facet normal -7.429963e-01 -6.690470e-01 -1.823857e-02
    outer loop
      vertex  -2.108568e+00 -3.610082e+00  3.077054e-01
      vertex  -2.704623e+00 -3.236689e+00  1.089235e+01
      vertex  -2.611352e+00 -3.067568e+00  8.888301e-01
    endloop
  endfacet
  facet normal -6.146561e-01 -7.887660e-01 -6.788026e-03
    outer loop
      vertex  -2.108568e+00 -3.610082e+00  3.077054e-01
      vertex  -2.157050e+00 -3.663391e+00  1.089218e+01
      vertex  -2.704623e+00 -3.236689e+00  1.089235e+01
    endloop
  endfacet
  facet normal -9.961695e-01  7.983332e-02  3.567900e-02
    outer loop
      vertex  -3.124536e+00 -1.036816e+00  1.943917e+00
      vertex  -2.798356e+00 -9.658914e-01  1.089228e+01
      vertex  -2.625440e+00  1.191814e+00  1.089219e+01
    endloop
  endfacet
  facet normal -7.156970e-05 -7.481262e-04  9.999997e-01
    outer loop
      vertex   2.228479e+00  1.702580e+00  1.089226e+01
      vertex  -1.364020e+00  1.741592e+00  1.089204e+01
      vertex  -8.102224e-01  1.301089e+00  1.089175e+01
    endloop
  endfacet
  facet normal  6.660268e-01 -7.451214e-01  3.467647e-02
    outer loop
      vertex  -2.527623e+00 -7.263837e-01  3.117044e-01
      vertex  -1.033094e-01  1.494259e+00  1.464959e+00
      vertex  -8.102224e-01  1.301089e+00  1.089175e+01
    endloop
  endfacet
  facet normal  2.667809e-01  1.985281e-01 -9.430878e-01
    outer loop
      vertex  -2.527623e+00 -7.263837e-01  3.117044e-01
      vertex  -2.221342e+00  1.735865e+00  9.166698e-01
      vertex  -1.033094e-01  1.494259e+00  1.464959e+00
    endloop
  endfacet
  facet normal -1.839303e-01  9.828210e-01  1.524343e-02
    outer loop
      vertex  -1.364020e+00  1.741592e+00  1.089204e+01
      vertex  -7.147341e-02  2.122807e+00  1.909338e+00
      vertex  -2.221342e+00  1.735865e+00  9.166698e-01
    endloop
  endfacet
  facet normal -3.993103e-01  9.161929e-01  3.379228e-02
    outer loop
      vertex  -1.364020e+00  1.741592e+00  1.089204e+01
      vertex  -2.221342e+00  1.735865e+00  9.166698e-01
      vertex  -2.625440e+00  1.191814e+00  1.089219e+01
    endloop
  endfacet
  facet normal -6.731910e-01  7.393534e-01  1.305308e-02
    outer loop
      vertex  -2.741026e+00  1.254269e+00  1.393436e+00
      vertex  -2.625440e+00  1.191814e+00  1.089219e+01
      vertex  -2.221342e+00  1.735865e+00  9.166698e-01
    endloop
  endfacet
  facet normal  2.434728e-04  2.247700e-05  1.000000e+00
    outer loop
      vertex  -2.798356e+00 -9.658914e-01  1.089228e+01
      vertex  -8.102224e-01  1.301089e+00  1.089175e+01
      vertex  -2.625440e+00  1.191814e+00  1.089219e+01
    endloop
  endfacet
  facet normal -9.045516e-03  9.929587e-01 -1.181143e-01
    outer loop
      vertex  -1.409668e+00 -2.916463e+00  6.085271e+00
      vertex   7.880186e-02 -3.476866e+00  1.260105e+00
      vertex  -2.108568e+00 -3.610082e+00  3.077054e-01
    endloop
  endfacet
  facet normal  1.801958e-01  9.818924e-01 -5.845181e-02
    outer loop
      vertex   1.448611e+00 -3.154910e+00  1.089129e+01
      vertex   7.880186e-02 -3.476866e+00  1.260105e+00
      vertex  -1.409668e+00 -2.916463e+00  6.085271e+00
    endloop
  endfacet
  facet normal  1.084539e-02  9.989745e-01  4.395580e-02
    outer loop
      vertex  -7.147341e-02  2.122807e+00  1.909338e+00
      vertex  -1.364020e+00  1.741592e+00  1.089204e+01
      vertex   2.228479e+00  1.702580e+00  1.089226e+01
    endloop
  endfacet
  facet normal  5.747384e-01  7.238705e-01 -3.816899e-01
    outer loop
      vertex   2.810922e+00  1.309521e+00  1.784163e+00
      vertex   1.692024e+00  6.792616e-01 -1.095923e+00
      vertex   2.134111e+00  1.667504e+00  1.443950e+00
    endloop
  endfacet
  facet normal -9.438961e-01 -3.298934e-01  1.518512e-02
    outer loop
      vertex   2.475143e+00 -1.502888e+00  1.754908e-01
      vertex   1.904033e+00  6.244878e-01  1.089243e+01
      vertex   1.692024e+00  6.792616e-01 -1.095923e+00
    endloop
  endfacet
  facet normal  3.902750e-04  3.292983e-05  9.999999e-01
    outer loop
      vertex   1.904033e+00  6.244878e-01  1.089243e+01
      vertex   3.050444e+00 -1.262284e+00  1.089204e+01
      vertex   2.228479e+00  1.702580e+00  1.089226e+01
    endloop
  endfacet
  facet normal -1.333392e-04 -2.852205e-04  1.000000e+00
    outer loop
      vertex   1.904033e+00  6.244878e-01  1.089243e+01
      vertex   1.448611e+00 -3.154910e+00  1.089129e+01
      vertex   3.050444e+00 -1.262284e+00  1.089204e+01
    endloop
  endfacet
  facet normal  8.791195e-01  3.872389e-02 -4.750257e-01
    outer loop
      vertex   3.039963e+00 -1.021252e+00  1.260053e+00
      vertex   2.475143e+00 -1.502888e+00  1.754908e-01
      vertex   1.692024e+00  6.792616e-01 -1.095923e+00
    endloop
  endfacet
  facet normal -1.999027e-01 -1.150570e-01  9.730369e-01
    outer loop
      vertex  -2.221342e+00  1.735865e+00  9.166698e-01
      vertex  -2.108568e+00 -3.610082e+00  3.077054e-01
      vertex   5.777800e-02 -1.053440e+00  1.055075e+00
    endloop
  endfacet
  facet normal  4.923950e-02 -9.338631e-01 -3.542247e-01
    outer loop
      vertex  -8.945109e-02 -4.118844e+00  1.929655e+00
      vertex  -2.108568e+00 -3.610082e+00  3.077054e-01
      vertex   2.102511e+00 -3.624205e+00  9.303049e-01
    endloop
  endfacet
  facet normal -6.854396e-01 -7.230747e-01  8.564781e-02
    outer loop
      vertex   9.432084e-01 -1.140520e+01  1.498297e+01
      vertex   2.437245e+00 -1.360543e+01  8.364503e+00
      vertex   2.999250e+00 -1.335418e+01  1.498334e+01
    endloop
  endfacet
  facet normal  2.065021e-04 -5.514051e-04  9.999998e-01
    outer loop
      vertex   9.432084e-01 -1.140520e+01  1.498297e+01
      vertex  -4.801564e-01 -1.086940e+01  1.498356e+01
      vertex  -2.442152e+00 -1.214724e+01  1.498326e+01
    endloop
  endfacet
  facet normal -9.733744e-01  2.289515e-01  1.111566e-02
    outer loop
      vertex  -3.091784e+00 -1.418169e+01  2.136761e-04
      vertex  -2.442152e+00 -1.214724e+01  1.498326e+01
      vertex  -2.566829e+00 -1.194986e+01 -8.480051e-05
    endloop
  endfacet
  facet normal  3.426012e-05 -1.417946e-04 -1.000000e+00
    outer loop
      vertex   1.778407e+00 -1.150074e+01  3.852424e-07
      vertex  -3.091784e+00 -1.418169e+01  2.136761e-04
      vertex  -2.566829e+00 -1.194986e+01 -8.480051e-05
    endloop
  endfacet
  facet normal -9.892079e-01 -1.444428e-01  2.457374e-02
    outer loop
      vertex  -2.792530e+00 -1.623115e+01 -4.156011e-06
      vertex  -2.489183e+00 -1.575945e+01  1.498376e+01
      vertex  -3.091784e+00 -1.418169e+01  2.136761e-04
    endloop
  endfacet
  facet normal -9.469308e-05  9.246073e-05 -1.000000e+00
    outer loop
      vertex   1.778407e+00 -1.150074e+01  3.852424e-07
      vertex  -2.792530e+00 -1.623115e+01 -4.156011e-06
      vertex  -3.091784e+00 -1.418169e+01  2.136761e-04
    endloop
  endfacet
  facet normal -8.379325e-01  5.457739e-01 -2.173673e-04
    outer loop
      vertex  -2.792530e+00 -1.623115e+01 -4.156011e-06
      vertex  -2.803031e+00 -1.624131e+01  1.498325e+01
      vertex  -2.489183e+00 -1.575945e+01  1.498376e+01
    endloop
  endfacet
  facet normal -6.364502e-04 -6.383794e-04  9.999996e-01
    outer loop
      vertex  -2.489183e+00 -1.575945e+01  1.498376e+01
      vertex  -2.803031e+00 -1.624131e+01  1.498325e+01
      vertex  -2.308053e+00 -1.673628e+01  1.498325e+01
    endloop
  endfacet
  facet normal -7.071051e-01 -7.071078e-01 -9.748037e-04
    outer loop
      vertex  -2.792530e+00 -1.623115e+01 -4.156011e-06
      vertex  -2.308053e+00 -1.673628e+01  1.498325e+01
      vertex  -2.803031e+00 -1.624131e+01  1.498325e+01
    endloop
  endfacet
  facet normal  6.732959e-06 -5.545960e-06 -1.000000e+00
    outer loop
      vertex   1.778407e+00 -1.150074e+01  3.852424e-07
      vertex  -2.308059e+00 -1.673628e+01  1.907349e-06
      vertex  -2.792530e+00 -1.623115e+01 -4.156011e-06
    endloop
  endfacet
  facet normal  5.730762e-01 -8.195022e-01 -2.098110e-07
    outer loop
      vertex  -1.779765e+00 -1.636685e+01  5.916262e-06
      vertex  -2.308053e+00 -1.673628e+01  1.498325e+01
      vertex  -2.308059e+00 -1.673628e+01  1.907349e-06
    endloop
  endfacet
  facet normal  3.354732e-01 -9.419808e-01 -1.139765e-02
    outer loop
      vertex  -1.779765e+00 -1.636685e+01  5.916262e-06
      vertex  -1.632355e+00 -1.649564e+01  1.498321e+01
      vertex  -2.308053e+00 -1.673628e+01  1.498325e+01
    endloop
  endfacet
  facet normal -1.984104e-04 -2.801586e-04  9.999999e-01
    outer loop
      vertex   3.554133e-01 -1.693664e+01  1.498348e+01
      vertex  -2.930543e+00 -1.385381e+01  1.498369e+01
      vertex  -1.632355e+00 -1.649564e+01  1.498321e+01
    endloop
  endfacet
  facet normal  8.379546e-04  2.291072e-04  9.999996e-01
    outer loop
      vertex  -2.930543e+00 -1.385381e+01  1.498369e+01
      vertex  -2.489183e+00 -1.575945e+01  1.498376e+01
      vertex  -1.632355e+00 -1.649564e+01  1.498321e+01
    endloop
  endfacet
  facet normal  3.695402e-05 -2.815798e-05 -1.000000e+00
    outer loop
      vertex   1.778407e+00 -1.150074e+01  3.852424e-07
      vertex  -5.999868e-02 -1.703884e+01  8.839053e-05
      vertex  -1.779765e+00 -1.636685e+01  5.916262e-06
    endloop
  endfacet
  facet normal -3.639452e-01 -9.314098e-01 -4.425667e-03
    outer loop
      vertex  -5.999868e-02 -1.703884e+01  8.839053e-05
      vertex  -1.632355e+00 -1.649564e+01  1.498321e+01
      vertex  -1.779765e+00 -1.636685e+01  5.916262e-06
    endloop
  endfacet
  facet normal -2.165757e-01 -9.761837e-01  1.266281e-02
    outer loop
      vertex   3.554133e-01 -1.693664e+01  1.498348e+01
      vertex  -1.632355e+00 -1.649564e+01  1.498321e+01
      vertex  -5.999868e-02 -1.703884e+01  8.839053e-05
    endloop
  endfacet
  facet normal  3.657267e-01 -9.307145e-01 -3.791558e-03
    outer loop
      vertex   1.788600e+00 -1.637347e+01  1.498328e+01
      vertex   3.554133e-01 -1.693664e+01  1.498348e+01
      vertex  -5.999868e-02 -1.703884e+01  8.839053e-05
    endloop
  endfacet
  facet normal -4.615485e-05 -5.694978e-07 -1.000000e+00
    outer loop
      vertex   1.778407e+00 -1.150074e+01  3.852424e-07
      vertex   1.779691e+00 -1.636688e+01  3.097251e-06
      vertex  -5.999868e-02 -1.703884e+01  8.839053e-05
    endloop
  endfacet
  facet normal  3.430894e-01 -9.393026e-01 -6.172369e-04
    outer loop
      vertex   1.779691e+00 -1.636688e+01  3.097251e-06
      vertex   1.788600e+00 -1.637347e+01  1.498328e+01
      vertex  -5.999868e-02 -1.703884e+01  8.839053e-05
    endloop
  endfacet
  facet normal -7.806981e-05 -1.958847e-04  1.000000e+00
    outer loop
      vertex   1.788600e+00 -1.637347e+01  1.498328e+01
      vertex   2.308039e+00 -1.673628e+01  1.498325e+01
      vertex   2.576923e+00 -1.567500e+01  1.498348e+01
    endloop
  endfacet
  facet normal  2.888435e-04 -2.888446e-04  9.999999e-01
    outer loop
      vertex   2.308039e+00 -1.673628e+01  1.498325e+01
      vertex   2.803019e+00 -1.624131e+01  1.498325e+01
      vertex   2.576923e+00 -1.567500e+01  1.498348e+01
    endloop
  endfacet
  facet normal  9.287187e-01  3.707851e-01 -4.166528e-07
    outer loop
      vertex   2.803013e+00 -1.624131e+01 -3.917377e-08
      vertex   2.576923e+00 -1.567500e+01  1.498348e+01
      vertex   2.803019e+00 -1.624131e+01  1.498325e+01
    endloop
  endfacet
  facet normal  7.071055e-01 -7.071081e-01 -1.917990e-07
    outer loop
      vertex   2.308039e+00 -1.673628e+01  1.498325e+01
      vertex   2.803013e+00 -1.624131e+01 -3.917377e-08
      vertex   2.803019e+00 -1.624131e+01  1.498325e+01
    endloop
  endfacet
  facet normal  7.071046e-01 -7.071090e-01 -2.475372e-07
    outer loop
      vertex   2.308039e+00 -1.673628e+01  1.498325e+01
      vertex   2.308034e+00 -1.673628e+01  4.403216e-07
      vertex   2.803013e+00 -1.624131e+01 -3.917377e-08
    endloop
  endfacet
  facet normal -8.701724e-07 -9.854664e-08 -1.000000e+00
    outer loop
      vertex   1.778407e+00 -1.150074e+01  3.852424e-07
      vertex   2.803013e+00 -1.624131e+01 -3.917377e-08
      vertex   2.308034e+00 -1.673628e+01  4.403216e-07
    endloop
  endfacet
  facet normal -5.726236e-01 -8.198184e-01  1.993429e-07
    outer loop
      vertex   1.788600e+00 -1.637347e+01  1.498328e+01
      vertex   2.308034e+00 -1.673628e+01  4.403216e-07
      vertex   2.308039e+00 -1.673628e+01  1.498325e+01
    endloop
  endfacet
  facet normal  1.285653e-04  2.769801e-05  1.000000e+00
    outer loop
      vertex   1.778407e+00 -1.150074e+01  3.852424e-07
      vertex   2.430506e+00 -1.570822e+01  3.308671e-05
      vertex   2.803013e+00 -1.624131e+01 -3.917377e-08
    endloop
  endfacet
  facet normal  9.336104e-01 -3.581930e-01 -8.328976e-03
    outer loop
      vertex   2.430506e+00 -1.570822e+01  3.308671e-05
      vertex   3.128500e+00 -1.388895e+01  5.995547e-04
      vertex   2.576923e+00 -1.567500e+01  1.498348e+01
    endloop
  endfacet
  facet normal  9.837343e-01 -1.790126e-01  1.487564e-02
    outer loop
      vertex   3.128500e+00 -1.388895e+01  5.995547e-04
      vertex   2.999250e+00 -1.335418e+01  1.498334e+01
      vertex   2.576923e+00 -1.567500e+01  1.498348e+01
    endloop
  endfacet
  facet normal -4.487923e-04 -5.045959e-04 -9.999998e-01
    outer loop
      vertex   1.778407e+00 -1.150074e+01  3.852424e-07
      vertex   2.768095e+00 -1.166443e+01 -3.611807e-04
      vertex   3.128500e+00 -1.388895e+01  5.995547e-04
    endloop
  endfacet
  facet normal  9.913957e-01  1.308982e-01 -5.325718e-04
    outer loop
      vertex   2.999250e+00 -1.335418e+01  1.498334e+01
      vertex   2.768095e+00 -1.166443e+01 -3.611807e-04
      vertex   2.775074e+00 -1.165632e+01  1.498325e+01
    endloop
  endfacet
  facet normal  7.554710e-01  6.551818e-01 -7.065391e-04
    outer loop
      vertex   2.308037e+00 -1.113025e+01  3.432440e+00
      vertex   2.775074e+00 -1.165632e+01  1.498325e+01
      vertex   2.768095e+00 -1.166443e+01 -3.611807e-04
    endloop
  endfacet
  facet normal  1.617384e-01  9.781620e-01 -1.305368e-01
    outer loop
      vertex   1.778407e+00 -1.150074e+01  3.852424e-07
      vertex   2.308037e+00 -1.113025e+01  3.432440e+00
      vertex   2.768095e+00 -1.166443e+01 -3.611807e-04
    endloop
  endfacet
  facet normal -5.689176e-01  8.223939e-01 -9.824383e-04
    outer loop
      vertex   1.806147e+00 -1.146365e+01  1.497976e+01
      vertex   2.308037e+00 -1.113025e+01  3.432440e+00
      vertex   1.778407e+00 -1.150074e+01  3.852424e-07
    endloop
  endfacet
  facet normal  2.770964e-01  9.608378e-01 -2.891818e-03
    outer loop
      vertex   1.778407e+00 -1.150074e+01  3.852424e-07
      vertex  -3.997374e-01 -1.087258e+01  2.451977e-03
      vertex   1.806147e+00 -1.146365e+01  1.497976e+01
    endloop
  endfacet
  facet normal  4.819849e-04  5.574005e-03 -9.999843e-01
    outer loop
      vertex   1.778407e+00 -1.150074e+01  3.852424e-07
      vertex  -2.279139e+00 -1.115827e+01 -4.634465e-05
      vertex  -3.997374e-01 -1.087258e+01  2.451977e-03
    endloop
  endfacet
  facet normal -1.502835e-01  9.886424e-01 -1.016364e-03
    outer loop
      vertex  -3.997374e-01 -1.087258e+01  2.451977e-03
      vertex  -2.279139e+00 -1.115827e+01 -4.634465e-05
      vertex  -4.801564e-01 -1.086940e+01  1.498356e+01
    endloop
  endfacet
  facet normal -1.459289e-01  9.892939e-01 -1.551749e-03
    outer loop
      vertex  -2.279139e+00 -1.115827e+01 -4.634465e-05
      vertex  -2.300943e+00 -1.113798e+01  1.498325e+01
      vertex  -4.801564e-01 -1.086940e+01  1.498356e+01
    endloop
  endfacet
  facet normal -6.964170e-01  7.176346e-01 -1.985049e-03
    outer loop
      vertex  -2.803030e+00 -1.162522e+01  1.498325e+01
      vertex  -2.300943e+00 -1.113798e+01  1.498325e+01
      vertex  -2.279139e+00 -1.115827e+01 -4.634465e-05
    endloop
  endfacet
  facet normal -9.396225e-01  3.414910e-01 -2.221132e-02
    outer loop
      vertex  -2.803030e+00 -1.162522e+01  1.498325e+01
      vertex  -2.279139e+00 -1.115827e+01 -4.634465e-05
      vertex  -2.566829e+00 -1.194986e+01 -8.480051e-05
    endloop
  endfacet
  facet normal -8.225753e-01 -5.686558e-01 -6.465727e-04
    outer loop
      vertex  -2.566829e+00 -1.194986e+01 -8.480051e-05
      vertex  -2.442152e+00 -1.214724e+01  1.498326e+01
      vertex  -2.803030e+00 -1.162522e+01  1.498325e+01
    endloop
  endfacet
  facet normal -1.053476e-05  1.281300e-05  1.000000e+00
    outer loop
      vertex  -2.300943e+00 -1.113798e+01  1.498325e+01
      vertex  -2.803030e+00 -1.162522e+01  1.498325e+01
      vertex  -2.442152e+00 -1.214724e+01  1.498326e+01
    endloop
  endfacet
  facet normal  1.515237e-05  4.307355e-05 -1.000000e+00
    outer loop
      vertex   1.778407e+00 -1.150074e+01  3.852424e-07
      vertex  -2.566829e+00 -1.194986e+01 -8.480051e-05
      vertex  -2.279139e+00 -1.115827e+01 -4.634465e-05
    endloop
  endfacet
  facet normal  2.515627e-01  9.678403e-01  1.145164e-03
    outer loop
      vertex   1.806147e+00 -1.146365e+01  1.497976e+01
      vertex  -3.997374e-01 -1.087258e+01  2.451977e-03
      vertex  -4.801564e-01 -1.086940e+01  1.498356e+01
    endloop
  endfacet
  facet normal  4.015234e-03  4.425644e-03  9.999821e-01
    outer loop
      vertex   2.999250e+00 -1.335418e+01  1.498334e+01
      vertex   1.806147e+00 -1.146365e+01  1.497976e+01
      vertex   9.432084e-01 -1.140520e+01  1.498297e+01
    endloop
  endfacet
  facet normal -6.638586e-01 -7.415836e-01  9.667252e-02
    outer loop
      vertex   1.438911e-01 -1.147164e+01  8.984324e+00
      vertex   2.437245e+00 -1.360543e+01  8.364503e+00
      vertex   9.432084e-01 -1.140520e+01  1.498297e+01
    endloop
  endfacet
  facet normal  1.947667e-01  9.801604e-01  3.676536e-02
    outer loop
      vertex   2.775074e+00 -1.165632e+01  1.498325e+01
      vertex   2.308037e+00 -1.113025e+01  3.432440e+00
      vertex   1.806147e+00 -1.146365e+01  1.497976e+01
    endloop
  endfacet
  facet normal -3.680161e-03 -4.308623e-04  9.999931e-01
    outer loop
      vertex   2.999250e+00 -1.335418e+01  1.498334e+01
      vertex   2.775074e+00 -1.165632e+01  1.498325e+01
      vertex   1.806147e+00 -1.146365e+01  1.497976e+01
    endloop
  endfacet
  facet normal  9.871243e-01  1.599299e-01  2.807297e-03
    outer loop
      vertex   2.768095e+00 -1.166443e+01 -3.611807e-04
      vertex   2.999250e+00 -1.335418e+01  1.498334e+01
      vertex   3.128500e+00 -1.388895e+01  5.995547e-04
    endloop
  endfacet
  facet normal -8.003349e-01  5.906466e-01  1.029593e-01
    outer loop
      vertex   2.999250e+00 -1.335418e+01  1.498334e+01
      vertex  -7.253613e-02 -1.652005e+01  9.267022e+00
      vertex   3.554133e-01 -1.693664e+01  1.498348e+01
    endloop
  endfacet
  facet normal -3.600087e-05  6.490217e-05  1.000000e+00
    outer loop
      vertex   3.554133e-01 -1.693664e+01  1.498348e+01
      vertex   2.576923e+00 -1.567500e+01  1.498348e+01
      vertex   2.999250e+00 -1.335418e+01  1.498334e+01
    endloop
  endfacet
  facet normal  4.516397e-04 -7.937360e-04  9.999996e-01
    outer loop
      vertex   3.554133e-01 -1.693664e+01  1.498348e+01
      vertex   1.788600e+00 -1.637347e+01  1.498328e+01
      vertex   2.576923e+00 -1.567500e+01  1.498348e+01
    endloop
  endfacet
  facet normal -7.512347e-01  6.588951e-01  3.877625e-02
    outer loop
      vertex   2.999250e+00 -1.335418e+01  1.498334e+01
      vertex   2.437245e+00 -1.360543e+01  8.364503e+00
      vertex  -7.253613e-02 -1.652005e+01  9.267022e+00
    endloop
  endfacet
  facet normal  5.924844e-04  8.405437e-05 -9.999998e-01
    outer loop
      vertex   1.778407e+00 -1.150074e+01  3.852424e-07
      vertex   3.128500e+00 -1.388895e+01  5.995547e-04
      vertex   2.430506e+00 -1.570822e+01  3.308671e-05
    endloop
  endfacet
  facet normal  8.196705e-01  5.727600e-01 -9.279671e-03
    outer loop
      vertex   2.803013e+00 -1.624131e+01 -3.917377e-08
      vertex   2.430506e+00 -1.570822e+01  3.308671e-05
      vertex   2.576923e+00 -1.567500e+01  1.498348e+01
    endloop
  endfacet
  facet normal -5.730123e-01 -8.195468e-01 -1.984946e-05
    outer loop
      vertex   2.308034e+00 -1.673628e+01  4.403216e-07
      vertex   1.788600e+00 -1.637347e+01  1.498328e+01
      vertex   1.779691e+00 -1.636688e+01  3.097251e-06
    endloop
  endfacet
  facet normal -5.419468e-06 -5.587522e-07 -1.000000e+00
    outer loop
      vertex   1.778407e+00 -1.150074e+01  3.852424e-07
      vertex   2.308034e+00 -1.673628e+01  4.403216e-07
      vertex   1.779691e+00 -1.636688e+01  3.097251e-06
    endloop
  endfacet
  facet normal -3.020293e-01  6.620143e-02  9.509972e-01
    outer loop
      vertex   1.438911e-01 -1.147164e+01  8.984324e+00
      vertex  -2.522461e+00 -1.350940e+01  8.279366e+00
      vertex  -7.253613e-02 -1.652005e+01  9.267022e+00
    endloop
  endfacet
  facet normal  2.958566e-01  4.075829e-02  9.543625e-01
    outer loop
      vertex   1.438911e-01 -1.147164e+01  8.984324e+00
      vertex  -7.253613e-02 -1.652005e+01  9.267022e+00
      vertex   2.437245e+00 -1.360543e+01  8.364503e+00
    endloop
  endfacet
  facet normal  6.177915e-01 -7.828853e-01 -7.364944e-02
    outer loop
      vertex  -2.522461e+00 -1.350940e+01  8.279366e+00
      vertex   1.438911e-01 -1.147164e+01  8.984324e+00
      vertex   9.432084e-01 -1.140520e+01  1.498297e+01
    endloop
  endfacet
  facet normal  5.342758e-01 -8.452399e-01 -1.090049e-02
    outer loop
      vertex  -2.930543e+00 -1.385381e+01  1.498369e+01
      vertex  -2.522461e+00 -1.350940e+01  8.279366e+00
      vertex   9.432084e-01 -1.140520e+01  1.498297e+01
    endloop
  endfacet
  facet normal  7.602796e-01  6.447254e-01  7.939752e-02
    outer loop
      vertex  -7.253613e-02 -1.652005e+01  9.267022e+00
      vertex  -2.522461e+00 -1.350940e+01  8.279366e+00
      vertex  -2.930543e+00 -1.385381e+01  1.498369e+01
    endloop
  endfacet
  facet normal  6.842061e-01  7.292863e-01  1.926072e-03
    outer loop
      vertex   3.554133e-01 -1.693664e+01  1.498348e+01
      vertex  -7.253613e-02 -1.652005e+01  9.267022e+00
      vertex  -2.930543e+00 -1.385381e+01  1.498369e+01
    endloop
  endfacet
  facet normal  1.715556e-05 -1.368105e-05 -1.000000e+00
    outer loop
      vertex   1.778407e+00 -1.150074e+01  3.852424e-07
      vertex  -1.779765e+00 -1.636685e+01  5.916262e-06
      vertex  -2.308059e+00 -1.673628e+01  1.907349e-06
    endloop
  endfacet
  facet normal -7.217113e-01 -6.921942e-01  2.641347e-07
    outer loop
      vertex  -2.308059e+00 -1.673628e+01  1.907349e-06
      vertex  -2.308053e+00 -1.673628e+01  1.498325e+01
      vertex  -2.792530e+00 -1.623115e+01 -4.156011e-06
    endloop
  endfacet
  facet normal  2.307714e-04 -4.775739e-04  9.999998e-01
    outer loop
      vertex  -2.489183e+00 -1.575945e+01  1.498376e+01
      vertex  -2.308053e+00 -1.673628e+01  1.498325e+01
      vertex  -1.632355e+00 -1.649564e+01  1.498321e+01
    endloop
  endfacet
  facet normal -9.740964e-01 -2.256067e-01  1.541944e-02
    outer loop
      vertex  -2.930543e+00 -1.385381e+01  1.498369e+01
      vertex  -3.091784e+00 -1.418169e+01  2.136761e-04
      vertex  -2.489183e+00 -1.575945e+01  1.498376e+01
    endloop
  endfacet
  facet normal -9.613951e-01  2.751376e-01  4.324963e-03
    outer loop
      vertex  -3.091784e+00 -1.418169e+01  2.136761e-04
      vertex  -2.930543e+00 -1.385381e+01  1.498369e+01
      vertex  -2.442152e+00 -1.214724e+01  1.498326e+01
    endloop
  endfacet
  facet normal -1.760553e-04  3.597143e-05  1.000000e+00
    outer loop
      vertex  -4.801564e-01 -1.086940e+01  1.498356e+01
      vertex  -2.300943e+00 -1.113798e+01  1.498325e+01
      vertex  -2.442152e+00 -1.214724e+01  1.498326e+01
    endloop
  endfacet
  facet normal  3.256012e-05  2.421543e-04  9.999999e-01
    outer loop
      vertex  -2.930543e+00 -1.385381e+01  1.498369e+01
      vertex   9.432084e-01 -1.140520e+01  1.498297e+01
      vertex  -2.442152e+00 -1.214724e+01  1.498326e+01
    endloop
  endfacet
  facet normal  4.439684e-03  1.069421e-02  9.999329e-01
    outer loop
      vertex   1.806147e+00 -1.146365e+01  1.497976e+01
      vertex  -4.801564e-01 -1.086940e+01  1.498356e+01
      vertex   9.432084e-01 -1.140520e+01  1.498297e+01
    endloop
  endfacet
  facet normal  8.706949e-01 -4.911565e-01  2.560509e-02
    outer loop
      vertex   2.340113e+00  1.079220e+01  1.329303e+01
      vertex   2.768336e+00  1.149946e+01  1.229808e+01
      vertex   2.662210e+00  1.160324e+01  1.789745e+01
    endloop
  endfacet
  facet normal  9.901488e-01 -1.397591e-01 -8.523788e-03
    outer loop
      vertex   3.067392e+00  1.346843e+01  1.475342e+01
      vertex   2.768336e+00  1.149946e+01  1.229808e+01
      vertex   2.669587e+00  1.154989e+01  2.920424e-04
    endloop
  endfacet
  facet normal  8.216951e-01 -5.698574e-01 -8.934699e-03
    outer loop
      vertex   2.268565e+00  1.097165e+01  2.026731e-05
      vertex   2.669587e+00  1.154989e+01  2.920424e-04
      vertex   2.768336e+00  1.149946e+01  1.229808e+01
    endloop
  endfacet
  facet normal  8.479761e-01 -5.299049e-01 -1.171742e-02
    outer loop
      vertex   2.268565e+00  1.097165e+01  2.026731e-05
      vertex   2.768336e+00  1.149946e+01  1.229808e+01
      vertex   2.340113e+00  1.079220e+01  1.329303e+01
    endloop
  endfacet
  facet normal  4.072278e-01 -8.939877e-01 -1.869533e-01
    outer loop
      vertex   5.760631e-02  1.063071e+01  9.093425e+00
      vertex   1.760415e+00  1.126500e+01  9.769474e+00
      vertex   2.340113e+00  1.079220e+01  1.329303e+01
    endloop
  endfacet
  facet normal -2.743560e-01 -9.435869e-01  1.853980e-01
    outer loop
      vertex   2.662210e+00  1.160324e+01  1.789745e+01
      vertex   5.760631e-02  1.063071e+01  9.093425e+00
      vertex   2.340113e+00  1.079220e+01  1.329303e+01
    endloop
  endfacet
  facet normal  9.909130e-01  1.297249e-01  3.553560e-02
    outer loop
      vertex   2.803018e+00  1.602117e+01  1.380689e-05
      vertex   2.476057e+00  1.551356e+01  1.097040e+01
      vertex   3.044435e+00  1.417711e+01 -6.477321e-05
    endloop
  endfacet
  facet normal -1.853872e-04  1.834236e-05 -1.000000e+00
    outer loop
      vertex   2.268565e+00  1.097165e+01  2.026731e-05
      vertex   2.803018e+00  1.602117e+01  1.380689e-05
      vertex   3.044435e+00  1.417711e+01 -6.477321e-05
    endloop
  endfacet
  facet normal  5.571073e-01  8.304405e-01 -3.127677e-05
    outer loop
      vertex   2.806378e+00  1.601931e+01  1.032098e+01
      vertex   2.803018e+00  1.602117e+01  1.380689e-05
      vertex   2.246767e+00  1.639434e+01  4.592802e-05
    endloop
  endfacet
  facet normal -5.471876e-05  4.512136e-06 -1.000000e+00
    outer loop
      vertex   2.268565e+00  1.097165e+01  2.026731e-05
      vertex   2.246767e+00  1.639434e+01  4.592802e-05
      vertex   2.803018e+00  1.602117e+01  1.380689e-05
    endloop
  endfacet
  facet normal  2.462038e-01  9.691067e-01  1.469180e-02
    outer loop
      vertex   2.246767e+00  1.639434e+01  4.592802e-05
      vertex  -2.378337e-01  1.678431e+01  1.591345e+01
      vertex   2.062429e+00  1.630333e+01  9.092350e+00
    endloop
  endfacet
  facet normal  1.252027e-01  9.921197e-01 -4.764345e-03
    outer loop
      vertex  -2.378337e-01  1.678431e+01  1.591345e+01
      vertex   2.246767e+00  1.639434e+01  4.592802e-05
      vertex  -3.784352e-01  1.672563e+01  2.201635e-05
    endloop
  endfacet
  facet normal  9.710609e-06  4.771136e-06 -1.000000e+00
    outer loop
      vertex   2.268565e+00  1.097165e+01  2.026731e-05
      vertex  -3.784352e-01  1.672563e+01  2.201635e-05
      vertex   2.246767e+00  1.639434e+01  4.592802e-05
    endloop
  endfacet
  facet normal -3.677090e-06 -1.387599e-06 -1.000000e+00
    outer loop
      vertex   2.268565e+00  1.097165e+01  2.026731e-05
      vertex  -1.978210e+00  1.626480e+01  2.853832e-05
      vertex  -3.784352e-01  1.672563e+01  2.201635e-05
    endloop
  endfacet
  facet normal -4.432728e-01  8.961806e-01  1.922179e-02
    outer loop
      vertex  -1.769886e+00  1.615954e+01  9.711483e+00
      vertex  -2.378337e-01  1.678431e+01  1.591345e+01
      vertex  -1.978210e+00  1.626480e+01  2.853832e-05
    endloop
  endfacet
  facet normal  6.445165e-01  7.645703e-01 -5.539103e-03
    outer loop
      vertex  -1.769886e+00  1.615954e+01  9.711483e+00
      vertex  -1.978210e+00  1.626480e+01  2.853832e-05
      vertex  -2.304764e+00  1.663624e+01  1.327347e+01
    endloop
  endfacet
  facet normal  8.482324e-06  8.368092e-06 -1.000000e+00
    outer loop
      vertex   2.268565e+00  1.097165e+01  2.026731e-05
      vertex  -2.775472e+00  1.599690e+01  1.953388e-05
      vertex  -1.978210e+00  1.626480e+01  2.853832e-05
    endloop
  endfacet
  facet normal -8.421025e-01  5.393035e-01  3.886439e-03
    outer loop
      vertex  -2.304764e+00  1.663624e+01  1.327347e+01
      vertex  -2.775472e+00  1.599690e+01  1.953388e-05
      vertex  -2.768838e+00  1.591881e+01  1.227265e+01
    endloop
  endfacet
  facet normal  2.985053e-06  2.850265e-06 -1.000000e+00
    outer loop
      vertex   2.268565e+00  1.097165e+01  2.026731e-05
      vertex  -3.115325e+00  1.378133e+01  1.220446e-05
      vertex  -2.775472e+00  1.599690e+01  1.953388e-05
    endloop
  endfacet
  facet normal -9.884388e-01  1.516198e-01 -2.841486e-04
    outer loop
      vertex  -3.115325e+00  1.378133e+01  1.220446e-05
      vertex  -3.118989e+00  1.378514e+01  1.477772e+01
      vertex  -2.775472e+00  1.599690e+01  1.953388e-05
    endloop
  endfacet
  facet normal -9.684752e-01 -7.360104e-02  2.379887e-01
    outer loop
      vertex  -2.234419e+00  1.150564e+01  1.767245e+01
      vertex  -2.335315e+00  1.583237e+01  1.859996e+01
      vertex  -3.118989e+00  1.378514e+01  1.477772e+01
    endloop
  endfacet
  facet normal -9.543448e-01 -2.923212e-01  6.143622e-02
    outer loop
      vertex  -2.234419e+00  1.150564e+01  1.767245e+01
      vertex  -3.118989e+00  1.378514e+01  1.477772e+01
      vertex  -2.715759e+00  1.154304e+01  1.037329e+01
    endloop
  endfacet
  facet normal -9.840240e-01 -1.780345e-01  5.408695e-04
    outer loop
      vertex  -2.715759e+00  1.154304e+01  1.037329e+01
      vertex  -3.118989e+00  1.378514e+01  1.477772e+01
      vertex  -2.711585e+00  1.148846e+01  3.668209e-05
    endloop
  endfacet
  facet normal -9.848485e-01 -1.734166e-01 -1.995636e-04
    outer loop
      vertex  -3.118989e+00  1.378514e+01  1.477772e+01
      vertex  -3.115325e+00  1.378133e+01  1.220446e-05
      vertex  -2.711585e+00  1.148846e+01  3.668209e-05
    endloop
  endfacet
  facet normal -1.558085e-05 -1.183810e-04 -1.000000e+00
    outer loop
      vertex   2.268565e+00  1.097165e+01  2.026731e-05
      vertex  -2.105747e+00  1.108745e+01  7.471396e-05
      vertex  -2.711585e+00  1.148846e+01  3.668209e-05
    endloop
  endfacet
  facet normal -5.519090e-01 -8.338256e-01 -1.145953e-02
    outer loop
      vertex  -2.711585e+00  1.148846e+01  3.668209e-05
      vertex  -2.105747e+00  1.108745e+01  7.471396e-05
      vertex  -2.185771e+00  1.101030e+01  9.467959e+00
    endloop
  endfacet
  facet normal -1.720073e-01 -9.845613e-01 -3.244403e-02
    outer loop
      vertex   5.760631e-02  1.063071e+01  9.093425e+00
      vertex  -2.871514e+00  1.099308e+01  1.362620e+01
      vertex  -2.185771e+00  1.101030e+01  9.467959e+00
    endloop
  endfacet
  facet normal -2.643916e-02 -9.986873e-01 -4.387181e-02
    outer loop
      vertex   2.268565e+00  1.097165e+01  2.026731e-05
      vertex   5.760631e-02  1.063071e+01  9.093425e+00
      vertex  -2.105747e+00  1.108745e+01  7.471396e-05
    endloop
  endfacet
  facet normal  9.840029e-01 -1.767980e-01  2.192671e-02
    outer loop
      vertex   2.662210e+00  1.160324e+01  1.789745e+01
      vertex   2.768336e+00  1.149946e+01  1.229808e+01
      vertex   3.067392e+00  1.346843e+01  1.475342e+01
    endloop
  endfacet
  facet normal  9.740947e-01  1.158069e-01  1.942375e-01
    outer loop
      vertex   2.127520e+00  1.594515e+01  1.799020e+01
      vertex   2.662210e+00  1.160324e+01  1.789745e+01
      vertex   3.067392e+00  1.346843e+01  1.475342e+01
    endloop
  endfacet
  facet normal  9.458241e-01  3.235490e-01  2.706863e-02
    outer loop
      vertex   2.127520e+00  1.594515e+01  1.799020e+01
      vertex   3.067392e+00  1.346843e+01  1.475342e+01
      vertex   2.476057e+00  1.551356e+01  1.097040e+01
    endloop
  endfacet
  facet normal  8.182391e-01 -5.698771e-01  7.566265e-02
    outer loop
      vertex   2.869123e+00  1.643370e+01  1.364995e+01
      vertex   2.127520e+00  1.594515e+01  1.799020e+01
      vertex   2.476057e+00  1.551356e+01  1.097040e+01
    endloop
  endfacet
  facet normal  5.149380e-01  8.494187e-01 -1.154415e-01
    outer loop
      vertex   2.062429e+00  1.630333e+01  9.092350e+00
      vertex   2.869123e+00  1.643370e+01  1.364995e+01
      vertex   2.806378e+00  1.601931e+01  1.032098e+01
    endloop
  endfacet
  facet normal  8.625991e-01 -5.037514e-01  4.644839e-02
    outer loop
      vertex   2.806378e+00  1.601931e+01  1.032098e+01
      vertex   2.869123e+00  1.643370e+01  1.364995e+01
      vertex   2.476057e+00  1.551356e+01  1.097040e+01
    endloop
  endfacet
  facet normal -2.512668e-01  9.572914e-01  1.430324e-01
    outer loop
      vertex  -2.335315e+00  1.583237e+01  1.859996e+01
      vertex  -2.378337e-01  1.678431e+01  1.591345e+01
      vertex  -2.304764e+00  1.663624e+01  1.327347e+01
    endloop
  endfacet
  facet normal  8.242731e-02  9.893430e-01 -1.200252e-01
    outer loop
      vertex  -2.378337e-01  1.678431e+01  1.591345e+01
      vertex  -1.769886e+00  1.615954e+01  9.711483e+00
      vertex  -2.304764e+00  1.663624e+01  1.327347e+01
    endloop
  endfacet
  facet normal -8.080045e-01 -5.733541e-01 -1.356241e-01
    outer loop
      vertex  -2.185771e+00  1.101030e+01  9.467959e+00
      vertex  -2.871514e+00  1.099308e+01  1.362620e+01
      vertex  -2.715759e+00  1.154304e+01  1.037329e+01
    endloop
  endfacet
  facet normal  2.425277e-02  9.361867e-01  3.506653e-01
    outer loop
      vertex   2.127520e+00  1.594515e+01  1.799020e+01
      vertex  -2.378337e-01  1.678431e+01  1.591345e+01
      vertex  -2.335315e+00  1.583237e+01  1.859996e+01
    endloop
  endfacet
  facet normal -8.775942e-01  4.747534e-01  6.661585e-02
    outer loop
      vertex  -2.304764e+00  1.663624e+01  1.327347e+01
      vertex  -2.768838e+00  1.591881e+01  1.227265e+01
      vertex  -2.335315e+00  1.583237e+01  1.859996e+01
    endloop
  endfacet
  facet normal  5.765789e-02 -9.915129e-01  1.165233e-01
    outer loop
      vertex  -2.871514e+00  1.099308e+01  1.362620e+01
      vertex   5.760631e-02  1.063071e+01  9.093425e+00
      vertex  -2.234419e+00  1.150564e+01  1.767245e+01
    endloop
  endfacet
  facet normal  1.354816e-01 -4.480046e-03  9.907698e-01
    outer loop
      vertex  -2.335315e+00  1.583237e+01  1.859996e+01
      vertex   2.662210e+00  1.160324e+01  1.789745e+01
      vertex   2.127520e+00  1.594515e+01  1.799020e+01
    endloop
  endfacet
  facet normal -4.069165e-02 -2.103387e-01  9.767814e-01
    outer loop
      vertex  -2.335315e+00  1.583237e+01  1.859996e+01
      vertex  -2.234419e+00  1.150564e+01  1.767245e+01
      vertex   2.662210e+00  1.160324e+01  1.789745e+01
    endloop
  endfacet
  facet normal  1.497435e-02 -9.943165e-01  1.054056e-01
    outer loop
      vertex  -2.234419e+00  1.150564e+01  1.767245e+01
      vertex   5.760631e-02  1.063071e+01  9.093425e+00
      vertex   2.662210e+00  1.160324e+01  1.789745e+01
    endloop
  endfacet
  facet normal -1.683587e-01 -9.856805e-01 -9.455143e-03
    outer loop
      vertex  -2.105747e+00  1.108745e+01  7.471396e-05
      vertex   5.760631e-02  1.063071e+01  9.093425e+00
      vertex  -2.185771e+00  1.101030e+01  9.467959e+00
    endloop
  endfacet
  facet normal -7.059996e-01 -7.082039e-01  3.442356e-03
    outer loop
      vertex  -2.711585e+00  1.148846e+01  3.668209e-05
      vertex  -2.185771e+00  1.101030e+01  9.467959e+00
      vertex  -2.715759e+00  1.154304e+01  1.037329e+01
    endloop
  endfacet
  facet normal -8.200906e-01  5.693880e-01  5.699774e-02
    outer loop
      vertex  -2.234419e+00  1.150564e+01  1.767245e+01
      vertex  -2.715759e+00  1.154304e+01  1.037329e+01
      vertex  -2.871514e+00  1.099308e+01  1.362620e+01
    endloop
  endfacet
  facet normal -4.485846e-06 -1.146541e-05 -1.000000e+00
    outer loop
      vertex   2.268565e+00  1.097165e+01  2.026731e-05
      vertex  -2.711585e+00  1.148846e+01  3.668209e-05
      vertex  -3.115325e+00  1.378133e+01  1.220446e-05
    endloop
  endfacet
  facet normal -9.681211e-01  2.406131e-01  6.961944e-02
    outer loop
      vertex  -2.768838e+00  1.591881e+01  1.227265e+01
      vertex  -3.118989e+00  1.378514e+01  1.477772e+01
      vertex  -2.335315e+00  1.583237e+01  1.859996e+01
    endloop
  endfacet
  facet normal -9.865021e-01  1.637412e-01  1.575064e-03
    outer loop
      vertex  -2.775472e+00  1.599690e+01  1.953388e-05
      vertex  -3.118989e+00  1.378514e+01  1.477772e+01
      vertex  -2.768838e+00  1.591881e+01  1.227265e+01
    endloop
  endfacet
  facet normal -3.183332e-01  9.473566e-01 -3.434229e-02
    outer loop
      vertex  -2.304764e+00  1.663624e+01  1.327347e+01
      vertex  -1.978210e+00  1.626480e+01  2.853832e-05
      vertex  -2.775472e+00  1.599690e+01  1.953388e-05
    endloop
  endfacet
  facet normal -2.768072e-01  9.609249e-01 -1.097406e-03
    outer loop
      vertex  -2.378337e-01  1.678431e+01  1.591345e+01
      vertex  -3.784352e-01  1.672563e+01  2.201635e-05
      vertex  -1.978210e+00  1.626480e+01  2.853832e-05
    endloop
  endfacet
  facet normal  3.058658e-01  9.513915e-01  3.606063e-02
    outer loop
      vertex   2.127520e+00  1.594515e+01  1.799020e+01
      vertex   2.062429e+00  1.630333e+01  9.092350e+00
      vertex  -2.378337e-01  1.678431e+01  1.591345e+01
    endloop
  endfacet
  facet normal -3.757257e-01  9.258664e-01  4.001921e-02
    outer loop
      vertex   2.127520e+00  1.594515e+01  1.799020e+01
      vertex   2.869123e+00  1.643370e+01  1.364995e+01
      vertex   2.062429e+00  1.630333e+01  9.092350e+00
    endloop
  endfacet
  facet normal  3.331709e-01  9.427274e-01  1.619093e-02
    outer loop
      vertex   2.806378e+00  1.601931e+01  1.032098e+01
      vertex   2.246767e+00  1.639434e+01  4.592802e-05
      vertex   2.062429e+00  1.630333e+01  9.092350e+00
    endloop
  endfacet
  facet normal  8.370231e-01 -5.471675e-01 -3.713902e-04
    outer loop
      vertex   2.806378e+00  1.601931e+01  1.032098e+01
      vertex   2.476057e+00  1.551356e+01  1.097040e+01
      vertex   2.803018e+00  1.602117e+01  1.380689e-05
    endloop
  endfacet
  facet normal  9.539428e-01  2.997102e-01  1.291213e-02
    outer loop
      vertex   2.476057e+00  1.551356e+01  1.097040e+01
      vertex   3.067392e+00  1.346843e+01  1.475342e+01
      vertex   3.044435e+00  1.417711e+01 -6.477321e-05
    endloop
  endfacet
  facet normal  9.899397e-01 -1.412441e-01 -8.325041e-03
    outer loop
      vertex   3.044435e+00  1.417711e+01 -6.477321e-05
      vertex   3.067392e+00  1.346843e+01  1.475342e+01
      vertex   2.669587e+00  1.154989e+01  2.920424e-04
    endloop
  endfacet
  facet normal  1.099804e-03 -2.927328e-04 -9.999993e-01
    outer loop
      vertex   2.268565e+00  1.097165e+01  2.026731e-05
      vertex   3.044435e+00  1.417711e+01 -6.477321e-05
      vertex   2.669587e+00  1.154989e+01  2.920424e-04
    endloop
  endfacet
  facet normal  3.327542e-01 -9.419109e-01  4.559071e-02
    outer loop
      vertex   2.268565e+00  1.097165e+01  2.026731e-05
      vertex   1.760415e+00  1.126500e+01  9.769474e+00
      vertex   5.760631e-02  1.063071e+01  9.093425e+00
    endloop
  endfacet
  facet normal -6.042290e-01 -7.967754e-01 -7.503747e-03
    outer loop
      vertex   2.340113e+00  1.079220e+01  1.329303e+01
      vertex   1.760415e+00  1.126500e+01  9.769474e+00
      vertex   2.268565e+00  1.097165e+01  2.026731e-05
    endloop
  endfacet
endsolid vcg
