solid STL generated by MeshLab
  facet normal  8.256092e-01  5.138937e-01  2.329862e-01
    outer loop
      vertex  -2.426933e+01  1.453739e+01  8.344311e+00
      vertex  -2.546672e+01  1.580197e+01  9.798121e+00
      vertex  -2.551167e+01  1.510045e+01  1.150473e+01
    endloop
  endfacet
  facet normal  9.303350e-01 -5.401348e-03  3.666711e-01
    outer loop
      vertex  -2.426933e+01  1.453739e+01  8.344311e+00
      vertex  -2.551167e+01  1.510045e+01  1.150473e+01
      vertex  -2.540387e+01  1.246683e+01  1.119242e+01
    endloop
  endfacet
  facet normal  8.019735e-01 -5.875714e-01 -1.076953e-01
    outer loop
      vertex  -2.426933e+01  1.453739e+01  8.344311e+00
      vertex  -2.540387e+01  1.246683e+01  1.119242e+01
      vertex  -2.548535e+01  1.283301e+01  8.587829e+00
    endloop
  endfacet
  facet normal -3.010078e-02  5.926286e-01 -8.049133e-01
    outer loop
      vertex  -3.850000e+01  1.354378e+01  8.144928e+00
      vertex  -3.850000e+01  1.621614e+01  1.011249e+01
      vertex  -2.426933e+01  1.453739e+01  8.344311e+00
    endloop
  endfacet
  facet normal -4.037669e-02 -8.415138e-01  5.387245e-01
    outer loop
      vertex  -3.850000e+01  1.217854e+01  9.760545e+00
      vertex  -2.540387e+01  1.246683e+01  1.119242e+01
      vertex  -3.850000e+01  1.348974e+01  1.180870e+01
    endloop
  endfacet
  facet normal  3.763369e-02 -1.161579e-01  9.925175e-01
    outer loop
      vertex  -3.850000e+01  1.348974e+01  1.180870e+01
      vertex  -2.540387e+01  1.246683e+01  1.119242e+01
      vertex  -2.551167e+01  1.510045e+01  1.150473e+01
    endloop
  endfacet
  facet normal -4.559084e-02  5.277051e-01  8.482033e-01
    outer loop
      vertex  -3.850000e+01  1.348974e+01  1.180870e+01
      vertex  -2.551167e+01  1.510045e+01  1.150473e+01
      vertex  -3.850000e+01  1.621614e+01  1.011249e+01
    endloop
  endfacet
  facet normal  3.854300e-02  9.238632e-01  3.807769e-01
    outer loop
      vertex  -3.850000e+01  1.621614e+01  1.011249e+01
      vertex  -2.551167e+01  1.510045e+01  1.150473e+01
      vertex  -2.546672e+01  1.580197e+01  9.798121e+00
    endloop
  endfacet
  facet normal  3.711662e-02 -9.894186e-01 -1.402611e-01
    outer loop
      vertex  -2.540387e+01  1.246683e+01  1.119242e+01
      vertex  -3.850000e+01  1.217854e+01  9.760545e+00
      vertex  -2.548535e+01  1.283301e+01  8.587829e+00
    endloop
  endfacet
  facet normal  2.491601e-02 -1.587964e-01 -9.869969e-01
    outer loop
      vertex  -2.548535e+01  1.283301e+01  8.587829e+00
      vertex  -3.850000e+01  1.354378e+01  8.144928e+00
      vertex  -2.426933e+01  1.453739e+01  8.344311e+00
    endloop
  endfacet
  facet normal  8.348890e-03  7.578728e-01 -6.523488e-01
    outer loop
      vertex  -2.426933e+01  1.453739e+01  8.344311e+00
      vertex  -3.850000e+01  1.621614e+01  1.011249e+01
      vertex  -2.546672e+01  1.580197e+01  9.798121e+00
    endloop
  endfacet
  facet normal -1.974541e-02 -7.636600e-01 -6.453166e-01
    outer loop
      vertex  -3.850000e+01  1.354378e+01  8.144928e+00
      vertex  -2.548535e+01  1.283301e+01  8.587829e+00
      vertex  -3.850000e+01  1.217854e+01  9.760545e+00
    endloop
  endfacet
  facet normal  3.934257e-02  7.619110e-01  6.464857e-01
    outer loop
      vertex  -9.644825e+01  1.519975e+01  1.113107e+01
      vertex  -9.698357e+01  1.611532e+01  1.008461e+01
      vertex  -9.698558e+01  1.435892e+01  1.215472e+01
    endloop
  endfacet
  facet normal  8.926635e-01 -2.240994e-02  4.501661e-01
    outer loop
      vertex  -9.644825e+01  1.519975e+01  1.113107e+01
      vertex  -9.698558e+01  1.435892e+01  1.215472e+01
      vertex  -9.649722e+01  1.289398e+01  1.111340e+01
    endloop
  endfacet
  facet normal  8.425497e-02 -5.585000e-01  8.252144e-01
    outer loop
      vertex  -9.649722e+01  1.289398e+01  1.111340e+01
      vertex  -9.698558e+01  1.435892e+01  1.215472e+01
      vertex  -9.701795e+01  1.184727e+01  1.045816e+01
    endloop
  endfacet
  facet normal  8.802636e-01 -4.714522e-01  5.356044e-02
    outer loop
      vertex  -9.649722e+01  1.289398e+01  1.111340e+01
      vertex  -9.701795e+01  1.184727e+01  1.045816e+01
      vertex  -9.638582e+01  1.283743e+01  8.784630e+00
    endloop
  endfacet
  facet normal  2.706016e-01 -8.698639e-01 -4.124460e-01
    outer loop
      vertex  -9.638582e+01  1.283743e+01  8.784630e+00
      vertex  -9.701795e+01  1.184727e+01  1.045816e+01
      vertex  -9.696929e+01  1.294616e+01  8.172499e+00
    endloop
  endfacet
  facet normal  7.239372e-01  1.011983e-03 -6.898652e-01
    outer loop
      vertex  -9.638582e+01  1.283743e+01  8.784630e+00
      vertex  -9.696929e+01  1.294616e+01  8.172499e+00
      vertex  -9.689165e+01  1.501180e+01  8.257000e+00
    endloop
  endfacet
  facet normal  9.219618e-01  3.503039e-01 -1.651467e-01
    outer loop
      vertex  -9.689165e+01  1.501180e+01  8.257000e+00
      vertex  -9.698357e+01  1.611532e+01  1.008461e+01
      vertex  -9.644825e+01  1.519975e+01  1.113107e+01
    endloop
  endfacet
  facet normal  5.665610e-02  8.364540e-01  5.451006e-01
    outer loop
      vertex  -8.199989e+01  1.548036e+01  9.198758e+00
      vertex  -9.644825e+01  1.519975e+01  1.113107e+01
      vertex  -8.199991e+01  1.387002e+01  1.166982e+01
    endloop
  endfacet
  facet normal  4.061339e-02 -8.765981e-01  4.795063e-01
    outer loop
      vertex  -8.199991e+01  1.387002e+01  1.166982e+01
      vertex  -9.649722e+01  1.289398e+01  1.111340e+01
      vertex  -8.199997e+01  1.253451e+01  9.228340e+00
    endloop
  endfacet
  facet normal  3.061615e-02 -1.003759e-02 -9.994808e-01
    outer loop
      vertex  -8.199997e+01  1.253451e+01  9.228340e+00
      vertex  -9.638582e+01  1.283743e+01  8.784630e+00
      vertex  -8.199989e+01  1.548036e+01  9.198758e+00
    endloop
  endfacet
  facet normal -2.753633e-02  9.977577e-01 -6.100152e-02
    outer loop
      vertex  -9.644825e+01  1.519975e+01  1.113107e+01
      vertex  -8.199989e+01  1.548036e+01  9.198758e+00
      vertex  -9.689165e+01  1.501180e+01  8.257000e+00
    endloop
  endfacet
  facet normal  6.846417e-02 -2.201921e-01 -9.730510e-01
    outer loop
      vertex  -9.689165e+01  1.501180e+01  8.257000e+00
      vertex  -8.199989e+01  1.548036e+01  9.198758e+00
      vertex  -9.638582e+01  1.283743e+01  8.784630e+00
    endloop
  endfacet
  facet normal -2.176249e-02 -9.994932e-01  2.323352e-02
    outer loop
      vertex  -9.638582e+01  1.283743e+01  8.784630e+00
      vertex  -8.199997e+01  1.253451e+01  9.228340e+00
      vertex  -9.649722e+01  1.289398e+01  1.111340e+01
    endloop
  endfacet
  facet normal -3.789088e-02 -6.854036e-03  9.992584e-01
    outer loop
      vertex  -9.649722e+01  1.289398e+01  1.111340e+01
      vertex  -8.199991e+01  1.387002e+01  1.166982e+01
      vertex  -9.644825e+01  1.519975e+01  1.113107e+01
    endloop
  endfacet
  facet normal -1.700039e-02  9.888126e-01 -1.481917e-01
    outer loop
      vertex  -1.099874e+02  1.582362e+01  8.054112e+00
      vertex  -1.133936e+02  1.626618e+01  1.139785e+01
      vertex  -1.094598e+02  1.614463e+01  1.013551e+01
    endloop
  endfacet
  facet normal  2.381662e-01  6.983902e-01  6.749282e-01
    outer loop
      vertex  -1.094598e+02  1.614463e+01  1.013551e+01
      vertex  -1.133936e+02  1.626618e+01  1.139785e+01
      vertex  -1.094878e+02  1.428676e+01  1.206782e+01
    endloop
  endfacet
  facet normal  1.596113e-01  5.842665e-01  7.957115e-01
    outer loop
      vertex  -1.094878e+02  1.428676e+01  1.206782e+01
      vertex  -1.133936e+02  1.626618e+01  1.139785e+01
      vertex  -1.115227e+02  1.405793e+01  1.264403e+01
    endloop
  endfacet
  facet normal  2.816673e-01 -5.799024e-01  7.644454e-01
    outer loop
      vertex  -1.094878e+02  1.428676e+01  1.206782e+01
      vertex  -1.115227e+02  1.405793e+01  1.264403e+01
      vertex  -1.093992e+02  1.178560e+01  1.013782e+01
    endloop
  endfacet
  facet normal  1.861546e-01 -6.442244e-01  7.418365e-01
    outer loop
      vertex  -1.093992e+02  1.178560e+01  1.013782e+01
      vertex  -1.115227e+02  1.405793e+01  1.264403e+01
      vertex  -1.149222e+02  1.214071e+01  1.183214e+01
    endloop
  endfacet
  facet normal -3.013517e-02 -9.934755e-01  1.099928e-01
    outer loop
      vertex  -1.093992e+02  1.178560e+01  1.013782e+01
      vertex  -1.149222e+02  1.214071e+01  1.183214e+01
      vertex  -1.144353e+02  1.175983e+01  8.525337e+00
    endloop
  endfacet
  facet normal  1.412871e-01 -8.931486e-01 -4.269936e-01
    outer loop
      vertex  -1.093992e+02  1.178560e+01  1.013782e+01
      vertex  -1.144353e+02  1.175983e+01  8.525337e+00
      vertex  -1.099870e+02  1.289963e+01  7.613096e+00
    endloop
  endfacet
  facet normal  8.705512e-01 -3.421612e-01 -3.536474e-01
    outer loop
      vertex  -1.093992e+02  1.178560e+01  1.013782e+01
      vertex  -1.099870e+02  1.289963e+01  7.613096e+00
      vertex  -1.094100e+02  1.412881e+01  7.844039e+00
    endloop
  endfacet
  facet normal  7.780512e-02  1.486997e-01 -9.858168e-01
    outer loop
      vertex  -1.094100e+02  1.412881e+01  7.844039e+00
      vertex  -1.099870e+02  1.289963e+01  7.613096e+00
      vertex  -1.099874e+02  1.582362e+01  8.054112e+00
    endloop
  endfacet
  facet normal  8.975798e-01  3.404984e-01 -2.800204e-01
    outer loop
      vertex  -1.094100e+02  1.412881e+01  7.844039e+00
      vertex  -1.099874e+02  1.582362e+01  8.054112e+00
      vertex  -1.094598e+02  1.614463e+01  1.013551e+01
    endloop
  endfacet
  facet normal  4.430573e-03  7.625105e-01  6.469607e-01
    outer loop
      vertex  -9.698357e+01  1.611532e+01  1.008461e+01
      vertex  -1.094598e+02  1.614463e+01  1.013551e+01
      vertex  -9.698558e+01  1.435892e+01  1.215472e+01
    endloop
  endfacet
  facet normal  3.014542e-02  3.972417e-02 -9.987559e-01
    outer loop
      vertex  -9.696929e+01  1.294616e+01  8.172499e+00
      vertex  -1.094100e+02  1.412881e+01  7.844039e+00
      vertex  -9.689165e+01  1.501180e+01  8.257000e+00
    endloop
  endfacet
  facet normal -9.798229e-05  8.560490e-01 -5.168947e-01
    outer loop
      vertex  -9.698357e+01  1.611532e+01  1.008461e+01
      vertex  -9.689165e+01  1.501180e+01  8.257000e+00
      vertex  -1.094598e+02  1.614463e+01  1.013551e+01
    endloop
  endfacet
  facet normal -3.111917e-02  7.501241e-01 -6.605645e-01
    outer loop
      vertex  -1.094598e+02  1.614463e+01  1.013551e+01
      vertex  -9.689165e+01  1.501180e+01  8.257000e+00
      vertex  -1.094100e+02  1.412881e+01  7.844039e+00
    endloop
  endfacet
  facet normal -4.759188e-02 -6.988480e-01 -7.136852e-01
    outer loop
      vertex  -1.094100e+02  1.412881e+01  7.844039e+00
      vertex  -9.696929e+01  1.294616e+01  8.172499e+00
      vertex  -1.093992e+02  1.178560e+01  1.013782e+01
    endloop
  endfacet
  facet normal  1.569219e-02 -9.012706e-01 -4.329724e-01
    outer loop
      vertex  -1.093992e+02  1.178560e+01  1.013782e+01
      vertex  -9.696929e+01  1.294616e+01  8.172499e+00
      vertex  -9.701795e+01  1.184727e+01  1.045816e+01
    endloop
  endfacet
  facet normal -1.865222e-02 -5.594825e-01  8.286323e-01
    outer loop
      vertex  -1.093992e+02  1.178560e+01  1.013782e+01
      vertex  -9.701795e+01  1.184727e+01  1.045816e+01
      vertex  -9.698558e+01  1.435892e+01  1.215472e+01
    endloop
  endfacet
  facet normal -1.976311e-03 -6.109522e-01  7.916651e-01
    outer loop
      vertex  -1.093992e+02  1.178560e+01  1.013782e+01
      vertex  -9.698558e+01  1.435892e+01  1.215472e+01
      vertex  -1.094878e+02  1.428676e+01  1.206782e+01
    endloop
  endfacet
  facet normal -8.978227e-03  7.208908e-01  6.929906e-01
    outer loop
      vertex  -1.094878e+02  1.428676e+01  1.206782e+01
      vertex  -9.698558e+01  1.435892e+01  1.215472e+01
      vertex  -1.094598e+02  1.614463e+01  1.013551e+01
    endloop
  endfacet
  facet normal -6.898594e-03  9.776830e-01 -2.099723e-01
    outer loop
      vertex  -6.500008e+01  1.828622e+01  1.046466e+01
      vertex  -4.150020e+01  1.824407e+01  9.496320e+00
      vertex  -6.499984e+01  1.772946e+01  7.872224e+00
    endloop
  endfacet
  facet normal -8.538721e-03 -5.129775e-01 -8.583596e-01
    outer loop
      vertex  -6.500004e+01  1.348982e+01  5.735909e+00
      vertex  -4.149994e+01  1.302511e+01  5.779859e+00
      vertex  -6.500029e+01  1.041620e+01  7.572781e+00
    endloop
  endfacet
  facet normal -1.292089e-02 -4.846672e-01 -8.746032e-01
    outer loop
      vertex  -6.500029e+01  1.041620e+01  7.572781e+00
      vertex  -4.149994e+01  1.302511e+01  5.779859e+00
      vertex  -4.150012e+01  1.115764e+01  6.814734e+00
    endloop
  endfacet
  facet normal -9.012144e-03 -9.716287e-01 -2.363399e-01
    outer loop
      vertex  -6.500029e+01  1.041620e+01  7.572781e+00
      vertex  -4.150004e+01  9.942497e+00  8.624147e+00
      vertex  -6.500003e+01  9.732007e+00  1.038561e+01
    endloop
  endfacet
  facet normal -1.531620e-02 -8.835713e-01  4.680462e-01
    outer loop
      vertex  -6.500003e+01  9.732007e+00  1.038561e+01
      vertex  -4.150000e+01  1.007797e+01  1.180772e+01
      vertex  -6.500015e+01  1.131881e+01  1.338114e+01
    endloop
  endfacet
  facet normal -7.081565e-03 -2.911133e-01  9.566624e-01
    outer loop
      vertex  -6.500015e+01  1.131881e+01  1.338114e+01
      vertex  -4.150010e+01  1.391417e+01  1.434487e+01
      vertex  -6.500008e+01  1.434395e+01  1.430170e+01
    endloop
  endfacet
  facet normal -4.595203e-03  4.046883e-01  9.144432e-01
    outer loop
      vertex  -6.499986e+01  1.712404e+01  1.307136e+01
      vertex  -6.500008e+01  1.434395e+01  1.430170e+01
      vertex  -4.150021e+01  1.650274e+01  1.346441e+01
    endloop
  endfacet
  facet normal  9.140254e-03  7.581758e-01  6.519862e-01
    outer loop
      vertex  -6.499986e+01  1.712404e+01  1.307136e+01
      vertex  -4.150021e+01  1.650274e+01  1.346441e+01
      vertex  -4.150017e+01  1.798345e+01  1.174254e+01
    endloop
  endfacet
  facet normal -1.037501e-02  9.132873e-01  4.071836e-01
    outer loop
      vertex  -6.500008e+01  1.828622e+01  1.046466e+01
      vertex  -6.499986e+01  1.712404e+01  1.307136e+01
      vertex  -4.150017e+01  1.798345e+01  1.174254e+01
    endloop
  endfacet
  facet normal  6.530723e-03  9.933147e-01  1.152536e-01
    outer loop
      vertex  -6.500008e+01  1.828622e+01  1.046466e+01
      vertex  -4.150017e+01  1.798345e+01  1.174254e+01
      vertex  -4.150020e+01  1.824407e+01  9.496320e+00
    endloop
  endfacet
  facet normal  4.149747e-03  3.220147e-01  9.467257e-01
    outer loop
      vertex  -4.150010e+01  1.391417e+01  1.434487e+01
      vertex  -4.150021e+01  1.650274e+01  1.346441e+01
      vertex  -6.500008e+01  1.434395e+01  1.430170e+01
    endloop
  endfacet
  facet normal -4.617323e-03 -3.110894e-01  9.503694e-01
    outer loop
      vertex  -4.150000e+01  1.169337e+01  1.361792e+01
      vertex  -4.150010e+01  1.391417e+01  1.434487e+01
      vertex  -6.500015e+01  1.131881e+01  1.338114e+01
    endloop
  endfacet
  facet normal  5.183344e-03 -7.461032e-01  6.658102e-01
    outer loop
      vertex  -4.150000e+01  1.169337e+01  1.361792e+01
      vertex  -6.500015e+01  1.131881e+01  1.338114e+01
      vertex  -4.150000e+01  1.007797e+01  1.180772e+01
    endloop
  endfacet
  facet normal  1.213476e-02 -9.990222e-01  4.251150e-02
    outer loop
      vertex  -4.150000e+01  1.007797e+01  1.180772e+01
      vertex  -6.500003e+01  9.732007e+00  1.038561e+01
      vertex  -4.150004e+01  9.942497e+00  8.624147e+00
    endloop
  endfacet
  facet normal  8.207844e-03 -8.301407e-01 -5.574936e-01
    outer loop
      vertex  -4.150004e+01  9.942497e+00  8.624147e+00
      vertex  -6.500029e+01  1.041620e+01  7.572781e+00
      vertex  -4.150012e+01  1.115764e+01  6.814734e+00
    endloop
  endfacet
  facet normal  5.048110e-03  1.619556e-01 -9.867851e-01
    outer loop
      vertex  -4.149994e+01  1.302511e+01  5.779859e+00
      vertex  -6.500004e+01  1.348982e+01  5.735909e+00
      vertex  -6.499949e+01  1.599553e+01  6.147161e+00
    endloop
  endfacet
  facet normal  1.516937e-02  2.400313e-01 -9.706466e-01
    outer loop
      vertex  -4.149994e+01  1.302511e+01  5.779859e+00
      vertex  -6.499949e+01  1.599553e+01  6.147161e+00
      vertex  -4.149988e+01  1.697695e+01  6.757111e+00
    endloop
  endfacet
  facet normal -1.105406e-02  7.052470e-01 -7.088754e-01
    outer loop
      vertex  -4.149988e+01  1.697695e+01  6.757111e+00
      vertex  -6.499949e+01  1.599553e+01  6.147161e+00
      vertex  -6.499984e+01  1.772946e+01  7.872224e+00
    endloop
  endfacet
  facet normal  9.140281e-03  9.075590e-01 -4.198251e-01
    outer loop
      vertex  -4.149988e+01  1.697695e+01  6.757111e+00
      vertex  -6.499984e+01  1.772946e+01  7.872224e+00
      vertex  -4.150020e+01  1.824407e+01  9.496320e+00
    endloop
  endfacet
  facet normal  9.928743e-01  1.183740e-01  1.372307e-02
    outer loop
      vertex  -4.125508e+01  1.587584e+01  1.219007e+01
      vertex  -4.150020e+01  1.824407e+01  9.496320e+00
      vertex  -4.150017e+01  1.798345e+01  1.174254e+01
    endloop
  endfacet
  facet normal  9.828446e-01  1.398310e-01  1.202659e-01
    outer loop
      vertex  -4.125508e+01  1.587584e+01  1.219007e+01
      vertex  -4.150017e+01  1.798345e+01  1.174254e+01
      vertex  -4.150021e+01  1.650274e+01  1.346441e+01
    endloop
  endfacet
  facet normal  9.851893e-01  5.525162e-02  1.623251e-01
    outer loop
      vertex  -4.125508e+01  1.587584e+01  1.219007e+01
      vertex  -4.150021e+01  1.650274e+01  1.346441e+01
      vertex  -4.150010e+01  1.391417e+01  1.434487e+01
    endloop
  endfacet
  facet normal  9.957767e-01 -2.851917e-02  8.726643e-02
    outer loop
      vertex  -4.125508e+01  1.587584e+01  1.219007e+01
      vertex  -4.150010e+01  1.391417e+01  1.434487e+01
      vertex  -4.150000e+01  1.169337e+01  1.361792e+01
    endloop
  endfacet
  facet normal  9.957539e-01 -2.841765e-02  8.755992e-02
    outer loop
      vertex  -4.125508e+01  1.587584e+01  1.219007e+01
      vertex  -4.150000e+01  1.169337e+01  1.361792e+01
      vertex  -4.123114e+01  1.115070e+01  1.038430e+01
    endloop
  endfacet
  facet normal  9.883793e-01 -1.134141e-01  1.012110e-01
    outer loop
      vertex  -4.123114e+01  1.115070e+01  1.038430e+01
      vertex  -4.150000e+01  1.169337e+01  1.361792e+01
      vertex  -4.150000e+01  1.007797e+01  1.180772e+01
    endloop
  endfacet
  facet normal  9.729452e-01 -2.308278e-01  9.809649e-03
    outer loop
      vertex  -4.123114e+01  1.115070e+01  1.038430e+01
      vertex  -4.150000e+01  1.007797e+01  1.180772e+01
      vertex  -4.150004e+01  9.942497e+00  8.624147e+00
    endloop
  endfacet
  facet normal  9.909450e-01 -1.114451e-01 -7.488646e-02
    outer loop
      vertex  -4.123114e+01  1.115070e+01  1.038430e+01
      vertex  -4.150004e+01  9.942497e+00  8.624147e+00
      vertex  -4.150012e+01  1.115764e+01  6.814734e+00
    endloop
  endfacet
  facet normal  9.961857e-01 -4.434377e-02 -7.515088e-02
    outer loop
      vertex  -4.123114e+01  1.115070e+01  1.038430e+01
      vertex  -4.150012e+01  1.115764e+01  6.814734e+00
      vertex  -4.135450e+01  1.340813e+01  7.417089e+00
    endloop
  endfacet
  facet normal  9.959809e-01 -4.348784e-02 -7.829930e-02
    outer loop
      vertex  -4.135450e+01  1.340813e+01  7.417089e+00
      vertex  -4.150012e+01  1.115764e+01  6.814734e+00
      vertex  -4.149994e+01  1.302511e+01  5.779859e+00
    endloop
  endfacet
  facet normal  9.953172e-01  2.319223e-02 -9.383982e-02
    outer loop
      vertex  -4.135450e+01  1.340813e+01  7.417089e+00
      vertex  -4.149994e+01  1.302511e+01  5.779859e+00
      vertex  -4.149988e+01  1.697695e+01  6.757111e+00
    endloop
  endfacet
  facet normal  9.171292e-01 -3.604810e-02 -3.969567e-01
    outer loop
      vertex  -4.135450e+01  1.340813e+01  7.417089e+00
      vertex  -4.149988e+01  1.697695e+01  6.757111e+00
      vertex  -4.072000e+01  1.629112e+01  8.621237e+00
    endloop
  endfacet
  facet normal  8.743099e-01  4.405568e-01 -2.036954e-01
    outer loop
      vertex  -4.072000e+01  1.629112e+01  8.621237e+00
      vertex  -4.149988e+01  1.697695e+01  6.757111e+00
      vertex  -4.150020e+01  1.824407e+01  9.496320e+00
    endloop
  endfacet
  facet normal  9.388074e-01  2.965200e-01  1.752612e-01
    outer loop
      vertex  -4.072000e+01  1.629112e+01  8.621237e+00
      vertex  -4.150020e+01  1.824407e+01  9.496320e+00
      vertex  -4.125508e+01  1.587584e+01  1.219007e+01
    endloop
  endfacet
  facet normal -4.005260e-02  9.931726e-01  1.095621e-01
    outer loop
      vertex  -3.850000e+01  1.621614e+01  1.011249e+01
      vertex  -4.072000e+01  1.629112e+01  8.621237e+00
      vertex  -4.125508e+01  1.587584e+01  1.219007e+01
    endloop
  endfacet
  facet normal  4.984978e-01  4.579389e-01  7.360651e-01
    outer loop
      vertex  -3.850000e+01  1.621614e+01  1.011249e+01
      vertex  -4.125508e+01  1.587584e+01  1.219007e+01
      vertex  -3.850000e+01  1.348974e+01  1.180870e+01
    endloop
  endfacet
  facet normal -1.777286e-01 -3.520839e-01  9.189394e-01
    outer loop
      vertex  -3.850000e+01  1.348974e+01  1.180870e+01
      vertex  -4.125508e+01  1.587584e+01  1.219007e+01
      vertex  -4.123114e+01  1.115070e+01  1.038430e+01
    endloop
  endfacet
  facet normal  4.028089e-01 -7.708528e-01  4.934884e-01
    outer loop
      vertex  -3.850000e+01  1.348974e+01  1.180870e+01
      vertex  -4.123114e+01  1.115070e+01  1.038430e+01
      vertex  -3.850000e+01  1.217854e+01  9.760545e+00
    endloop
  endfacet
  facet normal  1.386886e-01 -7.564275e-01 -6.392049e-01
    outer loop
      vertex  -3.850000e+01  1.217854e+01  9.760545e+00
      vertex  -4.123114e+01  1.115070e+01  1.038430e+01
      vertex  -3.850000e+01  1.354378e+01  8.144928e+00
    endloop
  endfacet
  facet normal  1.898025e-01 -7.775726e-01 -5.994629e-01
    outer loop
      vertex  -3.850000e+01  1.354378e+01  8.144928e+00
      vertex  -4.123114e+01  1.115070e+01  1.038430e+01
      vertex  -4.135450e+01  1.340813e+01  7.417089e+00
    endloop
  endfacet
  facet normal  2.178256e-01  3.349465e-01 -9.167130e-01
    outer loop
      vertex  -3.850000e+01  1.354378e+01  8.144928e+00
      vertex  -4.135450e+01  1.340813e+01  7.417089e+00
      vertex  -4.072000e+01  1.629112e+01  8.621237e+00
    endloop
  endfacet
  facet normal  4.892398e-01  5.170949e-01 -7.023227e-01
    outer loop
      vertex  -3.850000e+01  1.354378e+01  8.144928e+00
      vertex  -4.072000e+01  1.629112e+01  8.621237e+00
      vertex  -3.850000e+01  1.621614e+01  1.011249e+01
    endloop
  endfacet
  facet normal -2.272627e-01  9.233677e-01  3.094251e-01
    outer loop
      vertex  -1.147276e+02  1.659992e+01  9.422116e+00
      vertex  -1.245043e+02  1.399999e+01  1.000005e+01
      vertex  -1.133936e+02  1.626618e+01  1.139785e+01
    endloop
  endfacet
  facet normal -1.553037e-01  1.601616e-01  9.747970e-01
    outer loop
      vertex  -1.133936e+02  1.626618e+01  1.139785e+01
      vertex  -1.245043e+02  1.399999e+01  1.000005e+01
      vertex  -1.149222e+02  1.214071e+01  1.183214e+01
    endloop
  endfacet
  facet normal -2.049559e-01 -9.753169e-01  8.215824e-02
    outer loop
      vertex  -1.149222e+02  1.214071e+01  1.183214e+01
      vertex  -1.245043e+02  1.399999e+01  1.000005e+01
      vertex  -1.144353e+02  1.175983e+01  8.525337e+00
    endloop
  endfacet
  facet normal -2.156910e-01 -3.763303e-01 -9.010288e-01
    outer loop
      vertex  -1.144353e+02  1.175983e+01  8.525337e+00
      vertex  -1.245043e+02  1.399999e+01  1.000005e+01
      vertex  -1.149741e+02  1.448320e+01  7.516857e+00
    endloop
  endfacet
  facet normal -2.194023e-01  6.666918e-01 -7.123094e-01
    outer loop
      vertex  -1.149741e+02  1.448320e+01  7.516857e+00
      vertex  -1.245043e+02  1.399999e+01  1.000005e+01
      vertex  -1.147276e+02  1.659992e+01  9.422116e+00
    endloop
  endfacet
  facet normal -3.438252e-01  2.234115e-01  9.120699e-01
    outer loop
      vertex  -1.115227e+02  1.405793e+01  1.264403e+01
      vertex  -1.133936e+02  1.626618e+01  1.139785e+01
      vertex  -1.149222e+02  1.214071e+01  1.183214e+01
    endloop
  endfacet
  facet normal  1.749092e-01  9.834131e-01  4.801548e-02
    outer loop
      vertex  -1.147276e+02  1.659992e+01  9.422116e+00
      vertex  -1.133936e+02  1.626618e+01  1.139785e+01
      vertex  -1.099874e+02  1.582362e+01  8.054112e+00
    endloop
  endfacet
  facet normal -1.016234e-01  6.720515e-01 -7.334981e-01
    outer loop
      vertex  -1.147276e+02  1.659992e+01  9.422116e+00
      vertex  -1.099874e+02  1.582362e+01  8.054112e+00
      vertex  -1.149741e+02  1.448320e+01  7.516857e+00
    endloop
  endfacet
  facet normal  6.629554e-02  1.488220e-01 -9.866392e-01
    outer loop
      vertex  -1.149741e+02  1.448320e+01  7.516857e+00
      vertex  -1.099874e+02  1.582362e+01  8.054112e+00
      vertex  -1.099870e+02  1.289963e+01  7.613096e+00
    endloop
  endfacet
  facet normal -9.720998e-02 -3.624736e-01 -9.269105e-01
    outer loop
      vertex  -1.149741e+02  1.448320e+01  7.516857e+00
      vertex  -1.099870e+02  1.289963e+01  7.613096e+00
      vertex  -1.144353e+02  1.175983e+01  8.525337e+00
    endloop
  endfacet
  facet normal -9.999861e-01 -3.930398e-03 -3.528260e-03
    outer loop
      vertex  -8.200605e+01  1.762592e+01  8.555820e+00
      vertex  -8.199989e+01  1.548036e+01  9.198758e+00
      vertex  -8.201775e+01  1.656029e+01  1.305993e+01
    endloop
  endfacet
  facet normal -9.999824e-01 -4.958584e-03 -3.240670e-03
    outer loop
      vertex  -8.201775e+01  1.656029e+01  1.305993e+01
      vertex  -8.199989e+01  1.548036e+01  9.198758e+00
      vertex  -8.199991e+01  1.387002e+01  1.166982e+01
    endloop
  endfacet
  facet normal -9.998987e-01  7.158093e-04 -1.422117e-02
    outer loop
      vertex  -8.201775e+01  1.656029e+01  1.305993e+01
      vertex  -8.199991e+01  1.387002e+01  1.166982e+01
      vertex  -8.202486e+01  1.169561e+01  1.331449e+01
    endloop
  endfacet
  facet normal -9.999572e-01  8.128725e-03 -4.421491e-03
    outer loop
      vertex  -8.202486e+01  1.169561e+01  1.331449e+01
      vertex  -8.199991e+01  1.387002e+01  1.166982e+01
      vertex  -8.199997e+01  1.253451e+01  9.228340e+00
    endloop
  endfacet
  facet normal -9.999818e-01  3.762638e-04 -6.013239e-03
    outer loop
      vertex  -8.202486e+01  1.169561e+01  1.331449e+01
      vertex  -8.199997e+01  1.253451e+01  9.228340e+00
      vertex  -8.200138e+01  1.024325e+01  9.319688e+00
    endloop
  endfacet
  facet normal -9.999994e-01  6.514433e-04  8.887528e-04
    outer loop
      vertex  -8.200138e+01  1.024325e+01  9.319688e+00
      vertex  -8.199997e+01  1.253451e+01  9.228340e+00
      vertex  -8.200253e+01  1.146124e+01  7.139265e+00
    endloop
  endfacet
  facet normal -9.999982e-01 -8.659365e-04  1.668311e-03
    outer loop
      vertex  -8.200253e+01  1.146124e+01  7.139265e+00
      vertex  -8.199997e+01  1.253451e+01  9.228340e+00
      vertex  -8.200708e+01  1.491447e+01  6.201512e+00
    endloop
  endfacet
  facet normal -9.999971e-01  5.249333e-05  2.390458e-03
    outer loop
      vertex  -8.200708e+01  1.491447e+01  6.201512e+00
      vertex  -8.199997e+01  1.253451e+01  9.228340e+00
      vertex  -8.199989e+01  1.548036e+01  9.198758e+00
    endloop
  endfacet
  facet normal -9.999940e-01 -2.038522e-03  2.785242e-03
    outer loop
      vertex  -8.200708e+01  1.491447e+01  6.201512e+00
      vertex  -8.199989e+01  1.548036e+01  9.198758e+00
      vertex  -8.200605e+01  1.762592e+01  8.555820e+00
    endloop
  endfacet
  facet normal -1.529616e-01  9.617723e-01  2.271490e-01
    outer loop
      vertex  -6.763833e+01  1.953128e+01  1.016355e+01
      vertex  -8.200605e+01  1.762592e+01  8.555820e+00
      vertex  -8.201775e+01  1.656029e+01  1.305993e+01
    endloop
  endfacet
  facet normal -1.407901e-01  9.507206e-01  2.762398e-01
    outer loop
      vertex  -6.763833e+01  1.953128e+01  1.016355e+01
      vertex  -8.201775e+01  1.656029e+01  1.305993e+01
      vertex  -6.519292e+01  1.920402e+01  1.253618e+01
    endloop
  endfacet
  facet normal -1.174020e-01  5.394337e-01 -8.338034e-01
    outer loop
      vertex  -6.508178e+01  1.626426e+01  4.691637e+00
      vertex  -8.200708e+01  1.491447e+01  6.201512e+00
      vertex  -6.758758e+01  1.796486e+01  6.144674e+00
    endloop
  endfacet
  facet normal -1.009121e-01  7.676004e-01  6.329348e-01
    outer loop
      vertex  -6.519292e+01  1.920402e+01  1.253618e+01
      vertex  -8.201775e+01  1.656029e+01  1.305993e+01
      vertex  -6.791682e+01  1.717353e+01  1.456440e+01
    endloop
  endfacet
  facet normal -1.137792e-01  2.719948e-01  9.555486e-01
    outer loop
      vertex  -6.791682e+01  1.717353e+01  1.456440e+01
      vertex  -8.201775e+01  1.656029e+01  1.305993e+01
      vertex  -6.762241e+01  1.388886e+01  1.553443e+01
    endloop
  endfacet
  facet normal -1.598361e-01  5.181659e-02  9.857827e-01
    outer loop
      vertex  -8.201775e+01  1.656029e+01  1.305993e+01
      vertex  -8.202486e+01  1.169561e+01  1.331449e+01
      vertex  -6.762241e+01  1.388886e+01  1.553443e+01
    endloop
  endfacet
  facet normal -1.078117e-01 -2.625736e-01  9.588700e-01
    outer loop
      vertex  -6.762241e+01  1.388886e+01  1.553443e+01
      vertex  -8.202486e+01  1.169561e+01  1.331449e+01
      vertex  -6.514268e+01  1.113803e+01  1.505997e+01
    endloop
  endfacet
  facet normal -9.511947e-02 -7.164513e-01  6.911222e-01
    outer loop
      vertex  -6.514268e+01  1.113803e+01  1.505997e+01
      vertex  -8.202486e+01  1.169561e+01  1.331449e+01
      vertex  -6.553191e+01  8.711843e+00  1.249130e+01
    endloop
  endfacet
  facet normal -1.512998e-01 -9.292817e-01  3.369628e-01
    outer loop
      vertex  -6.553191e+01  8.711843e+00  1.249130e+01
      vertex  -8.202486e+01  1.169561e+01  1.331449e+01
      vertex  -8.200138e+01  1.024325e+01  9.319688e+00
    endloop
  endfacet
  facet normal -1.105562e-01 -9.891768e-01  9.647018e-02
    outer loop
      vertex  -6.553191e+01  8.711843e+00  1.249130e+01
      vertex  -8.200138e+01  1.024325e+01  9.319688e+00
      vertex  -6.532205e+01  8.325062e+00  8.765856e+00
    endloop
  endfacet
  facet normal -1.171709e-01 -8.939335e-01 -4.326130e-01
    outer loop
      vertex  -6.532205e+01  8.325062e+00  8.765856e+00
      vertex  -8.200138e+01  1.024325e+01  9.319688e+00
      vertex  -6.759580e+01  9.731439e+00  6.475610e+00
    endloop
  endfacet
  facet normal -1.262706e-01 -8.660668e-01 -4.837191e-01
    outer loop
      vertex  -8.200138e+01  1.024325e+01  9.319688e+00
      vertex  -8.200253e+01  1.146124e+01  7.139265e+00
      vertex  -6.759580e+01  9.731439e+00  6.475610e+00
    endloop
  endfacet
  facet normal -1.084957e-01 -5.993230e-01 -7.931208e-01
    outer loop
      vertex  -6.759580e+01  9.731439e+00  6.475610e+00
      vertex  -8.200253e+01  1.146124e+01  7.139265e+00
      vertex  -6.775376e+01  1.186320e+01  4.886352e+00
    endloop
  endfacet
  facet normal -1.436749e-01 -2.595246e-01 -9.549893e-01
    outer loop
      vertex  -8.200253e+01  1.146124e+01  7.139265e+00
      vertex  -8.200708e+01  1.491447e+01  6.201512e+00
      vertex  -6.775376e+01  1.186320e+01  4.886352e+00
    endloop
  endfacet
  facet normal -1.186370e-01 -1.298864e-01 -9.844058e-01
    outer loop
      vertex  -6.775376e+01  1.186320e+01  4.886352e+00
      vertex  -8.200708e+01  1.491447e+01  6.201512e+00
      vertex  -6.752180e+01  1.453787e+01  4.505490e+00
    endloop
  endfacet
  facet normal -1.059900e-01  2.534769e-01 -9.615173e-01
    outer loop
      vertex  -6.752180e+01  1.453787e+01  4.505490e+00
      vertex  -8.200708e+01  1.491447e+01  6.201512e+00
      vertex  -6.508178e+01  1.626426e+01  4.691637e+00
    endloop
  endfacet
  facet normal -1.402775e-01  6.491748e-01 -7.475924e-01
    outer loop
      vertex  -8.200708e+01  1.491447e+01  6.201512e+00
      vertex  -8.200605e+01  1.762592e+01  8.555820e+00
      vertex  -6.758758e+01  1.796486e+01  6.144674e+00
    endloop
  endfacet
  facet normal -1.085302e-01  8.404857e-01 -5.308530e-01
    outer loop
      vertex  -6.758758e+01  1.796486e+01  6.144674e+00
      vertex  -8.200605e+01  1.762592e+01  8.555820e+00
      vertex  -6.512419e+01  1.936008e+01  7.850062e+00
    endloop
  endfacet
  facet normal -1.081762e-01  9.758513e-01 -1.897690e-01
    outer loop
      vertex  -6.512419e+01  1.936008e+01  7.850062e+00
      vertex  -8.200605e+01  1.762592e+01  8.555820e+00
      vertex  -6.763833e+01  1.953128e+01  1.016355e+01
    endloop
  endfacet
  facet normal  9.953037e-02  9.944336e-01  3.457716e-02
    outer loop
      vertex  -6.763833e+01  1.953128e+01  1.016355e+01
      vertex  -6.519292e+01  1.920402e+01  1.253618e+01
      vertex  -6.512419e+01  1.936008e+01  7.850062e+00
    endloop
  endfacet
  facet normal  7.919160e-02  7.124376e-01 -6.972528e-01
    outer loop
      vertex  -6.758758e+01  1.796486e+01  6.144674e+00
      vertex  -6.512419e+01  1.936008e+01  7.850062e+00
      vertex  -6.508178e+01  1.626426e+01  4.691637e+00
    endloop
  endfacet
  facet normal  1.285094e-01 -7.500731e-02 -9.888677e-01
    outer loop
      vertex  -6.752180e+01  1.453787e+01  4.505490e+00
      vertex  -6.508178e+01  1.626426e+01  4.691637e+00
      vertex  -6.500000e+01  1.101355e+01  5.100540e+00
    endloop
  endfacet
  facet normal  3.260386e-02 -1.436693e-01 -9.890885e-01
    outer loop
      vertex  -6.752180e+01  1.453787e+01  4.505490e+00
      vertex  -6.500000e+01  1.101355e+01  5.100540e+00
      vertex  -6.775376e+01  1.186320e+01  4.886352e+00
    endloop
  endfacet
  facet normal -1.232724e-01 -5.989926e-01 -7.912090e-01
    outer loop
      vertex  -6.775376e+01  1.186320e+01  4.886352e+00
      vertex  -6.500000e+01  1.101355e+01  5.100540e+00
      vertex  -6.759580e+01  9.731439e+00  6.475610e+00
    endloop
  endfacet
  facet normal  8.916416e-02 -8.068511e-01 -5.839871e-01
    outer loop
      vertex  -6.759580e+01  9.731439e+00  6.475610e+00
      vertex  -6.500000e+01  1.101355e+01  5.100540e+00
      vertex  -6.532205e+01  8.325062e+00  8.765856e+00
    endloop
  endfacet
  facet normal  1.327052e-01 -5.110112e-02  9.898373e-01
    outer loop
      vertex  -6.762241e+01  1.388886e+01  1.553443e+01
      vertex  -6.514268e+01  1.113803e+01  1.505997e+01
      vertex  -6.500000e+01  1.612899e+01  1.529850e+01
    endloop
  endfacet
  facet normal -1.436037e-01  2.684316e-01  9.525348e-01
    outer loop
      vertex  -6.762241e+01  1.388886e+01  1.553443e+01
      vertex  -6.500000e+01  1.612899e+01  1.529850e+01
      vertex  -6.791682e+01  1.717353e+01  1.456440e+01
    endloop
  endfacet
  facet normal  5.308790e-02  6.691668e-01  7.412135e-01
    outer loop
      vertex  -6.791682e+01  1.717353e+01  1.456440e+01
      vertex  -6.500000e+01  1.612899e+01  1.529850e+01
      vertex  -6.519292e+01  1.920402e+01  1.253618e+01
    endloop
  endfacet
  facet normal  9.865233e-01  1.624088e-01  1.987680e-02
    outer loop
      vertex  -6.512419e+01  1.936008e+01  7.850062e+00
      vertex  -6.519292e+01  1.920402e+01  1.253618e+01
      vertex  -6.500008e+01  1.828622e+01  1.046466e+01
    endloop
  endfacet
  facet normal  9.934829e-01  1.041346e-01  4.634336e-02
    outer loop
      vertex  -6.500008e+01  1.828622e+01  1.046466e+01
      vertex  -6.519292e+01  1.920402e+01  1.253618e+01
      vertex  -6.499986e+01  1.712404e+01  1.307136e+01
    endloop
  endfacet
  facet normal  9.934628e-01  1.042033e-01  4.661768e-02
    outer loop
      vertex  -6.499986e+01  1.712404e+01  1.307136e+01
      vertex  -6.519292e+01  1.920402e+01  1.253618e+01
      vertex  -6.500000e+01  1.612899e+01  1.529850e+01
    endloop
  endfacet
  facet normal  1.000000e+00 -6.518476e-05  3.253817e-05
    outer loop
      vertex  -6.499986e+01  1.712404e+01  1.307136e+01
      vertex  -6.500000e+01  1.612899e+01  1.529850e+01
      vertex  -6.500008e+01  1.434395e+01  1.430170e+01
    endloop
  endfacet
  facet normal  9.979557e-01 -3.119449e-02  5.577797e-02
    outer loop
      vertex  -6.500008e+01  1.434395e+01  1.430170e+01
      vertex  -6.500000e+01  1.612899e+01  1.529850e+01
      vertex  -6.514268e+01  1.113803e+01  1.505997e+01
    endloop
  endfacet
  facet normal  9.963285e-01 -2.494421e-02  8.189780e-02
    outer loop
      vertex  -6.500008e+01  1.434395e+01  1.430170e+01
      vertex  -6.514268e+01  1.113803e+01  1.505997e+01
      vertex  -6.500015e+01  1.131881e+01  1.338114e+01
    endloop
  endfacet
  facet normal  9.739667e-01 -2.188465e-01  5.911944e-02
    outer loop
      vertex  -6.500015e+01  1.131881e+01  1.338114e+01
      vertex  -6.514268e+01  1.113803e+01  1.505997e+01
      vertex  -6.553191e+01  8.711843e+00  1.249130e+01
    endloop
  endfacet
  facet normal  9.625090e-01 -2.396805e-01  1.270032e-01
    outer loop
      vertex  -6.500015e+01  1.131881e+01  1.338114e+01
      vertex  -6.553191e+01  8.711843e+00  1.249130e+01
      vertex  -6.500003e+01  9.732007e+00  1.038561e+01
    endloop
  endfacet
  facet normal  9.450932e-01 -3.152896e-01  8.597296e-02
    outer loop
      vertex  -6.500003e+01  9.732007e+00  1.038561e+01
      vertex  -6.553191e+01  8.711843e+00  1.249130e+01
      vertex  -6.532205e+01  8.325062e+00  8.765856e+00
    endloop
  endfacet
  facet normal  9.834974e-01 -1.757754e-01 -4.284663e-02
    outer loop
      vertex  -6.500003e+01  9.732007e+00  1.038561e+01
      vertex  -6.532205e+01  8.325062e+00  8.765856e+00
      vertex  -6.500029e+01  1.041620e+01  7.572781e+00
    endloop
  endfacet
  facet normal  9.835773e-01 -1.754649e-01 -4.228093e-02
    outer loop
      vertex  -6.500029e+01  1.041620e+01  7.572781e+00
      vertex  -6.532205e+01  8.325062e+00  8.765856e+00
      vertex  -6.500000e+01  1.101355e+01  5.100540e+00
    endloop
  endfacet
  facet normal  1.000000e+00 -1.382704e-05  1.139280e-04
    outer loop
      vertex  -6.500029e+01  1.041620e+01  7.572781e+00
      vertex  -6.500000e+01  1.101355e+01  5.100540e+00
      vertex  -6.500004e+01  1.348982e+01  5.735909e+00
    endloop
  endfacet
  facet normal  9.988484e-01  1.193829e-02 -4.646782e-02
    outer loop
      vertex  -6.500004e+01  1.348982e+01  5.735909e+00
      vertex  -6.500000e+01  1.101355e+01  5.100540e+00
      vertex  -6.508178e+01  1.626426e+01  4.691637e+00
    endloop
  endfacet
  facet normal  9.984572e-01  8.779878e-03 -5.482851e-02
    outer loop
      vertex  -6.500004e+01  1.348982e+01  5.735909e+00
      vertex  -6.508178e+01  1.626426e+01  4.691637e+00
      vertex  -6.499949e+01  1.599553e+01  6.147161e+00
    endloop
  endfacet
  facet normal  9.977314e-01  4.758173e-02 -4.762340e-02
    outer loop
      vertex  -6.499949e+01  1.599553e+01  6.147161e+00
      vertex  -6.508178e+01  1.626426e+01  4.691637e+00
      vertex  -6.499984e+01  1.772946e+01  7.872224e+00
    endloop
  endfacet
  facet normal  9.953562e-01  7.508725e-02 -6.023313e-02
    outer loop
      vertex  -6.499984e+01  1.772946e+01  7.872224e+00
      vertex  -6.508178e+01  1.626426e+01  4.691637e+00
      vertex  -6.512419e+01  1.936008e+01  7.850062e+00
    endloop
  endfacet
  facet normal  9.969908e-01  7.581054e-02 -1.618752e-02
    outer loop
      vertex  -6.499984e+01  1.772946e+01  7.872224e+00
      vertex  -6.512419e+01  1.936008e+01  7.850062e+00
      vertex  -6.500008e+01  1.828622e+01  1.046466e+01
    endloop
  endfacet
endsolid vcg
