solid STL generated by MeshLab
  facet normal -3.830238e-01 -3.213884e-01  8.660266e-01
    outer loop
      vertex  -6.758638e+01  9.080385e+00  1.414249e+02
      vertex   2.002277e+01  3.415284e+01  1.894771e+02
      vertex   1.926853e+01  3.597332e+01  1.898191e+02
    endloop
  endfacet
  facet normal -3.830224e-01 -3.213933e-01  8.660254e-01
    outer loop
      vertex  -5.608417e+01 -1.868190e+01  1.362091e+02
      vertex   2.002277e+01  3.415284e+01  1.894771e+02
      vertex  -6.758638e+01  9.080385e+00  1.414249e+02
    endloop
  endfacet
  facet normal -3.830222e-01 -3.213935e-01  8.660254e-01
    outer loop
      vertex   2.002277e+01  3.415284e+01  1.894771e+02
      vertex  -5.608417e+01 -1.868190e+01  1.362091e+02
      vertex   3.077074e+01  8.211033e+00  1.846033e+02
    endloop
  endfacet
  facet normal  8.432515e-01  2.610963e-01  4.698465e-01
    outer loop
      vertex   9.206609e+01  6.209731e+01  4.464916e+01
      vertex   8.283841e+01  8.686142e+01  4.744888e+01
      vertex   8.207236e+01  8.621864e+01  4.918093e+01
    endloop
  endfacet
  facet normal  8.432513e-01  2.610962e-01  4.698468e-01
    outer loop
      vertex   8.283841e+01  8.686142e+01  4.744888e+01
      vertex   9.206609e+01  6.209731e+01  4.464916e+01
      vertex   9.358638e+01  6.091962e+01  4.257510e+01
    endloop
  endfacet
  facet normal  8.432519e-01  2.610960e-01  4.698458e-01
    outer loop
      vertex   9.147976e+01  5.915195e+01  4.733823e+01
      vertex   9.206609e+01  6.209731e+01  4.464916e+01
      vertex   9.072552e+01  6.097243e+01  4.768025e+01
    endloop
  endfacet
  facet normal  8.432513e-01  2.610969e-01  4.698465e-01
    outer loop
      vertex   9.206609e+01  6.209731e+01  4.464916e+01
      vertex   9.147976e+01  5.915195e+01  4.733823e+01
      vertex   9.358638e+01  6.091962e+01  4.257510e+01
    endloop
  endfacet
  facet normal  8.432519e-01  2.610968e-01  4.698454e-01
    outer loop
      vertex   2.078881e+01  3.479563e+01  1.877450e+02
      vertex   2.002277e+01  3.415284e+01  1.894771e+02
      vertex   3.078255e+01  1.067430e+01  1.832132e+02
    endloop
  endfacet
  facet normal  8.432521e-01  2.610937e-01  4.698468e-01
    outer loop
      vertex   3.078255e+01  1.067430e+01  1.832132e+02
      vertex   3.287737e+01  9.978699e+00  1.798401e+02
      vertex   3.212312e+01  1.179918e+01  1.801821e+02
    endloop
  endfacet
  facet normal  8.432514e-01  2.610978e-01  4.698456e-01
    outer loop
      vertex   3.078255e+01  1.067430e+01  1.832132e+02
      vertex   3.077074e+01  8.211033e+00  1.846033e+02
      vertex   3.287737e+01  9.978699e+00  1.798401e+02
    endloop
  endfacet
  facet normal  8.432522e-01  2.610972e-01  4.698445e-01
    outer loop
      vertex   3.077074e+01  8.211033e+00  1.846033e+02
      vertex   3.078255e+01  1.067430e+01  1.832132e+02
      vertex   2.002277e+01  3.415284e+01  1.894771e+02
    endloop
  endfacet
  facet normal  3.830228e-01  3.213923e-01 -8.660257e-01
    outer loop
      vertex   8.283841e+01  8.686142e+01  4.744888e+01
      vertex  -4.770742e+00  6.178897e+01 -6.032639e-01
      vertex   8.208417e+01  8.868190e+01  4.779090e+01
    endloop
  endfacet
  facet normal  3.830222e-01  3.213938e-01 -8.660254e-01
    outer loop
      vertex   6.731472e+00  3.402668e+01 -5.819069e+00
      vertex   8.283841e+01  8.686142e+01  4.744888e+01
      vertex   9.358638e+01  6.091962e+01  4.257510e+01
    endloop
  endfacet
  facet normal  3.830222e-01  3.213938e-01 -8.660254e-01
    outer loop
      vertex   8.283841e+01  8.686142e+01  4.744888e+01
      vertex   6.731472e+00  3.402668e+01 -5.819069e+00
      vertex  -4.770742e+00  6.178897e+01 -6.032639e-01
    endloop
  endfacet
  facet normal -8.432513e-01 -2.610961e-01 -4.698468e-01
    outer loop
      vertex   6.731472e+00  3.402668e+01 -5.819069e+00
      vertex   2.550679e+00  3.726533e+01 -1.153793e-01
      vertex  -4.770742e+00  6.178897e+01 -6.032639e-01
    endloop
  endfacet
  facet normal -8.432512e-01 -2.610970e-01 -4.698464e-01
    outer loop
      vertex   6.731472e+00  3.402668e+01 -5.819069e+00
      vertex  -5.605171e+01 -1.190792e+01  1.323865e+02
      vertex   2.550679e+00  3.726533e+01 -1.153793e-01
    endloop
  endfacet
  facet normal -8.432522e-01 -2.610964e-01 -4.698451e-01
    outer loop
      vertex  -5.605171e+01 -1.190792e+01  1.323865e+02
      vertex  -5.608417e+01 -1.868190e+01  1.362091e+02
      vertex  -6.340559e+01  5.841738e+00  1.357212e+02
    endloop
  endfacet
  facet normal -8.432512e-01 -2.610971e-01 -4.698464e-01
    outer loop
      vertex  -5.608417e+01 -1.868190e+01  1.362091e+02
      vertex  -5.605171e+01 -1.190792e+01  1.323865e+02
      vertex   6.731472e+00  3.402668e+01 -5.819069e+00
    endloop
  endfacet
  facet normal -8.432519e-01 -2.610964e-01 -4.698457e-01
    outer loop
      vertex  -4.803192e+00  5.501498e+01  3.219322e+00
      vertex  -4.770742e+00  6.178897e+01 -6.032639e-01
      vertex   2.550679e+00  3.726533e+01 -1.153793e-01
    endloop
  endfacet
  facet normal -8.432507e-01 -2.610986e-01 -4.698465e-01
    outer loop
      vertex  -6.340559e+01  5.841738e+00  1.357212e+02
      vertex  -4.770742e+00  6.178897e+01 -6.032639e-01
      vertex  -4.803192e+00  5.501498e+01  3.219322e+00
    endloop
  endfacet
  facet normal -8.432508e-01 -2.610983e-01 -4.698466e-01
    outer loop
      vertex  -6.340559e+01  5.841738e+00  1.357212e+02
      vertex  -6.758638e+01  9.080385e+00  1.414249e+02
      vertex  -4.770742e+00  6.178897e+01 -6.032639e-01
    endloop
  endfacet
  facet normal -8.432508e-01 -2.610960e-01 -4.698479e-01
    outer loop
      vertex  -6.758638e+01  9.080385e+00  1.414249e+02
      vertex  -6.340559e+01  5.841738e+00  1.357212e+02
      vertex  -5.608417e+01 -1.868190e+01  1.362091e+02
    endloop
  endfacet
  facet normal  3.771216e-01 -9.102389e-01 -1.710097e-01
    outer loop
      vertex   3.077074e+01  8.211033e+00  1.846033e+02
      vertex  -4.933966e+01 -1.547820e+01  1.340301e+02
      vertex   3.287737e+01  9.978699e+00  1.798401e+02
    endloop
  endfacet
  facet normal  3.771219e-01 -9.102387e-01 -1.710100e-01
    outer loop
      vertex  -4.933966e+01 -1.547820e+01  1.340301e+02
      vertex  -5.608417e+01 -1.868190e+01  1.362091e+02
      vertex   9.262733e+00  3.369505e+01  1.528221e+00
    endloop
  endfacet
  facet normal  3.771218e-01 -9.102388e-01 -1.710102e-01
    outer loop
      vertex  -5.608417e+01 -1.868190e+01  1.362091e+02
      vertex  -4.933966e+01 -1.547820e+01  1.340301e+02
      vertex   3.077074e+01  8.211033e+00  1.846033e+02
    endloop
  endfacet
  facet normal  3.771220e-01 -9.102387e-01 -1.710109e-01
    outer loop
      vertex   9.262733e+00  3.369505e+01  1.528221e+00
      vertex   9.358638e+01  6.091962e+01  4.257510e+01
      vertex   9.147976e+01  5.915195e+01  4.733823e+01
    endloop
  endfacet
  facet normal  3.771218e-01 -9.102388e-01 -1.710100e-01
    outer loop
      vertex   9.262733e+00  3.369505e+01  1.528221e+00
      vertex   6.731472e+00  3.402668e+01 -5.819069e+00
      vertex   9.358638e+01  6.091962e+01  4.257510e+01
    endloop
  endfacet
  facet normal  3.771219e-01 -9.102388e-01 -1.710101e-01
    outer loop
      vertex   6.731472e+00  3.402668e+01 -5.819069e+00
      vertex   9.262733e+00  3.369505e+01  1.528221e+00
      vertex  -5.608417e+01 -1.868190e+01  1.362091e+02
    endloop
  endfacet
  facet normal -3.771221e-01  9.102386e-01  1.710105e-01
    outer loop
      vertex   6.443782e+01  6.686238e+01  1.250153e+02
      vertex   7.085821e+01  6.884575e+01  1.286170e+02
      vertex   7.138744e+01  6.953629e+01  1.261086e+02
    endloop
  endfacet
  facet normal -3.771218e-01  9.102388e-01  1.710101e-01
    outer loop
      vertex   7.085821e+01  6.884575e+01  1.286170e+02
      vertex   6.396331e+01  6.634786e+01  1.267075e+02
      vertex   6.984127e+01  6.799244e+01  1.309164e+02
    endloop
  endfacet
  facet normal -3.771221e-01  9.102386e-01  1.710107e-01
    outer loop
      vertex   6.984127e+01  6.799244e+01  1.309164e+02
      vertex   6.396331e+01  6.634786e+01  1.267075e+02
      vertex   6.838108e+01  6.701365e+01  1.329061e+02
    endloop
  endfacet
  facet normal -3.771216e-01  9.102390e-01  1.710091e-01
    outer loop
      vertex   7.085821e+01  6.884575e+01  1.286170e+02
      vertex   6.443782e+01  6.686238e+01  1.250153e+02
      vertex   6.396331e+01  6.634786e+01  1.267075e+02
    endloop
  endfacet
  facet normal -3.771223e-01  9.102383e-01  1.710118e-01
    outer loop
      vertex   7.138744e+01  6.953629e+01  1.261086e+02
      vertex   6.395669e+01  6.699408e+01  1.232533e+02
      vertex   6.443782e+01  6.686238e+01  1.250153e+02
    endloop
  endfacet
  facet normal -3.771207e-01  9.102401e-01  1.710058e-01
    outer loop
      vertex   7.138744e+01  6.953629e+01  1.261086e+02
      vertex   6.267262e+01  6.670112e+01  1.219809e+02
      vertex   6.395669e+01  6.699408e+01  1.232533e+02
    endloop
  endfacet
  facet normal -3.771218e-01  9.102388e-01  1.710101e-01
    outer loop
      vertex  -4.770742e+00  6.178897e+01 -6.032639e-01
      vertex   5.945202e+01  6.531863e+01  1.222373e+02
      vertex   8.208417e+01  8.868190e+01  4.779090e+01
    endloop
  endfacet
  facet normal -3.771214e-01  9.102389e-01  1.710102e-01
    outer loop
      vertex   6.099334e+01  6.607653e+01  1.216022e+02
      vertex   8.208417e+01  8.868190e+01  4.779090e+01
      vertex   5.945202e+01  6.531863e+01  1.222373e+02
    endloop
  endfacet
  facet normal -3.771214e-01  9.102390e-01  1.710102e-01
    outer loop
      vertex   6.267262e+01  6.670112e+01  1.219809e+02
      vertex   8.208417e+01  8.868190e+01  4.779090e+01
      vertex   6.099334e+01  6.607653e+01  1.216022e+02
    endloop
  endfacet
  facet normal -3.771221e-01  9.102387e-01  1.710100e-01
    outer loop
      vertex   8.208417e+01  8.868190e+01  4.779090e+01
      vertex   6.267262e+01  6.670112e+01  1.219809e+02
      vertex   7.138744e+01  6.953629e+01  1.261086e+02
    endloop
  endfacet
  facet normal -3.771216e-01  9.102389e-01  1.710103e-01
    outer loop
      vertex   6.268382e+01  6.561388e+01  1.277927e+02
      vertex   6.838108e+01  6.701365e+01  1.329061e+02
      vertex   6.396331e+01  6.634786e+01  1.267075e+02
    endloop
  endfacet
  facet normal -3.771234e-01  9.102376e-01  1.710127e-01
    outer loop
      vertex   6.100549e+01  6.489343e+01  1.279263e+02
      vertex   6.838108e+01  6.701365e+01  1.329061e+02
      vertex   6.268382e+01  6.561388e+01  1.277927e+02
    endloop
  endfacet
  facet normal -3.771192e-01  9.102396e-01  1.710115e-01
    outer loop
      vertex   1.926853e+01  3.597332e+01  1.898191e+02
      vertex   6.100549e+01  6.489343e+01  1.279263e+02
      vertex   5.946132e+01  6.441531e+01  1.270659e+02
    endloop
  endfacet
  facet normal -3.771220e-01  9.102388e-01  1.710100e-01
    outer loop
      vertex   6.100549e+01  6.489343e+01  1.279263e+02
      vertex   1.926853e+01  3.597332e+01  1.898191e+02
      vertex   6.838108e+01  6.701365e+01  1.329061e+02
    endloop
  endfacet
  facet normal -3.771233e-01  9.102383e-01  1.710090e-01
    outer loop
      vertex   5.854142e+01  6.433126e+01  1.254846e+02
      vertex   1.926853e+01  3.597332e+01  1.898191e+02
      vertex   5.946132e+01  6.441531e+01  1.270659e+02
    endloop
  endfacet
  facet normal -3.771223e-01  9.102391e-01  1.710077e-01
    outer loop
      vertex  -6.758638e+01  9.080385e+00  1.414249e+02
      vertex   5.854142e+01  6.433126e+01  1.254846e+02
      vertex   5.853799e+01  6.466801e+01  1.236846e+02
    endloop
  endfacet
  facet normal -3.771236e-01  9.102379e-01  1.710110e-01
    outer loop
      vertex   5.945202e+01  6.531863e+01  1.222373e+02
      vertex  -4.770742e+00  6.178897e+01 -6.032639e-01
      vertex   5.853799e+01  6.466801e+01  1.236846e+02
    endloop
  endfacet
  facet normal -3.771219e-01  9.102389e-01  1.710101e-01
    outer loop
      vertex  -6.758638e+01  9.080385e+00  1.414249e+02
      vertex   5.853799e+01  6.466801e+01  1.236846e+02
      vertex  -4.770742e+00  6.178897e+01 -6.032639e-01
    endloop
  endfacet
  facet normal -3.771219e-01  9.102388e-01  1.710100e-01
    outer loop
      vertex   5.854142e+01  6.433126e+01  1.254846e+02
      vertex  -6.758638e+01  9.080385e+00  1.414249e+02
      vertex   1.926853e+01  3.597332e+01  1.898191e+02
    endloop
  endfacet
  facet normal  3.830220e-01  3.213938e-01 -8.660254e-01
    outer loop
      vertex   3.078255e+01  1.067430e+01  1.832132e+02
      vertex  -6.269308e+01  8.947081e+00  1.412302e+02
      vertex   2.078881e+01  3.479563e+01  1.877450e+02
    endloop
  endfacet
  facet normal  3.830221e-01  3.213937e-01 -8.660256e-01
    outer loop
      vertex  -6.269308e+01  8.947081e+00  1.412302e+02
      vertex   3.078255e+01  1.067430e+01  1.832132e+02
      vertex  -5.269936e+01 -1.517425e+01  1.366985e+02
    endloop
  endfacet
  facet normal -3.830222e-01 -3.213938e-01  8.660255e-01
    outer loop
      vertex   8.584191e+00  3.624876e+01 -1.865616e+00
      vertex   8.207236e+01  8.621864e+01  4.918093e+01
      vertex  -1.409536e+00  6.037009e+01  2.666153e+00
    endloop
  endfacet
  facet normal -3.830222e-01 -3.213938e-01  8.660255e-01
    outer loop
      vertex   8.207236e+01  8.621864e+01  4.918093e+01
      vertex   8.584191e+00  3.624876e+01 -1.865616e+00
      vertex   9.206609e+01  6.209731e+01  4.464916e+01
    endloop
  endfacet
  facet normal  8.432514e-01  2.610963e-01  4.698465e-01
    outer loop
      vertex  -1.409536e+00  6.037009e+01  2.666153e+00
      vertex  -1.430189e+00  5.605937e+01  5.098709e+00
      vertex   8.584191e+00  3.624876e+01 -1.865616e+00
    endloop
  endfacet
  facet normal  8.432516e-01  2.610961e-01  4.698462e-01
    outer loop
      vertex  -1.409536e+00  6.037009e+01  2.666153e+00
      vertex  -6.003259e+01  6.886118e+00  1.376006e+02
      vertex  -1.430189e+00  5.605937e+01  5.098709e+00
    endloop
  endfacet
  facet normal  8.432521e-01  2.610971e-01  4.698450e-01
    outer loop
      vertex  -6.003259e+01  6.886118e+00  1.376006e+02
      vertex  -6.269308e+01  8.947081e+00  1.412302e+02
      vertex  -5.267870e+01 -1.086354e+01  1.342659e+02
    endloop
  endfacet
  facet normal  8.432520e-01  2.610953e-01  4.698460e-01
    outer loop
      vertex  -6.269308e+01  8.947081e+00  1.412302e+02
      vertex  -6.003259e+01  6.886118e+00  1.376006e+02
      vertex  -1.409536e+00  6.037009e+01  2.666153e+00
    endloop
  endfacet
  facet normal  8.432515e-01  2.610964e-01  4.698464e-01
    outer loop
      vertex   5.923687e+00  3.830972e+01  1.764008e+00
      vertex   8.584191e+00  3.624876e+01 -1.865616e+00
      vertex  -1.430189e+00  5.605937e+01  5.098709e+00
    endloop
  endfacet
  facet normal  8.432519e-01  2.610959e-01  4.698459e-01
    outer loop
      vertex  -5.267870e+01 -1.086354e+01  1.342659e+02
      vertex   8.584191e+00  3.624876e+01 -1.865616e+00
      vertex   5.923687e+00  3.830972e+01  1.764008e+00
    endloop
  endfacet
  facet normal  8.432522e-01  2.610947e-01  4.698460e-01
    outer loop
      vertex  -5.267870e+01 -1.086354e+01  1.342659e+02
      vertex  -5.269936e+01 -1.517425e+01  1.366985e+02
      vertex   8.584191e+00  3.624876e+01 -1.865616e+00
    endloop
  endfacet
  facet normal  8.432510e-01  2.610956e-01  4.698476e-01
    outer loop
      vertex  -5.269936e+01 -1.517425e+01  1.366985e+02
      vertex  -5.267870e+01 -1.086354e+01  1.342659e+02
      vertex  -6.269308e+01  8.947081e+00  1.412302e+02
    endloop
  endfacet
  facet normal -3.771218e-01  9.102388e-01  1.710101e-01
    outer loop
      vertex   9.206609e+01  6.209731e+01  4.464916e+01
      vertex   8.508490e+00  3.551552e+01  1.870239e+00
      vertex   9.072552e+01  6.097243e+01  4.768025e+01
    endloop
  endfacet
  facet normal -3.771213e-01  9.102390e-01  1.710103e-01
    outer loop
      vertex   8.508490e+00  3.551552e+01  1.870239e+00
      vertex   8.584191e+00  3.624876e+01 -1.865616e+00
      vertex  -5.009390e+01 -1.365772e+01  1.343721e+02
    endloop
  endfacet
  facet normal -3.771219e-01  9.102387e-01  1.710103e-01
    outer loop
      vertex   8.584191e+00  3.624876e+01 -1.865616e+00
      vertex   8.508490e+00  3.551552e+01  1.870239e+00
      vertex   9.206609e+01  6.209731e+01  4.464916e+01
    endloop
  endfacet
  facet normal -3.771222e-01  9.102385e-01  1.710110e-01
    outer loop
      vertex  -5.009390e+01 -1.365772e+01  1.343721e+02
      vertex   3.078255e+01  1.067430e+01  1.832132e+02
      vertex   3.212312e+01  1.179918e+01  1.801821e+02
    endloop
  endfacet
  facet normal -3.771221e-01  9.102386e-01  1.710107e-01
    outer loop
      vertex  -5.009390e+01 -1.365772e+01  1.343721e+02
      vertex  -5.269936e+01 -1.517425e+01  1.366985e+02
      vertex   3.078255e+01  1.067430e+01  1.832132e+02
    endloop
  endfacet
  facet normal -3.771232e-01  9.102383e-01  1.710093e-01
    outer loop
      vertex  -5.269936e+01 -1.517425e+01  1.366985e+02
      vertex  -5.009390e+01 -1.365772e+01  1.343721e+02
      vertex   8.584191e+00  3.624876e+01 -1.865616e+00
    endloop
  endfacet
  facet normal  3.771218e-01 -9.102388e-01 -1.710100e-01
    outer loop
      vertex   5.929223e+01  6.284754e+01  1.233426e+02
      vertex  -1.409536e+00  6.037009e+01  2.666153e+00
      vertex   6.020626e+01  6.349815e+01  1.218953e+02
    endloop
  endfacet
  facet normal  3.771219e-01 -9.102388e-01 -1.710101e-01
    outer loop
      vertex   6.020626e+01  6.349815e+01  1.218953e+02
      vertex  -1.409536e+00  6.037009e+01  2.666153e+00
      vertex   8.207236e+01  8.621864e+01  4.918093e+01
    endloop
  endfacet
  facet normal  3.771224e-01 -9.102385e-01 -1.710105e-01
    outer loop
      vertex   6.471754e+01  6.452738e+01  1.263655e+02
      vertex   7.059552e+01  6.617197e+01  1.305743e+02
      vertex   6.913533e+01  6.519318e+01  1.325640e+02
    endloop
  endfacet
  facet normal  3.771208e-01 -9.102396e-01 -1.710078e-01
    outer loop
      vertex   7.059552e+01  6.617197e+01  1.305743e+02
      vertex   6.471754e+01  6.452738e+01  1.263655e+02
      vertex   7.161246e+01  6.702527e+01  1.282750e+02
    endloop
  endfacet
  facet normal  3.771211e-01 -9.102393e-01 -1.710093e-01
    outer loop
      vertex   6.519206e+01  6.504190e+01  1.246733e+02
      vertex   7.161246e+01  6.702527e+01  1.282750e+02
      vertex   6.471754e+01  6.452738e+01  1.263655e+02
    endloop
  endfacet
  facet normal  3.771224e-01 -9.102386e-01 -1.710105e-01
    outer loop
      vertex   6.913533e+01  6.519318e+01  1.325640e+02
      vertex   6.343806e+01  6.379340e+01  1.274507e+02
      vertex   6.471754e+01  6.452738e+01  1.263655e+02
    endloop
  endfacet
  facet normal  3.771229e-01 -9.102381e-01 -1.710113e-01
    outer loop
      vertex   6.913533e+01  6.519318e+01  1.325640e+02
      vertex   6.175974e+01  6.307295e+01  1.275843e+02
      vertex   6.343806e+01  6.379340e+01  1.274507e+02
    endloop
  endfacet
  facet normal  3.771221e-01 -9.102387e-01 -1.710098e-01
    outer loop
      vertex   2.078881e+01  3.479563e+01  1.877450e+02
      vertex   6.175974e+01  6.307295e+01  1.275843e+02
      vertex   6.913533e+01  6.519318e+01  1.325640e+02
    endloop
  endfacet
  facet normal  3.771210e-01 -9.102390e-01 -1.710107e-01
    outer loop
      vertex   6.021558e+01  6.259484e+01  1.267239e+02
      vertex   2.078881e+01  3.479563e+01  1.877450e+02
      vertex   5.929567e+01  6.251079e+01  1.251426e+02
    endloop
  endfacet
  facet normal  3.771205e-01 -9.102391e-01 -1.710111e-01
    outer loop
      vertex   6.175974e+01  6.307295e+01  1.275843e+02
      vertex   2.078881e+01  3.479563e+01  1.877450e+02
      vertex   6.021558e+01  6.259484e+01  1.267239e+02
    endloop
  endfacet
  facet normal  3.771227e-01 -9.102386e-01 -1.710093e-01
    outer loop
      vertex   2.078881e+01  3.479563e+01  1.877450e+02
      vertex   6.913533e+01  6.519318e+01  1.325640e+02
      vertex   2.002277e+01  3.415284e+01  1.894771e+02
    endloop
  endfacet
  facet normal  3.771217e-01 -9.102388e-01 -1.710107e-01
    outer loop
      vertex   7.161246e+01  6.702527e+01  1.282750e+02
      vertex   6.519206e+01  6.504190e+01  1.246733e+02
      vertex   7.214169e+01  6.771581e+01  1.257666e+02
    endloop
  endfacet
  facet normal  3.771217e-01 -9.102387e-01 -1.710107e-01
    outer loop
      vertex   6.471094e+01  6.517360e+01  1.229113e+02
      vertex   7.214169e+01  6.771581e+01  1.257666e+02
      vertex   6.519206e+01  6.504190e+01  1.246733e+02
    endloop
  endfacet
  facet normal  3.771221e-01 -9.102384e-01 -1.710121e-01
    outer loop
      vertex   6.342687e+01  6.488065e+01  1.216389e+02
      vertex   7.214169e+01  6.771581e+01  1.257666e+02
      vertex   6.471094e+01  6.517360e+01  1.229113e+02
    endloop
  endfacet
  facet normal  3.771218e-01 -9.102387e-01 -1.710102e-01
    outer loop
      vertex  -6.269308e+01  8.947081e+00  1.412302e+02
      vertex   5.929567e+01  6.251079e+01  1.251426e+02
      vertex   2.078881e+01  3.479563e+01  1.877450e+02
    endloop
  endfacet
  facet normal  3.771220e-01 -9.102389e-01 -1.710089e-01
    outer loop
      vertex   5.929567e+01  6.251079e+01  1.251426e+02
      vertex  -6.269308e+01  8.947081e+00  1.412302e+02
      vertex   5.929223e+01  6.284754e+01  1.233426e+02
    endloop
  endfacet
  facet normal  3.771218e-01 -9.102388e-01 -1.710101e-01
    outer loop
      vertex  -1.409536e+00  6.037009e+01  2.666153e+00
      vertex   5.929223e+01  6.284754e+01  1.233426e+02
      vertex  -6.269308e+01  8.947081e+00  1.412302e+02
    endloop
  endfacet
  facet normal  3.771206e-01 -9.102392e-01 -1.710106e-01
    outer loop
      vertex   8.207236e+01  8.621864e+01  4.918093e+01
      vertex   6.174758e+01  6.425605e+01  1.212602e+02
      vertex   6.020626e+01  6.349815e+01  1.218953e+02
    endloop
  endfacet
  facet normal  3.771243e-01 -9.102379e-01 -1.710091e-01
    outer loop
      vertex   8.207236e+01  8.621864e+01  4.918093e+01
      vertex   6.342687e+01  6.488065e+01  1.216389e+02
      vertex   6.174758e+01  6.425605e+01  1.212602e+02
    endloop
  endfacet
  facet normal  3.771213e-01 -9.102390e-01 -1.710102e-01
    outer loop
      vertex   8.207236e+01  8.621864e+01  4.918093e+01
      vertex   7.214169e+01  6.771581e+01  1.257666e+02
      vertex   6.342687e+01  6.488065e+01  1.216389e+02
    endloop
  endfacet
  facet normal  3.771185e-01 -9.102401e-01 -1.710111e-01
    outer loop
      vertex   7.214169e+01  6.771581e+01  1.257666e+02
      vertex   8.207236e+01  8.621864e+01  4.918093e+01
      vertex   8.283841e+01  8.686142e+01  4.744888e+01
    endloop
  endfacet
  facet normal  3.830217e-01  3.213950e-01 -8.660251e-01
    outer loop
      vertex   3.287737e+01  9.978699e+00  1.798401e+02
      vertex  -5.009390e+01 -1.365772e+01  1.343721e+02
      vertex   3.212312e+01  1.179918e+01  1.801821e+02
    endloop
  endfacet
  facet normal  3.830239e-01  3.213893e-01 -8.660263e-01
    outer loop
      vertex  -5.009390e+01 -1.365772e+01  1.343721e+02
      vertex   3.287737e+01  9.978699e+00  1.798401e+02
      vertex  -4.933966e+01 -1.547820e+01  1.340301e+02
    endloop
  endfacet
  facet normal -3.830225e-01 -3.213932e-01  8.660256e-01
    outer loop
      vertex   9.262733e+00  3.369505e+01  1.528221e+00
      vertex   9.072552e+01  6.097243e+01  4.768025e+01
      vertex   8.508490e+00  3.551552e+01  1.870239e+00
    endloop
  endfacet
  facet normal -3.830228e-01 -3.213923e-01  8.660257e-01
    outer loop
      vertex   9.072552e+01  6.097243e+01  4.768025e+01
      vertex   9.262733e+00  3.369505e+01  1.528221e+00
      vertex   9.147976e+01  5.915195e+01  4.733823e+01
    endloop
  endfacet
  facet normal  8.432508e-01  2.610986e-01  4.698465e-01
    outer loop
      vertex  -5.009390e+01 -1.365772e+01  1.343721e+02
      vertex   9.262733e+00  3.369505e+01  1.528221e+00
      vertex   8.508490e+00  3.551552e+01  1.870239e+00
    endloop
  endfacet
  facet normal  8.432509e-01  2.610981e-01  4.698464e-01
    outer loop
      vertex   9.262733e+00  3.369505e+01  1.528221e+00
      vertex  -5.009390e+01 -1.365772e+01  1.343721e+02
      vertex  -4.933966e+01 -1.547820e+01  1.340301e+02
    endloop
  endfacet
  facet normal  3.830217e-01  3.213941e-01 -8.660255e-01
    outer loop
      vertex  -5.267870e+01 -1.086354e+01  1.342659e+02
      vertex  -6.340559e+01  5.841738e+00  1.357212e+02
      vertex  -6.003259e+01  6.886118e+00  1.376006e+02
    endloop
  endfacet
  facet normal  3.830237e-01  3.213952e-01 -8.660242e-01
    outer loop
      vertex  -6.340559e+01  5.841738e+00  1.357212e+02
      vertex  -5.267870e+01 -1.086354e+01  1.342659e+02
      vertex  -5.605171e+01 -1.190792e+01  1.323865e+02
    endloop
  endfacet
  facet normal -3.830229e-01 -3.213941e-01  8.660250e-01
    outer loop
      vertex   2.550679e+00  3.726533e+01 -1.153793e-01
      vertex  -1.430189e+00  5.605937e+01  5.098709e+00
      vertex  -4.803192e+00  5.501498e+01  3.219322e+00
    endloop
  endfacet
  facet normal -3.830222e-01 -3.213941e-01  8.660253e-01
    outer loop
      vertex  -1.430189e+00  5.605937e+01  5.098709e+00
      vertex   2.550679e+00  3.726533e+01 -1.153793e-01
      vertex   5.923687e+00  3.830972e+01  1.764008e+00
    endloop
  endfacet
  facet normal  3.771210e-01 -9.102390e-01 -1.710105e-01
    outer loop
      vertex  -6.340559e+01  5.841738e+00  1.357212e+02
      vertex  -1.430189e+00  5.605937e+01  5.098709e+00
      vertex  -6.003259e+01  6.886118e+00  1.376006e+02
    endloop
  endfacet
  facet normal  3.771218e-01 -9.102388e-01 -1.710101e-01
    outer loop
      vertex  -1.430189e+00  5.605937e+01  5.098709e+00
      vertex  -6.340559e+01  5.841738e+00  1.357212e+02
      vertex  -4.803192e+00  5.501498e+01  3.219322e+00
    endloop
  endfacet
  facet normal -3.771221e-01  9.102387e-01  1.710099e-01
    outer loop
      vertex   2.550679e+00  3.726533e+01 -1.153793e-01
      vertex  -5.267870e+01 -1.086354e+01  1.342659e+02
      vertex   5.923687e+00  3.830972e+01  1.764008e+00
    endloop
  endfacet
  facet normal -3.771209e-01  9.102392e-01  1.710106e-01
    outer loop
      vertex  -5.267870e+01 -1.086354e+01  1.342659e+02
      vertex   2.550679e+00  3.726533e+01 -1.153793e-01
      vertex  -5.605171e+01 -1.190792e+01  1.323865e+02
    endloop
  endfacet
  facet normal  9.167780e-01  3.406596e-01  2.084928e-01
    outer loop
      vertex   7.138744e+01  6.953629e+01  1.261086e+02
      vertex   8.283841e+01  8.686142e+01  4.744888e+01
      vertex   8.208417e+01  8.868190e+01  4.779090e+01
    endloop
  endfacet
  facet normal  9.167769e-01  3.406623e-01  2.084932e-01
    outer loop
      vertex   8.283841e+01  8.686142e+01  4.744888e+01
      vertex   7.138744e+01  6.953629e+01  1.261086e+02
      vertex   7.214169e+01  6.771581e+01  1.257666e+02
    endloop
  endfacet
  facet normal  7.022298e-01  1.606344e-01  6.935920e-01
    outer loop
      vertex   1.926853e+01  3.597332e+01  1.898191e+02
      vertex   6.913533e+01  6.519318e+01  1.325640e+02
      vertex   6.838108e+01  6.701365e+01  1.329061e+02
    endloop
  endfacet
  facet normal  7.022290e-01  1.606358e-01  6.935927e-01
    outer loop
      vertex   6.913533e+01  6.519318e+01  1.325640e+02
      vertex   1.926853e+01  3.597332e+01  1.898191e+02
      vertex   2.002277e+01  3.415284e+01  1.894771e+02
    endloop
  endfacet
  facet normal  7.451904e-01  1.885708e-01  6.396345e-01
    outer loop
      vertex   6.838108e+01  6.701365e+01  1.329061e+02
      vertex   7.059552e+01  6.617197e+01  1.305743e+02
      vertex   6.984127e+01  6.799244e+01  1.309164e+02
    endloop
  endfacet
  facet normal  7.451904e-01  1.885708e-01  6.396345e-01
    outer loop
      vertex   7.059552e+01  6.617197e+01  1.305743e+02
      vertex   6.838108e+01  6.701365e+01  1.329061e+02
      vertex   6.913533e+01  6.519318e+01  1.325640e+02
    endloop
  endfacet
  facet normal  9.044586e-01  3.222136e-01  2.795227e-01
    outer loop
      vertex   7.085821e+01  6.884575e+01  1.286170e+02
      vertex   7.214169e+01  6.771581e+01  1.257666e+02
      vertex   7.138744e+01  6.953629e+01  1.261086e+02
    endloop
  endfacet
  facet normal  9.044586e-01  3.222136e-01  2.795227e-01
    outer loop
      vertex   7.214169e+01  6.771581e+01  1.257666e+02
      vertex   7.085821e+01  6.884575e+01  1.286170e+02
      vertex   7.161246e+01  6.702527e+01  1.282750e+02
    endloop
  endfacet
  facet normal  8.432505e-01  2.610966e-01  4.698479e-01
    outer loop
      vertex   6.984127e+01  6.799244e+01  1.309164e+02
      vertex   7.161246e+01  6.702527e+01  1.282750e+02
      vertex   7.085821e+01  6.884575e+01  1.286170e+02
    endloop
  endfacet
  facet normal  8.432505e-01  2.610977e-01  4.698475e-01
    outer loop
      vertex   7.161246e+01  6.702527e+01  1.282750e+02
      vertex   6.984127e+01  6.799244e+01  1.309164e+02
      vertex   7.059552e+01  6.617197e+01  1.305743e+02
    endloop
  endfacet
  facet normal -6.050760e-01 -3.819359e-01  6.985757e-01
    outer loop
      vertex   6.342687e+01  6.488065e+01  1.216389e+02
      vertex   6.395669e+01  6.699408e+01  1.232533e+02
      vertex   6.267262e+01  6.670112e+01  1.219809e+02
    endloop
  endfacet
  facet normal -6.050790e-01 -3.819340e-01  6.985742e-01
    outer loop
      vertex   6.395669e+01  6.699408e+01  1.232533e+02
      vertex   6.342687e+01  6.488065e+01  1.216389e+02
      vertex   6.471094e+01  6.517360e+01  1.229113e+02
    endloop
  endfacet
  facet normal -8.881167e-01 -4.077909e-01  2.120267e-01
    outer loop
      vertex   6.519206e+01  6.504190e+01  1.246733e+02
      vertex   6.395669e+01  6.699408e+01  1.232533e+02
      vertex   6.471094e+01  6.517360e+01  1.229113e+02
    endloop
  endfacet
  facet normal -8.881168e-01 -4.077895e-01  2.120287e-01
    outer loop
      vertex   6.395669e+01  6.699408e+01  1.232533e+02
      vertex   6.519206e+01  6.504190e+01  1.246733e+02
      vertex   6.443782e+01  6.686238e+01  1.250153e+02
    endloop
  endfacet
  facet normal  3.830214e-01  3.213918e-01 -8.660265e-01
    outer loop
      vertex   6.175974e+01  6.307295e+01  1.275843e+02
      vertex   5.946132e+01  6.441531e+01  1.270659e+02
      vertex   6.100549e+01  6.489343e+01  1.279263e+02
    endloop
  endfacet
  facet normal  3.830229e-01  3.213952e-01 -8.660246e-01
    outer loop
      vertex   5.946132e+01  6.441531e+01  1.270659e+02
      vertex   6.175974e+01  6.307295e+01  1.275843e+02
      vertex   6.021558e+01  6.259484e+01  1.267239e+02
    endloop
  endfacet
  facet normal  7.781053e-01  4.115355e-01 -4.745426e-01
    outer loop
      vertex   6.021558e+01  6.259484e+01  1.267239e+02
      vertex   5.854142e+01  6.433126e+01  1.254846e+02
      vertex   5.946132e+01  6.441531e+01  1.270659e+02
    endloop
  endfacet
  facet normal  7.781051e-01  4.115348e-01 -4.745435e-01
    outer loop
      vertex   5.854142e+01  6.433126e+01  1.254846e+02
      vertex   6.021558e+01  6.259484e+01  1.267239e+02
      vertex   5.929567e+01  6.251079e+01  1.251426e+02
    endloop
  endfacet
  facet normal -1.336631e-01  1.292233e-01 -9.825658e-01
    outer loop
      vertex   6.343806e+01  6.379340e+01  1.274507e+02
      vertex   6.100549e+01  6.489343e+01  1.279263e+02
      vertex   6.268382e+01  6.561388e+01  1.277927e+02
    endloop
  endfacet
  facet normal -1.336655e-01  1.292183e-01 -9.825662e-01
    outer loop
      vertex   6.100549e+01  6.489343e+01  1.279263e+02
      vertex   6.343806e+01  6.379340e+01  1.274507e+02
      vertex   6.175974e+01  6.307295e+01  1.275843e+02
    endloop
  endfacet
  facet normal -8.891770e-01 -3.041756e-01 -3.418208e-01
    outer loop
      vertex   6.471754e+01  6.452738e+01  1.263655e+02
      vertex   6.443782e+01  6.686238e+01  1.250153e+02
      vertex   6.519206e+01  6.504190e+01  1.246733e+02
    endloop
  endfacet
  facet normal -8.891790e-01 -3.041738e-01 -3.418173e-01
    outer loop
      vertex   6.443782e+01  6.686238e+01  1.250153e+02
      vertex   6.471754e+01  6.452738e+01  1.263655e+02
      vertex   6.396331e+01  6.634786e+01  1.267075e+02
    endloop
  endfacet
  facet normal -6.079488e-01 -1.039930e-01 -7.871364e-01
    outer loop
      vertex   6.343806e+01  6.379340e+01  1.274507e+02
      vertex   6.396331e+01  6.634786e+01  1.267075e+02
      vertex   6.471754e+01  6.452738e+01  1.263655e+02
    endloop
  endfacet
  facet normal -6.079475e-01 -1.039936e-01 -7.871373e-01
    outer loop
      vertex   6.396331e+01  6.634786e+01  1.267075e+02
      vertex   6.343806e+01  6.379340e+01  1.274507e+02
      vertex   6.268382e+01  6.561388e+01  1.277927e+02
    endloop
  endfacet
  facet normal  3.864660e-01 -1.314527e-02  9.222099e-01
    outer loop
      vertex   5.945202e+01  6.531863e+01  1.222373e+02
      vertex   6.174758e+01  6.425605e+01  1.212602e+02
      vertex   6.099334e+01  6.607653e+01  1.216022e+02
    endloop
  endfacet
  facet normal  3.864679e-01 -1.314047e-02  9.222092e-01
    outer loop
      vertex   6.174758e+01  6.425605e+01  1.212602e+02
      vertex   5.945202e+01  6.531863e+01  1.222373e+02
      vertex   6.020626e+01  6.349815e+01  1.218953e+02
    endloop
  endfacet
  facet normal -1.299334e-01 -2.348173e-01  9.633163e-01
    outer loop
      vertex   6.174758e+01  6.425605e+01  1.212602e+02
      vertex   6.267262e+01  6.670112e+01  1.219809e+02
      vertex   6.099334e+01  6.607653e+01  1.216022e+02
    endloop
  endfacet
  facet normal -1.299366e-01 -2.348160e-01  9.633161e-01
    outer loop
      vertex   6.267262e+01  6.670112e+01  1.219809e+02
      vertex   6.174758e+01  6.425605e+01  1.212602e+02
      vertex   6.342687e+01  6.488065e+01  1.216389e+02
    endloop
  endfacet
  facet normal  9.261619e-01  3.710096e-01  6.764527e-02
    outer loop
      vertex   5.854142e+01  6.433126e+01  1.254846e+02
      vertex   5.929223e+01  6.284754e+01  1.233426e+02
      vertex   5.853799e+01  6.466801e+01  1.236846e+02
    endloop
  endfacet
  facet normal  9.261603e-01  3.710143e-01  6.764144e-02
    outer loop
      vertex   5.929223e+01  6.284754e+01  1.233426e+02
      vertex   5.854142e+01  6.433126e+01  1.254846e+02
      vertex   5.929567e+01  6.251079e+01  1.251426e+02
    endloop
  endfacet
  facet normal  7.801622e-01  2.127018e-01  5.883068e-01
    outer loop
      vertex   5.853799e+01  6.466801e+01  1.236846e+02
      vertex   6.020626e+01  6.349815e+01  1.218953e+02
      vertex   5.945202e+01  6.531863e+01  1.222373e+02
    endloop
  endfacet
  facet normal  7.801623e-01  2.127023e-01  5.883065e-01
    outer loop
      vertex   6.020626e+01  6.349815e+01  1.218953e+02
      vertex   5.853799e+01  6.466801e+01  1.236846e+02
      vertex   5.929223e+01  6.284754e+01  1.233426e+02
    endloop
  endfacet
endsolid vcg
