solid STL generated by MeshLab
  facet normal  6.430496e-01  1.949955e-01  7.405835e-01
    outer loop
      vertex   1.422957e+00  1.750000e+01  1.742898e+00
      vertex   1.550000e+00  1.750621e+01  1.630951e+00
      vertex   1.413329e+00  1.757654e+01  1.731105e+00
    endloop
  endfacet
  facet normal  6.608301e-01  3.123046e-01  6.824730e-01
    outer loop
      vertex   1.413329e+00  1.757654e+01  1.731105e+00
      vertex   1.550000e+00  1.750621e+01  1.630951e+00
      vertex   1.550000e+00  1.761768e+01  1.579943e+00
    endloop
  endfacet
  facet normal -9.321752e-01  1.480130e-01  3.303658e-01
    outer loop
      vertex  -2.061189e+00  1.757654e+01  8.635526e-01
      vertex  -2.193342e+00  1.755570e+01  5.000001e-01
      vertex  -2.113142e+00  1.750000e+01  7.512514e-01
    endloop
  endfacet
  facet normal -7.568174e-01  6.113773e-01  2.311822e-01
    outer loop
      vertex  -2.003059e+00  1.766143e+01  8.433112e-01
      vertex  -2.098169e+00  1.767352e+01  4.999996e-01
      vertex  -2.193342e+00  1.755570e+01  5.000001e-01
    endloop
  endfacet
  facet normal -2.947649e-02  9.993279e-01 -2.178918e-02
    outer loop
      vertex  -1.713229e+00  1.769994e+01  1.191167e+00
      vertex  -1.200052e+00  1.770001e+01  5.000000e-01
      vertex  -2.098169e+00  1.767352e+01  4.999996e-01
    endloop
  endfacet
  facet normal -9.340445e-01  1.943765e-01  2.996310e-01
    outer loop
      vertex  -2.113142e+00  1.750000e+01  7.512514e-01
      vertex  -2.075230e+00  1.750000e+01  8.694355e-01
      vertex  -2.061189e+00  1.757654e+01  8.635526e-01
    endloop
  endfacet
  facet normal -8.656709e-01  1.942660e-01  4.613834e-01
    outer loop
      vertex  -2.061189e+00  1.757654e+01  8.635526e-01
      vertex  -2.075230e+00  1.750000e+01  8.694355e-01
      vertex  -1.878809e+00  1.749999e+01  1.237973e+00
    endloop
  endfacet
  facet normal -8.464475e-01  2.589784e-01  4.652493e-01
    outer loop
      vertex  -2.061189e+00  1.757654e+01  8.635526e-01
      vertex  -1.878809e+00  1.749999e+01  1.237973e+00
      vertex  -1.854568e+00  1.760907e+01  1.221360e+00
    endloop
  endfacet
  facet normal -7.613997e-01  2.596876e-01  5.939973e-01
    outer loop
      vertex  -1.854568e+00  1.760907e+01  1.221360e+00
      vertex  -1.878809e+00  1.749999e+01  1.237973e+00
      vertex  -1.606718e+00  1.757654e+01  1.553281e+00
    endloop
  endfacet
  facet normal -7.654957e-01  1.942732e-01  6.134121e-01
    outer loop
      vertex  -1.606718e+00  1.757654e+01  1.553281e+00
      vertex  -1.878809e+00  1.749999e+01  1.237973e+00
      vertex  -1.617664e+00  1.750000e+01  1.563862e+00
    endloop
  endfacet
  facet normal -6.389462e-01  1.942716e-01  7.443161e-01
    outer loop
      vertex  -1.606718e+00  1.757654e+01  1.553281e+00
      vertex  -1.617664e+00  1.750000e+01  1.563862e+00
      vertex  -1.291989e+00  1.757654e+01  1.823455e+00
    endloop
  endfacet
  facet normal -6.389461e-01  1.942687e-01  7.443168e-01
    outer loop
      vertex  -1.291989e+00  1.757654e+01  1.823455e+00
      vertex  -1.617664e+00  1.750000e+01  1.563862e+00
      vertex  -1.414135e+00  1.750000e+01  1.738578e+00
    endloop
  endfacet
  facet normal -6.389458e-01  1.942676e-01  7.443174e-01
    outer loop
      vertex  -1.414135e+00  1.750000e+01  1.738578e+00
      vertex  -1.300790e+00  1.750000e+01  1.835877e+00
      vertex  -1.291989e+00  1.757654e+01  1.823455e+00
    endloop
  endfacet
  facet normal -4.903881e-01  1.942684e-01  8.495760e-01
    outer loop
      vertex  -1.291989e+00  1.757654e+01  1.823455e+00
      vertex  -1.300790e+00  1.750000e+01  1.835877e+00
      vertex  -9.391050e-01  1.750000e+01  2.044647e+00
    endloop
  endfacet
  facet normal -4.720704e-01  2.588529e-01  8.427008e-01
    outer loop
      vertex  -1.291989e+00  1.757654e+01  1.823455e+00
      vertex  -9.391050e-01  1.750000e+01  2.044647e+00
      vertex  -9.271740e-01  1.760902e+01  2.017843e+00
    endloop
  endfacet
  facet normal -3.199392e-01  2.590768e-01  9.113277e-01
    outer loop
      vertex  -9.271740e-01  1.760902e+01  2.017843e+00
      vertex  -9.391050e-01  1.750000e+01  2.044647e+00
      vertex  -8.951251e-01  1.750000e+01  2.060087e+00
    endloop
  endfacet
  facet normal -3.325766e-01  2.541447e-01  9.081867e-01
    outer loop
      vertex  -9.271740e-01  1.760902e+01  2.017843e+00
      vertex  -8.951251e-01  1.750000e+01  2.060087e+00
      vertex  -5.413801e-01  1.757654e+01  2.168209e+00
    endloop
  endfacet
  facet normal -3.249350e-01  1.942760e-01  9.255669e-01
    outer loop
      vertex  -5.413801e-01  1.757654e+01  2.168209e+00
      vertex  -8.951251e-01  1.750000e+01  2.060087e+00
      vertex  -5.450681e-01  1.750000e+01  2.182980e+00
    endloop
  endfacet
  facet normal -1.482883e-01  1.942765e-01  9.696738e-01
    outer loop
      vertex  -5.413801e-01  1.757654e+01  2.168209e+00
      vertex  -5.450681e-01  1.750000e+01  2.182980e+00
      vertex  -1.313590e-01  1.757654e+01  2.230912e+00
    endloop
  endfacet
  facet normal -1.482887e-01  1.942788e-01  9.696733e-01
    outer loop
      vertex  -1.313590e-01  1.757654e+01  2.230912e+00
      vertex  -5.450681e-01  1.750000e+01  2.182980e+00
      vertex  -3.049462e-01  1.750000e+01  2.219701e+00
    endloop
  endfacet
  facet normal -1.482871e-01  1.942750e-01  9.696742e-01
    outer loop
      vertex  -3.049462e-01  1.750000e+01  2.219701e+00
      vertex  -1.322539e-01  1.750000e+01  2.246110e+00
      vertex  -1.313590e-01  1.757654e+01  2.230912e+00
    endloop
  endfacet
  facet normal  3.346739e-02  1.942749e-01  9.803761e-01
    outer loop
      vertex  -1.313590e-01  1.757654e+01  2.230912e+00
      vertex  -1.322539e-01  1.750000e+01  2.246110e+00
      vertex   2.851164e-01  1.750000e+01  2.231862e+00
    endloop
  endfacet
  facet normal  4.539202e-02  2.589670e-01  9.648190e-01
    outer loop
      vertex  -1.313590e-01  1.757654e+01  2.230912e+00
      vertex   2.851164e-01  1.750000e+01  2.231862e+00
      vertex   2.809044e-01  1.760906e+01  2.202788e+00
    endloop
  endfacet
  facet normal  2.107339e-01  2.594020e-01  9.424977e-01
    outer loop
      vertex   2.809044e-01  1.760906e+01  2.202788e+00
      vertex   2.851164e-01  1.750000e+01  2.231862e+00
      vertex   3.059629e-01  1.750000e+01  2.227201e+00
    endloop
  endfacet
  facet normal  1.983891e-01  2.572934e-01  9.457494e-01
    outer loop
      vertex   2.809044e-01  1.760906e+01  2.202788e+00
      vertex   3.059629e-01  1.750000e+01  2.227201e+00
      vertex   6.879779e-01  1.757654e+01  2.126243e+00
    endloop
  endfacet
  facet normal  2.140693e-01  1.942739e-01  9.573045e-01
    outer loop
      vertex   6.879779e-01  1.757654e+01  2.126243e+00
      vertex   3.059629e-01  1.750000e+01  2.227201e+00
      vertex   6.926646e-01  1.750000e+01  2.140728e+00
    endloop
  endfacet
  facet normal  3.872967e-01  1.942737e-01  9.012542e-01
    outer loop
      vertex   6.879779e-01  1.757654e+01  2.126243e+00
      vertex   6.926646e-01  1.750000e+01  2.140728e+00
      vertex   1.069068e+00  1.757654e+01  1.962477e+00
    endloop
  endfacet
  facet normal  3.872968e-01  1.942735e-01  9.012541e-01
    outer loop
      vertex   6.926646e-01  1.750000e+01  2.140728e+00
      vertex   8.925756e-01  1.750000e+01  2.054820e+00
      vertex   1.069068e+00  1.757654e+01  1.962477e+00
    endloop
  endfacet
  facet normal  3.872921e-01  1.942838e-01  9.012539e-01
    outer loop
      vertex   1.069068e+00  1.757654e+01  1.962477e+00
      vertex   8.925756e-01  1.750000e+01  2.054820e+00
      vertex   1.076351e+00  1.750000e+01  1.975847e+00
    endloop
  endfacet
  facet normal  5.471798e-01  1.942833e-01  8.141550e-01
    outer loop
      vertex   1.069068e+00  1.757654e+01  1.962477e+00
      vertex   1.076351e+00  1.750000e+01  1.975847e+00
      vertex   1.413329e+00  1.757654e+01  1.731105e+00
    endloop
  endfacet
  facet normal  5.471826e-01  1.942724e-01  8.141556e-01
    outer loop
      vertex   1.413329e+00  1.757654e+01  1.731105e+00
      vertex   1.076351e+00  1.750000e+01  1.975847e+00
      vertex   1.419749e+00  1.750000e+01  1.745054e+00
    endloop
  endfacet
  facet normal  5.471860e-01  1.942723e-01  8.141534e-01
    outer loop
      vertex   1.413329e+00  1.757654e+01  1.731105e+00
      vertex   1.419749e+00  1.750000e+01  1.745054e+00
      vertex   1.422957e+00  1.750000e+01  1.742898e+00
    endloop
  endfacet
  facet normal  5.359229e-01  5.555423e-01  6.357353e-01
    outer loop
      vertex   1.550000e+00  1.761768e+01  1.579943e+00
      vertex   1.385911e+00  1.764142e+01  1.697522e+00
      vertex   1.413329e+00  1.757654e+01  1.731105e+00
    endloop
  endfacet
  facet normal  4.551534e-01  5.534062e-01  6.975507e-01
    outer loop
      vertex   1.413329e+00  1.757654e+01  1.731105e+00
      vertex   1.385911e+00  1.764142e+01  1.697522e+00
      vertex   1.052795e+00  1.766460e+01  1.896494e+00
    endloop
  endfacet
  facet normal  4.516074e-01  5.869679e-01  6.719519e-01
    outer loop
      vertex   1.413329e+00  1.757654e+01  1.731105e+00
      vertex   1.052795e+00  1.766460e+01  1.896494e+00
      vertex   1.069068e+00  1.757654e+01  1.962477e+00
    endloop
  endfacet
  facet normal  3.200976e-01  6.052764e-01  7.288196e-01
    outer loop
      vertex   1.069068e+00  1.757654e+01  1.962477e+00
      vertex   1.052795e+00  1.766460e+01  1.896494e+00
      vertex   6.841813e-01  1.766460e+01  2.058389e+00
    endloop
  endfacet
  facet normal  3.196507e-01  5.869637e-01  7.438394e-01
    outer loop
      vertex   1.069068e+00  1.757654e+01  1.962477e+00
      vertex   6.841813e-01  1.766460e+01  2.058389e+00
      vertex   6.879779e-01  1.757654e+01  2.126243e+00
    endloop
  endfacet
  facet normal  1.936187e-01  6.040519e-01  7.730673e-01
    outer loop
      vertex   6.879779e-01  1.757654e+01  2.126243e+00
      vertex   6.841813e-01  1.766460e+01  2.058389e+00
      vertex   2.809044e-01  1.760906e+01  2.202788e+00
    endloop
  endfacet
  facet normal  8.518453e-03  5.901606e-01  8.072408e-01
    outer loop
      vertex   2.809044e-01  1.760906e+01  2.202788e+00
      vertex  -1.102492e-01  1.766459e+01  2.166314e+00
      vertex  -1.313590e-01  1.757654e+01  2.230912e+00
    endloop
  endfacet
  facet normal -1.140601e-01  6.052824e-01  7.877966e-01
    outer loop
      vertex  -1.313590e-01  1.757654e+01  2.230912e+00
      vertex  -1.102492e-01  1.766459e+01  2.166314e+00
      vertex  -5.086985e-01  1.766459e+01  2.108625e+00
    endloop
  endfacet
  facet normal -1.223875e-01  5.869688e-01  8.003055e-01
    outer loop
      vertex  -1.313590e-01  1.757654e+01  2.230912e+00
      vertex  -5.086985e-01  1.766459e+01  2.108625e+00
      vertex  -5.413801e-01  1.757654e+01  2.168209e+00
    endloop
  endfacet
  facet normal -2.447502e-01  6.040500e-01  7.584332e-01
    outer loop
      vertex  -5.413801e-01  1.757654e+01  2.168209e+00
      vertex  -5.086985e-01  1.766459e+01  2.108625e+00
      vertex  -9.271740e-01  1.760902e+01  2.017843e+00
    endloop
  endfacet
  facet normal -4.097749e-01  6.247609e-01  6.646491e-01
    outer loop
      vertex  -9.271740e-01  1.760902e+01  2.017843e+00
      vertex  -1.241158e+00  1.767261e+01  1.764490e+00
      vertex  -1.291989e+00  1.757654e+01  1.823455e+00
    endloop
  endfacet
  facet normal -4.946983e-01  6.295025e-01  5.991663e-01
    outer loop
      vertex  -1.291989e+00  1.757654e+01  1.823455e+00
      vertex  -1.241158e+00  1.767261e+01  1.764490e+00
      vertex  -1.547452e+00  1.766459e+01  1.520020e+00
    endloop
  endfacet
  facet normal -5.273424e-01  5.869720e-01  6.143075e-01
    outer loop
      vertex  -1.291989e+00  1.757654e+01  1.823455e+00
      vertex  -1.547452e+00  1.766459e+01  1.520020e+00
      vertex  -1.606718e+00  1.757654e+01  1.553281e+00
    endloop
  endfacet
  facet normal -6.090425e-01  6.040640e-01  5.139785e-01
    outer loop
      vertex  -1.606718e+00  1.757654e+01  1.553281e+00
      vertex  -1.547452e+00  1.766459e+01  1.520020e+00
      vertex  -1.854568e+00  1.760907e+01  1.221360e+00
    endloop
  endfacet
  facet normal -7.250400e-01  5.836388e-01  3.656263e-01
    outer loop
      vertex  -1.854568e+00  1.760907e+01  1.221360e+00
      vertex  -2.003059e+00  1.766143e+01  8.433112e-01
      vertex  -2.061189e+00  1.757654e+01  8.635526e-01
    endloop
  endfacet
  facet normal -7.711816e-01  5.868757e-01  2.466896e-01
    outer loop
      vertex  -2.061189e+00  1.757654e+01  8.635526e-01
      vertex  -2.003059e+00  1.766143e+01  8.433112e-01
      vertex  -2.193342e+00  1.755570e+01  5.000001e-01
    endloop
  endfacet
  facet normal  3.219301e-01  9.086916e-01  2.657828e-01
    outer loop
      vertex   1.550000e+00  1.761768e+01  1.579943e+00
      vertex   1.223094e+00  1.769996e+01  1.694590e+00
      vertex   1.385911e+00  1.764142e+01  1.697522e+00
    endloop
  endfacet
  facet normal  3.026678e-01  8.621565e-01  4.062984e-01
    outer loop
      vertex   1.385911e+00  1.764142e+01  1.697522e+00
      vertex   1.223094e+00  1.769996e+01  1.694590e+00
      vertex   1.052795e+00  1.766460e+01  1.896494e+00
    endloop
  endfacet
  facet normal  8.630131e-02  8.250929e-01  5.583671e-01
    outer loop
      vertex   6.841813e-01  1.766460e+01  2.058389e+00
      vertex   2.751173e-01  1.769995e+01  2.069377e+00
      vertex   2.809044e-01  1.760906e+01  2.202788e+00
    endloop
  endfacet
  facet normal  6.506620e-02  8.259981e-01  5.599049e-01
    outer loop
      vertex   2.809044e-01  1.760906e+01  2.202788e+00
      vertex   2.751173e-01  1.769995e+01  2.069377e+00
      vertex  -1.102492e-01  1.766459e+01  2.166314e+00
    endloop
  endfacet
  facet normal -2.229189e-01  8.216546e-01  5.245866e-01
    outer loop
      vertex  -5.086985e-01  1.766459e+01  2.108625e+00
      vertex  -8.114846e-01  1.769995e+01  1.924577e+00
      vertex  -9.271740e-01  1.760902e+01  2.017843e+00
    endloop
  endfacet
  facet normal -2.415651e-01  8.273798e-01  5.070394e-01
    outer loop
      vertex  -9.271740e-01  1.760902e+01  2.017843e+00
      vertex  -8.114846e-01  1.769995e+01  1.924577e+00
      vertex  -1.241158e+00  1.767261e+01  1.764490e+00
    endloop
  endfacet
  facet normal -4.624098e-01  8.261701e-01  3.219005e-01
    outer loop
      vertex  -1.547452e+00  1.766459e+01  1.520020e+00
      vertex  -1.713229e+00  1.769994e+01  1.191167e+00
      vertex  -1.854568e+00  1.760907e+01  1.221360e+00
    endloop
  endfacet
  facet normal -4.698669e-01  8.303500e-01  2.995728e-01
    outer loop
      vertex  -1.854568e+00  1.760907e+01  1.221360e+00
      vertex  -1.713229e+00  1.769994e+01  1.191167e+00
      vertex  -2.003059e+00  1.766143e+01  8.433112e-01
    endloop
  endfacet
  facet normal  1.169150e-01  9.568012e-01  2.661999e-01
    outer loop
      vertex   1.052795e+00  1.766460e+01  1.896494e+00
      vertex   1.223094e+00  1.769996e+01  1.694590e+00
      vertex   6.841813e-01  1.766460e+01  2.058389e+00
    endloop
  endfacet
  facet normal  8.990350e-02  9.696345e-01  2.274341e-01
    outer loop
      vertex   6.841813e-01  1.766460e+01  2.058389e+00
      vertex   1.223094e+00  1.769996e+01  1.694590e+00
      vertex   2.751173e-01  1.769995e+01  2.069377e+00
    endloop
  endfacet
  facet normal -3.088493e-02  9.722720e-01  2.318041e-01
    outer loop
      vertex  -1.102492e-01  1.766459e+01  2.166314e+00
      vertex   2.751173e-01  1.769995e+01  2.069377e+00
      vertex  -8.114846e-01  1.769995e+01  1.924577e+00
    endloop
  endfacet
  facet normal -3.538135e-02  9.690354e-01  2.443739e-01
    outer loop
      vertex  -1.102492e-01  1.766459e+01  2.166314e+00
      vertex  -8.114846e-01  1.769995e+01  1.924577e+00
      vertex  -5.086985e-01  1.766459e+01  2.108625e+00
    endloop
  endfacet
  facet normal -1.385561e-01  9.685988e-01  2.064425e-01
    outer loop
      vertex  -8.114846e-01  1.769995e+01  1.924577e+00
      vertex  -1.289540e+00  1.770000e+01  1.603501e+00
      vertex  -1.241158e+00  1.767261e+01  1.764490e+00
    endloop
  endfacet
  facet normal -2.031408e-01  9.533569e-01  2.232589e-01
    outer loop
      vertex  -1.241158e+00  1.767261e+01  1.764490e+00
      vertex  -1.289540e+00  1.770000e+01  1.603501e+00
      vertex  -1.547452e+00  1.766459e+01  1.520020e+00
    endloop
  endfacet
  facet normal -1.972322e-01  9.592103e-01  2.025218e-01
    outer loop
      vertex  -1.547452e+00  1.766459e+01  1.520020e+00
      vertex  -1.289540e+00  1.770000e+01  1.603501e+00
      vertex  -1.713229e+00  1.769994e+01  1.191167e+00
    endloop
  endfacet
  facet normal -2.523573e-01  9.620540e-01  1.037675e-01
    outer loop
      vertex  -2.003059e+00  1.766143e+01  8.433112e-01
      vertex  -1.713229e+00  1.769994e+01  1.191167e+00
      vertex  -2.098169e+00  1.767352e+01  4.999996e-01
    endloop
  endfacet
  facet normal  6.310840e-01 -2.485203e-03  7.757105e-01
    outer loop
      vertex   1.550000e+00  1.370000e+01  1.630951e+00
      vertex   1.406722e+00  7.950000e+00  1.729094e+00
      vertex   1.644381e+00  7.950000e+00  1.535745e+00
    endloop
  endfacet
  facet normal  7.565656e-01  1.591091e-03  6.539157e-01
    outer loop
      vertex   1.550000e+00  1.370000e+01  1.630951e+00
      vertex   1.644381e+00  7.950000e+00  1.535745e+00
      vertex   1.838182e+00  1.370000e+01  1.297531e+00
    endloop
  endfacet
  facet normal  8.169653e-01 -3.644614e-03  5.766752e-01
    outer loop
      vertex   1.644381e+00  7.950000e+00  1.535745e+00
      vertex   1.997744e+00  7.950000e+00  1.035142e+00
      vertex   1.838182e+00  1.370000e+01  1.297531e+00
    endloop
  endfacet
  facet normal  8.878794e-01  3.644633e-03  4.600619e-01
    outer loop
      vertex   1.838182e+00  1.370000e+01  1.297531e+00
      vertex   1.997744e+00  7.950000e+00  1.035142e+00
      vertex   2.120087e+00  1.370000e+01  7.534791e-01
    endloop
  endfacet
  facet normal  9.422551e-01 -3.644537e-03  3.348761e-01
    outer loop
      vertex   2.120087e+00  1.370000e+01  7.534791e-01
      vertex   1.997744e+00  7.950000e+00  1.035142e+00
      vertex   2.202939e+00  7.950000e+00  4.577760e-01
    endloop
  endfacet
  facet normal  9.790775e-01  3.644567e-03  2.034554e-01
    outer loop
      vertex   2.120087e+00  1.370000e+01  7.534791e-01
      vertex   2.202939e+00  7.950000e+00  4.577760e-01
      vertex   2.244755e+00  1.370000e+01  1.535454e-01
    endloop
  endfacet
  facet normal  9.976621e-01 -3.644650e-03  6.824261e-02
    outer loop
      vertex   2.202939e+00  7.950000e+00  4.577760e-01
      vertex   2.244755e+00  7.949999e+00 -1.535463e-01
      vertex   2.244755e+00  1.370000e+01  1.535454e-01
    endloop
  endfacet
  facet normal  9.976621e-01  3.644656e-03 -6.824271e-02
    outer loop
      vertex   2.244755e+00  1.370000e+01  1.535454e-01
      vertex   2.244755e+00  7.949999e+00 -1.535463e-01
      vertex   2.202939e+00  1.370000e+01 -4.577760e-01
    endloop
  endfacet
  facet normal  9.790774e-01 -3.644545e-03 -2.034556e-01
    outer loop
      vertex   2.202939e+00  1.370000e+01 -4.577760e-01
      vertex   2.244755e+00  7.949999e+00 -1.535463e-01
      vertex   2.120087e+00  7.949999e+00 -7.534794e-01
    endloop
  endfacet
  facet normal  9.422548e-01  3.644594e-03 -3.348769e-01
    outer loop
      vertex   2.202939e+00  1.370000e+01 -4.577760e-01
      vertex   2.120087e+00  7.949999e+00 -7.534794e-01
      vertex   1.997742e+00  1.370000e+01 -1.035146e+00
    endloop
  endfacet
  facet normal  8.878792e-01 -3.644647e-03 -4.600622e-01
    outer loop
      vertex   1.997742e+00  1.370000e+01 -1.035146e+00
      vertex   2.120087e+00  7.949999e+00 -7.534794e-01
      vertex   1.838181e+00  7.949999e+00 -1.297532e+00
    endloop
  endfacet
  facet normal  8.169648e-01  3.644566e-03 -5.766761e-01
    outer loop
      vertex   1.997742e+00  1.370000e+01 -1.035146e+00
      vertex   1.838181e+00  7.949999e+00 -1.297532e+00
      vertex   1.644381e+00  1.370000e+01 -1.535745e+00
    endloop
  endfacet
  facet normal  6.604871e-01  6.981253e-07 -7.508373e-01
    outer loop
      vertex   1.419948e+00  1.750000e+01 -1.745350e+00
      vertex   1.550000e+00  1.754323e+01 -1.630947e+00
      vertex   1.550000e+00  1.370000e+01 -1.630951e+00
    endloop
  endfacet
  facet normal  5.766806e-01 -2.189327e-03 -8.169668e-01
    outer loop
      vertex   1.169064e+00  1.750000e+01 -1.922444e+00
      vertex   1.419948e+00  1.750000e+01 -1.745350e+00
      vertex   1.158175e+00  7.950000e+00 -1.904538e+00
    endloop
  endfacet
  facet normal  6.045171e-01 -3.292082e-03 -7.965854e-01
    outer loop
      vertex   1.158175e+00  7.950000e+00 -1.904538e+00
      vertex   1.419948e+00  1.750000e+01 -1.745350e+00
      vertex   1.550000e+00  1.370000e+01 -1.630951e+00
    endloop
  endfacet
  facet normal  5.195777e-01  5.247165e-03 -8.544072e-01
    outer loop
      vertex   1.158175e+00  7.950000e+00 -1.904538e+00
      vertex   1.550000e+00  1.370000e+01 -1.630951e+00
      vertex   1.419948e+00  7.950000e+00 -1.745350e+00
    endloop
  endfacet
  facet normal  7.101752e-01 -2.055710e-03 -7.040220e-01
    outer loop
      vertex   1.419948e+00  7.950000e+00 -1.745350e+00
      vertex   1.550000e+00  1.370000e+01 -1.630951e+00
      vertex   1.644381e+00  1.370000e+01 -1.535745e+00
    endloop
  endfacet
  facet normal  7.308307e-01 -3.644675e-03 -6.825491e-01
    outer loop
      vertex   1.419948e+00  7.950000e+00 -1.745350e+00
      vertex   1.644381e+00  1.370000e+01 -1.535745e+00
      vertex   1.838181e+00  7.949999e+00 -1.297532e+00
    endloop
  endfacet
  facet normal -8.878708e-01  5.853604e-03 -4.600556e-01
    outer loop
      vertex  -2.193741e+00  1.670000e+01 -5.000000e-01
      vertex  -1.979135e+00  7.950000e+00 -1.025505e+00
      vertex  -2.120087e+00  7.950000e+00 -7.534790e-01
    endloop
  endfacet
  facet normal -9.770837e-01 -2.058805e-03 -2.128451e-01
    outer loop
      vertex  -2.193741e+00  1.670000e+01 -5.000000e-01
      vertex  -2.120087e+00  7.950000e+00 -7.534790e-01
      vertex  -2.202939e+00  1.670000e+01 -4.577760e-01
    endloop
  endfacet
  facet normal -9.790811e-01 -2.395008e-03 -2.034563e-01
    outer loop
      vertex  -2.202939e+00  1.670000e+01 -4.577760e-01
      vertex  -2.120087e+00  7.950000e+00 -7.534790e-01
      vertex  -2.244755e+00  7.950000e+00 -1.535456e-01
    endloop
  endfacet
  facet normal -9.976659e-01  2.395063e-03 -6.824298e-02
    outer loop
      vertex  -2.202939e+00  1.670000e+01 -4.577760e-01
      vertex  -2.244755e+00  7.950000e+00 -1.535456e-01
      vertex  -2.244755e+00  1.670000e+01  1.535454e-01
    endloop
  endfacet
  facet normal -9.422616e-01 -6.254833e-04  3.348773e-01
    outer loop
      vertex  -2.100341e+00  7.950000e+00  7.464612e-01
      vertex  -2.193741e+00  1.670000e+01  5.000000e-01
      vertex  -2.202939e+00  7.950000e+00  4.577760e-01
    endloop
  endfacet
  facet normal -9.893324e-01  3.370118e-04  1.456749e-01
    outer loop
      vertex  -2.202939e+00  7.950000e+00  4.577760e-01
      vertex  -2.193741e+00  1.670000e+01  5.000000e-01
      vertex  -2.244755e+00  1.670000e+01  1.535454e-01
    endloop
  endfacet
  facet normal -9.976659e-01 -2.395062e-03  6.824294e-02
    outer loop
      vertex  -2.202939e+00  7.950000e+00  4.577760e-01
      vertex  -2.244755e+00  1.670000e+01  1.535454e-01
      vertex  -2.244755e+00  7.950000e+00 -1.535456e-01
    endloop
  endfacet
  facet normal -9.526162e-01  4.445595e-04  3.041748e-01
    outer loop
      vertex  -2.193342e+00  1.755570e+01  5.000001e-01
      vertex  -2.193741e+00  1.670000e+01  5.000000e-01
      vertex  -2.113142e+00  1.750000e+01  7.512514e-01
    endloop
  endfacet
  facet normal -9.508713e-01 -1.429843e-03  3.095832e-01
    outer loop
      vertex  -2.113142e+00  1.750000e+01  7.512514e-01
      vertex  -2.193741e+00  1.670000e+01  5.000000e-01
      vertex  -2.100341e+00  7.950000e+00  7.464612e-01
    endloop
  endfacet
  facet normal -9.522049e-01 -1.429561e-03  3.054567e-01
    outer loop
      vertex  -2.113142e+00  1.750000e+01  7.512514e-01
      vertex  -2.100341e+00  7.950000e+00  7.464612e-01
      vertex  -2.075230e+00  1.750000e+01  8.694355e-01
    endloop
  endfacet
  facet normal -9.422590e-01 -1.834598e-03  3.348803e-01
    outer loop
      vertex  -2.075230e+00  1.750000e+01  8.694355e-01
      vertex  -2.100341e+00  7.950000e+00  7.464612e-01
      vertex  -1.997742e+00  7.950000e+00  1.035146e+00
    endloop
  endfacet
  facet normal -8.824841e-01  1.000914e-03  4.703413e-01
    outer loop
      vertex  -2.075230e+00  1.750000e+01  8.694355e-01
      vertex  -1.997742e+00  7.950000e+00  1.035146e+00
      vertex  -1.878809e+00  1.749999e+01  1.237973e+00
    endloop
  endfacet
  facet normal -8.169671e-01 -2.073506e-03  5.766807e-01
    outer loop
      vertex  -1.878809e+00  1.749999e+01  1.237973e+00
      vertex  -1.997742e+00  7.950000e+00  1.035146e+00
      vertex  -1.821061e+00  7.950000e+00  1.285445e+00
    endloop
  endfacet
  facet normal -7.803608e-01 -1.610338e-03  6.253275e-01
    outer loop
      vertex  -1.878809e+00  1.749999e+01  1.237973e+00
      vertex  -1.821061e+00  7.950000e+00  1.285445e+00
      vertex  -1.617664e+00  1.750000e+01  1.563862e+00
    endloop
  endfacet
  facet normal -8.169714e-01  5.877134e-04  5.766778e-01
    outer loop
      vertex  -1.617664e+00  1.750000e+01  1.563862e+00
      vertex  -1.821061e+00  7.950000e+00  1.285445e+00
      vertex  -1.644381e+00  7.950000e+00  1.535745e+00
    endloop
  endfacet
  facet normal -6.513554e-01 -4.117340e-04  7.587726e-01
    outer loop
      vertex  -1.617664e+00  1.750000e+01  1.563862e+00
      vertex  -1.644381e+00  7.950000e+00  1.535745e+00
      vertex  -1.414135e+00  1.750000e+01  1.738578e+00
    endloop
  endfacet
  facet normal -6.310855e-01 -1.260216e-03  7.757123e-01
    outer loop
      vertex  -1.414135e+00  1.750000e+01  1.738578e+00
      vertex  -1.644381e+00  7.950000e+00  1.535745e+00
      vertex  -1.406722e+00  7.950000e+00  1.729094e+00
    endloop
  endfacet
  facet normal -6.513545e-01 -1.259126e-03  7.587725e-01
    outer loop
      vertex  -1.414135e+00  1.750000e+01  1.738578e+00
      vertex  -1.406722e+00  7.950000e+00  1.729094e+00
      vertex  -1.300790e+00  1.750000e+01  1.835877e+00
    endloop
  endfacet
  facet normal -4.999079e-01 -4.138753e-03  8.660687e-01
    outer loop
      vertex  -1.300790e+00  1.750000e+01  1.835877e+00
      vertex  -1.406722e+00  7.950000e+00  1.729094e+00
      vertex  -9.391050e-01  1.750000e+01  2.044647e+00
    endloop
  endfacet
  facet normal -6.310810e-01  5.270163e-03  7.756991e-01
    outer loop
      vertex  -9.391050e-01  1.750000e+01  2.044647e+00
      vertex  -1.406722e+00  7.950000e+00  1.729094e+00
      vertex  -1.169064e+00  7.950000e+00  1.922444e+00
    endloop
  endfacet
  facet normal -3.312463e-01 -4.097357e-03  9.435354e-01
    outer loop
      vertex  -9.391050e-01  1.750000e+01  2.044647e+00
      vertex  -1.169064e+00  7.950000e+00  1.922444e+00
      vertex  -8.951251e-01  1.750000e+01  2.060087e+00
    endloop
  endfacet
  facet normal -3.983997e-01 -1.791657e-03  9.172101e-01
    outer loop
      vertex  -8.951251e-01  1.750000e+01  2.060087e+00
      vertex  -1.169064e+00  7.950000e+00  1.922444e+00
      vertex  -8.880533e-01  7.950000e+00  2.044504e+00
    endloop
  endfacet
  facet normal -3.312458e-01 -1.784897e-03  9.435428e-01
    outer loop
      vertex  -8.951251e-01  1.750000e+01  2.060087e+00
      vertex  -8.880533e-01  7.950000e+00  2.044504e+00
      vertex  -5.450681e-01  1.750000e+01  2.182980e+00
    endloop
  endfacet
  facet normal -3.984007e-01  1.008766e-03  9.172110e-01
    outer loop
      vertex  -5.450681e-01  1.750000e+01  2.182980e+00
      vertex  -8.880533e-01  7.950000e+00  2.044504e+00
      vertex  -6.070427e-01  7.950000e+00  2.166564e+00
    endloop
  endfacet
  facet normal -1.511690e-01 -7.181967e-04  9.885077e-01
    outer loop
      vertex  -5.450681e-01  1.750000e+01  2.182980e+00
      vertex  -6.070427e-01  7.950000e+00  2.166564e+00
      vertex  -3.049462e-01  1.750000e+01  2.219701e+00
    endloop
  endfacet
  facet normal -1.361665e-01 -1.204891e-03  9.906852e-01
    outer loop
      vertex  -3.049462e-01  1.750000e+01  2.219701e+00
      vertex  -6.070427e-01  7.950000e+00  2.166564e+00
      vertex  -3.035214e-01  7.950000e+00  2.208282e+00
    endloop
  endfacet
  facet normal -1.511672e-01 -1.204525e-03  9.885074e-01
    outer loop
      vertex  -3.049462e-01  1.750000e+01  2.219701e+00
      vertex  -3.035214e-01  7.950000e+00  2.208282e+00
      vertex  -1.322539e-01  1.750000e+01  2.246110e+00
    endloop
  endfacet
  facet normal  3.411707e-02 -4.570544e-03  9.994074e-01
    outer loop
      vertex  -1.322539e-01  1.750000e+01  2.246110e+00
      vertex  -3.035214e-01  7.950000e+00  2.208282e+00
      vertex   2.851164e-01  1.750000e+01  2.231862e+00
    endloop
  endfacet
  facet normal -1.361641e-01  5.946732e-03  9.906685e-01
    outer loop
      vertex   2.851164e-01  1.750000e+01  2.231862e+00
      vertex  -3.035214e-01  7.950000e+00  2.208282e+00
      vertex   2.755455e-16  7.950000e+00  2.250000e+00
    endloop
  endfacet
  facet normal  2.182007e-01 -4.660934e-03  9.758928e-01
    outer loop
      vertex   2.851164e-01  1.750000e+01  2.231862e+00
      vertex   2.755455e-16  7.950000e+00  2.250000e+00
      vertex   3.059629e-01  1.750000e+01  2.227201e+00
    endloop
  endfacet
  facet normal  1.361662e-01 -1.997402e-03  9.906840e-01
    outer loop
      vertex   3.059629e-01  1.750000e+01  2.227201e+00
      vertex   2.755455e-16  7.950000e+00  2.250000e+00
      vertex   3.035214e-01  7.950000e+00  2.208282e+00
    endloop
  endfacet
  facet normal  2.182267e-01 -1.989086e-03  9.758961e-01
    outer loop
      vertex   3.059629e-01  1.750000e+01  2.227201e+00
      vertex   3.035214e-01  7.950000e+00  2.208282e+00
      vertex   6.926646e-01  1.750000e+01  2.140728e+00
    endloop
  endfacet
  facet normal  1.361664e-01  1.459319e-03  9.906849e-01
    outer loop
      vertex   6.926646e-01  1.750000e+01  2.140728e+00
      vertex   3.035214e-01  7.950000e+00  2.208282e+00
      vertex   6.070427e-01  7.950000e+00  2.166564e+00
    endloop
  endfacet
  facet normal  3.948188e-01 -1.054254e-03  9.187583e-01
    outer loop
      vertex   6.926646e-01  1.750000e+01  2.140728e+00
      vertex   6.070427e-01  7.950000e+00  2.166564e+00
      vertex   8.925756e-01  1.750000e+01  2.054820e+00
    endloop
  endfacet
  facet normal  3.984006e-01 -1.179452e-03  9.172108e-01
    outer loop
      vertex   8.925756e-01  1.750000e+01  2.054820e+00
      vertex   6.070427e-01  7.950000e+00  2.166564e+00
      vertex   8.880533e-01  7.950000e+00  2.044504e+00
    endloop
  endfacet
  facet normal  3.948149e-01 -1.179427e-03  9.187599e-01
    outer loop
      vertex   8.925756e-01  1.750000e+01  2.054820e+00
      vertex   8.880533e-01  7.950000e+00  2.044504e+00
      vertex   1.076351e+00  1.750000e+01  1.975847e+00
    endloop
  endfacet
  facet normal  3.984001e-01 -1.261253e-03  9.172109e-01
    outer loop
      vertex   1.076351e+00  1.750000e+01  1.975847e+00
      vertex   8.880533e-01  7.950000e+00  2.044504e+00
      vertex   1.169064e+00  7.950000e+00  1.922444e+00
    endloop
  endfacet
  facet normal  5.578101e-01  7.741819e-04  8.299682e-01
    outer loop
      vertex   1.076351e+00  1.750000e+01  1.975847e+00
      vertex   1.169064e+00  7.950000e+00  1.922444e+00
      vertex   1.419749e+00  1.750000e+01  1.745054e+00
    endloop
  endfacet
  facet normal  6.310883e-01 -2.157227e-03  7.757080e-01
    outer loop
      vertex   1.419749e+00  1.750000e+01  1.745054e+00
      vertex   1.169064e+00  7.950000e+00  1.922444e+00
      vertex   1.406722e+00  7.950000e+00  1.729094e+00
    endloop
  endfacet
  facet normal  5.578125e-01 -2.147945e-03  8.299643e-01
    outer loop
      vertex   1.419749e+00  1.750000e+01  1.745054e+00
      vertex   1.406722e+00  7.950000e+00  1.729094e+00
      vertex   1.422957e+00  1.750000e+01  1.742898e+00
    endloop
  endfacet
  facet normal  6.234496e-01 -2.189997e-03  7.818605e-01
    outer loop
      vertex   1.422957e+00  1.750000e+01  1.742898e+00
      vertex   1.406722e+00  7.950000e+00  1.729094e+00
      vertex   1.550000e+00  1.370000e+01  1.630951e+00
    endloop
  endfacet
  facet normal  6.611252e-01  6.647150e-08  7.502757e-01
    outer loop
      vertex   1.422957e+00  1.750000e+01  1.742898e+00
      vertex   1.550000e+00  1.370000e+01  1.630951e+00
      vertex   1.550000e+00  1.750621e+01  1.630951e+00
    endloop
  endfacet
  facet normal  4.600618e-01 -2.189324e-03 -8.878842e-01
    outer loop
      vertex   1.169064e+00  1.750000e+01 -1.922444e+00
      vertex   1.158175e+00  7.950000e+00 -1.904538e+00
      vertex   8.964025e-01  1.750000e+01 -2.063725e+00
    endloop
  endfacet
  facet normal  5.195829e-01  0.000000e+00 -8.544200e-01
    outer loop
      vertex   8.964025e-01  1.750000e+01 -2.063725e+00
      vertex   1.158175e+00  7.950000e+00 -1.904538e+00
      vertex   8.964025e-01  7.950000e+00 -2.063725e+00
    endloop
  endfacet
  facet normal  3.348810e-01  0.000000e+00 -9.422604e-01
    outer loop
      vertex   8.964025e-01  1.750000e+01 -2.063725e+00
      vertex   8.964025e-01  7.950000e+00 -2.063725e+00
      vertex   6.070427e-01  1.750000e+01 -2.166564e+00
    endloop
  endfacet
  facet normal  2.697962e-01 -2.194454e-03 -9.629149e-01
    outer loop
      vertex   6.070427e-01  1.750000e+01 -2.166564e+00
      vertex   8.964025e-01  7.950000e+00 -2.063725e+00
      vertex   6.013887e-01  7.950000e+00 -2.146384e+00
    endloop
  endfacet
  facet normal  2.034541e-01 -2.189339e-03 -9.790820e-01
    outer loop
      vertex   6.070427e-01  1.750000e+01 -2.166564e+00
      vertex   6.013887e-01  7.950000e+00 -2.146384e+00
      vertex   3.063749e-01  1.750000e+01 -2.229043e+00
    endloop
  endfacet
  facet normal  2.697968e-01  0.000000e+00 -9.629172e-01
    outer loop
      vertex   3.063749e-01  1.750000e+01 -2.229043e+00
      vertex   6.013887e-01  7.950000e+00 -2.146384e+00
      vertex   3.063749e-01  7.950000e+00 -2.229043e+00
    endloop
  endfacet
  facet normal  6.824363e-02  0.000000e+00 -9.976687e-01
    outer loop
      vertex   3.063749e-01  1.750000e+01 -2.229043e+00
      vertex   3.063749e-01  7.950000e+00 -2.229043e+00
      vertex   0.000000e+00  1.750000e+01 -2.250000e+00
    endloop
  endfacet
  facet normal  6.824363e-02  1.969029e-18 -9.976687e-01
    outer loop
      vertex   0.000000e+00  1.750000e+01 -2.250000e+00
      vertex   3.063749e-01  7.950000e+00 -2.229043e+00
      vertex   2.755455e-16  7.950000e+00 -2.250000e+00
    endloop
  endfacet
  facet normal -6.824363e-02 -1.969029e-18 -9.976687e-01
    outer loop
      vertex   0.000000e+00  1.750000e+01 -2.250000e+00
      vertex   2.755455e-16  7.950000e+00 -2.250000e+00
      vertex  -3.063749e-01  1.750000e+01 -2.229043e+00
    endloop
  endfacet
  facet normal -6.824363e-02 -0.000000e+00 -9.976687e-01
    outer loop
      vertex  -3.063749e-01  1.750000e+01 -2.229043e+00
      vertex   2.755455e-16  7.950000e+00 -2.250000e+00
      vertex  -3.063749e-01  7.950000e+00 -2.229043e+00
    endloop
  endfacet
  facet normal -2.034546e-01 -0.000000e+00 -9.790844e-01
    outer loop
      vertex  -3.063749e-01  1.750000e+01 -2.229043e+00
      vertex  -3.063749e-01  7.950000e+00 -2.229043e+00
      vertex  -6.070427e-01  1.750000e+01 -2.166564e+00
    endloop
  endfacet
  facet normal -2.697962e-01 -2.194453e-03 -9.629149e-01
    outer loop
      vertex  -6.070427e-01  1.750000e+01 -2.166564e+00
      vertex  -3.063749e-01  7.950000e+00 -2.229043e+00
      vertex  -6.013887e-01  7.950000e+00 -2.146384e+00
    endloop
  endfacet
  facet normal -3.348802e-01 -2.189336e-03 -9.422582e-01
    outer loop
      vertex  -6.070427e-01  1.750000e+01 -2.166564e+00
      vertex  -6.013887e-01  7.950000e+00 -2.146384e+00
      vertex  -8.964025e-01  1.750000e+01 -2.063725e+00
    endloop
  endfacet
  facet normal -2.697968e-01 -0.000000e+00 -9.629172e-01
    outer loop
      vertex  -8.964025e-01  1.750000e+01 -2.063725e+00
      vertex  -6.013887e-01  7.950000e+00 -2.146384e+00
      vertex  -8.964025e-01  7.950000e+00 -2.063725e+00
    endloop
  endfacet
  facet normal -4.600629e-01 -0.000000e+00 -8.878863e-01
    outer loop
      vertex  -8.964025e-01  1.750000e+01 -2.063725e+00
      vertex  -8.964025e-01  7.950000e+00 -2.063725e+00
      vertex  -1.169064e+00  1.750000e+01 -1.922444e+00
    endloop
  endfacet
  facet normal -5.195817e-01 -2.194442e-03 -8.544180e-01
    outer loop
      vertex  -1.169064e+00  1.750000e+01 -1.922444e+00
      vertex  -8.964025e-01  7.950000e+00 -2.063725e+00
      vertex  -1.158175e+00  7.950000e+00 -1.904538e+00
    endloop
  endfacet
  facet normal -5.766806e-01 -2.189327e-03 -8.169668e-01
    outer loop
      vertex  -1.169064e+00  1.750000e+01 -1.922444e+00
      vertex  -1.158175e+00  7.950000e+00 -1.904538e+00
      vertex  -1.419948e+00  1.750000e+01 -1.745350e+00
    endloop
  endfacet
  facet normal -5.195848e-01 -0.000000e+00 -8.544188e-01
    outer loop
      vertex  -1.419948e+00  1.750000e+01 -1.745350e+00
      vertex  -1.158175e+00  7.950000e+00 -1.904538e+00
      vertex  -1.419948e+00  7.950000e+00 -1.745350e+00
    endloop
  endfacet
  facet normal -6.825516e-01 -0.000000e+00 -7.308374e-01
    outer loop
      vertex  -1.419948e+00  1.750000e+01 -1.745350e+00
      vertex  -1.419948e+00  7.950000e+00 -1.745350e+00
      vertex  -1.644381e+00  1.750000e+01 -1.535745e+00
    endloop
  endfacet
  facet normal -7.308332e-01 -2.194420e-03 -6.825526e-01
    outer loop
      vertex  -1.644381e+00  1.750000e+01 -1.535745e+00
      vertex  -1.419948e+00  7.950000e+00 -1.745350e+00
      vertex  -1.629065e+00  7.950000e+00 -1.521441e+00
    endloop
  endfacet
  facet normal -7.757103e-01 -2.189304e-03 -6.310854e-01
    outer loop
      vertex  -1.644381e+00  1.750000e+01 -1.535745e+00
      vertex  -1.629065e+00  7.950000e+00 -1.521441e+00
      vertex  -1.838182e+00  1.750000e+01 -1.297531e+00
    endloop
  endfacet
  facet normal -7.308366e-01 -0.000000e+00 -6.825525e-01
    outer loop
      vertex  -1.838182e+00  1.750000e+01 -1.297531e+00
      vertex  -1.629065e+00  7.950000e+00 -1.521441e+00
      vertex  -1.838182e+00  7.950000e+00 -1.297531e+00
    endloop
  endfacet
  facet normal -8.544191e-01 -0.000000e+00 -5.195845e-01
    outer loop
      vertex  -1.838182e+00  1.750000e+01 -1.297531e+00
      vertex  -1.838182e+00  7.950000e+00 -1.297531e+00
      vertex  -1.997742e+00  1.750000e+01 -1.035146e+00
    endloop
  endfacet
  facet normal -8.878824e-01 -2.194383e-03 -4.600653e-01
    outer loop
      vertex  -1.997742e+00  1.750000e+01 -1.035146e+00
      vertex  -1.838182e+00  7.950000e+00 -1.297531e+00
      vertex  -1.979135e+00  7.950000e+00 -1.025505e+00
    endloop
  endfacet
  facet normal -9.166120e-01 -2.189491e-03 -3.997719e-01
    outer loop
      vertex  -1.997742e+00  1.750000e+01 -1.035146e+00
      vertex  -1.979135e+00  7.950000e+00 -1.025505e+00
      vertex  -2.117824e+00  1.750000e+01 -7.598174e-01
    endloop
  endfacet
  facet normal -9.550540e-01 -5.624243e-03 -2.963783e-01
    outer loop
      vertex  -2.117824e+00  1.750000e+01 -7.598174e-01
      vertex  -1.979135e+00  7.950000e+00 -1.025505e+00
      vertex  -2.193741e+00  1.670000e+01 -5.000000e-01
    endloop
  endfacet
  facet normal -9.600179e-01  1.859947e-04 -2.799385e-01
    outer loop
      vertex  -2.117824e+00  1.750000e+01 -7.598174e-01
      vertex  -2.193741e+00  1.670000e+01 -5.000000e-01
      vertex  -2.193575e+00  1.755903e+01 -4.999999e-01
    endloop
  endfacet
  facet normal  4.835942e-02  9.987844e-01 -9.538230e-03
    outer loop
      vertex   1.549998e+00  1.767256e+01 -1.504653e+00
      vertex   9.122129e-01  1.770001e+01 -1.864209e+00
      vertex   1.549999e+00  1.770000e+01  1.368605e+00
    endloop
  endfacet
  facet normal -6.883433e-01  6.941800e-01 -2.104696e-01
    outer loop
      vertex  -2.012727e+00  1.760326e+01 -9.456018e-01
      vertex  -2.193575e+00  1.755903e+01 -4.999999e-01
      vertex  -2.052430e+00  1.769899e+01 -5.000002e-01
    endloop
  endfacet
  facet normal -8.907656e-01  3.118710e-01 -3.305649e-01
    outer loop
      vertex  -2.193575e+00  1.755903e+01 -4.999999e-01
      vertex  -2.012727e+00  1.760326e+01 -9.456018e-01
      vertex  -2.117824e+00  1.750000e+01 -7.598174e-01
    endloop
  endfacet
  facet normal -8.963829e-01  2.089416e-01 -3.909491e-01
    outer loop
      vertex  -2.117824e+00  1.750000e+01 -7.598174e-01
      vertex  -2.012727e+00  1.760326e+01 -9.456018e-01
      vertex  -1.997742e+00  1.750000e+01 -1.035146e+00
    endloop
  endfacet
  facet normal -8.226644e-01  2.996153e-01 -4.831708e-01
    outer loop
      vertex  -1.997742e+00  1.750000e+01 -1.035146e+00
      vertex  -2.012727e+00  1.760326e+01 -9.456018e-01
      vertex  -1.816292e+00  1.760000e+01 -1.282079e+00
    endloop
  endfacet
  facet normal -8.254358e-01  2.582491e-01 -5.019593e-01
    outer loop
      vertex  -1.997742e+00  1.750000e+01 -1.035146e+00
      vertex  -1.816292e+00  1.760000e+01 -1.282079e+00
      vertex  -1.838182e+00  1.750000e+01 -1.297531e+00
    endloop
  endfacet
  facet normal -7.312234e-01  2.576590e-01 -6.316044e-01
    outer loop
      vertex  -1.838182e+00  1.750000e+01 -1.297531e+00
      vertex  -1.816292e+00  1.760000e+01 -1.282079e+00
      vertex  -1.507553e+00  1.760229e+01 -1.638578e+00
    endloop
  endfacet
  facet normal -7.194391e-01  3.739316e-01 -5.853055e-01
    outer loop
      vertex  -1.838182e+00  1.750000e+01 -1.297531e+00
      vertex  -1.507553e+00  1.760229e+01 -1.638578e+00
      vertex  -1.644381e+00  1.750000e+01 -1.535745e+00
    endloop
  endfacet
  facet normal -6.719552e-01  1.755231e-01 -7.194914e-01
    outer loop
      vertex  -1.644381e+00  1.750000e+01 -1.535745e+00
      vertex  -1.507553e+00  1.760229e+01 -1.638578e+00
      vertex  -1.419948e+00  1.750000e+01 -1.745350e+00
    endloop
  endfacet
  facet normal -5.353498e-01  3.458408e-01 -7.705807e-01
    outer loop
      vertex  -1.419948e+00  1.750000e+01 -1.745350e+00
      vertex  -1.507553e+00  1.760229e+01 -1.638578e+00
      vertex  -1.009565e+00  1.760229e+01 -1.984548e+00
    endloop
  endfacet
  facet normal -5.348460e-01  3.739375e-01 -7.577009e-01
    outer loop
      vertex  -1.419948e+00  1.750000e+01 -1.745350e+00
      vertex  -1.009565e+00  1.760229e+01 -1.984548e+00
      vertex  -1.169064e+00  1.750000e+01 -1.922444e+00
    endloop
  endfacet
  facet normal -4.529203e-01  1.755268e-01 -8.741016e-01
    outer loop
      vertex  -1.169064e+00  1.750000e+01 -1.922444e+00
      vertex  -1.009565e+00  1.760229e+01 -1.984548e+00
      vertex  -8.964025e-01  1.750000e+01 -2.063725e+00
    endloop
  endfacet
  facet normal -3.075996e-01  3.458397e-01 -8.864408e-01
    outer loop
      vertex  -8.964025e-01  1.750000e+01 -2.063725e+00
      vertex  -1.009565e+00  1.760229e+01 -1.984548e+00
      vertex  -4.367064e-01  1.760229e+01 -2.183332e+00
    endloop
  endfacet
  facet normal -3.105884e-01  3.739249e-01 -8.739079e-01
    outer loop
      vertex  -8.964025e-01  1.750000e+01 -2.063725e+00
      vertex  -4.367064e-01  1.760229e+01 -2.183332e+00
      vertex  -6.070427e-01  1.750000e+01 -2.166564e+00
    endloop
  endfacet
  facet normal -2.002960e-01  1.755225e-01 -9.638845e-01
    outer loop
      vertex  -6.070427e-01  1.750000e+01 -2.166564e+00
      vertex  -4.367064e-01  1.760229e+01 -2.183332e+00
      vertex  -3.063749e-01  1.750000e+01 -2.229043e+00
    endloop
  endfacet
  facet normal -6.930601e-02  3.320578e-01 -9.407095e-01
    outer loop
      vertex  -3.063749e-01  1.750000e+01 -2.229043e+00
      vertex  -4.367064e-01  1.760229e+01 -2.183332e+00
      vertex   1.177227e-01  1.759918e+01 -2.225277e+00
    endloop
  endfacet
  facet normal -6.481232e-02  3.131014e-01 -9.475056e-01
    outer loop
      vertex  -3.063749e-01  1.750000e+01 -2.229043e+00
      vertex   1.177227e-01  1.759918e+01 -2.225277e+00
      vertex   0.000000e+00  1.750000e+01 -2.250000e+00
    endloop
  endfacet
  facet normal  6.730402e-02  1.653707e-01 -9.839323e-01
    outer loop
      vertex   0.000000e+00  1.750000e+01 -2.250000e+00
      vertex   1.177227e-01  1.759918e+01 -2.225277e+00
      vertex   3.063749e-01  1.750000e+01 -2.229043e+00
    endloop
  endfacet
  facet normal  1.847806e-01  3.857774e-01 -9.038982e-01
    outer loop
      vertex   3.063749e-01  1.750000e+01 -2.229043e+00
      vertex   1.177227e-01  1.759918e+01 -2.225277e+00
      vertex   7.612950e-01  1.760229e+01 -2.092387e+00
    endloop
  endfacet
  facet normal  1.886957e-01  3.739260e-01 -9.080601e-01
    outer loop
      vertex   3.063749e-01  1.750000e+01 -2.229043e+00
      vertex   7.612950e-01  1.760229e+01 -2.092387e+00
      vertex   6.070427e-01  1.750000e+01 -2.166564e+00
    endloop
  endfacet
  facet normal  3.296824e-01  1.755186e-01 -9.276329e-01
    outer loop
      vertex   6.070427e-01  1.750000e+01 -2.166564e+00
      vertex   7.612950e-01  1.760229e+01 -2.092387e+00
      vertex   8.964025e-01  1.750000e+01 -2.063725e+00
    endloop
  endfacet
  facet normal  4.279865e-01  3.294657e-01 -8.415937e-01
    outer loop
      vertex   8.964025e-01  1.750000e+01 -2.063725e+00
      vertex   7.612950e-01  1.760229e+01 -2.092387e+00
      vertex   1.216070e+00  1.760188e+01 -1.861276e+00
    endloop
  endfacet
  facet normal  4.380719e-01  3.054749e-01 -8.454455e-01
    outer loop
      vertex   8.964025e-01  1.750000e+01 -2.063725e+00
      vertex   1.216070e+00  1.760188e+01 -1.861276e+00
      vertex   1.169064e+00  1.750000e+01 -1.922444e+00
    endloop
  endfacet
  facet normal  5.626856e-01  2.189792e-01 -7.971405e-01
    outer loop
      vertex   1.169064e+00  1.750000e+01 -1.922444e+00
      vertex   1.216070e+00  1.760188e+01 -1.861276e+00
      vertex   1.419948e+00  1.750000e+01 -1.745350e+00
    endloop
  endfacet
  facet normal  5.776115e-01  2.858385e-01 -7.646315e-01
    outer loop
      vertex   1.419948e+00  1.750000e+01 -1.745350e+00
      vertex   1.216070e+00  1.760188e+01 -1.861276e+00
      vertex   1.550000e+00  1.754323e+01 -1.630947e+00
    endloop
  endfacet
  facet normal -6.313811e-01  7.447104e-01 -2.162503e-01
    outer loop
      vertex  -2.052430e+00  1.769899e+01 -5.000002e-01
      vertex  -1.910668e+00  1.767469e+01 -9.975829e-01
      vertex  -2.012727e+00  1.760326e+01 -9.456018e-01
    endloop
  endfacet
  facet normal -6.528887e-01  6.508574e-01 -3.874545e-01
    outer loop
      vertex  -2.012727e+00  1.760326e+01 -9.456018e-01
      vertex  -1.910668e+00  1.767469e+01 -9.975829e-01
      vertex  -1.816292e+00  1.760000e+01 -1.282079e+00
    endloop
  endfacet
  facet normal -4.782843e-01  7.973828e-01 -3.680010e-01
    outer loop
      vertex  -1.816292e+00  1.760000e+01 -1.282079e+00
      vertex  -1.910668e+00  1.767469e+01 -9.975829e-01
      vertex  -1.466527e+00  1.767403e+01 -1.576247e+00
    endloop
  endfacet
  facet normal -5.368466e-01  7.069988e-01 -4.603786e-01
    outer loop
      vertex  -1.816292e+00  1.760000e+01 -1.282079e+00
      vertex  -1.466527e+00  1.767403e+01 -1.576247e+00
      vertex  -1.507553e+00  1.760229e+01 -1.638578e+00
    endloop
  endfacet
  facet normal -4.137580e-01  7.203190e-01 -5.567271e-01
    outer loop
      vertex  -1.507553e+00  1.760229e+01 -1.638578e+00
      vertex  -1.466527e+00  1.767403e+01 -1.576247e+00
      vertex  -1.117105e+00  1.767321e+01 -1.837002e+00
    endloop
  endfacet
  facet normal -4.361349e-01  6.447401e-01 -6.277711e-01
    outer loop
      vertex  -1.507553e+00  1.760229e+01 -1.638578e+00
      vertex  -1.117105e+00  1.767321e+01 -1.837002e+00
      vertex  -1.009565e+00  1.760229e+01 -1.984548e+00
    endloop
  endfacet
  facet normal -2.782113e-01  7.707245e-01 -5.732209e-01
    outer loop
      vertex  -1.009565e+00  1.760229e+01 -1.984548e+00
      vertex  -1.117105e+00  1.767321e+01 -1.837002e+00
      vertex  -7.171389e-01  1.767403e+01 -2.030017e+00
    endloop
  endfacet
  facet normal -2.638367e-01  5.935494e-01 -7.603219e-01
    outer loop
      vertex  -1.009565e+00  1.760229e+01 -1.984548e+00
      vertex  -7.171389e-01  1.767403e+01 -2.030017e+00
      vertex  -4.367064e-01  1.760229e+01 -2.183332e+00
    endloop
  endfacet
  facet normal -1.226096e-01  7.937945e-01 -5.956990e-01
    outer loop
      vertex  -4.367064e-01  1.760229e+01 -2.183332e+00
      vertex  -7.171389e-01  1.767403e+01 -2.030017e+00
      vertex  -1.428484e-01  1.767403e+01 -2.148222e+00
    endloop
  endfacet
  facet normal -5.607139e-02  6.147329e-01 -7.867398e-01
    outer loop
      vertex  -4.367064e-01  1.760229e+01 -2.183332e+00
      vertex  -1.428484e-01  1.767403e+01 -2.148222e+00
      vertex   1.177227e-01  1.759918e+01 -2.225277e+00
    endloop
  endfacet
  facet normal  2.847104e-02  7.634185e-01 -6.452764e-01
    outer loop
      vertex   1.177227e-01  1.759918e+01 -2.225277e+00
      vertex  -1.428484e-01  1.767403e+01 -2.148222e+00
      vertex   2.927583e-01  1.767321e+01 -2.129975e+00
    endloop
  endfacet
  facet normal  1.875702e-01  5.784836e-01 -7.938350e-01
    outer loop
      vertex   1.177227e-01  1.759918e+01 -2.225277e+00
      vertex   2.927583e-01  1.767321e+01 -2.129975e+00
      vertex   7.248269e-01  1.767403e+01 -2.027284e+00
    endloop
  endfacet
  facet normal  1.404449e-01  7.035598e-01 -6.966196e-01
    outer loop
      vertex   1.177227e-01  1.759918e+01 -2.225277e+00
      vertex   7.248269e-01  1.767403e+01 -2.027284e+00
      vertex   7.612950e-01  1.760229e+01 -2.092387e+00
    endloop
  endfacet
  facet normal  3.156525e-01  7.206346e-01 -6.172919e-01
    outer loop
      vertex   7.612950e-01  1.760229e+01 -2.092387e+00
      vertex   7.248269e-01  1.767403e+01 -2.027284e+00
      vertex   1.205723e+00  1.767397e+01 -1.781447e+00
    endloop
  endfacet
  facet normal  3.126776e-01  7.247432e-01 -6.139870e-01
    outer loop
      vertex   7.612950e-01  1.760229e+01 -2.092387e+00
      vertex   1.205723e+00  1.767397e+01 -1.781447e+00
      vertex   1.216070e+00  1.760188e+01 -1.861276e+00
    endloop
  endfacet
  facet normal  4.557407e-01  6.891777e-01 -5.633246e-01
    outer loop
      vertex   1.216070e+00  1.760188e+01 -1.861276e+00
      vertex   1.205723e+00  1.767397e+01 -1.781447e+00
      vertex   1.549998e+00  1.767256e+01 -1.504653e+00
    endloop
  endfacet
  facet normal  5.246006e-01  5.948050e-01 -6.090986e-01
    outer loop
      vertex   1.216070e+00  1.760188e+01 -1.861276e+00
      vertex   1.549998e+00  1.767256e+01 -1.504653e+00
      vertex   1.550000e+00  1.754323e+01 -1.630947e+00
    endloop
  endfacet
  facet normal -2.151536e-01  9.705126e-01 -1.086931e-01
    outer loop
      vertex  -2.052430e+00  1.769899e+01 -5.000002e-01
      vertex  -1.694113e+00  1.770000e+01 -1.200232e+00
      vertex  -1.910668e+00  1.767469e+01 -9.975829e-01
    endloop
  endfacet
  facet normal -3.701211e-01  8.841601e-01 -2.850810e-01
    outer loop
      vertex  -1.910668e+00  1.767469e+01 -9.975829e-01
      vertex  -1.694113e+00  1.770000e+01 -1.200232e+00
      vertex  -1.466527e+00  1.767403e+01 -1.576247e+00
    endloop
  endfacet
  facet normal -1.103117e-01  9.847169e-01 -1.347740e-01
    outer loop
      vertex  -1.466527e+00  1.767403e+01 -1.576247e+00
      vertex  -1.694113e+00  1.770000e+01 -1.200232e+00
      vertex  -8.813394e-01  1.770000e+01 -1.865495e+00
    endloop
  endfacet
  facet normal -1.325849e-01  9.745519e-01 -1.807482e-01
    outer loop
      vertex  -1.466527e+00  1.767403e+01 -1.576247e+00
      vertex  -8.813394e-01  1.770000e+01 -1.865495e+00
      vertex  -1.117105e+00  1.767321e+01 -1.837002e+00
    endloop
  endfacet
  facet normal -1.427292e-01  9.457927e-01 -2.917267e-01
    outer loop
      vertex  -1.117105e+00  1.767321e+01 -1.837002e+00
      vertex  -8.813394e-01  1.770000e+01 -1.865495e+00
      vertex  -7.171389e-01  1.767403e+01 -2.030017e+00
    endloop
  endfacet
  facet normal -4.897043e-02  9.779078e-01 -2.032195e-01
    outer loop
      vertex  -7.171389e-01  1.767403e+01 -2.030017e+00
      vertex  -8.813394e-01  1.770000e+01 -1.865495e+00
      vertex  -6.514966e-02  1.770000e+01 -2.062175e+00
    endloop
  endfacet
  facet normal -5.069608e-02  9.678624e-01 -2.463173e-01
    outer loop
      vertex  -7.171389e-01  1.767403e+01 -2.030017e+00
      vertex  -6.514966e-02  1.770000e+01 -2.062175e+00
      vertex  -1.428484e-01  1.767403e+01 -2.148222e+00
    endloop
  endfacet
  facet normal  1.439943e-02  9.535825e-01 -3.007874e-01
    outer loop
      vertex  -1.428484e-01  1.767403e+01 -2.148222e+00
      vertex  -6.514966e-02  1.770000e+01 -2.062175e+00
      vertex   2.927583e-01  1.767321e+01 -2.129975e+00
    endloop
  endfacet
  facet normal  3.796230e-02  9.815405e-01 -1.874492e-01
    outer loop
      vertex   2.927583e-01  1.767321e+01 -2.129975e+00
      vertex  -6.514966e-02  1.770000e+01 -2.062175e+00
      vertex   9.122129e-01  1.770001e+01 -1.864209e+00
    endloop
  endfacet
  facet normal  4.827997e-02  9.762996e-01 -2.109695e-01
    outer loop
      vertex   2.927583e-01  1.767321e+01 -2.129975e+00
      vertex   9.122129e-01  1.770001e+01 -1.864209e+00
      vertex   7.248269e-01  1.767403e+01 -2.027284e+00
    endloop
  endfacet
  facet normal  1.812993e-01  9.173389e-01 -3.544289e-01
    outer loop
      vertex   7.248269e-01  1.767403e+01 -2.027284e+00
      vertex   9.122129e-01  1.770001e+01 -1.864209e+00
      vertex   1.205723e+00  1.767397e+01 -1.781447e+00
    endloop
  endfacet
  facet normal  1.314957e-01  9.785554e-01 -1.585504e-01
    outer loop
      vertex   1.205723e+00  1.767397e+01 -1.781447e+00
      vertex   9.122129e-01  1.770001e+01 -1.864209e+00
      vertex   1.549998e+00  1.767256e+01 -1.504653e+00
    endloop
  endfacet
  facet normal -1.185896e-03  9.999989e-01  8.395420e-04
    outer loop
      vertex  -1.694113e+00  1.770000e+01 -1.200232e+00
      vertex  -2.052430e+00  1.769899e+01 -5.000002e-01
      vertex  -1.200000e+00  1.770000e+01 -5.000000e-01
    endloop
  endfacet
  facet normal  0.000000e+00  1.000000e+00  0.000000e+00
    outer loop
      vertex  -1.259820e-01  1.770000e+01 -1.293881e+00
      vertex  -6.514966e-02  1.770000e+01 -2.062175e+00
      vertex  -8.813394e-01  1.770000e+01 -1.865495e+00
    endloop
  endfacet
  facet normal  0.000000e+00  1.000000e+00  0.000000e+00
    outer loop
      vertex  -1.259820e-01  1.770000e+01 -1.293881e+00
      vertex  -8.813394e-01  1.770000e+01 -1.865495e+00
      vertex  -5.860810e-01  1.770000e+01 -1.160392e+00
    endloop
  endfacet
  facet normal  2.523469e-06  1.000000e+00  2.159450e-07
    outer loop
      vertex  -1.694113e+00  1.770000e+01 -1.200232e+00
      vertex  -9.665872e-01  1.770000e+01 -8.693154e-01
      vertex  -8.813394e-01  1.770000e+01 -1.865495e+00
    endloop
  endfacet
  facet normal  0.000000e+00  1.000000e+00 -0.000000e+00
    outer loop
      vertex  -8.813394e-01  1.770000e+01 -1.865495e+00
      vertex  -9.665872e-01  1.770000e+01 -8.693154e-01
      vertex  -5.860810e-01  1.770000e+01 -1.160392e+00
    endloop
  endfacet
  facet normal -1.283395e-05  1.000000e+00  4.891930e-06
    outer loop
      vertex   9.122129e-01  1.770001e+01 -1.864209e+00
      vertex   7.807356e-01  1.770000e+01 -1.039448e+00
      vertex   1.549999e+00  1.770000e+01  1.368605e+00
    endloop
  endfacet
  facet normal  1.329048e-06 -1.000000e+00 -1.216641e-06
    outer loop
      vertex   1.549999e+00  1.770000e+01  1.368605e+00
      vertex   7.807356e-01  1.770000e+01 -1.039448e+00
      vertex   1.104218e+00  1.770000e+01 -6.860785e-01
    endloop
  endfacet
  facet normal  5.408554e-06 -1.000000e+00 -2.101723e-06
    outer loop
      vertex   1.549999e+00  1.770000e+01  1.368605e+00
      vertex   1.104218e+00  1.770000e+01 -6.860785e-01
      vertex   1.277741e+00  1.770000e+01 -2.395362e-01
    endloop
  endfacet
  facet normal  7.005674e-06  1.000000e+00 -0.000000e+00
    outer loop
      vertex   1.277741e+00  1.770000e+01 -2.395362e-01
      vertex   1.277741e+00  1.770000e+01  2.395362e-01
      vertex   1.549999e+00  1.770000e+01  1.368605e+00
    endloop
  endfacet
  facet normal  2.682608e-06  1.000000e+00  1.042441e-06
    outer loop
      vertex   1.549999e+00  1.770000e+01  1.368605e+00
      vertex   1.277741e+00  1.770000e+01  2.395362e-01
      vertex   1.104218e+00  1.770000e+01  6.860785e-01
    endloop
  endfacet
  facet normal -6.897910e-05  1.000000e+00  4.784704e-05
    outer loop
      vertex   1.549999e+00  1.770000e+01  1.368605e+00
      vertex   1.104218e+00  1.770000e+01  6.860785e-01
      vertex   1.223094e+00  1.769996e+01  1.694590e+00
    endloop
  endfacet
  facet normal  3.843654e-05  1.000000e+00  3.518568e-05
    outer loop
      vertex   1.223094e+00  1.769996e+01  1.694590e+00
      vertex   1.104218e+00  1.770000e+01  6.860785e-01
      vertex   7.807356e-01  1.770000e+01  1.039448e+00
    endloop
  endfacet
  facet normal  2.265037e-05  1.000000e+00  4.584466e-05
    outer loop
      vertex   1.223094e+00  1.769996e+01  1.694590e+00
      vertex   7.807356e-01  1.770000e+01  1.039448e+00
      vertex   3.512259e-01  1.770000e+01  1.251655e+00
    endloop
  endfacet
  facet normal  5.827029e-06  1.000000e+00  6.585278e-05
    outer loop
      vertex  -1.259820e-01  1.770000e+01  1.293881e+00
      vertex   2.751173e-01  1.769995e+01  2.069377e+00
      vertex   3.512259e-01  1.770000e+01  1.251655e+00
    endloop
  endfacet
  facet normal  1.218502e-05  1.000000e+00  6.644455e-05
    outer loop
      vertex   3.512259e-01  1.770000e+01  1.251655e+00
      vertex   2.751173e-01  1.769995e+01  2.069377e+00
      vertex   1.223094e+00  1.769996e+01  1.694590e+00
    endloop
  endfacet
  facet normal  2.036309e-06  1.000000e+00  1.286978e-06
    outer loop
      vertex  -9.665872e-01  1.770000e+01 -8.693154e-01
      vertex  -1.694113e+00  1.770000e+01 -1.200232e+00
      vertex  -1.200000e+00  1.770000e+01 -5.000000e-01
    endloop
  endfacet
  facet normal  0.000000e+00  1.000000e+00  0.000000e+00
    outer loop
      vertex   3.512259e-01  1.770000e+01 -1.251655e+00
      vertex  -6.514966e-02  1.770000e+01 -2.062175e+00
      vertex  -1.259820e-01  1.770000e+01 -1.293881e+00
    endloop
  endfacet
  facet normal -3.177494e-06  1.000000e+00  6.431289e-06
    outer loop
      vertex   7.807356e-01  1.770000e+01 -1.039448e+00
      vertex   9.122129e-01  1.770001e+01 -1.864209e+00
      vertex   3.512259e-01  1.770000e+01 -1.251655e+00
    endloop
  endfacet
  facet normal -6.534517e-06  1.000000e+00  3.356873e-06
    outer loop
      vertex   3.512259e-01  1.770000e+01 -1.251655e+00
      vertex   9.122129e-01  1.770001e+01 -1.864209e+00
      vertex  -6.514966e-02  1.770000e+01 -2.062175e+00
    endloop
  endfacet
  facet normal -1.667651e-05  1.000000e+00  5.747925e-05
    outer loop
      vertex  -5.860810e-01  1.770000e+01  1.160392e+00
      vertex  -8.114846e-01  1.769995e+01  1.924577e+00
      vertex  -1.259820e-01  1.770000e+01  1.293881e+00
    endloop
  endfacet
  facet normal -4.200645e-06  1.000000e+00  7.103926e-05
    outer loop
      vertex  -1.259820e-01  1.770000e+01  1.293881e+00
      vertex  -8.114846e-01  1.769995e+01  1.924577e+00
      vertex   2.751173e-01  1.769995e+01  2.069377e+00
    endloop
  endfacet
  facet normal  0.000000e+00  1.000000e+00 -0.000000e+00
    outer loop
      vertex  -9.665872e-01  1.770000e+01  8.693154e-01
      vertex  -1.289540e+00  1.770000e+01  1.603501e+00
      vertex  -5.860810e-01  1.770000e+01  1.160392e+00
    endloop
  endfacet
  facet normal  4.827355e-05  1.000000e+00  7.663688e-05
    outer loop
      vertex  -5.860810e-01  1.770000e+01  1.160392e+00
      vertex  -1.289540e+00  1.770000e+01  1.603501e+00
      vertex  -8.114846e-01  1.769995e+01  1.924577e+00
    endloop
  endfacet
  facet normal -5.899207e-05  1.000000e+00  5.278579e-05
    outer loop
      vertex  -1.200052e+00  1.770001e+01  5.000000e-01
      vertex  -1.713229e+00  1.769994e+01  1.191167e+00
      vertex  -9.665872e-01  1.770000e+01  8.693154e-01
    endloop
  endfacet
  facet normal -1.008735e-04  1.000000e+00 -4.437218e-05
    outer loop
      vertex  -9.665872e-01  1.770000e+01  8.693154e-01
      vertex  -1.713229e+00  1.769994e+01  1.191167e+00
      vertex  -1.289540e+00  1.770000e+01  1.603501e+00
    endloop
  endfacet
  facet normal -7.087504e-01 -7.037916e-01  4.847939e-02
    outer loop
      vertex  -1.958168e+00  7.700000e+00  4.069134e-01
      vertex  -2.244755e+00  7.950000e+00 -1.535456e-01
      vertex  -1.995337e+00  7.700000e+00 -1.364866e-01
    endloop
  endfacet
  facet normal -6.955484e-01 -7.037908e-01 -1.445367e-01
    outer loop
      vertex  -1.995337e+00  7.700000e+00 -1.364866e-01
      vertex  -2.244755e+00  7.950000e+00 -1.535456e-01
      vertex  -2.120087e+00  7.950000e+00 -7.534790e-01
    endloop
  endfacet
  facet normal -6.955492e-01 -7.037902e-01 -1.445363e-01
    outer loop
      vertex  -1.995337e+00  7.700000e+00 -1.364866e-01
      vertex  -2.120087e+00  7.950000e+00 -7.534790e-01
      vertex  -1.884522e+00  7.700000e+00 -6.697575e-01
    endloop
  endfacet
  facet normal -6.307605e-01 -7.037910e-01 -3.268323e-01
    outer loop
      vertex  -1.884522e+00  7.700000e+00 -6.697575e-01
      vertex  -2.120087e+00  7.950000e+00 -7.534790e-01
      vertex  -1.979135e+00  7.950000e+00 -1.025505e+00
    endloop
  endfacet
  facet normal -6.307601e-01 -7.037912e-01 -3.268326e-01
    outer loop
      vertex  -1.884522e+00  7.700000e+00 -6.697575e-01
      vertex  -1.979135e+00  7.950000e+00 -1.025505e+00
      vertex  -1.633940e+00  7.700000e+00 -1.153361e+00
    endloop
  endfacet
  facet normal -6.307602e-01 -7.037902e-01 -3.268348e-01
    outer loop
      vertex  -1.633940e+00  7.700000e+00 -1.153361e+00
      vertex  -1.979135e+00  7.950000e+00 -1.025505e+00
      vertex  -1.838182e+00  7.950000e+00 -1.297531e+00
    endloop
  endfacet
  facet normal -5.191919e-01 -7.037904e-01 -4.848905e-01
    outer loop
      vertex  -1.633940e+00  7.700000e+00 -1.153361e+00
      vertex  -1.838182e+00  7.950000e+00 -1.297531e+00
      vertex  -1.629065e+00  7.950000e+00 -1.521441e+00
    endloop
  endfacet
  facet normal -5.191907e-01 -7.037910e-01 -4.848910e-01
    outer loop
      vertex  -1.633940e+00  7.700000e+00 -1.153361e+00
      vertex  -1.629065e+00  7.950000e+00 -1.521441e+00
      vertex  -1.262176e+00  7.700000e+00 -1.551422e+00
    endloop
  endfacet
  facet normal -5.191905e-01 -7.037907e-01 -4.848915e-01
    outer loop
      vertex  -1.262176e+00  7.700000e+00 -1.551422e+00
      vertex  -1.629065e+00  7.950000e+00 -1.521441e+00
      vertex  -1.419948e+00  7.950000e+00 -1.745350e+00
    endloop
  endfacet
  facet normal -3.691169e-01 -7.037906e-01 -6.069856e-01
    outer loop
      vertex  -1.262176e+00  7.700000e+00 -1.551422e+00
      vertex  -1.419948e+00  7.950000e+00 -1.745350e+00
      vertex  -1.158175e+00  7.950000e+00 -1.904538e+00
    endloop
  endfacet
  facet normal -3.691169e-01 -7.037906e-01 -6.069856e-01
    outer loop
      vertex  -1.262176e+00  7.700000e+00 -1.551422e+00
      vertex  -1.158175e+00  7.950000e+00 -1.904538e+00
      vertex  -7.968041e-01  7.700000e+00 -1.834422e+00
    endloop
  endfacet
  facet normal -3.691160e-01 -7.037898e-01 -6.069871e-01
    outer loop
      vertex  -7.968041e-01  7.700000e+00 -1.834422e+00
      vertex  -1.158175e+00  7.950000e+00 -1.904538e+00
      vertex  -8.964025e-01  7.950000e+00 -2.063725e+00
    endloop
  endfacet
  facet normal -1.916657e-01 -7.037905e-01 -6.840637e-01
    outer loop
      vertex  -7.968041e-01  7.700000e+00 -1.834422e+00
      vertex  -8.964025e-01  7.950000e+00 -2.063725e+00
      vertex  -6.013887e-01  7.950000e+00 -2.146384e+00
    endloop
  endfacet
  facet normal -1.916662e-01 -7.037902e-01 -6.840639e-01
    outer loop
      vertex  -7.968041e-01  7.700000e+00 -1.834422e+00
      vertex  -6.013887e-01  7.950000e+00 -2.146384e+00
      vertex  -2.723333e-01  7.700000e+00 -1.981372e+00
    endloop
  endfacet
  facet normal -1.916658e-01 -7.037899e-01 -6.840642e-01
    outer loop
      vertex  -2.723333e-01  7.700000e+00 -1.981372e+00
      vertex  -6.013887e-01  7.950000e+00 -2.146384e+00
      vertex  -3.063749e-01  7.950000e+00 -2.229043e+00
    endloop
  endfacet
  facet normal -4.831073e-02 -7.062805e-01 -7.062818e-01
    outer loop
      vertex  -2.723333e-01  7.700000e+00 -1.981372e+00
      vertex  -3.063749e-01  7.950000e+00 -2.229043e+00
      vertex   7.347881e-16  7.700000e+00 -2.000000e+00
    endloop
  endfacet
  facet normal -4.831182e-02 -7.062811e-01 -7.062811e-01
    outer loop
      vertex   7.347881e-16  7.700000e+00 -2.000000e+00
      vertex  -3.063749e-01  7.950000e+00 -2.229043e+00
      vertex   2.755455e-16  7.950000e+00 -2.250000e+00
    endloop
  endfacet
  facet normal  4.831143e-02 -7.062811e-01 -7.062811e-01
    outer loop
      vertex   7.347881e-16  7.700000e+00 -2.000000e+00
      vertex   2.755455e-16  7.950000e+00 -2.250000e+00
      vertex   2.723342e-01  7.700000e+00 -1.981372e+00
    endloop
  endfacet
  facet normal  4.831183e-02 -7.062809e-01 -7.062813e-01
    outer loop
      vertex   2.723342e-01  7.700000e+00 -1.981372e+00
      vertex   2.755455e-16  7.950000e+00 -2.250000e+00
      vertex   3.063749e-01  7.950000e+00 -2.229043e+00
    endloop
  endfacet
  facet normal  1.916658e-01 -7.037901e-01 -6.840641e-01
    outer loop
      vertex   2.723342e-01  7.700000e+00 -1.981372e+00
      vertex   3.063749e-01  7.950000e+00 -2.229043e+00
      vertex   6.013887e-01  7.950000e+00 -2.146384e+00
    endloop
  endfacet
  facet normal  1.916652e-01 -7.037897e-01 -6.840646e-01
    outer loop
      vertex   2.723342e-01  7.700000e+00 -1.981372e+00
      vertex   6.013887e-01  7.950000e+00 -2.146384e+00
      vertex   7.968007e-01  7.700000e+00 -1.834424e+00
    endloop
  endfacet
  facet normal  1.916660e-01 -7.037894e-01 -6.840648e-01
    outer loop
      vertex   7.968007e-01  7.700000e+00 -1.834424e+00
      vertex   6.013887e-01  7.950000e+00 -2.146384e+00
      vertex   8.964025e-01  7.950000e+00 -2.063725e+00
    endloop
  endfacet
  facet normal  3.691158e-01 -7.037901e-01 -6.069868e-01
    outer loop
      vertex   7.968007e-01  7.700000e+00 -1.834424e+00
      vertex   8.964025e-01  7.950000e+00 -2.063725e+00
      vertex   1.158175e+00  7.950000e+00 -1.904538e+00
    endloop
  endfacet
  facet normal  3.691169e-01 -7.037911e-01 -6.069850e-01
    outer loop
      vertex   7.968007e-01  7.700000e+00 -1.834424e+00
      vertex   1.158175e+00  7.950000e+00 -1.904538e+00
      vertex   1.262176e+00  7.700000e+00 -1.551422e+00
    endloop
  endfacet
  facet normal  3.691166e-01 -7.037913e-01 -6.069850e-01
    outer loop
      vertex   1.262176e+00  7.700000e+00 -1.551422e+00
      vertex   1.158175e+00  7.950000e+00 -1.904538e+00
      vertex   1.419948e+00  7.950000e+00 -1.745350e+00
    endloop
  endfacet
  facet normal  5.191903e-01 -7.037911e-01 -4.848913e-01
    outer loop
      vertex   1.262176e+00  7.700000e+00 -1.551422e+00
      vertex   1.419948e+00  7.950000e+00 -1.745350e+00
      vertex   1.838181e+00  7.949999e+00 -1.297532e+00
    endloop
  endfacet
  facet normal  5.191904e-01 -7.037911e-01 -4.848913e-01
    outer loop
      vertex   1.262176e+00  7.700000e+00 -1.551422e+00
      vertex   1.838181e+00  7.949999e+00 -1.297532e+00
      vertex   1.633940e+00  7.700000e+00 -1.153361e+00
    endloop
  endfacet
  facet normal  6.307607e-01 -7.037905e-01 -3.268330e-01
    outer loop
      vertex   1.633940e+00  7.700000e+00 -1.153361e+00
      vertex   1.838181e+00  7.949999e+00 -1.297532e+00
      vertex   1.884523e+00  7.700000e+00 -6.697572e-01
    endloop
  endfacet
  facet normal  6.307592e-01 -7.037917e-01 -3.268333e-01
    outer loop
      vertex   1.884523e+00  7.700000e+00 -6.697572e-01
      vertex   1.838181e+00  7.949999e+00 -1.297532e+00
      vertex   2.120087e+00  7.949999e+00 -7.534794e-01
    endloop
  endfacet
  facet normal  6.955486e-01 -7.037908e-01 -1.445362e-01
    outer loop
      vertex   1.884523e+00  7.700000e+00 -6.697572e-01
      vertex   2.120087e+00  7.949999e+00 -7.534794e-01
      vertex   1.995337e+00  7.700000e+00 -1.364878e-01
    endloop
  endfacet
  facet normal  6.955471e-01 -7.037920e-01 -1.445370e-01
    outer loop
      vertex   1.995337e+00  7.700000e+00 -1.364878e-01
      vertex   2.120087e+00  7.949999e+00 -7.534794e-01
      vertex   2.244755e+00  7.949999e+00 -1.535463e-01
    endloop
  endfacet
  facet normal  7.087491e-01 -7.037929e-01  4.847969e-02
    outer loop
      vertex   1.995337e+00  7.700000e+00 -1.364878e-01
      vertex   2.244755e+00  7.949999e+00 -1.535463e-01
      vertex   1.958167e+00  7.700000e+00  4.069130e-01
    endloop
  endfacet
  facet normal  7.087502e-01 -7.037916e-01  4.848086e-02
    outer loop
      vertex   1.958167e+00  7.700000e+00  4.069130e-01
      vertex   2.244755e+00  7.949999e+00 -1.535463e-01
      vertex   2.202939e+00  7.950000e+00  4.577760e-01
    endloop
  endfacet
  facet normal  6.693888e-01 -7.037911e-01  2.379004e-01
    outer loop
      vertex   1.958167e+00  7.700000e+00  4.069130e-01
      vertex   2.202939e+00  7.950000e+00  4.577760e-01
      vertex   1.997744e+00  7.950000e+00  1.035142e+00
    endloop
  endfacet
  facet normal  6.693881e-01 -7.037917e-01  2.379007e-01
    outer loop
      vertex   1.958167e+00  7.700000e+00  4.069130e-01
      vertex   1.997744e+00  7.950000e+00  1.035142e+00
      vertex   1.775769e+00  7.700000e+00  9.201327e-01
    endloop
  endfacet
  facet normal  5.803830e-01 -7.037888e-01  4.096791e-01
    outer loop
      vertex   1.775769e+00  7.700000e+00  9.201327e-01
      vertex   1.997744e+00  7.950000e+00  1.035142e+00
      vertex   1.461673e+00  7.700000e+00  1.365106e+00
    endloop
  endfacet
  facet normal  5.803824e-01 -7.037907e-01  4.096766e-01
    outer loop
      vertex   1.461673e+00  7.700000e+00  1.365106e+00
      vertex   1.997744e+00  7.950000e+00  1.035142e+00
      vertex   1.644381e+00  7.950000e+00  1.535745e+00
    endloop
  endfacet
  facet normal  4.483277e-01 -7.037912e-01  5.510717e-01
    outer loop
      vertex   1.461673e+00  7.700000e+00  1.365106e+00
      vertex   1.644381e+00  7.950000e+00  1.535745e+00
      vertex   1.406722e+00  7.950000e+00  1.729094e+00
    endloop
  endfacet
  facet normal  4.483300e-01 -7.037901e-01  5.510713e-01
    outer loop
      vertex   1.461673e+00  7.700000e+00  1.365106e+00
      vertex   1.406722e+00  7.950000e+00  1.729094e+00
      vertex   1.039167e+00  7.700000e+00  1.708839e+00
    endloop
  endfacet
  facet normal  4.483306e-01 -7.037909e-01  5.510698e-01
    outer loop
      vertex   1.039167e+00  7.700000e+00  1.708839e+00
      vertex   1.406722e+00  7.950000e+00  1.729094e+00
      vertex   1.169064e+00  7.950000e+00  1.922444e+00
    endloop
  endfacet
  facet normal  2.830265e-01 -7.037908e-01  6.515938e-01
    outer loop
      vertex   1.039167e+00  7.700000e+00  1.708839e+00
      vertex   1.169064e+00  7.950000e+00  1.922444e+00
      vertex   8.880533e-01  7.950000e+00  2.044504e+00
    endloop
  endfacet
  facet normal  2.830276e-01 -7.037902e-01  6.515939e-01
    outer loop
      vertex   1.039167e+00  7.700000e+00  1.708839e+00
      vertex   8.880533e-01  7.950000e+00  2.044504e+00
      vertex   5.395942e-01  7.700000e+00  1.925835e+00
    endloop
  endfacet
  facet normal  2.830272e-01 -7.037899e-01  6.515945e-01
    outer loop
      vertex   5.395942e-01  7.700000e+00  1.925835e+00
      vertex   8.880533e-01  7.950000e+00  2.044504e+00
      vertex   6.070427e-01  7.950000e+00  2.166564e+00
    endloop
  endfacet
  facet normal  9.673379e-02 -7.037902e-01  7.037912e-01
    outer loop
      vertex   5.395942e-01  7.700000e+00  1.925835e+00
      vertex   6.070427e-01  7.950000e+00  2.166564e+00
      vertex   3.035214e-01  7.950000e+00  2.208282e+00
    endloop
  endfacet
  facet normal  9.673313e-02 -7.037905e-01  7.037909e-01
    outer loop
      vertex   5.395942e-01  7.700000e+00  1.925835e+00
      vertex   3.035214e-01  7.950000e+00  2.208282e+00
      vertex  -9.002786e-07  7.700000e+00  2.000000e+00
    endloop
  endfacet
  facet normal  9.673366e-02 -7.037908e-01  7.037905e-01
    outer loop
      vertex  -9.002786e-07  7.700000e+00  2.000000e+00
      vertex   3.035214e-01  7.950000e+00  2.208282e+00
      vertex   2.755455e-16  7.950000e+00  2.250000e+00
    endloop
  endfacet
  facet normal -9.673370e-02 -7.037905e-01  7.037908e-01
    outer loop
      vertex  -9.002786e-07  7.700000e+00  2.000000e+00
      vertex   2.755455e-16  7.950000e+00  2.250000e+00
      vertex  -3.035214e-01  7.950000e+00  2.208282e+00
    endloop
  endfacet
  facet normal -9.673329e-02 -7.037902e-01  7.037911e-01
    outer loop
      vertex  -9.002786e-07  7.700000e+00  2.000000e+00
      vertex  -3.035214e-01  7.950000e+00  2.208282e+00
      vertex  -5.395945e-01  7.700000e+00  1.925835e+00
    endloop
  endfacet
  facet normal -9.673382e-02 -7.037899e-01  7.037913e-01
    outer loop
      vertex  -5.395945e-01  7.700000e+00  1.925835e+00
      vertex  -3.035214e-01  7.950000e+00  2.208282e+00
      vertex  -6.070427e-01  7.950000e+00  2.166564e+00
    endloop
  endfacet
  facet normal -2.830273e-01 -7.037897e-01  6.515947e-01
    outer loop
      vertex  -5.395945e-01  7.700000e+00  1.925835e+00
      vertex  -6.070427e-01  7.950000e+00  2.166564e+00
      vertex  -8.880533e-01  7.950000e+00  2.044504e+00
    endloop
  endfacet
  facet normal -2.830275e-01 -7.037898e-01  6.515946e-01
    outer loop
      vertex  -5.395945e-01  7.700000e+00  1.925835e+00
      vertex  -8.880533e-01  7.950000e+00  2.044504e+00
      vertex  -1.039166e+00  7.700000e+00  1.708840e+00
    endloop
  endfacet
  facet normal -2.830268e-01 -7.037901e-01  6.515945e-01
    outer loop
      vertex  -1.039166e+00  7.700000e+00  1.708840e+00
      vertex  -8.880533e-01  7.950000e+00  2.044504e+00
      vertex  -1.169064e+00  7.950000e+00  1.922444e+00
    endloop
  endfacet
  facet normal -4.483308e-01 -7.037908e-01  5.510700e-01
    outer loop
      vertex  -1.039166e+00  7.700000e+00  1.708840e+00
      vertex  -1.169064e+00  7.950000e+00  1.922444e+00
      vertex  -1.406722e+00  7.950000e+00  1.729094e+00
    endloop
  endfacet
  facet normal -4.483303e-01 -7.037901e-01  5.510711e-01
    outer loop
      vertex  -1.039166e+00  7.700000e+00  1.708840e+00
      vertex  -1.406722e+00  7.950000e+00  1.729094e+00
      vertex  -1.461672e+00  7.700000e+00  1.365106e+00
    endloop
  endfacet
  facet normal -4.483277e-01 -7.037915e-01  5.510716e-01
    outer loop
      vertex  -1.461672e+00  7.700000e+00  1.365106e+00
      vertex  -1.406722e+00  7.950000e+00  1.729094e+00
      vertex  -1.644381e+00  7.950000e+00  1.535745e+00
    endloop
  endfacet
  facet normal -5.803807e-01 -7.037914e-01  4.096778e-01
    outer loop
      vertex  -1.461672e+00  7.700000e+00  1.365106e+00
      vertex  -1.644381e+00  7.950000e+00  1.535745e+00
      vertex  -1.775770e+00  7.700000e+00  9.201302e-01
    endloop
  endfacet
  facet normal -5.803843e-01 -7.037887e-01  4.096774e-01
    outer loop
      vertex  -1.775770e+00  7.700000e+00  9.201302e-01
      vertex  -1.644381e+00  7.950000e+00  1.535745e+00
      vertex  -1.821061e+00  7.950000e+00  1.285445e+00
    endloop
  endfacet
  facet normal -5.803807e-01 -7.037906e-01  4.096792e-01
    outer loop
      vertex  -1.775770e+00  7.700000e+00  9.201302e-01
      vertex  -1.821061e+00  7.950000e+00  1.285445e+00
      vertex  -1.997742e+00  7.950000e+00  1.035146e+00
    endloop
  endfacet
  facet normal -6.693889e-01 -7.037909e-01  2.379008e-01
    outer loop
      vertex  -1.775770e+00  7.700000e+00  9.201302e-01
      vertex  -1.997742e+00  7.950000e+00  1.035146e+00
      vertex  -1.958168e+00  7.700000e+00  4.069134e-01
    endloop
  endfacet
  facet normal -6.693876e-01 -7.037920e-01  2.379014e-01
    outer loop
      vertex  -1.958168e+00  7.700000e+00  4.069134e-01
      vertex  -1.997742e+00  7.950000e+00  1.035146e+00
      vertex  -2.100341e+00  7.950000e+00  7.464612e-01
    endloop
  endfacet
  facet normal -6.693898e-01 -7.037905e-01  2.378994e-01
    outer loop
      vertex  -1.958168e+00  7.700000e+00  4.069134e-01
      vertex  -2.100341e+00  7.950000e+00  7.464612e-01
      vertex  -2.202939e+00  7.950000e+00  4.577760e-01
    endloop
  endfacet
  facet normal -7.087510e-01 -7.037910e-01  4.847987e-02
    outer loop
      vertex  -1.958168e+00  7.700000e+00  4.069134e-01
      vertex  -2.202939e+00  7.950000e+00  4.577760e-01
      vertex  -2.244755e+00  7.950000e+00 -1.535456e-01
    endloop
  endfacet
  facet normal  1.000000e+00  3.131967e-08  0.000000e+00
    outer loop
      vertex   1.550000e+00  1.750621e+01  1.630951e+00
      vertex   1.550000e+00  1.370000e+01  1.630951e+00
      vertex   1.550000e+00  1.370000e+01 -1.630951e+00
    endloop
  endfacet
  facet normal  1.000000e+00  0.000000e+00  0.000000e+00
    outer loop
      vertex   1.550000e+00  1.761768e+01  1.579943e+00
      vertex   1.550000e+00  1.370000e+01 -1.630951e+00
      vertex   1.550000e+00  1.754323e+01 -1.630947e+00
    endloop
  endfacet
  facet normal  3.402403e-01  8.762124e-01  3.413038e-01
    outer loop
      vertex   1.223094e+00  1.769996e+01  1.694590e+00
      vertex   1.550000e+00  1.761768e+01  1.579943e+00
      vertex   1.549999e+00  1.770000e+01  1.368605e+00
    endloop
  endfacet
  facet normal  1.000000e+00  1.503419e-05 -3.485912e-07
    outer loop
      vertex   1.549999e+00  1.770000e+01  1.368605e+00
      vertex   1.550000e+00  1.761768e+01  1.579943e+00
      vertex   1.550000e+00  1.754323e+01 -1.630947e+00
    endloop
  endfacet
  facet normal  1.000000e+00 -6.862915e-07  8.373583e-07
    outer loop
      vertex   1.550000e+00  1.370000e+01 -1.630951e+00
      vertex   1.550000e+00  1.761768e+01  1.579943e+00
      vertex   1.550000e+00  1.750621e+01  1.630951e+00
    endloop
  endfacet
  facet normal  1.000000e+00  1.606235e-05 -4.023281e-07
    outer loop
      vertex   1.550000e+00  1.754323e+01 -1.630947e+00
      vertex   1.549998e+00  1.767256e+01 -1.504653e+00
      vertex   1.549999e+00  1.770000e+01  1.368605e+00
    endloop
  endfacet
  facet normal  0.000000e+00  1.000000e+00  0.000000e+00
    outer loop
      vertex   1.644381e+00  1.370000e+01 -1.535745e+00
      vertex   1.550000e+00  1.370000e+01 -1.630951e+00
      vertex   1.550000e+00  1.370000e+01  1.630951e+00
    endloop
  endfacet
  facet normal  0.000000e+00  1.000000e+00  0.000000e+00
    outer loop
      vertex   2.120087e+00  1.370000e+01  7.534791e-01
      vertex   2.244755e+00  1.370000e+01  1.535454e-01
      vertex   2.202939e+00  1.370000e+01 -4.577760e-01
    endloop
  endfacet
  facet normal  0.000000e+00  1.000000e+00  0.000000e+00
    outer loop
      vertex   1.550000e+00  1.370000e+01  1.630951e+00
      vertex   1.838182e+00  1.370000e+01  1.297531e+00
      vertex   1.644381e+00  1.370000e+01 -1.535745e+00
    endloop
  endfacet
  facet normal  0.000000e+00  1.000000e+00  0.000000e+00
    outer loop
      vertex   1.644381e+00  1.370000e+01 -1.535745e+00
      vertex   1.838182e+00  1.370000e+01  1.297531e+00
      vertex   2.120087e+00  1.370000e+01  7.534791e-01
    endloop
  endfacet
  facet normal  0.000000e+00  1.000000e+00  0.000000e+00
    outer loop
      vertex   1.644381e+00  1.370000e+01 -1.535745e+00
      vertex   2.120087e+00  1.370000e+01  7.534791e-01
      vertex   1.997742e+00  1.370000e+01 -1.035146e+00
    endloop
  endfacet
  facet normal  0.000000e+00  1.000000e+00  0.000000e+00
    outer loop
      vertex   1.997742e+00  1.370000e+01 -1.035146e+00
      vertex   2.120087e+00  1.370000e+01  7.534791e-01
      vertex   2.202939e+00  1.370000e+01 -4.577760e-01
    endloop
  endfacet
  facet normal  6.195817e-01  6.802792e-01  3.915849e-01
    outer loop
      vertex  -1.200000e+00  1.770000e+01 -5.000000e-01
      vertex  -1.088409e+00  1.759875e+01 -5.006690e-01
      vertex  -9.665872e-01  1.770000e+01 -8.693154e-01
    endloop
  endfacet
  facet normal  6.174199e-01  6.740628e-01 -4.055022e-01
    outer loop
      vertex  -1.090871e+00  1.760000e+01  5.000000e-01
      vertex  -1.200052e+00  1.770001e+01  5.000000e-01
      vertex  -9.483180e-01  1.760000e+01  7.170519e-01
    endloop
  endfacet
  facet normal  6.073353e-01  6.955213e-01 -3.839193e-01
    outer loop
      vertex  -9.483180e-01  1.760000e+01  7.170519e-01
      vertex  -1.200052e+00  1.770001e+01  5.000000e-01
      vertex  -9.665872e-01  1.770000e+01  8.693154e-01
    endloop
  endfacet
  facet normal  5.949764e-01  7.029583e-01  3.896829e-01
    outer loop
      vertex  -1.088409e+00  1.759875e+01 -5.006690e-01
      vertex  -8.922356e-01  1.760000e+01 -8.024440e-01
      vertex  -9.665872e-01  1.770000e+01 -8.693154e-01
    endloop
  endfacet
  facet normal  4.333209e-01  7.009735e-01  5.664531e-01
    outer loop
      vertex  -9.665872e-01  1.770000e+01 -8.693154e-01
      vertex  -8.922356e-01  1.760000e+01 -8.024440e-01
      vertex  -5.860810e-01  1.770000e+01 -1.160392e+00
    endloop
  endfacet
  facet normal  4.333183e-01  7.009763e-01  5.664516e-01
    outer loop
      vertex  -8.922356e-01  1.760000e+01 -8.024440e-01
      vertex  -5.409951e-01  1.760000e+01 -1.071132e+00
      vertex  -5.860810e-01  1.770000e+01 -1.160392e+00
    endloop
  endfacet
  facet normal  1.987233e-01  7.009721e-01  6.849431e-01
    outer loop
      vertex  -5.860810e-01  1.770000e+01 -1.160392e+00
      vertex  -5.409951e-01  1.760000e+01 -1.071132e+00
      vertex  -1.259820e-01  1.770000e+01 -1.293881e+00
    endloop
  endfacet
  facet normal  1.987253e-01  7.009691e-01  6.849456e-01
    outer loop
      vertex  -5.409951e-01  1.760000e+01 -1.071132e+00
      vertex  -1.162942e-01  1.760000e+01 -1.194352e+00
      vertex  -1.259820e-01  1.770000e+01 -1.293881e+00
    endloop
  endfacet
  facet normal -6.286128e-02  7.009733e-01  7.104117e-01
    outer loop
      vertex  -1.259820e-01  1.770000e+01 -1.293881e+00
      vertex  -1.162942e-01  1.760000e+01 -1.194352e+00
      vertex   3.512259e-01  1.770000e+01 -1.251655e+00
    endloop
  endfacet
  facet normal -6.286100e-02  7.009726e-01  7.104126e-01
    outer loop
      vertex  -1.162942e-01  1.760000e+01 -1.194352e+00
      vertex   3.242086e-01  1.760000e+01 -1.155374e+00
      vertex   3.512259e-01  1.770000e+01 -1.251655e+00
    endloop
  endfacet
  facet normal -3.159092e-01  7.009726e-01  6.394050e-01
    outer loop
      vertex   3.512259e-01  1.770000e+01 -1.251655e+00
      vertex   3.242086e-01  1.760000e+01 -1.155374e+00
      vertex   7.206790e-01  1.760000e+01 -9.594909e-01
    endloop
  endfacet
  facet normal -3.159097e-01  7.009721e-01  6.394053e-01
    outer loop
      vertex   3.512259e-01  1.770000e+01 -1.251655e+00
      vertex   7.206790e-01  1.760000e+01 -9.594909e-01
      vertex   7.807356e-01  1.770000e+01 -1.039448e+00
    endloop
  endfacet
  facet normal -5.260556e-01  7.009724e-01  4.815632e-01
    outer loop
      vertex   7.807356e-01  1.770000e+01 -1.039448e+00
      vertex   7.206790e-01  1.760000e+01 -9.594909e-01
      vertex   1.104218e+00  1.770000e+01 -6.860785e-01
    endloop
  endfacet
  facet normal -5.260551e-01  7.009737e-01  4.815618e-01
    outer loop
      vertex   7.206790e-01  1.760000e+01 -9.594909e-01
      vertex   1.019278e+00  1.760000e+01 -6.333032e-01
      vertex   1.104218e+00  1.770000e+01 -6.860785e-01
    endloop
  endfacet
  facet normal -6.647601e-01  7.009739e-01  2.583210e-01
    outer loop
      vertex   1.104218e+00  1.770000e+01 -6.860785e-01
      vertex   1.019278e+00  1.760000e+01 -6.333032e-01
      vertex   1.179452e+00  1.760000e+01 -2.211130e-01
    endloop
  endfacet
  facet normal -6.647606e-01  7.009733e-01  2.583210e-01
    outer loop
      vertex   1.104218e+00  1.770000e+01 -6.860785e-01
      vertex   1.179452e+00  1.760000e+01 -2.211130e-01
      vertex   1.277741e+00  1.770000e+01 -2.395362e-01
    endloop
  endfacet
  facet normal -7.131838e-01  7.009770e-01  0.000000e+00
    outer loop
      vertex   1.277741e+00  1.770000e+01 -2.395362e-01
      vertex   1.179452e+00  1.760000e+01 -2.211130e-01
      vertex   1.277741e+00  1.770000e+01  2.395362e-01
    endloop
  endfacet
  facet normal -7.131839e-01  7.009770e-01  0.000000e+00
    outer loop
      vertex   1.179452e+00  1.760000e+01 -2.211130e-01
      vertex   1.179452e+00  1.760000e+01  2.211128e-01
      vertex   1.277741e+00  1.770000e+01  2.395362e-01
    endloop
  endfacet
  facet normal -6.647604e-01  7.009736e-01 -2.583208e-01
    outer loop
      vertex   1.277741e+00  1.770000e+01  2.395362e-01
      vertex   1.179452e+00  1.760000e+01  2.211128e-01
      vertex   1.104218e+00  1.770000e+01  6.860785e-01
    endloop
  endfacet
  facet normal -6.647617e-01  7.009723e-01 -2.583208e-01
    outer loop
      vertex   1.179452e+00  1.760000e+01  2.211128e-01
      vertex   1.019279e+00  1.760000e+01  6.333006e-01
      vertex   1.104218e+00  1.770000e+01  6.860785e-01
    endloop
  endfacet
  facet normal -5.260528e-01  7.009764e-01 -4.815606e-01
    outer loop
      vertex   1.104218e+00  1.770000e+01  6.860785e-01
      vertex   1.019279e+00  1.760000e+01  6.333006e-01
      vertex   7.807356e-01  1.770000e+01  1.039448e+00
    endloop
  endfacet
  facet normal -5.260547e-01  7.009745e-01 -4.815612e-01
    outer loop
      vertex   1.019279e+00  1.760000e+01  6.333006e-01
      vertex   7.206778e-01  1.760000e+01  9.594914e-01
      vertex   7.807356e-01  1.770000e+01  1.039448e+00
    endloop
  endfacet
  facet normal -3.159095e-01  7.009725e-01 -6.394050e-01
    outer loop
      vertex   7.807356e-01  1.770000e+01  1.039448e+00
      vertex   7.206778e-01  1.760000e+01  9.594914e-01
      vertex   3.512259e-01  1.770000e+01  1.251655e+00
    endloop
  endfacet
  facet normal -3.159094e-01  7.009726e-01 -6.394050e-01
    outer loop
      vertex   7.206778e-01  1.760000e+01  9.594914e-01
      vertex   3.242086e-01  1.760000e+01  1.155374e+00
      vertex   3.512259e-01  1.770000e+01  1.251655e+00
    endloop
  endfacet
  facet normal -6.285969e-02  7.009724e-01 -7.104128e-01
    outer loop
      vertex   3.512259e-01  1.770000e+01  1.251655e+00
      vertex   3.242086e-01  1.760000e+01  1.155374e+00
      vertex  -1.162941e-01  1.760000e+01  1.194351e+00
    endloop
  endfacet
  facet normal -6.286102e-02  7.009764e-01 -7.104088e-01
    outer loop
      vertex   3.512259e-01  1.770000e+01  1.251655e+00
      vertex  -1.162941e-01  1.760000e+01  1.194351e+00
      vertex  -1.259820e-01  1.770000e+01  1.293881e+00
    endloop
  endfacet
  facet normal  1.987232e-01  7.009722e-01 -6.849431e-01
    outer loop
      vertex  -1.259820e-01  1.770000e+01  1.293881e+00
      vertex  -1.162941e-01  1.760000e+01  1.194351e+00
      vertex  -5.860810e-01  1.770000e+01  1.160392e+00
    endloop
  endfacet
  facet normal  2.003588e-01  7.131180e-01 -6.718029e-01
    outer loop
      vertex  -1.162941e-01  1.760000e+01  1.194351e+00
      vertex  -5.572745e-01  1.760021e+01  1.063060e+00
      vertex  -5.860810e-01  1.770000e+01  1.160392e+00
    endloop
  endfacet
  facet normal  4.404720e-01  6.887940e-01 -5.758014e-01
    outer loop
      vertex  -5.860810e-01  1.770000e+01  1.160392e+00
      vertex  -5.572745e-01  1.760021e+01  1.063060e+00
      vertex  -9.665872e-01  1.770000e+01  8.693154e-01
    endloop
  endfacet
  facet normal  4.113430e-01  7.837290e-01 -4.653664e-01
    outer loop
      vertex  -9.665872e-01  1.770000e+01  8.693154e-01
      vertex  -5.572745e-01  1.760021e+01  1.063060e+00
      vertex  -9.483180e-01  1.760000e+01  7.170519e-01
    endloop
  endfacet
  facet normal  8.358489e-01  0.000000e+00 -5.489596e-01
    outer loop
      vertex  -9.483180e-01  1.760000e+01  7.170519e-01
      vertex  -1.090871e+00  1.670000e+01  5.000000e-01
      vertex  -1.090871e+00  1.760000e+01  5.000000e-01
    endloop
  endfacet
  facet normal  0.000000e+00  6.965589e-08 -1.000000e+00
    outer loop
      vertex  -1.090871e+00  1.670000e+01  5.000000e-01
      vertex  -2.193741e+00  1.670000e+01  5.000000e-01
      vertex  -2.193342e+00  1.755570e+01  5.000001e-01
    endloop
  endfacet
  facet normal  2.729630e-07  0.000000e+00 -1.000000e+00
    outer loop
      vertex  -1.200052e+00  1.770001e+01  5.000000e-01
      vertex  -1.090871e+00  1.760000e+01  5.000000e-01
      vertex  -1.090871e+00  1.670000e+01  5.000000e-01
    endloop
  endfacet
  facet normal  4.639483e-07  2.085181e-08 -1.000000e+00
    outer loop
      vertex  -1.200052e+00  1.770001e+01  5.000000e-01
      vertex  -1.090871e+00  1.670000e+01  5.000000e-01
      vertex  -2.098169e+00  1.767352e+01  4.999996e-01
    endloop
  endfacet
  facet normal -2.084727e-06 -2.616270e-06 -1.000000e+00
    outer loop
      vertex  -2.193342e+00  1.755570e+01  5.000001e-01
      vertex  -2.098169e+00  1.767352e+01  4.999996e-01
      vertex  -1.090871e+00  1.670000e+01  5.000000e-01
    endloop
  endfacet
  facet normal  0.000000e+00 -6.938586e-08  1.000000e+00
    outer loop
      vertex  -2.193575e+00  1.755903e+01 -4.999999e-01
      vertex  -2.193741e+00  1.670000e+01 -5.000000e-01
      vertex  -1.090871e+00  1.670000e+01 -5.000000e-01
    endloop
  endfacet
  facet normal  6.653801e-03  7.261231e-04  9.999776e-01
    outer loop
      vertex  -1.088409e+00  1.759875e+01 -5.006690e-01
      vertex  -1.200000e+00  1.770000e+01 -5.000000e-01
      vertex  -1.090871e+00  1.670000e+01 -5.000000e-01
    endloop
  endfacet
  facet normal -2.097424e-07 -2.288899e-08  1.000000e+00
    outer loop
      vertex  -1.090871e+00  1.670000e+01 -5.000000e-01
      vertex  -1.200000e+00  1.770000e+01 -5.000000e-01
      vertex  -2.052430e+00  1.769899e+01 -5.000002e-01
    endloop
  endfacet
  facet normal  7.734669e-07  9.234819e-07  1.000000e+00
    outer loop
      vertex  -1.090871e+00  1.670000e+01 -5.000000e-01
      vertex  -2.052430e+00  1.769899e+01 -5.000002e-01
      vertex  -2.193575e+00  1.755903e+01 -4.999999e-01
    endloop
  endfacet
  facet normal  0.000000e+00  1.000000e+00  0.000000e+00
    outer loop
      vertex  -1.194881e+00  1.670000e+01 -1.107220e-01
      vertex  -1.090871e+00  1.670000e+01 -5.000000e-01
      vertex  -2.193741e+00  1.670000e+01 -5.000000e-01
    endloop
  endfacet
  facet normal  0.000000e+00  1.000000e+00 -0.000000e+00
    outer loop
      vertex  -2.193741e+00  1.670000e+01 -5.000000e-01
      vertex  -2.202939e+00  1.670000e+01 -4.577760e-01
      vertex  -1.194881e+00  1.670000e+01 -1.107220e-01
    endloop
  endfacet
  facet normal  0.000000e+00  1.000000e+00  0.000000e+00
    outer loop
      vertex  -1.194881e+00  1.670000e+01 -1.107220e-01
      vertex  -2.202939e+00  1.670000e+01 -4.577760e-01
      vertex  -2.244755e+00  1.670000e+01  1.535454e-01
    endloop
  endfacet
  facet normal  0.000000e+00  1.000000e+00 -0.000000e+00
    outer loop
      vertex  -1.194881e+00  1.670000e+01 -1.107220e-01
      vertex  -2.244755e+00  1.670000e+01  1.535454e-01
      vertex  -1.154191e+00  1.670000e+01  3.283956e-01
    endloop
  endfacet
  facet normal  0.000000e+00  1.000000e+00  0.000000e+00
    outer loop
      vertex  -1.154191e+00  1.670000e+01  3.283956e-01
      vertex  -2.244755e+00  1.670000e+01  1.535454e-01
      vertex  -2.193741e+00  1.670000e+01  5.000000e-01
    endloop
  endfacet
  facet normal  0.000000e+00  1.000000e+00 -0.000000e+00
    outer loop
      vertex  -1.154191e+00  1.670000e+01  3.283956e-01
      vertex  -2.193741e+00  1.670000e+01  5.000000e-01
      vertex  -1.090871e+00  1.670000e+01  5.000000e-01
    endloop
  endfacet
endsolid vcg
