solid STL generated by MeshLab
  facet normal  4.453686e-01  3.904154e-01  8.057436e-01
    outer loop
      vertex   1.421262e+00  9.508300e+00  1.744030e+00
      vertex   1.550000e+00  9.594946e+00  1.630888e+00
      vertex   7.877961e-01  9.699576e+00  2.001493e+00
    endloop
  endfacet
  facet normal -8.363810e-01  3.457441e-01  4.253561e-01
    outer loop
      vertex  -1.837509e+00  9.695455e+00  1.157570e+00
      vertex  -2.182318e+00  9.670326e+00  4.999938e-01
      vertex  -2.074253e+00  9.474869e+00  8.713581e-01
    endloop
  endfacet
  facet normal -2.906586e-02  9.993141e-01 -2.294628e-02
    outer loop
      vertex  -1.837509e+00  9.695455e+00  1.157570e+00
      vertex  -1.102387e+00  9.701736e+00  4.999738e-01
      vertex  -2.182318e+00  9.670326e+00  4.999938e-01
    endloop
  endfacet
  facet normal -8.362998e-01  3.502232e-01  4.218368e-01
    outer loop
      vertex  -1.837509e+00  9.695455e+00  1.157570e+00
      vertex  -2.074253e+00  9.474869e+00  8.713581e-01
      vertex  -1.878809e+00  9.499990e+00  1.237973e+00
    endloop
  endfacet
  facet normal -7.189434e-01  3.888816e-01  5.761003e-01
    outer loop
      vertex  -1.837509e+00  9.695455e+00  1.157570e+00
      vertex  -1.878809e+00  9.499990e+00  1.237973e+00
      vertex  -1.617664e+00  9.500000e+00  1.563862e+00
    endloop
  endfacet
  facet normal -5.945650e-01  5.501413e-01  5.863762e-01
    outer loop
      vertex  -1.837509e+00  9.695455e+00  1.157570e+00
      vertex  -1.617664e+00  9.500000e+00  1.563862e+00
      vertex  -1.300192e+00  9.552546e+00  1.836469e+00
    endloop
  endfacet
  facet normal -6.513551e-01 -1.134540e-03  7.587723e-01
    outer loop
      vertex  -1.300192e+00  9.552546e+00  1.836469e+00
      vertex  -1.617664e+00  9.500000e+00  1.563862e+00
      vertex  -1.414135e+00  9.500000e+00  1.738578e+00
    endloop
  endfacet
  facet normal -3.888800e-01  3.794573e-01  8.395144e-01
    outer loop
      vertex  -1.300192e+00  9.552546e+00  1.836469e+00
      vertex  -9.421549e-01  9.463855e+00  2.042407e+00
      vertex  -7.695562e-01  9.698964e+00  2.016089e+00
    endloop
  endfacet
  facet normal -3.408492e-01  3.479837e-01  8.733436e-01
    outer loop
      vertex  -7.695562e-01  9.698964e+00  2.016089e+00
      vertex  -9.421549e-01  9.463855e+00  2.042407e+00
      vertex  -5.450681e-01  9.500000e+00  2.182980e+00
    endloop
  endfacet
  facet normal -2.623750e-01  4.289926e-01  8.643638e-01
    outer loop
      vertex  -7.695562e-01  9.698964e+00  2.016089e+00
      vertex  -5.450681e-01  9.500000e+00  2.182980e+00
      vertex  -1.239340e-01  9.629904e+00  2.246341e+00
    endloop
  endfacet
  facet normal  1.548740e-01  3.408450e-01  9.272749e-01
    outer loop
      vertex  -1.239340e-01  9.629904e+00  2.246341e+00
      vertex   2.834454e-01  9.484628e+00  2.231701e+00
      vertex   6.945670e-01  9.546233e+00  2.140390e+00
    endloop
  endfacet
  facet normal  4.293956e-01  7.549906e-01  4.955890e-01
    outer loop
      vertex   7.877961e-01  9.699576e+00  2.001493e+00
      vertex   1.075848e+00  9.552395e+00  1.976133e+00
      vertex   1.421262e+00  9.508300e+00  1.744030e+00
    endloop
  endfacet
  facet normal  3.323239e-01  5.141634e-01  7.906939e-01
    outer loop
      vertex   1.075848e+00  9.552395e+00  1.976133e+00
      vertex   7.877961e-01  9.699576e+00  2.001493e+00
      vertex   6.945670e-01  9.546233e+00  2.140390e+00
    endloop
  endfacet
  facet normal  1.627394e-01  6.062042e-01  7.784808e-01
    outer loop
      vertex   6.945670e-01  9.546233e+00  2.140390e+00
      vertex   7.877961e-01  9.699576e+00  2.001493e+00
      vertex  -1.239340e-01  9.629904e+00  2.246341e+00
    endloop
  endfacet
  facet normal -3.787107e-01  7.985684e-01  4.678318e-01
    outer loop
      vertex  -1.300192e+00  9.552546e+00  1.836469e+00
      vertex  -7.695562e-01  9.698964e+00  2.016089e+00
      vertex  -1.837509e+00  9.695455e+00  1.157570e+00
    endloop
  endfacet
  facet normal  2.260927e-03  9.595682e-01  2.814672e-01
    outer loop
      vertex  -1.239340e-01  9.629904e+00  2.246341e+00
      vertex   7.877961e-01  9.699576e+00  2.001493e+00
      vertex  -7.695562e-01  9.698964e+00  2.016089e+00
    endloop
  endfacet
  facet normal  6.306332e-01 -2.498673e-03  7.760771e-01
    outer loop
      vertex   1.550000e+00  5.700000e+00  1.630951e+00
      vertex   1.167642e+00 -5.019719e-02  1.923138e+00
      vertex   1.644381e+00 -5.000019e-02  1.535745e+00
    endloop
  endfacet
  facet normal  7.565656e-01  1.591091e-03  6.539157e-01
    outer loop
      vertex   1.550000e+00  5.700000e+00  1.630951e+00
      vertex   1.644381e+00 -5.000019e-02  1.535745e+00
      vertex   1.838182e+00  5.700000e+00  1.297531e+00
    endloop
  endfacet
  facet normal  8.169655e-01 -3.644625e-03  5.766750e-01
    outer loop
      vertex   1.644381e+00 -5.000019e-02  1.535745e+00
      vertex   1.997744e+00 -5.000019e-02  1.035142e+00
      vertex   1.838182e+00  5.700000e+00  1.297531e+00
    endloop
  endfacet
  facet normal  8.878794e-01  3.644620e-03  4.600619e-01
    outer loop
      vertex   1.838182e+00  5.700000e+00  1.297531e+00
      vertex   1.997744e+00 -5.000019e-02  1.035142e+00
      vertex   2.120087e+00  5.700000e+00  7.534791e-01
    endloop
  endfacet
  facet normal  9.422551e-01 -3.644537e-03  3.348761e-01
    outer loop
      vertex   2.120087e+00  5.700000e+00  7.534791e-01
      vertex   1.997744e+00 -5.000019e-02  1.035142e+00
      vertex   2.202939e+00 -5.000019e-02  4.577760e-01
    endloop
  endfacet
  facet normal  9.790775e-01  3.644567e-03  2.034554e-01
    outer loop
      vertex   2.120087e+00  5.700000e+00  7.534791e-01
      vertex   2.202939e+00 -5.000019e-02  4.577760e-01
      vertex   2.244755e+00  5.700000e+00  1.535454e-01
    endloop
  endfacet
  facet normal  9.976621e-01 -3.644650e-03  6.824262e-02
    outer loop
      vertex   2.202939e+00 -5.000019e-02  4.577760e-01
      vertex   2.244755e+00 -5.000114e-02 -1.535463e-01
      vertex   2.244755e+00  5.700000e+00  1.535454e-01
    endloop
  endfacet
  facet normal  9.976621e-01  3.644655e-03 -6.824272e-02
    outer loop
      vertex   2.244755e+00  5.700000e+00  1.535454e-01
      vertex   2.244755e+00 -5.000114e-02 -1.535463e-01
      vertex   2.202939e+00  5.700000e+00 -4.577760e-01
    endloop
  endfacet
  facet normal  9.790774e-01 -3.644545e-03 -2.034556e-01
    outer loop
      vertex   2.202939e+00  5.700000e+00 -4.577760e-01
      vertex   2.244755e+00 -5.000114e-02 -1.535463e-01
      vertex   2.120087e+00 -5.000114e-02 -7.534794e-01
    endloop
  endfacet
  facet normal  9.422548e-01  3.644593e-03 -3.348769e-01
    outer loop
      vertex   2.202939e+00  5.700000e+00 -4.577760e-01
      vertex   2.120087e+00 -5.000114e-02 -7.534794e-01
      vertex   1.997742e+00  5.700000e+00 -1.035146e+00
    endloop
  endfacet
  facet normal  8.878790e-01 -3.644675e-03 -4.600627e-01
    outer loop
      vertex   1.997742e+00  5.700000e+00 -1.035146e+00
      vertex   2.120087e+00 -5.000114e-02 -7.534794e-01
      vertex   1.838181e+00 -5.000114e-02 -1.297532e+00
    endloop
  endfacet
  facet normal  8.169647e-01  3.644515e-03 -5.766761e-01
    outer loop
      vertex   1.997742e+00  5.700000e+00 -1.035146e+00
      vertex   1.838181e+00 -5.000114e-02 -1.297532e+00
      vertex   1.644381e+00  5.700000e+00 -1.535745e+00
    endloop
  endfacet
  facet normal  6.709946e-01  6.425535e-04 -7.414619e-01
    outer loop
      vertex   1.419948e+00  9.500000e+00 -1.745350e+00
      vertex   1.550000e+00  9.671243e+00 -1.627509e+00
      vertex   1.550000e+00  5.700000e+00 -1.630951e+00
    endloop
  endfacet
  facet normal  5.766806e-01 -2.189327e-03 -8.169668e-01
    outer loop
      vertex   1.169064e+00  9.500000e+00 -1.922444e+00
      vertex   1.419948e+00  9.500000e+00 -1.745350e+00
      vertex   1.158175e+00 -5.000019e-02 -1.904538e+00
    endloop
  endfacet
  facet normal  6.045171e-01 -3.292082e-03 -7.965854e-01
    outer loop
      vertex   1.158175e+00 -5.000019e-02 -1.904538e+00
      vertex   1.419948e+00  9.500000e+00 -1.745350e+00
      vertex   1.550000e+00  5.700000e+00 -1.630951e+00
    endloop
  endfacet
  facet normal  5.195777e-01  5.247165e-03 -8.544072e-01
    outer loop
      vertex   1.158175e+00 -5.000019e-02 -1.904538e+00
      vertex   1.550000e+00  5.700000e+00 -1.630951e+00
      vertex   1.419948e+00 -5.000019e-02 -1.745350e+00
    endloop
  endfacet
  facet normal  7.101752e-01 -2.055710e-03 -7.040220e-01
    outer loop
      vertex   1.419948e+00 -5.000019e-02 -1.745350e+00
      vertex   1.550000e+00  5.700000e+00 -1.630951e+00
      vertex   1.644381e+00  5.700000e+00 -1.535745e+00
    endloop
  endfacet
  facet normal  7.308310e-01 -3.644697e-03 -6.825488e-01
    outer loop
      vertex   1.419948e+00 -5.000019e-02 -1.745350e+00
      vertex   1.644381e+00  5.700000e+00 -1.535745e+00
      vertex   1.838181e+00 -5.000114e-02 -1.297532e+00
    endloop
  endfacet
  facet normal -8.878708e-01  5.853604e-03 -4.600556e-01
    outer loop
      vertex  -2.193741e+00  8.700001e+00 -5.000000e-01
      vertex  -1.979135e+00 -5.000019e-02 -1.025505e+00
      vertex  -2.120087e+00 -5.000019e-02 -7.534790e-01
    endloop
  endfacet
  facet normal -9.770837e-01 -2.058805e-03 -2.128451e-01
    outer loop
      vertex  -2.193741e+00  8.700001e+00 -5.000000e-01
      vertex  -2.120087e+00 -5.000019e-02 -7.534790e-01
      vertex  -2.202939e+00  8.700001e+00 -4.577760e-01
    endloop
  endfacet
  facet normal -9.790811e-01 -2.395008e-03 -2.034563e-01
    outer loop
      vertex  -2.202939e+00  8.700001e+00 -4.577760e-01
      vertex  -2.120087e+00 -5.000019e-02 -7.534790e-01
      vertex  -2.244755e+00 -5.000019e-02 -1.535456e-01
    endloop
  endfacet
  facet normal -9.976659e-01  2.395063e-03 -6.824297e-02
    outer loop
      vertex  -2.202939e+00  8.700001e+00 -4.577760e-01
      vertex  -2.244755e+00 -5.000019e-02 -1.535456e-01
      vertex  -2.244755e+00  8.700001e+00  1.535454e-01
    endloop
  endfacet
  facet normal -9.422616e-01 -6.254833e-04  3.348773e-01
    outer loop
      vertex  -2.100341e+00 -5.000019e-02  7.464612e-01
      vertex  -2.193741e+00  8.700001e+00  5.000000e-01
      vertex  -2.202939e+00 -5.000019e-02  4.577760e-01
    endloop
  endfacet
  facet normal -9.893324e-01  3.370118e-04  1.456749e-01
    outer loop
      vertex  -2.202939e+00 -5.000019e-02  4.577760e-01
      vertex  -2.193741e+00  8.700001e+00  5.000000e-01
      vertex  -2.244755e+00  8.700001e+00  1.535454e-01
    endloop
  endfacet
  facet normal -9.976659e-01 -2.395062e-03  6.824295e-02
    outer loop
      vertex  -2.202939e+00 -5.000019e-02  4.577760e-01
      vertex  -2.244755e+00  8.700001e+00  1.535454e-01
      vertex  -2.244755e+00 -5.000019e-02 -1.535456e-01
    endloop
  endfacet
  facet normal -9.585028e-01  1.128527e-02  2.848598e-01
    outer loop
      vertex  -2.182318e+00  9.670326e+00  4.999938e-01
      vertex  -2.193741e+00  8.700001e+00  5.000000e-01
      vertex  -2.074253e+00  9.474869e+00  8.713581e-01
    endloop
  endfacet
  facet normal -9.510513e-01 -1.447352e-03  3.090298e-01
    outer loop
      vertex  -2.074253e+00  9.474869e+00  8.713581e-01
      vertex  -2.193741e+00  8.700001e+00  5.000000e-01
      vertex  -2.100341e+00 -5.000019e-02  7.464612e-01
    endloop
  endfacet
  facet normal -9.422589e-01 -1.810403e-03  3.348803e-01
    outer loop
      vertex  -2.074253e+00  9.474869e+00  8.713581e-01
      vertex  -2.100341e+00 -5.000019e-02  7.464612e-01
      vertex  -1.997742e+00 -5.000019e-02  1.035146e+00
    endloop
  endfacet
  facet normal -8.824647e-01  9.998950e-04  4.703776e-01
    outer loop
      vertex  -2.074253e+00  9.474869e+00  8.713581e-01
      vertex  -1.997742e+00 -5.000019e-02  1.035146e+00
      vertex  -1.878809e+00  9.499990e+00  1.237973e+00
    endloop
  endfacet
  facet normal -8.169671e-01 -2.073509e-03  5.766807e-01
    outer loop
      vertex  -1.878809e+00  9.499990e+00  1.237973e+00
      vertex  -1.997742e+00 -5.000019e-02  1.035146e+00
      vertex  -1.821061e+00 -5.000019e-02  1.285445e+00
    endloop
  endfacet
  facet normal -7.803608e-01 -1.610337e-03  6.253275e-01
    outer loop
      vertex  -1.878809e+00  9.499990e+00  1.237973e+00
      vertex  -1.821061e+00 -5.000019e-02  1.285445e+00
      vertex  -1.617664e+00  9.500000e+00  1.563862e+00
    endloop
  endfacet
  facet normal -8.169714e-01  5.877134e-04  5.766778e-01
    outer loop
      vertex  -1.617664e+00  9.500000e+00  1.563862e+00
      vertex  -1.821061e+00 -5.000019e-02  1.285445e+00
      vertex  -1.644381e+00 -5.000019e-02  1.535745e+00
    endloop
  endfacet
  facet normal -6.513554e-01 -4.117340e-04  7.587726e-01
    outer loop
      vertex  -1.617664e+00  9.500000e+00  1.563862e+00
      vertex  -1.644381e+00 -5.000019e-02  1.535745e+00
      vertex  -1.414135e+00  9.500000e+00  1.738578e+00
    endloop
  endfacet
  facet normal -6.310855e-01 -1.260216e-03  7.757123e-01
    outer loop
      vertex  -1.414135e+00  9.500000e+00  1.738578e+00
      vertex  -1.644381e+00 -5.000019e-02  1.535745e+00
      vertex  -1.406722e+00 -5.000019e-02  1.729094e+00
    endloop
  endfacet
  facet normal -6.513218e-01 -1.259129e-03  7.588005e-01
    outer loop
      vertex  -1.414135e+00  9.500000e+00  1.738578e+00
      vertex  -1.406722e+00 -5.000019e-02  1.729094e+00
      vertex  -1.300192e+00  9.552546e+00  1.836469e+00
    endloop
  endfacet
  facet normal -4.993597e-01 -4.147985e-03  8.663848e-01
    outer loop
      vertex  -1.300192e+00  9.552546e+00  1.836469e+00
      vertex  -1.406722e+00 -5.000019e-02  1.729094e+00
      vertex  -9.421549e-01  9.463855e+00  2.042407e+00
    endloop
  endfacet
  facet normal -6.310810e-01  5.270525e-03  7.756990e-01
    outer loop
      vertex  -9.421549e-01  9.463855e+00  2.042407e+00
      vertex  -1.406722e+00 -5.000019e-02  1.729094e+00
      vertex  -1.169064e+00 -5.000019e-02  1.922444e+00
    endloop
  endfacet
  facet normal -3.983996e-01 -2.063363e-03  9.172096e-01
    outer loop
      vertex  -9.421549e-01  9.463855e+00  2.042407e+00
      vertex  -1.169064e+00 -5.000019e-02  1.922444e+00
      vertex  -8.880533e-01 -5.000019e-02  2.044504e+00
    endloop
  endfacet
  facet normal -3.335800e-01 -1.689136e-03  9.427203e-01
    outer loop
      vertex  -9.421549e-01  9.463855e+00  2.042407e+00
      vertex  -8.880533e-01 -5.000019e-02  2.044504e+00
      vertex  -5.450681e-01  9.500000e+00  2.182980e+00
    endloop
  endfacet
  facet normal -3.984007e-01  1.008766e-03  9.172110e-01
    outer loop
      vertex  -5.450681e-01  9.500000e+00  2.182980e+00
      vertex  -8.880533e-01 -5.000019e-02  2.044504e+00
      vertex  -6.070427e-01 -5.000019e-02  2.166564e+00
    endloop
  endfacet
  facet normal -1.485577e-01 -7.358227e-04  9.889034e-01
    outer loop
      vertex  -5.450681e-01  9.500000e+00  2.182980e+00
      vertex  -6.070427e-01 -5.000019e-02  2.166564e+00
      vertex  -1.239340e-01  9.629904e+00  2.246341e+00
    endloop
  endfacet
  facet normal -1.361664e-01 -1.368936e-03  9.906850e-01
    outer loop
      vertex  -1.239340e-01  9.629904e+00  2.246341e+00
      vertex  -6.070427e-01 -5.000019e-02  2.166564e+00
      vertex  -3.035214e-01 -5.000019e-02  2.208282e+00
    endloop
  endfacet
  facet normal  3.428876e-02 -4.565596e-03  9.994015e-01
    outer loop
      vertex  -1.239340e-01  9.629904e+00  2.246341e+00
      vertex  -3.035214e-01 -5.000019e-02  2.208282e+00
      vertex   2.834454e-01  9.484628e+00  2.231701e+00
    endloop
  endfacet
  facet normal -1.361641e-01  5.949202e-03  9.906684e-01
    outer loop
      vertex   2.834454e-01  9.484628e+00  2.231701e+00
      vertex  -3.035214e-01 -5.000019e-02  2.208282e+00
      vertex   2.755455e-16 -5.000019e-02  2.250000e+00
    endloop
  endfacet
  facet normal  1.361662e-01 -2.146603e-03  9.906837e-01
    outer loop
      vertex   2.834454e-01  9.484628e+00  2.231701e+00
      vertex   2.755455e-16 -5.000019e-02  2.250000e+00
      vertex   3.035214e-01 -5.000019e-02  2.208282e+00
    endloop
  endfacet
  facet normal  2.170943e-01 -1.940501e-03  9.761487e-01
    outer loop
      vertex   2.834454e-01  9.484628e+00  2.231701e+00
      vertex   3.035214e-01 -5.000019e-02  2.208282e+00
      vertex   6.945670e-01  9.546233e+00  2.140390e+00
    endloop
  endfacet
  facet normal  1.361759e-01  1.459750e-03  9.906836e-01
    outer loop
      vertex   6.945670e-01  9.546233e+00  2.140390e+00
      vertex   3.035214e-01 -5.000019e-02  2.208282e+00
      vertex   6.067097e-01 -5.007153e-02  2.166607e+00
    endloop
  endfacet
  facet normal  3.956647e-01 -1.113446e-03  9.183943e-01
    outer loop
      vertex   6.945670e-01  9.546233e+00  2.140390e+00
      vertex   6.067097e-01 -5.007153e-02  2.166607e+00
      vertex   1.075848e+00  9.552395e+00  1.976133e+00
    endloop
  endfacet
  facet normal  3.981548e-01 -1.256465e-03  9.173174e-01
    outer loop
      vertex   1.075848e+00  9.552395e+00  1.976133e+00
      vertex   6.067097e-01 -5.007153e-02  2.166607e+00
      vertex   1.167642e+00 -5.019719e-02  1.923138e+00
    endloop
  endfacet
  facet normal  5.578024e-01  7.516792e-04  8.299735e-01
    outer loop
      vertex   1.075848e+00  9.552395e+00  1.976133e+00
      vertex   1.167642e+00 -5.019719e-02  1.923138e+00
      vertex   1.421262e+00  9.508300e+00  1.744030e+00
    endloop
  endfacet
  facet normal  6.259579e-01 -1.995863e-03  7.798543e-01
    outer loop
      vertex   1.421262e+00  9.508300e+00  1.744030e+00
      vertex   1.167642e+00 -5.019719e-02  1.923138e+00
      vertex   1.550000e+00  5.700000e+00  1.630951e+00
    endloop
  endfacet
  facet normal  6.601401e-01  1.218368e-05  7.511425e-01
    outer loop
      vertex   1.421262e+00  9.508300e+00  1.744030e+00
      vertex   1.550000e+00  5.700000e+00  1.630951e+00
      vertex   1.550000e+00  9.594946e+00  1.630888e+00
    endloop
  endfacet
  facet normal  4.600618e-01 -2.189324e-03 -8.878842e-01
    outer loop
      vertex   1.169064e+00  9.500000e+00 -1.922444e+00
      vertex   1.158175e+00 -5.000019e-02 -1.904538e+00
      vertex   8.964025e-01  9.500000e+00 -2.063725e+00
    endloop
  endfacet
  facet normal  5.195829e-01  0.000000e+00 -8.544200e-01
    outer loop
      vertex   8.964025e-01  9.500000e+00 -2.063725e+00
      vertex   1.158175e+00 -5.000019e-02 -1.904538e+00
      vertex   8.964025e-01 -5.000019e-02 -2.063725e+00
    endloop
  endfacet
  facet normal  3.348810e-01  0.000000e+00 -9.422604e-01
    outer loop
      vertex   8.964025e-01  9.500000e+00 -2.063725e+00
      vertex   8.964025e-01 -5.000019e-02 -2.063725e+00
      vertex   6.070427e-01  9.500000e+00 -2.166564e+00
    endloop
  endfacet
  facet normal  2.697962e-01 -2.194454e-03 -9.629149e-01
    outer loop
      vertex   6.070427e-01  9.500000e+00 -2.166564e+00
      vertex   8.964025e-01 -5.000019e-02 -2.063725e+00
      vertex   6.013887e-01 -5.000019e-02 -2.146384e+00
    endloop
  endfacet
  facet normal  2.034541e-01 -2.189339e-03 -9.790820e-01
    outer loop
      vertex   6.070427e-01  9.500000e+00 -2.166564e+00
      vertex   6.013887e-01 -5.000019e-02 -2.146384e+00
      vertex   3.063749e-01  9.500000e+00 -2.229043e+00
    endloop
  endfacet
  facet normal  2.697968e-01  0.000000e+00 -9.629172e-01
    outer loop
      vertex   3.063749e-01  9.500000e+00 -2.229043e+00
      vertex   6.013887e-01 -5.000019e-02 -2.146384e+00
      vertex   3.063749e-01 -5.000019e-02 -2.229043e+00
    endloop
  endfacet
  facet normal  6.824363e-02  0.000000e+00 -9.976687e-01
    outer loop
      vertex   3.063749e-01  9.500000e+00 -2.229043e+00
      vertex   3.063749e-01 -5.000019e-02 -2.229043e+00
      vertex   0.000000e+00  9.500000e+00 -2.250000e+00
    endloop
  endfacet
  facet normal  6.824363e-02  1.969029e-18 -9.976687e-01
    outer loop
      vertex   0.000000e+00  9.500000e+00 -2.250000e+00
      vertex   3.063749e-01 -5.000019e-02 -2.229043e+00
      vertex   2.755455e-16 -5.000019e-02 -2.250000e+00
    endloop
  endfacet
  facet normal -6.827939e-02 -1.970061e-18 -9.976663e-01
    outer loop
      vertex   0.000000e+00  9.500000e+00 -2.250000e+00
      vertex   2.755455e-16 -5.000019e-02 -2.250000e+00
      vertex  -3.065412e-01  9.568696e+00 -2.229021e+00
    endloop
  endfacet
  facet normal -6.824363e-02  1.144898e-06 -9.976687e-01
    outer loop
      vertex  -3.065412e-01  9.568696e+00 -2.229021e+00
      vertex   2.755455e-16 -5.000019e-02 -2.250000e+00
      vertex  -3.063749e-01 -5.000019e-02 -2.229043e+00
    endloop
  endfacet
  facet normal -2.034922e-01 -1.236305e-06 -9.790766e-01
    outer loop
      vertex  -3.065412e-01  9.568696e+00 -2.229021e+00
      vertex  -3.063749e-01 -5.000019e-02 -2.229043e+00
      vertex  -6.070427e-01  9.500000e+00 -2.166564e+00
    endloop
  endfacet
  facet normal -2.697962e-01 -2.194453e-03 -9.629149e-01
    outer loop
      vertex  -6.070427e-01  9.500000e+00 -2.166564e+00
      vertex  -3.063749e-01 -5.000019e-02 -2.229043e+00
      vertex  -6.013887e-01 -5.000019e-02 -2.146384e+00
    endloop
  endfacet
  facet normal -3.348802e-01 -2.189336e-03 -9.422582e-01
    outer loop
      vertex  -6.070427e-01  9.500000e+00 -2.166564e+00
      vertex  -6.013887e-01 -5.000019e-02 -2.146384e+00
      vertex  -8.964025e-01  9.500000e+00 -2.063725e+00
    endloop
  endfacet
  facet normal -2.697968e-01 -0.000000e+00 -9.629172e-01
    outer loop
      vertex  -8.964025e-01  9.500000e+00 -2.063725e+00
      vertex  -6.013887e-01 -5.000019e-02 -2.146384e+00
      vertex  -8.964025e-01 -5.000019e-02 -2.063725e+00
    endloop
  endfacet
  facet normal -4.600629e-01 -0.000000e+00 -8.878863e-01
    outer loop
      vertex  -8.964025e-01  9.500000e+00 -2.063725e+00
      vertex  -8.964025e-01 -5.000019e-02 -2.063725e+00
      vertex  -1.169064e+00  9.500000e+00 -1.922444e+00
    endloop
  endfacet
  facet normal -5.195817e-01 -2.194442e-03 -8.544180e-01
    outer loop
      vertex  -1.169064e+00  9.500000e+00 -1.922444e+00
      vertex  -8.964025e-01 -5.000019e-02 -2.063725e+00
      vertex  -1.158175e+00 -5.000019e-02 -1.904538e+00
    endloop
  endfacet
  facet normal -5.766806e-01 -2.189327e-03 -8.169668e-01
    outer loop
      vertex  -1.169064e+00  9.500000e+00 -1.922444e+00
      vertex  -1.158175e+00 -5.000019e-02 -1.904538e+00
      vertex  -1.419948e+00  9.500000e+00 -1.745350e+00
    endloop
  endfacet
  facet normal -5.195848e-01 -0.000000e+00 -8.544188e-01
    outer loop
      vertex  -1.419948e+00  9.500000e+00 -1.745350e+00
      vertex  -1.158175e+00 -5.000019e-02 -1.904538e+00
      vertex  -1.419948e+00 -5.000019e-02 -1.745350e+00
    endloop
  endfacet
  facet normal -6.825516e-01 -0.000000e+00 -7.308374e-01
    outer loop
      vertex  -1.419948e+00  9.500000e+00 -1.745350e+00
      vertex  -1.419948e+00 -5.000019e-02 -1.745350e+00
      vertex  -1.644381e+00  9.500000e+00 -1.535745e+00
    endloop
  endfacet
  facet normal -7.308332e-01 -2.194420e-03 -6.825526e-01
    outer loop
      vertex  -1.644381e+00  9.500000e+00 -1.535745e+00
      vertex  -1.419948e+00 -5.000019e-02 -1.745350e+00
      vertex  -1.629065e+00 -5.000019e-02 -1.521441e+00
    endloop
  endfacet
  facet normal -7.757103e-01 -2.189304e-03 -6.310854e-01
    outer loop
      vertex  -1.644381e+00  9.500000e+00 -1.535745e+00
      vertex  -1.629065e+00 -5.000019e-02 -1.521441e+00
      vertex  -1.838182e+00  9.500000e+00 -1.297531e+00
    endloop
  endfacet
  facet normal -7.308366e-01 -0.000000e+00 -6.825525e-01
    outer loop
      vertex  -1.838182e+00  9.500000e+00 -1.297531e+00
      vertex  -1.629065e+00 -5.000019e-02 -1.521441e+00
      vertex  -1.838182e+00 -5.000019e-02 -1.297531e+00
    endloop
  endfacet
  facet normal -8.544191e-01 -0.000000e+00 -5.195845e-01
    outer loop
      vertex  -1.838182e+00  9.500000e+00 -1.297531e+00
      vertex  -1.838182e+00 -5.000019e-02 -1.297531e+00
      vertex  -1.997742e+00  9.500000e+00 -1.035146e+00
    endloop
  endfacet
  facet normal -8.878824e-01 -2.194383e-03 -4.600653e-01
    outer loop
      vertex  -1.997742e+00  9.500000e+00 -1.035146e+00
      vertex  -1.838182e+00 -5.000019e-02 -1.297531e+00
      vertex  -1.979135e+00 -5.000019e-02 -1.025505e+00
    endloop
  endfacet
  facet normal -9.166120e-01 -2.189491e-03 -3.997719e-01
    outer loop
      vertex  -1.997742e+00  9.500000e+00 -1.035146e+00
      vertex  -1.979135e+00 -5.000019e-02 -1.025505e+00
      vertex  -2.117824e+00  9.500000e+00 -7.598174e-01
    endloop
  endfacet
  facet normal -9.550540e-01 -5.624243e-03 -2.963783e-01
    outer loop
      vertex  -2.117824e+00  9.500000e+00 -7.598174e-01
      vertex  -1.979135e+00 -5.000019e-02 -1.025505e+00
      vertex  -2.193741e+00  8.700001e+00 -5.000000e-01
    endloop
  endfacet
  facet normal -9.723109e-01  1.656336e-02 -2.331031e-01
    outer loop
      vertex  -2.117824e+00  9.500000e+00 -7.598174e-01
      vertex  -2.193741e+00  8.700001e+00 -5.000000e-01
      vertex  -2.176814e+00  9.693895e+00 -4.999842e-01
    endloop
  endfacet
  facet normal  4.875131e-02  9.987649e-01 -9.586573e-03
    outer loop
      vertex   1.550000e+00  9.671243e+00 -1.627509e+00
      vertex   9.066061e-01  9.699403e+00 -1.965586e+00
      vertex   1.549999e+00  9.700001e+00  1.368605e+00
    endloop
  endfacet
  facet normal -8.376169e-01  3.292641e-01 -4.358703e-01
    outer loop
      vertex  -2.176814e+00  9.693895e+00 -4.999842e-01
      vertex  -1.891176e+00  9.698955e+00 -1.045076e+00
      vertex  -2.117824e+00  9.500000e+00 -7.598174e-01
    endloop
  endfacet
  facet normal -8.292338e-01  4.261120e-01 -3.616626e-01
    outer loop
      vertex  -2.117824e+00  9.500000e+00 -7.598174e-01
      vertex  -1.891176e+00  9.698955e+00 -1.045076e+00
      vertex  -1.997742e+00  9.500000e+00 -1.035146e+00
    endloop
  endfacet
  facet normal -7.844379e-01  3.963603e-01 -4.770279e-01
    outer loop
      vertex  -1.997742e+00  9.500000e+00 -1.035146e+00
      vertex  -1.891176e+00  9.698955e+00 -1.045076e+00
      vertex  -1.838182e+00  9.500000e+00 -1.297531e+00
    endloop
  endfacet
  facet normal -6.330976e-01  5.378082e-01 -5.567313e-01
    outer loop
      vertex  -1.838182e+00  9.500000e+00 -1.297531e+00
      vertex  -1.891176e+00  9.698955e+00 -1.045076e+00
      vertex  -1.232432e+00  9.697992e+00 -1.795109e+00
    endloop
  endfacet
  facet normal -6.094965e-01  6.185760e-01 -4.958607e-01
    outer loop
      vertex  -1.838182e+00  9.500000e+00 -1.297531e+00
      vertex  -1.232432e+00  9.697992e+00 -1.795109e+00
      vertex  -1.644381e+00  9.500000e+00 -1.535745e+00
    endloop
  endfacet
  facet normal -6.194398e-01  4.199756e-01 -6.632609e-01
    outer loop
      vertex  -1.644381e+00  9.500000e+00 -1.535745e+00
      vertex  -1.232432e+00  9.697992e+00 -1.795109e+00
      vertex  -1.419948e+00  9.500000e+00 -1.745350e+00
    endloop
  endfacet
  facet normal -5.458451e-01  3.226244e-01 -7.732831e-01
    outer loop
      vertex  -1.419948e+00  9.500000e+00 -1.745350e+00
      vertex  -1.232432e+00  9.697992e+00 -1.795109e+00
      vertex  -1.169064e+00  9.500000e+00 -1.922444e+00
    endloop
  endfacet
  facet normal -4.235953e-01  3.901921e-01 -8.175066e-01
    outer loop
      vertex  -1.169064e+00  9.500000e+00 -1.922444e+00
      vertex  -1.232432e+00  9.697992e+00 -1.795109e+00
      vertex  -8.964025e-01  9.500000e+00 -2.063725e+00
    endloop
  endfacet
  facet normal -2.827139e-01  5.684210e-01 -7.726386e-01
    outer loop
      vertex  -8.964025e-01  9.500000e+00 -2.063725e+00
      vertex  -1.232432e+00  9.697992e+00 -1.795109e+00
      vertex  -3.065412e-01  9.568696e+00 -2.229021e+00
    endloop
  endfacet
  facet normal -2.861162e-01  5.196463e-01 -8.050498e-01
    outer loop
      vertex  -8.964025e-01  9.500000e+00 -2.063725e+00
      vertex  -3.065412e-01  9.568696e+00 -2.229021e+00
      vertex  -6.070427e-01  9.500000e+00 -2.166564e+00
    endloop
  endfacet
  facet normal  4.098240e-02  4.546007e-01 -8.897520e-01
    outer loop
      vertex  -3.065412e-01  9.568696e+00 -2.229021e+00
      vertex   6.205711e-02  9.699206e+00 -2.145361e+00
      vertex   0.000000e+00  9.500000e+00 -2.250000e+00
    endloop
  endfacet
  facet normal  6.097065e-02  4.492098e-01 -8.913434e-01
    outer loop
      vertex   0.000000e+00  9.500000e+00 -2.250000e+00
      vertex   6.205711e-02  9.699206e+00 -2.145361e+00
      vertex   3.063749e-01  9.500000e+00 -2.229043e+00
    endloop
  endfacet
  facet normal  1.731591e-01  5.543453e-01 -8.140745e-01
    outer loop
      vertex   3.063749e-01  9.500000e+00 -2.229043e+00
      vertex   6.205711e-02  9.699206e+00 -2.145361e+00
      vertex   9.066061e-01  9.699403e+00 -1.965586e+00
    endloop
  endfacet
  facet normal  1.681507e-01  5.629696e-01 -8.091913e-01
    outer loop
      vertex   3.063749e-01  9.500000e+00 -2.229043e+00
      vertex   9.066061e-01  9.699403e+00 -1.965586e+00
      vertex   6.070427e-01  9.500000e+00 -2.166564e+00
    endloop
  endfacet
  facet normal  3.057719e-01  4.077891e-01 -8.603555e-01
    outer loop
      vertex   6.070427e-01  9.500000e+00 -2.166564e+00
      vertex   9.066061e-01  9.699403e+00 -1.965586e+00
      vertex   8.964025e-01  9.500000e+00 -2.063725e+00
    endloop
  endfacet
  facet normal  4.251584e-01  3.820760e-01 -8.205232e-01
    outer loop
      vertex   8.964025e-01  9.500000e+00 -2.063725e+00
      vertex   9.066061e-01  9.699403e+00 -1.965586e+00
      vertex   1.169064e+00  9.500000e+00 -1.922444e+00
    endloop
  endfacet
  facet normal  4.983532e-01  5.031939e-01 -7.060027e-01
    outer loop
      vertex   1.169064e+00  9.500000e+00 -1.922444e+00
      vertex   9.066061e-01  9.699403e+00 -1.965586e+00
      vertex   1.419948e+00  9.500000e+00 -1.745350e+00
    endloop
  endfacet
  facet normal  4.598273e-01  2.392629e-01 -8.551679e-01
    outer loop
      vertex   1.419948e+00  9.500000e+00 -1.745350e+00
      vertex   9.066061e-01  9.699403e+00 -1.965586e+00
      vertex   1.550000e+00  9.671243e+00 -1.627509e+00
    endloop
  endfacet
  facet normal -1.554568e-01  8.055603e-01 -5.717568e-01
    outer loop
      vertex  -3.065412e-01  9.568696e+00 -2.229021e+00
      vertex  -1.232432e+00  9.697992e+00 -1.795109e+00
      vertex   6.205711e-02  9.699206e+00 -2.145361e+00
    endloop
  endfacet
  facet normal -5.724100e-03  9.999639e-01  6.281590e-03
    outer loop
      vertex  -1.891176e+00  9.698955e+00 -1.045076e+00
      vertex  -2.176814e+00  9.693895e+00 -4.999842e-01
      vertex  -1.158157e+00  9.699727e+00 -5.000819e-01
    endloop
  endfacet
  facet normal -8.704846e-04  9.999996e-01  2.489474e-04
    outer loop
      vertex   1.143363e-01  9.699039e+00 -1.292164e+00
      vertex   6.205711e-02  9.699206e+00 -2.145361e+00
      vertex  -1.232432e+00  9.697992e+00 -1.795109e+00
    endloop
  endfacet
  facet normal  8.388128e-05  9.999973e-01 -2.306615e-03
    outer loop
      vertex   1.143363e-01  9.699039e+00 -1.292164e+00
      vertex  -1.232432e+00  9.697992e+00 -1.795109e+00
      vertex  -7.789313e-01  9.699676e+00 -1.048876e+00
    endloop
  endfacet
  facet normal -6.545661e-04  9.999981e-01 -1.857847e-03
    outer loop
      vertex  -1.891176e+00  9.698955e+00 -1.045076e+00
      vertex  -7.789313e-01  9.699676e+00 -1.048876e+00
      vertex  -1.232432e+00  9.697992e+00 -1.795109e+00
    endloop
  endfacet
  facet normal  9.377904e-04  9.999995e-01 -3.603036e-04
    outer loop
      vertex   9.066061e-01  9.699403e+00 -1.965586e+00
      vertex   7.744592e-01  9.699863e+00 -1.031101e+00
      vertex   1.549999e+00  9.700001e+00  1.368605e+00
    endloop
  endfacet
  facet normal -4.056500e-03 -9.999909e-01  1.368211e-03
    outer loop
      vertex   1.549999e+00  9.700001e+00  1.368605e+00
      vertex   7.744592e-01  9.699863e+00 -1.031101e+00
      vertex   1.216713e+00  9.698815e+00 -4.859187e-01
    endloop
  endfacet
  facet normal -1.763281e-02  9.998413e-01  2.529781e-03
    outer loop
      vertex   1.216713e+00  9.698815e+00 -4.859187e-01
      vertex   1.239724e+00  9.696945e+00  4.136086e-01
      vertex   1.549999e+00  9.700001e+00  1.368605e+00
    endloop
  endfacet
  facet normal  9.713120e-05  9.999948e-01 -3.231105e-03
    outer loop
      vertex   1.549999e+00  9.700001e+00  1.368605e+00
      vertex   1.239724e+00  9.696945e+00  4.136086e-01
      vertex   7.294530e-01  9.699250e+00  1.111653e+00
    endloop
  endfacet
  facet normal -8.166739e-04  9.999996e-01 -3.129881e-04
    outer loop
      vertex   1.549999e+00  9.700001e+00  1.368605e+00
      vertex   7.294530e-01  9.699250e+00  1.111653e+00
      vertex   7.877961e-01  9.699576e+00  2.001493e+00
    endloop
  endfacet
  facet normal -5.580845e-04  9.999998e-01 -3.299428e-04
    outer loop
      vertex  -3.950953e-01  9.698668e+00  1.247731e+00
      vertex   7.877961e-01  9.699576e+00  2.001493e+00
      vertex   7.294530e-01  9.699250e+00  1.111653e+00
    endloop
  endfacet
  facet normal -6.500740e-04  9.999996e-01 -5.430505e-04
    outer loop
      vertex  -7.789313e-01  9.699676e+00 -1.048876e+00
      vertex  -1.891176e+00  9.698955e+00 -1.045076e+00
      vertex  -1.158157e+00  9.699727e+00 -5.000819e-01
    endloop
  endfacet
  facet normal -9.974913e-04  9.999993e-01 -6.339745e-04
    outer loop
      vertex   7.744592e-01  9.699863e+00 -1.031101e+00
      vertex   9.066061e-01  9.699403e+00 -1.965586e+00
      vertex   1.143363e-01  9.699039e+00 -1.292164e+00
    endloop
  endfacet
  facet normal -2.778803e-04  9.999999e-01  2.126359e-04
    outer loop
      vertex   1.143363e-01  9.699039e+00 -1.292164e+00
      vertex   9.066061e-01  9.699403e+00 -1.965586e+00
      vertex   6.205711e-02  9.699206e+00 -2.145361e+00
    endloop
  endfacet
  facet normal -3.985795e-04  9.999997e-01 -5.802569e-04
    outer loop
      vertex  -3.950953e-01  9.698668e+00  1.247731e+00
      vertex  -7.695562e-01  9.698964e+00  2.016089e+00
      vertex   7.877961e-01  9.699576e+00  2.001493e+00
    endloop
  endfacet
  facet normal -4.583874e-04  9.999997e-01 -6.094043e-04
    outer loop
      vertex  -9.418570e-01  9.698128e+00  7.732504e-01
      vertex  -7.695562e-01  9.698964e+00  2.016089e+00
      vertex  -3.950953e-01  9.698668e+00  1.247731e+00
    endloop
  endfacet
  facet normal  2.141712e-03  9.999264e-01  1.194624e-02
    outer loop
      vertex  -1.102387e+00  9.701736e+00  4.999738e-01
      vertex  -1.837509e+00  9.695455e+00  1.157570e+00
      vertex  -9.418570e-01  9.698128e+00  7.732504e-01
    endloop
  endfacet
  facet normal -3.089541e-03  9.999952e-01 -2.446317e-04
    outer loop
      vertex  -9.418570e-01  9.698128e+00  7.732504e-01
      vertex  -1.837509e+00  9.695455e+00  1.157570e+00
      vertex  -7.695562e-01  9.698964e+00  2.016089e+00
    endloop
  endfacet
  facet normal -6.347083e-01 -7.614126e-01 -1.318945e-01
    outer loop
      vertex  -2.009448e+00 -3.015572e-01  1.663110e-01
      vertex  -2.244755e+00 -5.000019e-02 -1.535456e-01
      vertex  -2.120087e+00 -5.000019e-02 -7.534790e-01
    endloop
  endfacet
  facet normal -6.503184e-01 -7.490331e-01 -1.266311e-01
    outer loop
      vertex  -2.009448e+00 -3.015572e-01  1.663110e-01
      vertex  -2.120087e+00 -5.000019e-02 -7.534790e-01
      vertex  -1.805056e+00 -2.995136e-01 -8.954403e-01
    endloop
  endfacet
  facet normal -6.734236e-01 -6.517228e-01 -3.489385e-01
    outer loop
      vertex  -1.805056e+00 -2.995136e-01 -8.954403e-01
      vertex  -2.120087e+00 -5.000019e-02 -7.534790e-01
      vertex  -1.979135e+00 -5.000019e-02 -1.025505e+00
    endloop
  endfacet
  facet normal -6.734223e-01 -6.517230e-01 -3.489406e-01
    outer loop
      vertex  -1.805056e+00 -2.995136e-01 -8.954403e-01
      vertex  -1.979135e+00 -5.000019e-02 -1.025505e+00
      vertex  -1.838182e+00 -5.000019e-02 -1.297531e+00
    endloop
  endfacet
  facet normal -4.685701e-01 -7.674221e-01 -4.376132e-01
    outer loop
      vertex  -1.805056e+00 -2.995136e-01 -8.954403e-01
      vertex  -1.838182e+00 -5.000019e-02 -1.297531e+00
      vertex  -1.629065e+00 -5.000019e-02 -1.521441e+00
    endloop
  endfacet
  facet normal -4.917101e-01 -7.524846e-01 -4.381647e-01
    outer loop
      vertex  -1.805056e+00 -2.995136e-01 -8.954403e-01
      vertex  -1.629065e+00 -5.000019e-02 -1.521441e+00
      vertex  -1.089603e+00 -3.008476e-01 -1.696033e+00
    endloop
  endfacet
  facet normal -4.924360e-01 -7.389145e-01 -4.599045e-01
    outer loop
      vertex  -1.089603e+00 -3.008476e-01 -1.696033e+00
      vertex  -1.629065e+00 -5.000019e-02 -1.521441e+00
      vertex  -1.419948e+00 -5.000019e-02 -1.745350e+00
    endloop
  endfacet
  facet normal -3.954566e-01 -6.486330e-01 -6.502993e-01
    outer loop
      vertex  -1.089603e+00 -3.008476e-01 -1.696033e+00
      vertex  -1.419948e+00 -5.000019e-02 -1.745350e+00
      vertex  -1.158175e+00 -5.000019e-02 -1.904538e+00
    endloop
  endfacet
  facet normal -3.954552e-01 -6.486333e-01 -6.503001e-01
    outer loop
      vertex  -1.089603e+00 -3.008476e-01 -1.696033e+00
      vertex  -1.158175e+00 -5.000019e-02 -1.904538e+00
      vertex  -8.964025e-01 -5.000019e-02 -2.063725e+00
    endloop
  endfacet
  facet normal -1.724102e-01 -7.691759e-01 -6.153398e-01
    outer loop
      vertex  -1.089603e+00 -3.008476e-01 -1.696033e+00
      vertex  -8.964025e-01 -5.000019e-02 -2.063725e+00
      vertex  -6.013887e-01 -5.000019e-02 -2.146384e+00
    endloop
  endfacet
  facet normal -1.904731e-01 -7.552419e-01 -6.271600e-01
    outer loop
      vertex  -1.089603e+00 -3.008476e-01 -1.696033e+00
      vertex  -6.013887e-01 -5.000019e-02 -2.146384e+00
      vertex   2.162334e-02 -2.987653e-01 -2.036028e+00
    endloop
  endfacet
  facet normal -1.812279e-01 -7.408053e-01 -6.468107e-01
    outer loop
      vertex   2.162334e-02 -2.987653e-01 -2.036028e+00
      vertex  -6.013887e-01 -5.000019e-02 -2.146384e+00
      vertex  -3.063749e-01 -5.000019e-02 -2.229043e+00
    endloop
  endfacet
  facet normal -5.163746e-02 -6.538047e-01 -7.548993e-01
    outer loop
      vertex   2.162334e-02 -2.987653e-01 -2.036028e+00
      vertex  -3.063749e-01 -5.000019e-02 -2.229043e+00
      vertex   2.755455e-16 -5.000019e-02 -2.250000e+00
    endloop
  endfacet
  facet normal  5.194110e-02 -6.486196e-01 -7.593384e-01
    outer loop
      vertex   2.162334e-02 -2.987653e-01 -2.036028e+00
      vertex   2.755455e-16 -5.000019e-02 -2.250000e+00
      vertex   3.063749e-01 -5.000019e-02 -2.229043e+00
    endloop
  endfacet
  facet normal  1.855152e-01 -7.260795e-01 -6.621122e-01
    outer loop
      vertex   2.162334e-02 -2.987653e-01 -2.036028e+00
      vertex   3.063749e-01 -5.000019e-02 -2.229043e+00
      vertex   6.013887e-01 -5.000019e-02 -2.146384e+00
    endloop
  endfacet
  facet normal  1.912883e-01 -7.345964e-01 -6.509815e-01
    outer loop
      vertex   2.162334e-02 -2.987653e-01 -2.036028e+00
      vertex   6.013887e-01 -5.000019e-02 -2.146384e+00
      vertex   1.036441e+00 -3.032619e-01 -1.732754e+00
    endloop
  endfacet
  facet normal  1.806569e-01 -7.427188e-01 -6.447728e-01
    outer loop
      vertex   1.036441e+00 -3.032619e-01 -1.732754e+00
      vertex   6.013887e-01 -5.000019e-02 -2.146384e+00
      vertex   8.964025e-01 -5.000019e-02 -2.063725e+00
    endloop
  endfacet
  facet normal  3.999494e-01 -6.383444e-01 -6.576906e-01
    outer loop
      vertex   1.036441e+00 -3.032619e-01 -1.732754e+00
      vertex   8.964025e-01 -5.000019e-02 -2.063725e+00
      vertex   1.158175e+00 -5.000019e-02 -1.904538e+00
    endloop
  endfacet
  facet normal  3.999508e-01 -6.383445e-01 -6.576897e-01
    outer loop
      vertex   1.036441e+00 -3.032619e-01 -1.732754e+00
      vertex   1.158175e+00 -5.000019e-02 -1.904538e+00
      vertex   1.419948e+00 -5.000019e-02 -1.745350e+00
    endloop
  endfacet
  facet normal  4.817898e-01 -7.519394e-01 -4.499620e-01
    outer loop
      vertex   1.036441e+00 -3.032619e-01 -1.732754e+00
      vertex   1.419948e+00 -5.000019e-02 -1.745350e+00
      vertex   1.838181e+00 -5.000114e-02 -1.297532e+00
    endloop
  endfacet
  facet normal  4.839213e-01 -7.461458e-01 -4.572600e-01
    outer loop
      vertex   1.036441e+00 -3.032619e-01 -1.732754e+00
      vertex   1.838181e+00 -5.000114e-02 -1.297532e+00
      vertex   1.760608e+00 -2.977166e-01 -9.754117e-01
    endloop
  endfacet
  facet normal  6.677722e-01 -6.590566e-01 -3.460124e-01
    outer loop
      vertex   1.760608e+00 -2.977166e-01 -9.754117e-01
      vertex   1.838181e+00 -5.000114e-02 -1.297532e+00
      vertex   2.120087e+00 -5.000114e-02 -7.534794e-01
    endloop
  endfacet
  facet normal  6.235754e-01 -7.662994e-01 -1.547220e-01
    outer loop
      vertex   1.760608e+00 -2.977166e-01 -9.754117e-01
      vertex   2.120087e+00 -5.000114e-02 -7.534794e-01
      vertex   2.017629e+00 -3.052507e-01  9.777161e-02
    endloop
  endfacet
  facet normal  6.680125e-01 -7.310879e-01 -1.388153e-01
    outer loop
      vertex   2.017629e+00 -3.052507e-01  9.777161e-02
      vertex   2.120087e+00 -5.000114e-02 -7.534794e-01
      vertex   2.244755e+00 -5.000114e-02 -1.535463e-01
    endloop
  endfacet
  facet normal  7.712562e-01 -6.343349e-01  5.275685e-02
    outer loop
      vertex   2.017629e+00 -3.052507e-01  9.777161e-02
      vertex   2.244755e+00 -5.000114e-02 -1.535463e-01
      vertex   2.202939e+00 -5.000019e-02  4.577760e-01
    endloop
  endfacet
  facet normal  6.163404e-01 -7.564015e-01  2.190465e-01
    outer loop
      vertex   2.017629e+00 -3.052507e-01  9.777161e-02
      vertex   2.202939e+00 -5.000019e-02  4.577760e-01
      vertex   1.997744e+00 -5.000019e-02  1.035142e+00
    endloop
  endfacet
  facet normal  6.256667e-01 -7.492176e-01  2.172882e-01
    outer loop
      vertex   2.017629e+00 -3.052507e-01  9.777161e-02
      vertex   1.997744e+00 -5.000019e-02  1.035142e+00
      vertex   1.666197e+00 -2.988616e-01  1.131725e+00
    endloop
  endfacet
  facet normal  6.180066e-01 -6.540389e-01  4.362351e-01
    outer loop
      vertex   1.666197e+00 -2.988616e-01  1.131725e+00
      vertex   1.997744e+00 -5.000019e-02  1.035142e+00
      vertex   1.644381e+00 -5.000019e-02  1.535745e+00
    endloop
  endfacet
  facet normal  4.030732e-01 -7.693301e-01  4.956442e-01
    outer loop
      vertex   1.666197e+00 -2.988616e-01  1.131725e+00
      vertex   1.644381e+00 -5.000019e-02  1.535745e+00
      vertex   1.167642e+00 -5.019719e-02  1.923138e+00
    endloop
  endfacet
  facet normal  4.342576e-01 -7.442769e-01  5.074173e-01
    outer loop
      vertex   1.666197e+00 -2.988616e-01  1.131725e+00
      vertex   1.167642e+00 -5.019719e-02  1.923138e+00
      vertex   8.485107e-01 -3.008476e-01  1.828604e+00
    endloop
  endfacet
  facet normal  3.028396e-01 -6.488531e-01  6.980529e-01
    outer loop
      vertex   8.485107e-01 -3.008476e-01  1.828604e+00
      vertex   1.167642e+00 -5.019719e-02  1.923138e+00
      vertex   6.067097e-01 -5.007153e-02  2.166607e+00
    endloop
  endfacet
  facet normal  8.681622e-02 -7.693430e-01  6.329094e-01
    outer loop
      vertex   8.485107e-01 -3.008476e-01  1.828604e+00
      vertex   6.067097e-01 -5.007153e-02  2.166607e+00
      vertex   3.035214e-01 -5.000019e-02  2.208282e+00
    endloop
  endfacet
  facet normal  1.354469e-01 -7.260841e-01  6.741334e-01
    outer loop
      vertex   8.485107e-01 -3.008476e-01  1.828604e+00
      vertex   3.035214e-01 -5.000019e-02  2.208282e+00
      vertex  -9.002786e-07 -3.000002e-01  2.000000e+00
    endloop
  endfacet
  facet normal  9.673366e-02 -7.037908e-01  7.037905e-01
    outer loop
      vertex  -9.002786e-07 -3.000002e-01  2.000000e+00
      vertex   3.035214e-01 -5.000019e-02  2.208282e+00
      vertex   2.755455e-16 -5.000019e-02  2.250000e+00
    endloop
  endfacet
  facet normal -9.673370e-02 -7.037905e-01  7.037908e-01
    outer loop
      vertex  -9.002786e-07 -3.000002e-01  2.000000e+00
      vertex   2.755455e-16 -5.000019e-02  2.250000e+00
      vertex  -3.035214e-01 -5.000019e-02  2.208282e+00
    endloop
  endfacet
  facet normal -1.187639e-01 -7.167054e-01  6.871889e-01
    outer loop
      vertex  -9.002786e-07 -3.000002e-01  2.000000e+00
      vertex  -3.035214e-01 -5.000019e-02  2.208282e+00
      vertex  -7.572523e-01 -3.008476e-01  1.868244e+00
    endloop
  endfacet
  facet normal -9.174907e-02 -7.389134e-01  6.675246e-01
    outer loop
      vertex  -7.572523e-01 -3.008476e-01  1.868244e+00
      vertex  -3.035214e-01 -5.000019e-02  2.208282e+00
      vertex  -6.070427e-01 -5.000019e-02  2.166564e+00
    endloop
  endfacet
  facet normal -3.032237e-01 -6.486322e-01  6.980914e-01
    outer loop
      vertex  -7.572523e-01 -3.008476e-01  1.868244e+00
      vertex  -6.070427e-01 -5.000019e-02  2.166564e+00
      vertex  -8.880533e-01 -5.000019e-02  2.044504e+00
    endloop
  endfacet
  facet normal -3.032234e-01 -6.486322e-01  6.980916e-01
    outer loop
      vertex  -7.572523e-01 -3.008476e-01  1.868244e+00
      vertex  -8.880533e-01 -5.000019e-02  2.044504e+00
      vertex  -1.169064e+00 -5.000019e-02  1.922444e+00
    endloop
  endfacet
  facet normal -4.032883e-01 -7.691778e-01  4.957056e-01
    outer loop
      vertex  -7.572523e-01 -3.008476e-01  1.868244e+00
      vertex  -1.169064e+00 -5.000019e-02  1.922444e+00
      vertex  -1.406722e+00 -5.000019e-02  1.729094e+00
    endloop
  endfacet
  facet normal -4.022667e-01 -7.512293e-01  5.232935e-01
    outer loop
      vertex  -7.572523e-01 -3.008476e-01  1.868244e+00
      vertex  -1.406722e+00 -5.000019e-02  1.729094e+00
      vertex  -1.607007e+00 -3.002159e-01  1.215926e+00
    endloop
  endfacet
  facet normal -4.275360e-01 -7.355589e-01  5.255151e-01
    outer loop
      vertex  -1.607007e+00 -3.002159e-01  1.215926e+00
      vertex  -1.406722e+00 -5.000019e-02  1.729094e+00
      vertex  -1.644381e+00 -5.000019e-02  1.535745e+00
    endloop
  endfacet
  facet normal -6.196843e-01 -6.516569e-01  4.374182e-01
    outer loop
      vertex  -1.607007e+00 -3.002159e-01  1.215926e+00
      vertex  -1.644381e+00 -5.000019e-02  1.535745e+00
      vertex  -1.821061e+00 -5.000019e-02  1.285445e+00
    endloop
  endfacet
  facet normal -6.196826e-01 -6.516563e-01  4.374215e-01
    outer loop
      vertex  -1.607007e+00 -3.002159e-01  1.215926e+00
      vertex  -1.821061e+00 -5.000019e-02  1.285445e+00
      vertex  -1.997742e+00 -5.000019e-02  1.035146e+00
    endloop
  endfacet
  facet normal -5.981100e-01 -7.676087e-01  2.303070e-01
    outer loop
      vertex  -1.607007e+00 -3.002159e-01  1.215926e+00
      vertex  -1.997742e+00 -5.000019e-02  1.035146e+00
      vertex  -2.009448e+00 -3.015572e-01  1.663110e-01
    endloop
  endfacet
  facet normal -6.298180e-01 -7.437915e-01  2.238383e-01
    outer loop
      vertex  -2.009448e+00 -3.015572e-01  1.663110e-01
      vertex  -1.997742e+00 -5.000019e-02  1.035146e+00
      vertex  -2.100341e+00 -5.000019e-02  7.464612e-01
    endloop
  endfacet
  facet normal -6.298214e-01 -7.437891e-01  2.238368e-01
    outer loop
      vertex  -2.009448e+00 -3.015572e-01  1.663110e-01
      vertex  -2.100341e+00 -5.000019e-02  7.464612e-01
      vertex  -2.202939e+00 -5.000019e-02  4.577760e-01
    endloop
  endfacet
  facet normal -7.614954e-01 -6.460739e-01  5.208828e-02
    outer loop
      vertex  -2.009448e+00 -3.015572e-01  1.663110e-01
      vertex  -2.202939e+00 -5.000019e-02  4.577760e-01
      vertex  -2.244755e+00 -5.000019e-02 -1.535456e-01
    endloop
  endfacet
  facet normal  1.000000e+00  0.000000e+00  0.000000e+00
    outer loop
      vertex   1.550000e+00  9.594946e+00  1.630888e+00
      vertex   1.550000e+00  5.700000e+00  1.630951e+00
      vertex   1.550000e+00  5.700000e+00 -1.630951e+00
    endloop
  endfacet
  facet normal  1.000000e+00 -9.014769e-08  1.076449e-07
    outer loop
      vertex   1.550000e+00  9.594946e+00  1.630888e+00
      vertex   1.550000e+00  5.700000e+00 -1.630951e+00
      vertex   1.550000e+00  9.671243e+00 -1.627509e+00
    endloop
  endfacet
  facet normal  2.945482e-01  8.871214e-01  3.553268e-01
    outer loop
      vertex   7.877961e-01  9.699576e+00  2.001493e+00
      vertex   1.550000e+00  9.594946e+00  1.630888e+00
      vertex   1.549999e+00  9.700001e+00  1.368605e+00
    endloop
  endfacet
  facet normal  1.000000e+00  9.932542e-06  3.423306e-07
    outer loop
      vertex   1.549999e+00  9.700001e+00  1.368605e+00
      vertex   1.550000e+00  9.594946e+00  1.630888e+00
      vertex   1.550000e+00  9.671243e+00 -1.627509e+00
    endloop
  endfacet
  facet normal  0.000000e+00  1.000000e+00  0.000000e+00
    outer loop
      vertex   1.644381e+00  5.700000e+00 -1.535745e+00
      vertex   1.550000e+00  5.700000e+00 -1.630951e+00
      vertex   1.550000e+00  5.700000e+00  1.630951e+00
    endloop
  endfacet
  facet normal  0.000000e+00  1.000000e+00  0.000000e+00
    outer loop
      vertex   2.120087e+00  5.700000e+00  7.534791e-01
      vertex   2.244755e+00  5.700000e+00  1.535454e-01
      vertex   2.202939e+00  5.700000e+00 -4.577760e-01
    endloop
  endfacet
  facet normal  0.000000e+00  1.000000e+00  0.000000e+00
    outer loop
      vertex   1.550000e+00  5.700000e+00  1.630951e+00
      vertex   1.838182e+00  5.700000e+00  1.297531e+00
      vertex   1.644381e+00  5.700000e+00 -1.535745e+00
    endloop
  endfacet
  facet normal  0.000000e+00  1.000000e+00  0.000000e+00
    outer loop
      vertex   1.644381e+00  5.700000e+00 -1.535745e+00
      vertex   1.838182e+00  5.700000e+00  1.297531e+00
      vertex   2.120087e+00  5.700000e+00  7.534791e-01
    endloop
  endfacet
  facet normal  0.000000e+00  1.000000e+00  0.000000e+00
    outer loop
      vertex   1.644381e+00  5.700000e+00 -1.535745e+00
      vertex   2.120087e+00  5.700000e+00  7.534791e-01
      vertex   1.997742e+00  5.700000e+00 -1.035146e+00
    endloop
  endfacet
  facet normal  0.000000e+00  1.000000e+00  0.000000e+00
    outer loop
      vertex   1.997742e+00  5.700000e+00 -1.035146e+00
      vertex   2.120087e+00  5.700000e+00  7.534791e-01
      vertex   2.202939e+00  5.700000e+00 -4.577760e-01
    endloop
  endfacet
  facet normal  8.622090e-01 -3.901129e-03 -5.065375e-01
    outer loop
      vertex  -9.418570e-01  9.698128e+00  7.732504e-01
      vertex  -1.107005e+00  8.699861e+00  4.998308e-01
      vertex  -1.102387e+00  9.701736e+00  4.999738e-01
    endloop
  endfacet
  facet normal -1.557123e-04 -4.524703e-06 -1.000000e+00
    outer loop
      vertex  -1.107005e+00  8.699861e+00  4.998308e-01
      vertex  -2.193741e+00  8.700001e+00  5.000000e-01
      vertex  -2.182318e+00  9.670326e+00  4.999938e-01
    endloop
  endfacet
  facet normal -2.267320e-05  1.428878e-04 -1.000000e+00
    outer loop
      vertex  -1.102387e+00  9.701736e+00  4.999738e-01
      vertex  -1.107005e+00  8.699861e+00  4.998308e-01
      vertex  -2.182318e+00  9.670326e+00  4.999938e-01
    endloop
  endfacet
  facet normal  0.000000e+00 -1.592225e-05  1.000000e+00
    outer loop
      vertex  -2.176814e+00  9.693895e+00 -4.999842e-01
      vertex  -2.193741e+00  8.700001e+00 -5.000000e-01
      vertex  -1.090871e+00  8.700001e+00 -5.000000e-01
    endloop
  endfacet
  facet normal  9.542628e-05  8.834181e-05  1.000000e+00
    outer loop
      vertex  -1.090871e+00  8.700001e+00 -5.000000e-01
      vertex  -1.158157e+00  9.699727e+00 -5.000819e-01
      vertex  -2.176814e+00  9.693895e+00 -4.999842e-01
    endloop
  endfacet
  facet normal  0.000000e+00  1.000000e+00  0.000000e+00
    outer loop
      vertex  -1.194881e+00  8.700001e+00 -1.107220e-01
      vertex  -1.090871e+00  8.700001e+00 -5.000000e-01
      vertex  -2.193741e+00  8.700001e+00 -5.000000e-01
    endloop
  endfacet
  facet normal  0.000000e+00  1.000000e+00 -0.000000e+00
    outer loop
      vertex  -2.193741e+00  8.700001e+00 -5.000000e-01
      vertex  -2.202939e+00  8.700001e+00 -4.577760e-01
      vertex  -1.194881e+00  8.700001e+00 -1.107220e-01
    endloop
  endfacet
  facet normal  0.000000e+00  1.000000e+00  0.000000e+00
    outer loop
      vertex  -1.194881e+00  8.700001e+00 -1.107220e-01
      vertex  -2.202939e+00  8.700001e+00 -4.577760e-01
      vertex  -2.244755e+00  8.700001e+00  1.535454e-01
    endloop
  endfacet
  facet normal  5.577567e-05  9.999999e-01  2.215840e-04
    outer loop
      vertex  -1.194881e+00  8.700001e+00 -1.107220e-01
      vertex  -2.244755e+00  8.700001e+00  1.535454e-01
      vertex  -1.107005e+00  8.699861e+00  4.998308e-01
    endloop
  endfacet
  facet normal  1.289981e-04  1.000000e+00 -1.899442e-05
    outer loop
      vertex  -1.107005e+00  8.699861e+00  4.998308e-01
      vertex  -2.244755e+00  8.700001e+00  1.535454e-01
      vertex  -2.193741e+00  8.700001e+00  5.000000e-01
    endloop
  endfacet
endsolid vcg
